<svg width="149" height="250" viewBox="0 0 149 250" fill="none" xmlns="http://www.w3.org/2000/svg">
<rect y="12.4603" width="139" height="234" rx="15" fill="#D9D9D9"/>
<path d="M14.2109 5.31458L31.3477 17.067L14.2104 30.4744L4.18218 17.0671L14.2109 5.31458Z" fill="#D9D9D9"/>
<path d="M131.5 244.46L114 232.801L132.57 221.46L146 231.96L131.5 244.46Z" fill="#D9D9D9"/>
<rect x="10" y="0.460327" width="139" height="237" rx="15" fill="#EBEBEB"/>
<rect x="19" y="9.46033" width="121" height="219" rx="12" fill="white"/>
<path d="M118.333 112.76C116.933 112.76 115.693 112.46 114.613 111.86C113.553 111.26 112.733 110.42 112.153 109.34C111.573 108.26 111.283 107 111.283 105.56C111.283 104.1 111.573 102.83 112.153 101.75C112.753 100.67 113.593 99.8404 114.673 99.2604C115.753 98.6604 117.023 98.3604 118.483 98.3604C119.943 98.3604 121.183 98.6404 122.203 99.2004C123.243 99.7604 124.033 100.57 124.573 101.63C125.113 102.67 125.383 103.93 125.383 105.41C125.383 105.57 125.373 105.74 125.353 105.92C125.353 106.1 125.353 106.23 125.353 106.31H113.233V104.06H122.563L121.573 105.44C121.633 105.32 121.693 105.16 121.753 104.96C121.833 104.76 121.873 104.59 121.873 104.45C121.873 103.71 121.723 103.07 121.423 102.53C121.143 101.99 120.743 101.57 120.223 101.27C119.723 100.97 119.133 100.82 118.453 100.82C117.633 100.82 116.933 101 116.353 101.36C115.793 101.72 115.353 102.24 115.033 102.92C114.733 103.6 114.583 104.44 114.583 105.44C114.563 106.42 114.703 107.26 115.003 107.96C115.323 108.66 115.773 109.19 116.353 109.55C116.933 109.91 117.643 110.09 118.483 110.09C119.383 110.09 120.163 109.91 120.823 109.55C121.483 109.19 122.023 108.64 122.443 107.9L125.263 109.01C124.523 110.25 123.583 111.19 122.443 111.83C121.303 112.45 119.933 112.76 118.333 112.76Z" fill="#585858"/>
<path d="M104.95 89.0603H108.22V112.46H104.95V89.0603Z" fill="#585858"/>
<path d="M96.832 93.1703C96.832 92.6103 97.032 92.1403 97.432 91.7603C97.852 91.3803 98.332 91.1903 98.872 91.1903C99.452 91.1903 99.942 91.3803 100.342 91.7603C100.742 92.1403 100.942 92.6103 100.942 93.1703C100.942 93.7103 100.742 94.1803 100.342 94.5803C99.942 94.9603 99.452 95.1503 98.872 95.1503C98.332 95.1503 97.852 94.9603 97.432 94.5803C97.032 94.1803 96.832 93.7103 96.832 93.1703ZM97.282 98.6603H100.492V112.46H97.282V98.6603Z" fill="#585858"/>
<path d="M82.436 89.0603V112.46H79.166V89.0603H82.436ZM93.866 105.56C93.866 107.06 93.556 108.35 92.936 109.43C92.316 110.51 91.496 111.34 90.476 111.92C89.456 112.48 88.346 112.76 87.146 112.76C86.006 112.76 84.996 112.47 84.116 111.89C83.236 111.31 82.536 110.48 82.016 109.4C81.516 108.32 81.266 107.04 81.266 105.56C81.266 104.06 81.516 102.78 82.016 101.72C82.536 100.64 83.236 99.8103 84.116 99.2303C84.996 98.6503 86.006 98.3603 87.146 98.3603C88.346 98.3603 89.456 98.6503 90.476 99.2303C91.496 99.7903 92.316 100.61 92.936 101.69C93.556 102.75 93.866 104.04 93.866 105.56ZM90.506 105.56C90.506 104.64 90.316 103.85 89.936 103.19C89.556 102.53 89.056 102.03 88.436 101.69C87.816 101.35 87.126 101.18 86.366 101.18C85.726 101.18 85.106 101.35 84.506 101.69C83.906 102.03 83.406 102.53 83.006 103.19C82.626 103.83 82.436 104.62 82.436 105.56C82.436 106.5 82.626 107.3 83.006 107.96C83.406 108.6 83.906 109.09 84.506 109.43C85.106 109.77 85.726 109.94 86.366 109.94C87.126 109.94 87.816 109.77 88.436 109.43C89.056 109.09 89.556 108.59 89.936 107.93C90.316 107.27 90.506 106.48 90.506 105.56Z" fill="#585858"/>
<path d="M61.3027 105.56C61.3027 104.14 61.6227 102.89 62.2627 101.81C62.9227 100.73 63.8127 99.8904 64.9327 99.2904C66.0727 98.6704 67.3427 98.3604 68.7427 98.3604C70.1627 98.3604 71.4327 98.6704 72.5527 99.2904C73.6727 99.8904 74.5527 100.73 75.1927 101.81C75.8527 102.89 76.1827 104.14 76.1827 105.56C76.1827 106.96 75.8527 108.21 75.1927 109.31C74.5527 110.39 73.6727 111.24 72.5527 111.86C71.4327 112.46 70.1627 112.76 68.7427 112.76C67.3427 112.76 66.0727 112.46 64.9327 111.86C63.8127 111.24 62.9227 110.39 62.2627 109.31C61.6227 108.21 61.3027 106.96 61.3027 105.56ZM64.6327 105.56C64.6327 106.42 64.8127 107.18 65.1727 107.84C65.5327 108.48 66.0227 108.99 66.6427 109.37C67.2627 109.73 67.9627 109.91 68.7427 109.91C69.5227 109.91 70.2227 109.73 70.8427 109.37C71.4627 108.99 71.9527 108.48 72.3127 107.84C72.6727 107.18 72.8527 106.42 72.8527 105.56C72.8527 104.7 72.6727 103.94 72.3127 103.28C71.9527 102.62 71.4627 102.11 70.8427 101.75C70.2227 101.39 69.5227 101.21 68.7427 101.21C67.9627 101.21 67.2627 101.39 66.6427 101.75C66.0227 102.11 65.5327 102.62 65.1727 103.28C64.8127 103.94 64.6327 104.7 64.6327 105.56Z" fill="#585858"/>
<path d="M41.2396 99.6803L39.7996 112.46H36.1396L39.0196 90.4103L47.6296 104.66L56.2697 90.4103L59.1497 112.46H55.4897L54.0497 99.6803L47.6296 110.51L41.2396 99.6803Z" fill="#585858"/>
</svg>
