<svg width="350" height="321" viewBox="0 0 350 321" fill="none" xmlns="http://www.w3.org/2000/svg">
<rect x="117" y="113.46" width="116" height="203" fill="#B6B6B6"/>
<rect x="125" y="113.46" width="116" height="203" fill="#CBCBCB"/>
<rect x="91" y="312.46" width="116" height="8" fill="#B6B6B6"/>
<rect x="100" y="312.46" width="166" height="8" fill="#CBCBCB"/>
<rect x="5" y="19.4603" width="332" height="259" rx="15" fill="#D9D9D9"/>
<path d="M20 12.4604L48.6888 17.4611L8.89882 39.4753L7.00039 26.4612L20 12.4604Z" fill="#D9D9D9"/>
<path d="M330.5 275.96L313.001 265.922L331.57 254.582L343 266.96L330.5 275.96Z" fill="#D9D9D9"/>
<rect x="16" y="7.46033" width="334" height="262" rx="15" fill="#EBEBEB"/>
<rect x="26" y="17.4603" width="314" height="242" rx="12" fill="white"/>
<path d="M184.781 133.96C184.781 135.44 185.111 136.74 185.771 137.86C186.451 138.96 187.331 139.82 188.411 140.44C189.491 141.06 190.671 141.37 191.951 141.37C192.951 141.37 193.851 141.24 194.651 140.98C195.471 140.72 196.201 140.37 196.841 139.93C197.481 139.47 198.041 138.95 198.521 138.37V142.6C197.661 143.32 196.711 143.87 195.671 144.25C194.651 144.63 193.371 144.82 191.831 144.82C190.291 144.82 188.851 144.56 187.511 144.04C186.191 143.52 185.041 142.77 184.061 141.79C183.081 140.81 182.311 139.66 181.751 138.34C181.211 137 180.941 135.54 180.941 133.96C180.941 132.36 181.211 130.9 181.751 129.58C182.311 128.24 183.081 127.09 184.061 126.13C185.041 125.15 186.191 124.4 187.511 123.88C188.851 123.34 190.291 123.07 191.831 123.07C193.371 123.07 194.651 123.26 195.671 123.64C196.711 124.02 197.661 124.58 198.521 125.32V129.52C198.041 128.96 197.481 128.46 196.841 128.02C196.201 127.56 195.471 127.2 194.651 126.94C193.851 126.68 192.951 126.55 191.951 126.55C190.671 126.55 189.491 126.86 188.411 127.48C187.331 128.08 186.451 128.94 185.771 130.06C185.111 131.16 184.781 132.46 184.781 133.96Z" fill="#585858"/>
<path d="M164.797 123.46H168.337V144.46H164.797V123.46ZM166.897 126.58V123.46H171.127C172.667 123.46 173.997 123.73 175.117 124.27C176.237 124.79 177.107 125.54 177.727 126.52C178.367 127.48 178.687 128.63 178.687 129.97C178.687 131.31 178.367 132.47 177.727 133.45C177.107 134.43 176.237 135.19 175.117 135.73C173.997 136.25 172.667 136.51 171.127 136.51H166.897V133.39H171.127C172.347 133.39 173.327 133.1 174.067 132.52C174.807 131.94 175.177 131.09 175.177 129.97C175.177 128.85 174.807 128.01 174.067 127.45C173.327 126.87 172.347 126.58 171.127 126.58H166.897Z" fill="#585858"/>
</svg>
