<svg width="327" height="486" viewBox="0 0 327 486" fill="none" xmlns="http://www.w3.org/2000/svg">
<rect x="105" y="282.46" width="116" height="203" fill="#B6B6B6"/>
<rect x="114" y="282.46" width="116" height="203" fill="#CBCBCB"/>
<rect x="80" y="477.46" width="116" height="8" fill="#B6B6B6"/>
<rect x="90" y="477.46" width="166" height="8" fill="#CBCBCB"/>
<rect x="8" y="21.4603" width="308" height="398" rx="15" fill="#D9D9D9"/>
<path d="M20.4998 11.9601L48.6831 16.4835L8.89309 38.4977L9.99817 28.9584L20.4998 11.9601Z" fill="#D9D9D9"/>
<path d="M308.5 417.46L280 415.937L322.467 399.676L318.5 410.46L308.5 417.46Z" fill="#D9D9D9"/>
<rect x="17" y="6.46033" width="309" height="406" rx="15" fill="#EBEBEB"/>
<rect x="28" y="16.4603" width="287" height="380" rx="12" fill="white"/>
<path d="M192.133 187.06H195.313V210.46H192.133V187.06ZM200.383 196.66H204.373L198.403 202.36L204.973 210.46H201.013L194.443 202.36L200.383 196.66Z" fill="#585858"/>
<path d="M180.169 205.9C180.629 206.4 181.079 206.82 181.519 207.16C181.959 207.5 182.409 207.76 182.869 207.94C183.329 208.12 183.789 208.21 184.249 208.21C184.829 208.21 185.279 208.08 185.599 207.82C185.939 207.56 186.109 207.2 186.109 206.74C186.109 206.34 185.979 206 185.719 205.72C185.459 205.42 185.099 205.17 184.639 204.97C184.179 204.75 183.639 204.53 183.019 204.31C182.399 204.07 181.779 203.79 181.159 203.47C180.559 203.13 180.059 202.69 179.659 202.15C179.279 201.61 179.089 200.93 179.089 200.11C179.089 199.27 179.299 198.57 179.719 198.01C180.159 197.45 180.739 197.04 181.459 196.78C182.199 196.5 182.989 196.36 183.829 196.36C184.589 196.36 185.299 196.47 185.959 196.69C186.639 196.91 187.249 197.2 187.789 197.56C188.329 197.92 188.789 198.33 189.169 198.79L187.369 200.71C186.929 200.17 186.389 199.73 185.749 199.39C185.109 199.05 184.449 198.88 183.769 198.88C183.289 198.88 182.899 198.98 182.599 199.18C182.299 199.38 182.149 199.67 182.149 200.05C182.149 200.37 182.279 200.66 182.539 200.92C182.819 201.16 183.179 201.38 183.619 201.58C184.079 201.78 184.589 201.99 185.149 202.21C185.929 202.51 186.639 202.84 187.279 203.2C187.919 203.56 188.429 204 188.809 204.52C189.189 205.04 189.379 205.72 189.379 206.56C189.379 207.86 188.929 208.91 188.029 209.71C187.149 210.49 185.959 210.88 184.459 210.88C183.499 210.88 182.629 210.74 181.849 210.46C181.069 210.16 180.379 209.78 179.779 209.32C179.179 208.84 178.679 208.34 178.279 207.82L180.169 205.9Z" fill="#585858"/>
<path d="M161.555 203.56C161.555 202.14 161.875 200.89 162.515 199.81C163.175 198.73 164.065 197.89 165.185 197.29C166.325 196.67 167.595 196.36 168.995 196.36C170.415 196.36 171.685 196.67 172.805 197.29C173.925 197.89 174.805 198.73 175.445 199.81C176.105 200.89 176.435 202.14 176.435 203.56C176.435 204.96 176.105 206.21 175.445 207.31C174.805 208.39 173.925 209.24 172.805 209.86C171.685 210.46 170.415 210.76 168.995 210.76C167.595 210.76 166.325 210.46 165.185 209.86C164.065 209.24 163.175 208.39 162.515 207.31C161.875 206.21 161.555 204.96 161.555 203.56ZM164.885 203.56C164.885 204.42 165.065 205.18 165.425 205.84C165.785 206.48 166.275 206.99 166.895 207.37C167.515 207.73 168.215 207.91 168.995 207.91C169.775 207.91 170.475 207.73 171.095 207.37C171.715 206.99 172.205 206.48 172.565 205.84C172.925 205.18 173.105 204.42 173.105 203.56C173.105 202.7 172.925 201.94 172.565 201.28C172.205 200.62 171.715 200.11 171.095 199.75C170.475 199.39 169.775 199.21 168.995 199.21C168.215 199.21 167.515 199.39 166.895 199.75C166.275 200.11 165.785 200.62 165.425 201.28C165.065 201.94 164.885 202.7 164.885 203.56Z" fill="#585858"/>
<path d="M154.486 191.17C154.486 190.61 154.686 190.14 155.086 189.76C155.506 189.38 155.986 189.19 156.526 189.19C157.106 189.19 157.596 189.38 157.996 189.76C158.396 190.14 158.596 190.61 158.596 191.17C158.596 191.71 158.396 192.18 157.996 192.58C157.596 192.96 157.106 193.15 156.526 193.15C155.986 193.15 155.506 192.96 155.086 192.58C154.686 192.18 154.486 191.71 154.486 191.17ZM154.936 196.66H158.146V210.46H154.936V196.66Z" fill="#585858"/>
<path d="M136.303 189.46H139.933V210.46H136.303V189.46ZM147.733 189.46H152.023L143.143 199.3L152.473 210.46H148.093L138.883 199.39L147.733 189.46Z" fill="#585858"/>
</svg>
