<?xml version="1.0" encoding="UTF-8"?>
<svg id="Layer_1" xmlns="http://www.w3.org/2000/svg" version="1.1" viewBox="0 0 612 792">
  <!-- Generator: Adobe Illustrator 29.0.1, SVG Export Plug-In . SVG Version: 2.1.0 Build 192)  -->
  <defs>
    <style>
      .st0 {
        fill: #cf2c1e;
      }

      .st1 {
        fill: #f0ab17;
      }

      .st2 {
        fill: #194b98;
      }
    </style>
  </defs>
  <path class="st2" d="M451.69,451.24c-25.33,56.9-73.93,96.5-137.63,97.39-46.38.66-87.31-15.23-116.87-42.93l-17.88,7.64.03-27.68c-19.48-26.29-30.77-59.51-30.77-97.27,0-96.7,74.07-172.93,177.36-172.93,16.87,0,32.1,2.63,43.6,5.23-17.7-5.67-35.29-8.74-54.88-8.74-110.86,0-185.47,89.9-185.47,182.6,0,101.03,79.26,185.65,183.27,185.65s152.96-70.05,170.11-112.18l-30.87-16.77Z"/>
  <path class="st0" d="M425.97,431.27c14.58-1.67,24.67-7.52,30.21-12.96,5.04-4.95,6.22-11.78,6.23-16.85.2-7.45,0-30.96,0-30.96l-38.58,8.35s0,2.91-.02,9c.07,5.97,2.95,9.21,9.19,8.06,1.96-.32,4.98-1.28,4.98-1.28l.05,7.37c-.03-.21.57,4.11-9.16,6.04-12.72,2-18.5-5.83-18.66-19.67.26-14.83,8.64-23.38,18.8-25.72,11.45-2.62,17.92.1,21.74.68,12.77,1.92,16.39-17.24,4.77-21.73-8.59-3.46-19.75-4.09-30.37-1.97-14.19,2.83-42.1,14.71-42.17,53.3.07,30.66,22.68,40.65,42.98,38.34"/>
  <path class="st0" d="M300.57,464.12s11.83-4.06,12.86-4.42c9.51-3.28,12.98-8.95,12.93-18.74-.11-10.62-.13-31.36-.13-31.36l27.53,31.7c4.47,4.63,10.07,5.02,15.2,3.52,5.31-1.55,9.73-6.41,9.86-13.25.04-22.9-.02-78.79-.02-78.79,0,0-7.11,1.51-13.01,3.18-6.8,1.93-12.02,6.26-12.02,17.69,0,4.04-.01,27.28-.01,27.28,0,0-15.49-19.42-25.63-29.56-5.41-5.41-14.37-2.18-14.37-2.18l-13.21,3.99.02,90.93Z"/>
  <path class="st0" d="M292.23,375.25s-8.29,2.43-15.03,4.87c-8.77,3.17-13.81,8.24-13.81,21.5,0,12.18-.03,75.56-.03,75.56,0,0,7.68-2.63,14.84-5.32,10.16-3.83,13.99-9.07,13.99-19.75,0-9.17.04-76.85.04-76.85"/>
  <path class="st0" d="M251.09,393.23c-7.61-3.45-14.14.4-16.91,4.66l-23.39,39.77-.04-32.07-27.57,11.42-.08,90.69,19.42-8.14s3.82-1.08,6.11-4.7c2.11-3.33,2.03-8.92,2.03-8.92l.03-28.74,21.7,23.03c4.76,4.94,13.52,7.48,21.25,1.25,6.98-5.64,5.9-15.26,2-19.58l-19.77-19.9s17.4-27.43,20.25-32.02c3.77-6.07,1.87-13.61-5.04-16.75"/>
  <path class="st0" d="M196.49,380.98c-.07-5.01-3.95-7.73-10.66-4.36l-.02,16.07s2.17-.97,3.76-1.7c3.93-1.82,7.01-5.1,6.92-10.01M185.7,366.45c1.19-.47,2.07-.86,3.08-1.35,3.64-1.77,6.23-5.05,6.26-9.31.03-4.84-3.96-6.1-9.33-3.32v13.98ZM214.12,378.68c.21,12.68-8.92,19.43-20.82,24.35l-24.38,10.36-.06-66.04s15.37-6.27,20.38-8.09c14.24-5.18,22.61,1.06,22.61,10.58,0,6.35-2.71,11.75-8.61,16.49,5.8.97,10.77,5.74,10.88,12.34"/>
  <path class="st0" d="M260.41,357.43c-.16,18.16-8.6,25.23-21.23,28.96-14.33,4.24-23.73-2.57-23.66-16.21.06-11.62,0-40.69,0-40.69,0,0,3.11-1.25,8.3-2.98,4.61-1.53,8.49.14,8.49,5.73l.06,33.61c0,4.08,1.84,6.66,5.7,5.69,5.04-1.27,5.67-6.38,5.72-10.47l.02-41.06s4.36-1.7,8.11-2.78c4.62-1.33,8.45.16,8.45,5.71l.02,34.49Z"/>
  <path class="st0" d="M365.34,346.9l.14-60.2c10.36-2.36,26.97-5.7,35.71-7.23,0,0-.04,4.64-.04,6.99,0,3.6-1.26,6.22-5.08,7.03-4.91,1.03-14.02,2.93-14.02,2.93v9.22s17.53-3.71,17.53-3.71c0,0,.03,3.11.03,6.72,0,3.87-1.77,5.71-5.15,6.45-2.7.59-12.39,2.65-12.39,2.65l-.04,11.63,19.77-4.32s-.01,3.04-.01,7.05c0,4.45-2.27,7.02-5.91,7.81-10.84,2.35-30.53,6.99-30.53,6.99"/>
  <path class="st0" d="M281.61,337.47s9.79-5.05,9.67-13.06c-.1-6.84-6.39-5.35-9.66-4.15v17.2ZM281.64,346.76s-.04,11.54-.05,16.19c-.04,4.35-3.03,7.51-6.79,8.95,0,.14,0-.14,0,0-3.15,1.08-9.85,3.38-9.85,3.38l.02-61.99s13.83-4.81,21.97-6.71c12.63-2.94,21.62,2.82,21.45,13.03-.07,9.71-5.49,15.62-10.36,19.65l10.71,10.28c3.29,3.18,3.52,8.95-.18,12.42-2.19,2.07-8.06,4.2-12.65-.47l-14.26-14.73Z"/>
  <path class="st0" d="M421.58,304.14s9.66-3.67,9.54-11.39c-.1-6.53-6.52-5.35-9.56-4.67l.02,16.06ZM405.42,338.1l.02-59.45s17.35-3.07,21.84-3.64c12.44-1.6,20.78,5.31,20.62,15.12-.07,8.62-5.49,13.82-10.09,16.93,0,0,8.46,9.54,10.73,12.06,3.04,3.4,2.91,9.21-1.59,12.05-4.43,2.8-8.82,1.33-11.37-1.48l-13.97-16.39s.05,10.07.03,14.48c-.04,4.38-2.58,7.58-7.11,8.52l-9.1,1.79Z"/>
  <path class="st0" d="M361.44,336.56c0,3.54-1.31,7.69-4.47,10.46-3.15,2.77-7.71,5.75-16.9,7.6-16.23,2.93-29.52-6.05-29.52-26.41s11.85-36.53,35.03-37.34c10.69-.37,15.67,3.11,15.54,8.72-.13,5.24-3.78,8.3-10.13,7.28-2.59-.34-5.94-.8-9.61.15-7.35,1.88-12.76,8.62-12.94,20.11.08,8.74,3.36,13.32,9.26,13.48,4.22.1,8.28-1.67,8.25-4.38l-.03-6.84s-1.63.37-3.65.79c-3.21.67-5.45-1.4-5.49-4.58.01-4.26.03-6.86.03-6.86l24.62-5.6v23.41Z"/>
  <path class="st1" d="M354.41,267.04c5.73-1.71,10.02-6.08,9.96-11.03-.09-7.83-17.58-19.06-46.74-21,28.62-2.3,59.87,10.4,59.62,21.35-.15,6.54-8.19,7.09-22.83,10.68M224.51,299.56c-.59,5.09-6.96,4.41-6.56-.4,1.01-12.07,19.34-40.6,46.49-52.59-16.66,10.18-34.2,30.96-39.93,52.99M402.47,259.64s-13.68-23.27-62.07-28.43c-25.91-2.76-61.19,2.49-85.92,15.82-44.8,24.14-51.51,63.91-51.51,63.91-.25.97-.68,3.94.33,5.2,1.02,1.28,2.52,1.27,4.36.65,15.82-5.35,62.95-20.98,92.69-28.86,42.33-11.23,77.1-18.06,99.41-21.86,1.58-.27,3.01-.79,3.6-2.25.86-2.11-.89-4.18-.89-4.18"/>
  <path class="st1" d="M418.26,459.3c-11.68,24.73-32.8,41.23-54.77,49.88,24.76-14.08,38.81-34.71,45.65-52.29,2.75-8.39,12.5-4.74,9.12,2.41M435.04,438.54c-1.16-1.21-2.83-1.24-5.14-.68-51.29,12.05-136.65,38.1-185.86,59.19-2.13.91-3.09,1.25-3.75,2.77-1.02,2.36,1.31,4.71,1.31,4.71,10.04,12.59,54.6,28.56,102.95,16.87,73.86-17.86,89.47-70.1,91.24-77.48.36-1.5.65-3.93-.76-5.37"/>
  <path class="st0" d="M464.72,447.18c0,5.38,4.3,9.4,9.43,9.4s9.38-4.01,9.38-9.4-4.28-9.3-9.38-9.3-9.43,4.02-9.43,9.3M466.42,447.18c0-4.48,3.36-7.94,7.73-7.94s7.68,3.45,7.68,7.94-3.35,8.03-7.68,8.03-7.73-3.45-7.73-8.03M470.22,452.79h2.18v-4.72h1.36l2.69,4.72h2.29l-2.94-4.82c1.62-.13,2.89-.92,2.89-2.94,0-2.4-1.55-3.27-4.31-3.27h-4.15v11.03ZM472.4,443.48h1.84c1,0,2.27.18,2.27,1.35,0,1.35-.92,1.53-2.17,1.53h-1.94v-2.89Z"/>
</svg>