<svg width="131" height="136" viewBox="0 0 131 136" fill="none" xmlns="http://www.w3.org/2000/svg">
<path d="M118.407 87.8534C109.107 108.744 91.2641 123.283 67.8772 123.609C50.8492 123.852 35.822 118.018 24.9693 107.848L18.4048 110.653L18.4158 100.49C11.2639 90.8383 7.11889 78.6418 7.11889 64.7785C7.11889 29.2759 34.3131 1.28867 72.2352 1.28867C78.4289 1.28867 84.0204 2.25425 88.2426 3.20882C81.7442 1.12713 75.2861 0 68.0938 0C27.3925 0 0 33.0061 0 67.0401C0 104.132 29.0997 135.2 67.2861 135.2C105.473 135.2 123.444 109.482 129.741 94.014L118.407 87.8571V87.8534Z" fill="#194B98"/>
<path d="M108.964 80.5216C114.317 79.9085 118.021 77.7607 120.055 75.7634C121.906 73.9461 122.339 71.4385 122.343 69.5771C122.416 66.8419 122.343 58.2104 122.343 58.2104L108.178 61.276C108.178 61.276 108.178 62.3444 108.171 64.5803C108.197 66.7721 109.254 67.9617 111.545 67.5394C112.265 67.422 113.373 67.0695 113.373 67.0695L113.392 69.7753C113.381 69.6982 113.601 71.2843 110.029 71.9929C105.359 72.7272 103.237 69.8524 103.178 64.7712C103.273 59.3265 106.35 56.1874 110.08 55.3283C114.284 54.3664 116.659 55.365 118.062 55.578C122.75 56.2829 124.079 49.2484 119.813 47.6C116.659 46.3297 112.562 46.0984 108.663 46.8767C103.453 47.9157 93.2064 52.2774 93.1807 66.4454C93.2064 77.7019 101.507 81.3697 108.96 80.5216" fill="#CF2C1E"/>
<path d="M62.9243 92.5822C62.9243 92.5822 67.2676 91.0916 67.6458 90.9594C71.1373 89.7552 72.4113 87.6735 72.3929 84.0792C72.3525 80.1801 72.3452 72.5656 72.3452 72.5656L82.4526 84.204C84.0937 85.9039 86.1497 86.047 88.0332 85.4963C89.9827 84.9273 91.6055 83.143 91.6532 80.6317C91.6679 72.2242 91.6458 51.7046 91.6458 51.7046C91.6458 51.7046 89.0355 52.259 86.8693 52.8721C84.3728 53.5807 82.4563 55.1704 82.4563 59.3668C82.4563 60.8501 82.4526 69.3825 82.4526 69.3825C82.4526 69.3825 76.7656 62.2526 73.0428 58.5298C71.0565 56.5435 67.7669 57.7294 67.7669 57.7294L62.917 59.1943L62.9243 92.5785V92.5822Z" fill="#CF2C1E"/>
<path d="M59.8631 59.9543C59.8631 59.9543 56.8195 60.8464 54.3449 61.7423C51.1251 62.9061 49.2747 64.7675 49.2747 69.6358C49.2747 74.1076 49.2637 97.3771 49.2637 97.3771C49.2637 97.3771 52.0833 96.4115 54.7121 95.4239C58.4422 94.0177 59.8484 92.0939 59.8484 88.1728C59.8484 84.8061 59.8631 59.958 59.8631 59.958" fill="#CF2C1E"/>
<path d="M44.7579 66.5555C41.9639 65.2888 39.5665 66.7023 38.5495 68.2664L29.9621 82.8676L29.9474 71.0934L19.8253 75.2861L19.7959 108.582L26.9258 105.594C26.9258 105.594 28.3283 105.197 29.169 103.868C29.9437 102.646 29.9143 100.593 29.9143 100.593L29.9253 90.0416L37.8923 98.4968C39.6399 100.311 42.8561 101.243 45.6941 98.9558C48.2567 96.8851 47.8602 93.3532 46.4284 91.7671L39.17 84.461C39.17 84.461 45.5582 74.3903 46.6046 72.7051C47.9887 70.4766 47.2912 67.7083 44.7542 66.5555" fill="#CF2C1E"/>
<path d="M24.7125 62.058C24.6868 60.2186 23.2623 59.22 20.7988 60.4573L20.7914 66.3573C20.7914 66.3573 21.5881 66.0011 22.1719 65.7331C23.6147 65.0649 24.7455 63.8607 24.7125 62.058ZM20.751 56.7235C21.1879 56.5509 21.511 56.4077 21.8818 56.2278C23.2182 55.578 24.1691 54.3737 24.1801 52.8097C24.1911 51.0328 22.7263 50.5702 20.7547 51.5908V56.7235H20.751ZM31.1852 61.2136C31.2623 65.869 27.9103 68.3472 23.5413 70.1535L14.5904 73.9571L14.5684 49.711C14.5684 49.711 20.2113 47.4091 22.0507 46.7409C27.2788 44.8391 30.3518 47.13 30.3518 50.6252C30.3518 52.9566 29.3568 54.9391 27.1907 56.6794C29.3201 57.0355 31.1448 58.7868 31.1852 61.2099" fill="#CF2C1E"/>
<path d="M48.1804 53.4118C48.1216 60.0791 45.0229 62.6748 40.3859 64.0442C35.1248 65.6009 31.6737 63.1007 31.6994 58.0929C31.7214 53.8267 31.6994 43.1539 31.6994 43.1539C31.6994 43.1539 32.8412 42.6949 34.7466 42.0598C36.4392 41.4981 37.8637 42.1112 37.8637 44.1635L37.8857 56.5031C37.8857 58.0011 38.5612 58.9483 39.9784 58.5922C41.8288 58.1259 42.0601 56.2498 42.0785 54.7482L42.0858 39.6734C42.0858 39.6734 43.6865 39.0492 45.0633 38.6527C46.7595 38.1644 48.1657 38.7114 48.1657 40.7491L48.173 53.4118H48.1804Z" fill="#CF2C1E"/>
<path d="M86.7041 49.5458L86.7555 27.4439C90.5591 26.5774 96.6573 25.3512 99.8661 24.7894C99.8661 24.7894 99.8515 26.493 99.8515 27.3557C99.8515 28.6775 99.3889 29.6394 97.9864 29.9368C96.1837 30.3149 92.839 31.0125 92.839 31.0125V34.3975L99.275 33.0354C99.275 33.0354 99.2861 34.1772 99.2861 35.5026C99.2861 36.9235 98.6362 37.599 97.3953 37.8707C96.404 38.0873 92.8464 38.8436 92.8464 38.8436L92.8317 43.1135L100.09 41.5274C100.09 41.5274 100.086 42.6435 100.086 44.1158C100.086 45.7496 99.253 46.6931 97.9166 46.9832C93.9368 47.8459 86.7078 49.5495 86.7078 49.5495" fill="#CF2C1E"/>
<path d="M55.9633 46.0837C55.9633 46.0837 59.5576 44.2296 59.5135 41.2888C59.4768 38.7776 57.1675 39.3246 55.9669 39.7652V46.08L55.9633 46.0837ZM55.9743 49.4944C55.9743 49.4944 55.9596 53.7313 55.9559 55.4385C55.9412 57.0355 54.8435 58.1957 53.463 58.7244C53.463 58.7758 53.463 58.673 53.463 58.7244C52.3065 59.1209 49.8467 59.9653 49.8467 59.9653L49.854 37.2062C49.854 37.2062 54.9316 35.4402 57.9201 34.7427C62.5571 33.6633 65.8577 35.778 65.7953 39.5265C65.7696 43.0915 63.7797 45.2613 61.9917 46.7409L65.9238 50.5151C67.1317 51.6826 67.2162 53.801 65.8577 55.075C65.0537 55.835 62.8986 56.617 61.2134 54.9024L55.9779 49.4944H55.9743Z" fill="#CF2C1E"/>
<path d="M107.352 33.8469C107.352 33.8469 110.899 32.4994 110.854 29.6651C110.818 27.2677 108.461 27.7009 107.345 27.9505L107.352 33.8469ZM101.419 46.315L101.426 24.4884C101.426 24.4884 107.796 23.3613 109.445 23.152C114.012 22.5646 117.074 25.1015 117.015 28.7032C116.989 31.868 115 33.7771 113.311 34.9189C113.311 34.9189 116.417 38.4214 117.25 39.3466C118.366 40.5949 118.318 42.728 116.666 43.7707C115.04 44.7987 113.428 44.259 112.492 43.2273L107.363 37.2099C107.363 37.2099 107.381 40.907 107.374 42.5261C107.359 44.1342 106.427 45.309 104.764 45.6541L101.423 46.3113L101.419 46.315Z" fill="#CF2C1E"/>
<path d="M85.2727 45.7495C85.2727 47.0492 84.7918 48.5729 83.6316 49.5898C82.4751 50.6068 80.8009 51.7009 77.4269 52.3801C71.4682 53.4559 66.5889 50.1589 66.5889 42.6839C66.5889 35.2089 70.9395 29.2722 79.4498 28.9748C83.3746 28.839 85.203 30.1166 85.1552 32.1763C85.1075 34.1001 83.7674 35.2236 81.4361 34.8491C80.4852 34.7243 79.2553 34.5554 77.9079 34.9042C75.2094 35.5944 73.2231 38.0689 73.157 42.2874C73.1864 45.4962 74.3906 47.1777 76.5568 47.2365C78.1061 47.2732 79.5967 46.6233 79.5857 45.6284L79.5747 43.1171C79.5747 43.1171 78.9762 43.253 78.2346 43.4072C77.0561 43.6532 76.2337 42.8932 76.219 41.7257C76.2227 40.1616 76.23 39.2071 76.23 39.2071L85.269 37.1511V45.7459L85.2727 45.7495Z" fill="#CF2C1E"/>
<path d="M82.6917 20.2258C84.7954 19.598 86.3704 17.9936 86.3484 16.1762C86.3153 13.3015 79.894 9.17851 69.1882 8.46626C79.6958 7.62183 91.169 12.2845 91.0772 16.3047C91.0221 18.7058 88.0703 18.9078 82.6953 20.2258M34.9999 32.1653C34.7833 34.034 32.4446 33.7844 32.5915 32.0184C32.9623 27.587 39.692 17.1125 49.6599 12.7104C43.5433 16.4479 37.1036 24.0771 34.9999 32.1653ZM100.336 17.509C100.336 17.509 95.314 8.96558 77.548 7.07112C68.0353 6.05781 55.0826 7.9853 46.0032 12.8793C29.5552 21.7421 27.0917 36.3433 27.0917 36.3433C26.9999 36.6995 26.842 37.7899 27.2128 38.2525C27.5873 38.7224 28.138 38.7188 28.8136 38.4911C34.6218 36.5269 51.9252 30.7885 62.844 27.8954C78.3851 23.7724 91.1506 21.2648 99.3415 19.8697C99.9216 19.7706 100.447 19.5796 100.663 19.0436C100.979 18.269 100.336 17.509 100.336 17.509Z" fill="#F0AB17"/>
<path d="M106.133 90.8125C101.845 99.892 94.0911 105.95 86.025 109.126C95.1154 103.956 100.274 96.3821 102.785 89.9277C103.795 86.8474 107.374 88.1875 106.133 90.8125ZM112.294 83.1907C111.868 82.7464 111.255 82.7354 110.407 82.941C91.5761 87.3651 60.2369 96.9291 42.1699 104.672C41.3878 105.006 41.0354 105.131 40.7931 105.689C40.4186 106.556 41.274 107.418 41.274 107.418C44.9601 112.041 61.32 117.904 79.0713 113.612C106.188 107.055 111.919 87.8754 112.569 85.1659C112.701 84.6152 112.808 83.723 112.29 83.1944" fill="#F0AB17"/>
<path d="M123.19 86.3628C123.19 88.338 124.769 89.8139 126.653 89.8139C128.536 89.8139 130.096 88.3417 130.096 86.3628C130.096 84.3839 128.525 82.9484 126.653 82.9484C124.78 82.9484 123.19 84.4243 123.19 86.3628ZM123.815 86.3628C123.815 84.718 125.048 83.4477 126.653 83.4477C128.257 83.4477 129.472 84.7143 129.472 86.3628C129.472 88.0112 128.242 89.3109 126.653 89.3109C125.063 89.3109 123.815 88.0443 123.815 86.3628ZM125.21 88.4225H126.01V86.6895H126.509L127.497 88.4225H128.338L127.258 86.6528C127.853 86.6051 128.319 86.3151 128.319 85.5734C128.319 84.6923 127.75 84.3729 126.737 84.3729H125.213V88.4225H125.21ZM126.01 85.0044H126.686C127.053 85.0044 127.519 85.0704 127.519 85.5C127.519 85.9956 127.181 86.0617 126.722 86.0617H126.01V85.0007V85.0044Z" fill="#CF2C1E"/>
</svg>
