<?xml version="1.0" encoding="UTF-8"?>
<svg id="Layer_1" xmlns="http://www.w3.org/2000/svg" version="1.1" viewBox="0 0 614 615">
  <!-- Generator: Adobe Illustrator 29.0.1, SVG Export Plug-In . SVG Version: 2.1.0 Build 192)  -->
  <defs>
    <style>
      .st0 {
        fill: #ce132d;
      }
    </style>
  </defs>
  <path class="st0" d="M123.22,412.41l-86.32-65.66c-1.81-1.5-1.24-4.38.98-5.11,16.53-5.43,62.99-28.28,22.39-106.08-.68-1.3-.32-2.65.54-3.5.86-.85,2.2-1.21,3.5-.54,19.07,9.95,34.84,14.66,47.86,15.88-7.35,1.45-5.81,6.18-4.21,10.86.94,2.74.45.99,2.18,5.43,2.15,5.48,2.99,8.8,12.34,7.46,7.36-1.06,41.59-4.32,67.77-7.08-6.82,14.6-14.47,30.39-30.14,64.59-9.07,19.79-19.66,46.28-36.38,82.63-.17.37-.34.74-.51,1.12M199.76,240.04l-24.26-31.9c-1.5-1.81-4.38-1.23-5.11.99-3.11,9.44-11.92,28.67-33.42,35.83,16.11-1.42,38.21-3.22,62.79-4.92M577.1,346.75l-76.43,58.14c.03-.22.07-.44.1-.67.39-2.93.86-8.26-1.91-16.63-2.21-6.67-7.01-15.56-8.65-19.13-4.92-10.71,2.32-17.85,8.73-23.27l1.48-1.24c3.09-2.52,4.43-3.3,4.21-6.07-.13-1.66-1.28-2.58-3.46-4.72-1.06-1.04-1.35-1.34-2.95-2.86-1.99-1.89-3.01-2.32-4.69-2.2-2.37.17-5.43,2.11-8.14,4.26-3.56,2.83-8.89,7.67-12.53,11.19-13.46,13.04-24.64,26.39-37.24,42.97-14.4,18.94-25.52,31.2-29.94,30.1-4.76-1.18-1.28-10.57.02-14.86,5.56-18.31,12.61-32.17,17.94-42.13,4.01-7.51,2.29-9.55-2.25-12.75-3.86-2.72-4.65-3.4-7.26-5.13-5.18-3.42-8.81-2.1-12.84,1.63-14.03,13.02-34.64,34.5-49.92,52.85,9.09-24.89,14.04-35.71,17.37-43.37,2.87-6.61,2.12-8.45-1.5-10.94-2.51-1.73-5.22-3.52-9.57-6.31-3.85-2.48-6.97-1.59-9.64.85-9.41,8.61-36.81,36.17-55.4,57.49,9.11-21.71,17.06-40.29,19.87-46.42,2.66-5.81,3.13-8.6-1.47-11.97-3.47-2.54-6.58-4.52-9.87-6.54-5.97-3.67-8.24-1.19-10.6,2.58-.87,1.41-2.22,3.7-3.96,6.53-26.01,44.34-47.18,68.89-55.6,71.74-3.62,1.22-5.34.37-6.18-.44-3.08-2.98-.34-11.44.89-14.85,4.44-12.26,13.11-31.79,22.02-50.51,3.4-7.14,2.35-9.19-2.47-12.67-3.03-2.18-5.83-3.9-9.45-6.14-5.4-3.34-8.65-1.6-11.66,4.76-7.21,15.22-25.53,53.68-28.87,74.77-2.52,15.89,4.26,22.91,13.27,24.95,6.78,1.53,14.53-.39,18.82-2.45,9.56-4.58,22.89-16.08,40.84-41.68-3.47,9.1-7.14,19.48-9.1,26.08-2.22,7.44-.94,9.37,3.46,12.22,2.01,1.31,2.94,1.95,5.8,3.74,2.93,1.83,7.43,3.72,11.39-1.05,5.27-6.35,33.66-41.47,56.02-62.93-5.12,13.78-12.76,34.66-16.36,47.93-1.6,5.9-.24,7.89,4.6,11.16l7.25,4.64c1.7,1.03,6.49,3.33,10.69-1.73,4.07-4.89,27.69-35.29,46.86-54.4-7.24,16.74-11.33,29.65-12.72,39.43-.46,3.28-2.5,19.85,14.8,22.83,21.55,3.72,38.66-21.24,58.05-46.54,4.67-6.1,9.64-12.51,14.53-18.26-.35,7.82,2.06,15.94,7.35,25.63,4.1,7.5,5.52,13.71,4.01,18.81-2.09,7.04-9,7.58-10.94,7.62-5.67.11-9.75-4.05-10.83-10.89-.88-5.59-1.59-7.05-4.28-7.2-.99-.05-2.16.44-3.57,1.53-.96.74-3.11,2.61-4.79,4.81-3.64,4.77-3.02,9.65-.72,13.69,4.28,7.52,12.78,10.67,23.08,11.01l-38.27,29.11,41.21,40.77c1.78,1.76.54,4.79-1.97,4.79h-73.27v31.31c0,.76-1.12,2.61-3.24,2.26-15.68-2.57-51.29-8.41-77.85,19.05-.42.44-1.34.86-2.38.86-1.1,0-1.96-.42-2.39-.86-26.56-27.46-62.17-21.62-77.85-19.05-2.11.35-3.24-1.5-3.24-2.26v-31.31h-73.26c-2.5,0-3.74-3.03-1.97-4.79l41.21-40.77-39.83-30.3s1.19-2.69,1.89-4.26c5.06-11.4,58.54-137.3,71.47-166.64,30.36-2.21,61.41-4.44,93.43-5.76,4.46-.18,7.82-2.58,5.81-7.43-2.01-4.84-2.26-4.76-4.22-8.99-2.1-4.56-4.52-4.73-10.81-4.6-28.18.54-59.51,2.1-88.75,3.95l-9.5-137.68c-.22-2.33,2.22-3.97,4.31-2.91,15.52,7.83,64.54,24.54,90.83-59.18.44-1.4,1.65-2.1,2.86-2.1s2.42.7,2.86,2.1c26.3,83.72,75.31,67.01,90.84,59.18,2.09-1.06,4.53.58,4.31,2.91l-11.47,166.14,44.96-59.12c1.5-1.81,4.38-1.23,5.11.99,5.44,16.52,28.29,62.98,106.08,22.39,1.3-.67,2.65-.32,3.51.54.85.86,1.22,2.21.54,3.5-40.6,77.8,5.86,100.64,22.39,106.08,2.23.73,2.79,3.61.99,5.11M272.41,293.37c-.64-8.65-7.25-14.93-15.72-14.93-.91,0-1.84.08-2.75.23-9.42,1.54-16.52,10.61-15.81,20.22.64,8.65,7.25,14.93,15.72,14.93.91,0,1.83-.08,2.75-.23,9.42-1.54,16.52-10.61,15.81-20.22M519.33,425.52c0-4.59-3.68-8.28-8.47-8.28s-8.51,3.69-8.51,8.28,3.78,8.37,8.51,8.37,8.47-3.68,8.47-8.37M517.22,425.62c0,3.63-2.67,6.56-6.3,6.56s-6.44-2.92-6.44-6.61,2.71-6.62,6.39-6.62,6.36,2.98,6.36,6.67M514.29,427.81c-.25-1.11-.7-1.72-1.51-2.02v-.1c1.01-.3,1.71-1.01,1.71-1.91,0-.81-.35-1.47-.81-1.82-.61-.35-1.31-.61-2.87-.61-1.36,0-2.42.11-3.18.26v8.28h1.91v-3.33h.91c1.06,0,1.56.4,1.71,1.32.25.96.4,1.72.66,2.02h2.07c-.21-.3-.36-.81-.61-2.07M512.43,423.98c0,.85-.86,1.2-1.92,1.2h-.9v-2.36c.2-.06.56-.1,1.06-.1,1.21,0,1.76.5,1.76,1.26"/>
</svg>