<svg width="502" height="832" viewBox="0 0 502 832" fill="none" xmlns="http://www.w3.org/2000/svg">
<rect x="27.5" y="0.5" width="448" height="831" fill="#F2F2F2" stroke="#C0C0C0"/>
<rect x="57.5" y="31.5" width="388" height="653" fill="white" stroke="#C0C0C0"/>
<rect x="57.5" y="156.5" width="388" height="408" fill="#FFFADA" stroke="#C0C0C0"/>
<line x1="1.5" y1="31.5" x2="500.5" y2="31.5" stroke="#B02418" stroke-width="3" stroke-linecap="round" stroke-linejoin="round" stroke-dasharray="0.1 5"/>
<line x1="1.5" y1="156.5" x2="500.5" y2="156.5" stroke="#B02418" stroke-width="3" stroke-linecap="round" stroke-linejoin="round" stroke-dasharray="0.1 5"/>
<line x1="1.5" y1="241.5" x2="500.5" y2="241.5" stroke="#B02418" stroke-width="3" stroke-linecap="round" stroke-linejoin="round" stroke-dasharray="0.1 5"/>
<line x1="1.5" y1="563.5" x2="500.5" y2="563.5" stroke="#B02418" stroke-width="3" stroke-linecap="round" stroke-linejoin="round" stroke-dasharray="0.1 5"/>
<path d="M306.192 98.2627V105.978H304.264V99.8008H291.593V98.2627H306.192ZM306.192 84.2734V97.0664H304.264V93.9414H298.673C297.66 95.1743 296.061 95.9067 294.181 95.8945C290.934 95.9189 288.541 93.7705 288.541 90.6943C288.541 87.667 290.934 85.5186 294.181 85.5186C296.048 85.5186 297.647 86.251 298.673 87.4717H304.264V84.2734H306.192ZM294.181 87.1543C291.959 87.1543 290.372 88.6436 290.372 90.6943C290.372 92.8184 291.959 94.2832 294.181 94.2832C296.305 94.2832 297.94 92.8184 297.94 90.6943C297.94 88.6436 296.305 87.1543 294.181 87.1543ZM299.527 92.3545H304.264V89.0586H299.527C299.698 89.5713 299.796 90.1084 299.796 90.6943C299.796 91.2803 299.698 91.8418 299.527 92.3545Z" fill="#B02418"/>
<path d="M272.573 85.5918C274.404 85.5796 275.967 86.2632 276.968 87.4229H282.656V84.2734H284.585V97.1396H282.656V94.0391H276.992C275.967 95.1987 274.404 95.8823 272.573 95.8701C269.326 95.8945 266.934 93.7705 266.934 90.7432C266.934 87.6914 269.326 85.5674 272.573 85.5918ZM272.573 87.252C270.352 87.2275 268.765 88.6924 268.765 90.7432C268.765 92.7695 270.352 94.2344 272.573 94.2344C274.722 94.2344 276.333 92.7695 276.333 90.7432C276.333 88.6924 274.722 87.2275 272.573 87.252ZM277.383 97.6523C281.875 97.6523 284.658 99.166 284.658 101.778C284.658 104.415 281.875 105.929 277.383 105.929C272.866 105.929 270.107 104.415 270.107 101.778C270.107 99.166 272.866 97.6523 277.383 97.6523ZM277.383 99.1416C274.062 99.1416 271.987 100.143 271.987 101.778C271.987 103.414 274.062 104.391 277.383 104.391C280.728 104.391 282.778 103.414 282.778 101.778C282.778 100.143 280.728 99.1416 277.383 99.1416ZM277.896 88.9854C278.079 89.5225 278.188 90.1084 278.188 90.7432C278.188 91.3535 278.079 91.9272 277.896 92.4521H282.656V88.9854H277.896Z" fill="#B02418"/>
<path d="M263.003 84.2734V106.026H261.074V93.0381H254.312V91.4512H261.074V84.2734H263.003ZM248.11 86.7148V99.1416C251.418 99.105 254.373 98.9341 257.632 98.2627L257.876 99.8496C254.409 100.558 251.357 100.753 247.842 100.753H246.182V86.7148H248.11Z" fill="#B02418"/>
<path d="M226.017 86.3486V91.6465H230.729V86.3486H232.511V100.558H224.186V86.3486H226.017ZM226.017 98.9707H230.729V93.209H226.017V98.9707ZM241.983 84.2734V105.978H240.128V94.4785H237.101V104.879H235.27V84.7373H237.101V92.8916H240.128V84.2734H241.983Z" fill="#B02418"/>
<path d="M210.993 104.146C210.138 104.146 209.406 103.438 209.43 102.56C209.406 101.705 210.138 100.997 210.993 100.997C211.847 100.997 212.555 101.705 212.555 102.56C212.555 103.438 211.847 104.146 210.993 104.146Z" fill="#B02418"/>
<path d="M202.595 86.3242V104H200.373V88.6191H200.275L195.979 91.4756V89.2539L200.373 86.3242H202.595Z" fill="#B02418"/>
<path d="M330.679 204.263V211.978H328.75V205.801H316.079V204.263H330.679ZM330.679 190.273V203.066H328.75V199.941H323.159C322.146 201.174 320.547 201.907 318.667 201.895C315.42 201.919 313.027 199.771 313.027 196.694C313.027 193.667 315.42 191.519 318.667 191.519C320.535 191.519 322.134 192.251 323.159 193.472H328.75V190.273H330.679ZM318.667 193.154C316.445 193.154 314.858 194.644 314.858 196.694C314.858 198.818 316.445 200.283 318.667 200.283C320.791 200.283 322.427 198.818 322.427 196.694C322.427 194.644 320.791 193.154 318.667 193.154ZM324.014 198.354H328.75V195.059H324.014C324.185 195.571 324.282 196.108 324.282 196.694C324.282 197.28 324.185 197.842 324.014 198.354Z" fill="#B02418"/>
<path d="M297.062 191.592C298.893 191.58 300.455 192.263 301.456 193.423H307.145V190.273H309.073V203.14H307.145V200.039H301.48C300.455 201.199 298.893 201.882 297.062 201.87C293.814 201.895 291.422 199.771 291.422 196.743C291.422 193.691 293.814 191.567 297.062 191.592ZM297.062 193.252C294.84 193.228 293.253 194.692 293.253 196.743C293.253 198.77 294.84 200.234 297.062 200.234C299.21 200.234 300.821 198.77 300.821 196.743C300.821 194.692 299.21 193.228 297.062 193.252ZM301.871 203.652C306.363 203.652 309.146 205.166 309.146 207.778C309.146 210.415 306.363 211.929 301.871 211.929C297.354 211.929 294.596 210.415 294.596 207.778C294.596 205.166 297.354 203.652 301.871 203.652ZM301.871 205.142C298.551 205.142 296.476 206.143 296.476 207.778C296.476 209.414 298.551 210.391 301.871 210.391C305.216 210.391 307.267 209.414 307.267 207.778C307.267 206.143 305.216 205.142 301.871 205.142ZM302.384 194.985C302.567 195.522 302.677 196.108 302.677 196.743C302.677 197.354 302.567 197.927 302.384 198.452H307.145V194.985H302.384Z" fill="#B02418"/>
<path d="M281.119 190.273V212.026H279.215V190.273H281.119ZM274.527 192.3V200.015H266.422V205.142C270.023 205.142 273.233 204.983 277.115 204.36L277.311 205.972C273.307 206.606 270.011 206.753 266.275 206.753H264.469V198.452H272.599V193.887H264.42V192.3H274.527Z" fill="#B02418"/>
<path d="M258.999 192.471V194.644C258.975 197.305 258.975 200.283 258.193 204.653L256.24 204.434C257.07 200.283 257.07 197.231 257.07 194.644V194.058H243.691V192.471H258.999ZM261.367 207.314V208.901H241.592V207.314H249.355V199.551H251.235V207.314H261.367Z" fill="#B02418"/>
<path d="M228.921 192.935V194.473H222.671V198.77H227.92V200.308H222.671V205.19C225.784 205.154 227.688 205.044 230.044 204.604L230.215 206.167C227.7 206.68 225.649 206.729 222.207 206.753H220.84V192.935H228.921ZM238.564 190.273V211.978H236.709V190.273H238.564ZM234.121 190.811V210.854H232.29V200.112H229.092V198.525H232.29V190.811H234.121Z" fill="#B02418"/>
<path d="M209.635 192.544C209.61 198.818 207.486 204.556 199.674 208.389L198.6 206.924C202.689 204.946 205.143 202.432 206.461 199.502L199.015 200.21L198.697 198.525L207.047 197.964C207.425 196.743 207.645 195.461 207.73 194.131H199.796V192.544H209.635ZM215.177 190.273V199.111H218.692V200.723H215.177V211.978H213.272V190.273H215.177Z" fill="#B02418"/>
<path d="M185.993 210.146C185.138 210.146 184.406 209.438 184.43 208.56C184.406 207.705 185.138 206.997 185.993 206.997C186.847 206.997 187.555 207.705 187.555 208.56C187.555 209.438 186.847 210.146 185.993 210.146Z" fill="#B02418"/>
<path d="M169.636 210L169.611 208.389L175.642 202.041C177.741 199.819 178.742 198.623 178.742 196.987C178.742 195.181 177.204 193.984 175.227 193.984C173.127 193.984 171.784 195.327 171.784 197.305H169.709C169.685 194.18 172.102 192.08 175.3 192.08C178.498 192.08 180.793 194.229 180.793 196.987C180.793 198.965 179.865 200.503 176.74 203.726L172.688 207.9V208.047H181.11V210H169.636Z" fill="#B02418"/>
<path d="M307.466 403.263V410.978H305.537V404.801H292.866V403.263H307.466ZM307.466 389.273V402.066H305.537V398.941H299.946C298.933 400.174 297.334 400.907 295.454 400.895C292.207 400.919 289.814 398.771 289.814 395.694C289.814 392.667 292.207 390.519 295.454 390.519C297.322 390.519 298.921 391.251 299.946 392.472H305.537V389.273H307.466ZM295.454 392.154C293.232 392.154 291.646 393.644 291.646 395.694C291.646 397.818 293.232 399.283 295.454 399.283C297.578 399.283 299.214 397.818 299.214 395.694C299.214 393.644 297.578 392.154 295.454 392.154ZM300.801 397.354H305.537V394.059H300.801C300.972 394.571 301.069 395.108 301.069 395.694C301.069 396.28 300.972 396.842 300.801 397.354Z" fill="#B02418"/>
<path d="M273.847 390.592C275.678 390.58 277.24 391.263 278.241 392.423H283.93V389.273H285.858V402.14H283.93V399.039H278.266C277.24 400.199 275.678 400.882 273.847 400.87C270.6 400.895 268.207 398.771 268.207 395.743C268.207 392.691 270.6 390.567 273.847 390.592ZM273.847 392.252C271.625 392.228 270.038 393.692 270.038 395.743C270.038 397.77 271.625 399.234 273.847 399.234C275.995 399.234 277.606 397.77 277.606 395.743C277.606 393.692 275.995 392.228 273.847 392.252ZM278.656 402.652C283.148 402.652 285.932 404.166 285.932 406.778C285.932 409.415 283.148 410.929 278.656 410.929C274.14 410.929 271.381 409.415 271.381 406.778C271.381 404.166 274.14 402.652 278.656 402.652ZM278.656 404.142C275.336 404.142 273.261 405.143 273.261 406.778C273.261 408.414 275.336 409.391 278.656 409.391C282.001 409.391 284.052 408.414 284.052 406.778C284.052 405.143 282.001 404.142 278.656 404.142ZM279.169 393.985C279.352 394.522 279.462 395.108 279.462 395.743C279.462 396.354 279.352 396.927 279.169 397.452H283.93V393.985H279.169Z" fill="#B02418"/>
<path d="M257.44 396.622V398.209H242.499V390.396H244.452V396.622H257.44ZM259.76 401.358V402.945H254.608V410.978H252.704V402.945H247.064V410.978H245.16V402.945H239.984V401.358H259.76Z" fill="#B02418"/>
<path d="M227.484 391.812V397.477H230.78V389.737H232.611V409.879H230.78V399.063H227.484V405.143H219.184V391.812H227.484ZM220.99 393.351V403.604H225.678V393.351H220.99ZM236.981 389.273V410.978H235.126V389.273H236.981Z" fill="#B02418"/>
<path d="M205.993 409.146C205.138 409.146 204.406 408.438 204.43 407.56C204.406 406.705 205.138 405.997 205.993 405.997C206.847 405.997 207.555 406.705 207.555 407.56C207.555 408.438 206.847 409.146 205.993 409.146Z" fill="#B02418"/>
<path d="M195.348 409.244C191.832 409.244 189.317 407.364 189.195 404.557H191.417C191.539 406.241 193.224 407.291 195.323 407.291C197.643 407.291 199.352 406.021 199.352 404.19C199.352 402.262 197.813 400.895 195.055 400.895H193.614V398.966H195.055C197.203 398.966 198.692 397.77 198.692 395.938C198.692 394.181 197.398 392.984 195.396 392.984C193.517 392.984 191.783 394.034 191.686 395.768H189.562C189.684 392.96 192.271 391.08 195.421 391.08C198.79 391.08 200.841 393.277 200.816 395.816C200.841 397.818 199.669 399.308 197.813 399.82V399.942C200.108 400.309 201.524 401.944 201.5 404.19C201.524 407.096 198.863 409.244 195.348 409.244Z" fill="#B02418"/>
<path d="M305.466 629.263V636.978H303.537V630.801H290.866V629.263H305.466ZM305.466 615.273V628.066H303.537V624.941H297.946C296.933 626.174 295.334 626.907 293.454 626.895C290.207 626.919 287.814 624.771 287.814 621.694C287.814 618.667 290.207 616.519 293.454 616.519C295.322 616.519 296.921 617.251 297.946 618.472H303.537V615.273H305.466ZM293.454 618.154C291.232 618.154 289.646 619.644 289.646 621.694C289.646 623.818 291.232 625.283 293.454 625.283C295.578 625.283 297.214 623.818 297.214 621.694C297.214 619.644 295.578 618.154 293.454 618.154ZM298.801 623.354H303.537V620.059H298.801C298.972 620.571 299.069 621.108 299.069 621.694C299.069 622.28 298.972 622.842 298.801 623.354Z" fill="#B02418"/>
<path d="M271.847 616.592C273.678 616.58 275.24 617.263 276.241 618.423H281.93V615.273H283.858V628.14H281.93V625.039H276.266C275.24 626.199 273.678 626.882 271.847 626.87C268.6 626.895 266.207 624.771 266.207 621.743C266.207 618.691 268.6 616.567 271.847 616.592ZM271.847 618.252C269.625 618.228 268.038 619.692 268.038 621.743C268.038 623.77 269.625 625.234 271.847 625.234C273.995 625.234 275.606 623.77 275.606 621.743C275.606 619.692 273.995 618.228 271.847 618.252ZM276.656 628.652C281.148 628.652 283.932 630.166 283.932 632.778C283.932 635.415 281.148 636.929 276.656 636.929C272.14 636.929 269.381 635.415 269.381 632.778C269.381 630.166 272.14 628.652 276.656 628.652ZM276.656 630.142C273.336 630.142 271.261 631.143 271.261 632.778C271.261 634.414 273.336 635.391 276.656 635.391C280.001 635.391 282.052 634.414 282.052 632.778C282.052 631.143 280.001 630.142 276.656 630.142ZM277.169 619.985C277.352 620.522 277.462 621.108 277.462 621.743C277.462 622.354 277.352 622.927 277.169 623.452H281.93V619.985H277.169Z" fill="#B02418"/>
<path d="M255.562 627.017V628.579H240.548V617.153H255.318V618.765H242.501V621.987H254.854V623.525H242.501V627.017H255.562ZM257.857 632.559V634.146H237.984V632.559H257.857Z" fill="#B02418"/>
<path d="M227.633 617.544C227.608 623.818 225.484 629.556 217.672 633.389L216.598 631.924C220.687 629.946 223.141 627.432 224.459 624.502L217.013 625.21L216.695 623.525L225.045 622.964C225.423 621.743 225.643 620.461 225.729 619.131H217.794V617.544H227.633ZM233.175 615.273V624.111H236.69V625.723H233.175V636.978H231.271V615.273H233.175Z" fill="#B02418"/>
<path d="M203.993 635.146C203.138 635.146 202.406 634.438 202.43 633.56C202.406 632.705 203.138 631.997 203.993 631.997C204.847 631.997 205.555 632.705 205.555 633.56C205.555 634.438 204.847 635.146 203.993 635.146Z" fill="#B02418"/>
<path d="M186.658 631.387V629.58L194.617 617.324H197.327V629.458H199.793V631.387H197.327V635H195.228V631.387H186.658ZM189.026 629.458H195.228V620.107H195.008L189.026 629.312V629.458Z" fill="#B02418"/>
</svg>
