<svg width="502" height="832" viewBox="0 0 502 832" fill="none" xmlns="http://www.w3.org/2000/svg">
<path d="M27 0H476V832H27V0Z" fill="#F2F2F2"/>
<path fill-rule="evenodd" clip-rule="evenodd" d="M475 1H28V831H475V1ZM27 0V832H476V0H27Z" fill="#C0C0C0"/>
<path d="M57 31H446V685H57V31Z" fill="white"/>
<path fill-rule="evenodd" clip-rule="evenodd" d="M445 32H58V684H445V32ZM57 31V685H446V31H57Z" fill="#C0C0C0"/>
<path d="M57 156H446V565H57V156Z" fill="#FFFADA"/>
<path fill-rule="evenodd" clip-rule="evenodd" d="M445 157H58V564H445V157ZM57 156V565H446V156H57Z" fill="#C0C0C0"/>
<path fill-rule="evenodd" clip-rule="evenodd" d="M0 31.5C0 30.6716 0.671573 30 1.5 30H1.54992C2.37835 30 3.04992 30.6716 3.04992 31.5C3.04992 32.3284 2.37835 33 1.54992 33H1.5C0.671573 33 0 32.3284 0 31.5ZM5.04192 31.5C5.04192 30.6716 5.71349 30 6.54192 30H6.64176C7.47018 30 8.14176 30.6716 8.14176 31.5C8.14176 32.3284 7.47018 33 6.64176 33H6.54192C5.71349 33 5.04192 32.3284 5.04192 31.5ZM10.1338 31.5C10.1338 30.6716 10.8053 30 11.6338 30H11.7336C12.562 30 13.2336 30.6716 13.2336 31.5C13.2336 32.3284 12.562 33 11.7336 33H11.6338C10.8053 33 10.1338 32.3284 10.1338 31.5ZM15.2256 31.5C15.2256 30.6716 15.8972 30 16.7256 30H16.8254C17.6539 30 18.3254 30.6716 18.3254 31.5C18.3254 32.3284 17.6539 33 16.8254 33H16.7256C15.8972 33 15.2256 32.3284 15.2256 31.5ZM20.3174 31.5C20.3174 30.6716 20.989 30 21.8174 30H21.9173C22.7457 30 23.4173 30.6716 23.4173 31.5C23.4173 32.3284 22.7457 33 21.9173 33H21.8174C20.989 33 20.3174 32.3284 20.3174 31.5ZM25.4093 31.5C25.4093 30.6716 26.0808 30 26.9093 30H27.0091C27.8375 30 28.5091 30.6716 28.5091 31.5C28.5091 32.3284 27.8375 33 27.0091 33H26.9093C26.0808 33 25.4093 32.3284 25.4093 31.5ZM30.5011 31.5C30.5011 30.6716 31.1727 30 32.0011 30H32.1009C32.9294 30 33.6009 30.6716 33.6009 31.5C33.6009 32.3284 32.9294 33 32.1009 33H32.0011C31.1727 33 30.5011 32.3284 30.5011 31.5ZM35.5929 31.5C35.5929 30.6716 36.2645 30 37.0929 30H37.1928C38.0212 30 38.6928 30.6716 38.6928 31.5C38.6928 32.3284 38.0212 33 37.1928 33H37.0929C36.2645 33 35.5929 32.3284 35.5929 31.5ZM40.6848 31.5C40.6848 30.6716 41.3563 30 42.1848 30H42.2846C43.113 30 43.7846 30.6716 43.7846 31.5C43.7846 32.3284 43.113 33 42.2846 33H42.1848C41.3563 33 40.6848 32.3284 40.6848 31.5ZM45.7766 31.5C45.7766 30.6716 46.4482 30 47.2766 30H47.3764C48.2049 30 48.8764 30.6716 48.8764 31.5C48.8764 32.3284 48.2049 33 47.3764 33H47.2766C46.4482 33 45.7766 32.3284 45.7766 31.5ZM50.8684 31.5C50.8684 30.6716 51.54 30 52.3684 30H52.4683C53.2967 30 53.9683 30.6716 53.9683 31.5C53.9683 32.3284 53.2967 33 52.4683 33H52.3684C51.54 33 50.8684 32.3284 50.8684 31.5ZM55.9603 31.5C55.9603 30.6716 56.6319 30 57.4603 30H57.5601C58.3885 30 59.0601 30.6716 59.0601 31.5C59.0601 32.3284 58.3885 33 57.5601 33H57.4603C56.6319 33 55.9603 32.3284 55.9603 31.5ZM61.0521 31.5C61.0521 30.6716 61.7237 30 62.5521 30H62.652C63.4804 30 64.152 30.6716 64.152 31.5C64.152 32.3284 63.4804 33 62.652 33H62.5521C61.7237 33 61.0521 32.3284 61.0521 31.5ZM66.144 31.5C66.144 30.6716 66.8155 30 67.644 30H67.7438C68.5722 30 69.2438 30.6716 69.2438 31.5C69.2438 32.3284 68.5722 33 67.7438 33H67.644C66.8155 33 66.144 32.3284 66.144 31.5ZM71.2358 31.5C71.2358 30.6716 71.9074 30 72.7358 30H72.8356C73.6641 30 74.3356 30.6716 74.3356 31.5C74.3356 32.3284 73.6641 33 72.8356 33H72.7358C71.9074 33 71.2358 32.3284 71.2358 31.5ZM76.3276 31.5C76.3276 30.6716 76.9992 30 77.8276 30H77.9275C78.7559 30 79.4275 30.6716 79.4275 31.5C79.4275 32.3284 78.7559 33 77.9275 33H77.8276C76.9992 33 76.3276 32.3284 76.3276 31.5ZM81.4195 31.5C81.4195 30.6716 82.091 30 82.9195 30H83.0193C83.8477 30 84.5193 30.6716 84.5193 31.5C84.5193 32.3284 83.8477 33 83.0193 33H82.9195C82.091 33 81.4195 32.3284 81.4195 31.5ZM86.5113 31.5C86.5113 30.6716 87.1829 30 88.0113 30H88.1111C88.9396 30 89.6111 30.6716 89.6111 31.5C89.6111 32.3284 88.9396 33 88.1111 33H88.0113C87.1829 33 86.5113 32.3284 86.5113 31.5ZM91.6031 31.5C91.6031 30.6716 92.2747 30 93.1031 30H93.203C94.0314 30 94.703 30.6716 94.703 31.5C94.703 32.3284 94.0314 33 93.203 33H93.1031C92.2747 33 91.6031 32.3284 91.6031 31.5ZM96.695 31.5C96.695 30.6716 97.3665 30 98.195 30H98.2948C99.1232 30 99.7948 30.6716 99.7948 31.5C99.7948 32.3284 99.1232 33 98.2948 33H98.195C97.3665 33 96.695 32.3284 96.695 31.5ZM101.787 31.5C101.787 30.6716 102.458 30 103.287 30H103.387C104.215 30 104.887 30.6716 104.887 31.5C104.887 32.3284 104.215 33 103.387 33H103.287C102.458 33 101.787 32.3284 101.787 31.5ZM106.879 31.5C106.879 30.6716 107.55 30 108.379 30H108.478C109.307 30 109.978 30.6716 109.978 31.5C109.978 32.3284 109.307 33 108.478 33H108.379C107.55 33 106.879 32.3284 106.879 31.5ZM111.97 31.5C111.97 30.6716 112.642 30 113.47 30H113.57C114.399 30 115.07 30.6716 115.07 31.5C115.07 32.3284 114.399 33 113.57 33H113.47C112.642 33 111.97 32.3284 111.97 31.5ZM117.062 31.5C117.062 30.6716 117.734 30 118.562 30H118.662C119.491 30 120.162 30.6716 120.162 31.5C120.162 32.3284 119.491 33 118.662 33H118.562C117.734 33 117.062 32.3284 117.062 31.5ZM122.154 31.5C122.154 30.6716 122.826 30 123.654 30H123.754C124.582 30 125.254 30.6716 125.254 31.5C125.254 32.3284 124.582 33 123.754 33H123.654C122.826 33 122.154 32.3284 122.154 31.5ZM127.246 31.5C127.246 30.6716 127.918 30 128.746 30H128.846C129.674 30 130.346 30.6716 130.346 31.5C130.346 32.3284 129.674 33 128.846 33H128.746C127.918 33 127.246 32.3284 127.246 31.5ZM132.338 31.5C132.338 30.6716 133.009 30 133.838 30H133.938C134.766 30 135.438 30.6716 135.438 31.5C135.438 32.3284 134.766 33 133.938 33H133.838C133.009 33 132.338 32.3284 132.338 31.5ZM137.43 31.5C137.43 30.6716 138.101 30 138.93 30H139.029C139.858 30 140.529 30.6716 140.529 31.5C140.529 32.3284 139.858 33 139.029 33H138.93C138.101 33 137.43 32.3284 137.43 31.5ZM142.521 31.5C142.521 30.6716 143.193 30 144.021 30H144.121C144.95 30 145.621 30.6716 145.621 31.5C145.621 32.3284 144.95 33 144.121 33H144.021C143.193 33 142.521 32.3284 142.521 31.5ZM147.613 31.5C147.613 30.6716 148.285 30 149.113 30H149.213C150.042 30 150.713 30.6716 150.713 31.5C150.713 32.3284 150.042 33 149.213 33H149.113C148.285 33 147.613 32.3284 147.613 31.5ZM152.705 31.5C152.705 30.6716 153.377 30 154.205 30H154.305C155.133 30 155.805 30.6716 155.805 31.5C155.805 32.3284 155.133 33 154.305 33H154.205C153.377 33 152.705 32.3284 152.705 31.5ZM157.797 31.5C157.797 30.6716 158.469 30 159.297 30H159.397C160.225 30 160.897 30.6716 160.897 31.5C160.897 32.3284 160.225 33 159.397 33H159.297C158.469 33 157.797 32.3284 157.797 31.5ZM162.889 31.5C162.889 30.6716 163.56 30 164.389 30H164.489C165.317 30 165.989 30.6716 165.989 31.5C165.989 32.3284 165.317 33 164.489 33H164.389C163.56 33 162.889 32.3284 162.889 31.5ZM167.981 31.5C167.981 30.6716 168.652 30 169.481 30H169.58C170.409 30 171.08 30.6716 171.08 31.5C171.08 32.3284 170.409 33 169.58 33H169.481C168.652 33 167.981 32.3284 167.981 31.5ZM173.072 31.5C173.072 30.6716 173.744 30 174.572 30H174.672C175.501 30 176.172 30.6716 176.172 31.5C176.172 32.3284 175.501 33 174.672 33H174.572C173.744 33 173.072 32.3284 173.072 31.5ZM178.164 31.5C178.164 30.6716 178.836 30 179.664 30H179.764C180.592 30 181.264 30.6716 181.264 31.5C181.264 32.3284 180.592 33 179.764 33H179.664C178.836 33 178.164 32.3284 178.164 31.5ZM183.256 31.5C183.256 30.6716 183.928 30 184.756 30H184.856C185.684 30 186.356 30.6716 186.356 31.5C186.356 32.3284 185.684 33 184.856 33H184.756C183.928 33 183.256 32.3284 183.256 31.5ZM188.348 31.5C188.348 30.6716 189.019 30 189.848 30H189.948C190.776 30 191.448 30.6716 191.448 31.5C191.448 32.3284 190.776 33 189.948 33H189.848C189.019 33 188.348 32.3284 188.348 31.5ZM193.44 31.5C193.44 30.6716 194.111 30 194.94 30H195.04C195.868 30 196.54 30.6716 196.54 31.5C196.54 32.3284 195.868 33 195.04 33H194.94C194.111 33 193.44 32.3284 193.44 31.5ZM198.532 31.5C198.532 30.6716 199.203 30 200.032 30H200.131C200.96 30 201.631 30.6716 201.631 31.5C201.631 32.3284 200.96 33 200.131 33H200.032C199.203 33 198.532 32.3284 198.532 31.5ZM203.623 31.5C203.623 30.6716 204.295 30 205.123 30H205.223C206.052 30 206.723 30.6716 206.723 31.5C206.723 32.3284 206.052 33 205.223 33H205.123C204.295 33 203.623 32.3284 203.623 31.5ZM208.715 31.5C208.715 30.6716 209.387 30 210.215 30H210.315C211.143 30 211.815 30.6716 211.815 31.5C211.815 32.3284 211.143 33 210.315 33H210.215C209.387 33 208.715 32.3284 208.715 31.5ZM213.807 31.5C213.807 30.6716 214.479 30 215.307 30H215.407C216.235 30 216.907 30.6716 216.907 31.5C216.907 32.3284 216.235 33 215.407 33H215.307C214.479 33 213.807 32.3284 213.807 31.5ZM218.899 31.5C218.899 30.6716 219.57 30 220.399 30H220.499C221.327 30 221.999 30.6716 221.999 31.5C221.999 32.3284 221.327 33 220.499 33H220.399C219.57 33 218.899 32.3284 218.899 31.5ZM223.991 31.5C223.991 30.6716 224.662 30 225.491 30H225.591C226.419 30 227.091 30.6716 227.091 31.5C227.091 32.3284 226.419 33 225.591 33H225.491C224.662 33 223.991 32.3284 223.991 31.5ZM229.083 31.5C229.083 30.6716 229.754 30 230.583 30H230.682C231.511 30 232.182 30.6716 232.182 31.5C232.182 32.3284 231.511 33 230.682 33H230.583C229.754 33 229.083 32.3284 229.083 31.5ZM234.174 31.5C234.174 30.6716 234.846 30 235.674 30H235.774C236.603 30 237.274 30.6716 237.274 31.5C237.274 32.3284 236.603 33 235.774 33H235.674C234.846 33 234.174 32.3284 234.174 31.5ZM239.266 31.5C239.266 30.6716 239.938 30 240.766 30H240.866C241.694 30 242.366 30.6716 242.366 31.5C242.366 32.3284 241.694 33 240.866 33H240.766C239.938 33 239.266 32.3284 239.266 31.5ZM244.358 31.5C244.358 30.6716 245.03 30 245.858 30H245.958C246.786 30 247.458 30.6716 247.458 31.5C247.458 32.3284 246.786 33 245.958 33H245.858C245.03 33 244.358 32.3284 244.358 31.5ZM249.45 31.5C249.45 30.6716 250.121 30 250.95 30H251.05C251.878 30 252.55 30.6716 252.55 31.5C252.55 32.3284 251.878 33 251.05 33H250.95C250.121 33 249.45 32.3284 249.45 31.5ZM254.542 31.5C254.542 30.6716 255.213 30 256.042 30H256.142C256.97 30 257.642 30.6716 257.642 31.5C257.642 32.3284 256.97 33 256.142 33H256.042C255.213 33 254.542 32.3284 254.542 31.5ZM259.633 31.5C259.633 30.6716 260.305 30 261.133 30H261.233C262.062 30 262.733 30.6716 262.733 31.5C262.733 32.3284 262.062 33 261.233 33H261.133C260.305 33 259.633 32.3284 259.633 31.5ZM264.725 31.5C264.725 30.6716 265.397 30 266.225 30H266.325C267.154 30 267.825 30.6716 267.825 31.5C267.825 32.3284 267.154 33 266.325 33H266.225C265.397 33 264.725 32.3284 264.725 31.5ZM269.817 31.5C269.817 30.6716 270.489 30 271.317 30H271.417C272.245 30 272.917 30.6716 272.917 31.5C272.917 32.3284 272.245 33 271.417 33H271.317C270.489 33 269.817 32.3284 269.817 31.5ZM274.909 31.5C274.909 30.6716 275.581 30 276.409 30H276.509C277.337 30 278.009 30.6716 278.009 31.5C278.009 32.3284 277.337 33 276.509 33H276.409C275.581 33 274.909 32.3284 274.909 31.5ZM280.001 31.5C280.001 30.6716 280.672 30 281.501 30H281.601C282.429 30 283.101 30.6716 283.101 31.5C283.101 32.3284 282.429 33 281.601 33H281.501C280.672 33 280.001 32.3284 280.001 31.5ZM285.093 31.5C285.093 30.6716 285.764 30 286.593 30H286.693C287.521 30 288.193 30.6716 288.193 31.5C288.193 32.3284 287.521 33 286.693 33H286.593C285.764 33 285.093 32.3284 285.093 31.5ZM290.185 31.5C290.185 30.6716 290.856 30 291.685 30H291.784C292.613 30 293.284 30.6716 293.284 31.5C293.284 32.3284 292.613 33 291.784 33H291.685C290.856 33 290.185 32.3284 290.185 31.5ZM295.276 31.5C295.276 30.6716 295.948 30 296.776 30H296.876C297.705 30 298.376 30.6716 298.376 31.5C298.376 32.3284 297.705 33 296.876 33H296.776C295.948 33 295.276 32.3284 295.276 31.5ZM300.368 31.5C300.368 30.6716 301.04 30 301.868 30H301.968C302.797 30 303.468 30.6716 303.468 31.5C303.468 32.3284 302.797 33 301.968 33H301.868C301.04 33 300.368 32.3284 300.368 31.5ZM305.46 31.5C305.46 30.6716 306.132 30 306.96 30H307.06C307.888 30 308.56 30.6716 308.56 31.5C308.56 32.3284 307.888 33 307.06 33H306.96C306.132 33 305.46 32.3284 305.46 31.5ZM310.552 31.5C310.552 30.6716 311.224 30 312.052 30H312.152C312.98 30 313.652 30.6716 313.652 31.5C313.652 32.3284 312.98 33 312.152 33H312.052C311.224 33 310.552 32.3284 310.552 31.5ZM315.644 31.5C315.644 30.6716 316.315 30 317.144 30H317.244C318.072 30 318.744 30.6716 318.744 31.5C318.744 32.3284 318.072 33 317.244 33H317.144C316.315 33 315.644 32.3284 315.644 31.5ZM320.736 31.5C320.736 30.6716 321.407 30 322.236 30H322.336C323.164 30 323.836 30.6716 323.836 31.5C323.836 32.3284 323.164 33 322.336 33H322.236C321.407 33 320.736 32.3284 320.736 31.5ZM325.828 31.5C325.828 30.6716 326.499 30 327.328 30H327.427C328.256 30 328.927 30.6716 328.927 31.5C328.927 32.3284 328.256 33 327.427 33H327.328C326.499 33 325.828 32.3284 325.828 31.5ZM330.919 31.5C330.919 30.6716 331.591 30 332.419 30H332.519C333.348 30 334.019 30.6716 334.019 31.5C334.019 32.3284 333.348 33 332.519 33H332.419C331.591 33 330.919 32.3284 330.919 31.5ZM336.011 31.5C336.011 30.6716 336.683 30 337.511 30H337.611C338.44 30 339.111 30.6716 339.111 31.5C339.111 32.3284 338.44 33 337.611 33H337.511C336.683 33 336.011 32.3284 336.011 31.5ZM341.103 31.5C341.103 30.6716 341.775 30 342.603 30H342.703C343.531 30 344.203 30.6716 344.203 31.5C344.203 32.3284 343.531 33 342.703 33H342.603C341.775 33 341.103 32.3284 341.103 31.5ZM346.195 31.5C346.195 30.6716 346.867 30 347.695 30H347.795C348.623 30 349.295 30.6716 349.295 31.5C349.295 32.3284 348.623 33 347.795 33H347.695C346.867 33 346.195 32.3284 346.195 31.5ZM351.287 31.5C351.287 30.6716 351.958 30 352.787 30H352.887C353.715 30 354.387 30.6716 354.387 31.5C354.387 32.3284 353.715 33 352.887 33H352.787C351.958 33 351.287 32.3284 351.287 31.5ZM356.379 31.5C356.379 30.6716 357.05 30 357.879 30H357.979C358.807 30 359.479 30.6716 359.479 31.5C359.479 32.3284 358.807 33 357.979 33H357.879C357.05 33 356.379 32.3284 356.379 31.5ZM361.471 31.5C361.471 30.6716 362.142 30 362.971 30H363.07C363.899 30 364.57 30.6716 364.57 31.5C364.57 32.3284 363.899 33 363.07 33H362.971C362.142 33 361.471 32.3284 361.471 31.5ZM366.562 31.5C366.562 30.6716 367.234 30 368.062 30H368.162C368.991 30 369.662 30.6716 369.662 31.5C369.662 32.3284 368.991 33 368.162 33H368.062C367.234 33 366.562 32.3284 366.562 31.5ZM371.654 31.5C371.654 30.6716 372.326 30 373.154 30H373.254C374.083 30 374.754 30.6716 374.754 31.5C374.754 32.3284 374.083 33 373.254 33H373.154C372.326 33 371.654 32.3284 371.654 31.5ZM376.746 31.5C376.746 30.6716 377.418 30 378.246 30H378.346C379.174 30 379.846 30.6716 379.846 31.5C379.846 32.3284 379.174 33 378.346 33H378.246C377.418 33 376.746 32.3284 376.746 31.5ZM381.838 31.5C381.838 30.6716 382.51 30 383.338 30H383.438C384.266 30 384.938 30.6716 384.938 31.5C384.938 32.3284 384.266 33 383.438 33H383.338C382.51 33 381.838 32.3284 381.838 31.5ZM386.93 31.5C386.93 30.6716 387.602 30 388.43 30H388.53C389.358 30 390.03 30.6716 390.03 31.5C390.03 32.3284 389.358 33 388.53 33H388.43C387.602 33 386.93 32.3284 386.93 31.5ZM392.022 31.5C392.022 30.6716 392.693 30 393.522 30H393.622C394.45 30 395.122 30.6716 395.122 31.5C395.122 32.3284 394.45 33 393.622 33H393.522C392.693 33 392.022 32.3284 392.022 31.5ZM397.114 31.5C397.114 30.6716 397.785 30 398.614 30H398.714C399.542 30 400.214 30.6716 400.214 31.5C400.214 32.3284 399.542 33 398.714 33H398.614C397.785 33 397.114 32.3284 397.114 31.5ZM402.206 31.5C402.206 30.6716 402.877 30 403.706 30H403.805C404.634 30 405.305 30.6716 405.305 31.5C405.305 32.3284 404.634 33 403.805 33H403.706C402.877 33 402.206 32.3284 402.206 31.5ZM407.297 31.5C407.297 30.6716 407.969 30 408.797 30H408.897C409.726 30 410.397 30.6716 410.397 31.5C410.397 32.3284 409.726 33 408.897 33H408.797C407.969 33 407.297 32.3284 407.297 31.5ZM412.389 31.5C412.389 30.6716 413.061 30 413.889 30H413.989C414.818 30 415.489 30.6716 415.489 31.5C415.489 32.3284 414.818 33 413.989 33H413.889C413.061 33 412.389 32.3284 412.389 31.5ZM417.481 31.5C417.481 30.6716 418.153 30 418.981 30H419.081C419.909 30 420.581 30.6716 420.581 31.5C420.581 32.3284 419.909 33 419.081 33H418.981C418.153 33 417.481 32.3284 417.481 31.5ZM422.573 31.5C422.573 30.6716 423.245 30 424.073 30H424.173C425.001 30 425.673 30.6716 425.673 31.5C425.673 32.3284 425.001 33 424.173 33H424.073C423.245 33 422.573 32.3284 422.573 31.5ZM427.665 31.5C427.665 30.6716 428.336 30 429.165 30H429.265C430.093 30 430.765 30.6716 430.765 31.5C430.765 32.3284 430.093 33 429.265 33H429.165C428.336 33 427.665 32.3284 427.665 31.5ZM432.757 31.5C432.757 30.6716 433.428 30 434.257 30H434.357C435.185 30 435.857 30.6716 435.857 31.5C435.857 32.3284 435.185 33 434.357 33H434.257C433.428 33 432.757 32.3284 432.757 31.5ZM437.849 31.5C437.849 30.6716 438.52 30 439.349 30H439.448C440.277 30 440.948 30.6716 440.948 31.5C440.948 32.3284 440.277 33 439.448 33H439.349C438.52 33 437.849 32.3284 437.849 31.5ZM442.94 31.5C442.94 30.6716 443.612 30 444.44 30H444.54C445.369 30 446.04 30.6716 446.04 31.5C446.04 32.3284 445.369 33 444.54 33H444.44C443.612 33 442.94 32.3284 442.94 31.5ZM448.032 31.5C448.032 30.6716 448.704 30 449.532 30H449.632C450.461 30 451.132 30.6716 451.132 31.5C451.132 32.3284 450.461 33 449.632 33H449.532C448.704 33 448.032 32.3284 448.032 31.5ZM453.124 31.5C453.124 30.6716 453.796 30 454.624 30H454.724C455.552 30 456.224 30.6716 456.224 31.5C456.224 32.3284 455.552 33 454.724 33H454.624C453.796 33 453.124 32.3284 453.124 31.5ZM458.216 31.5C458.216 30.6716 458.888 30 459.716 30H459.816C460.644 30 461.316 30.6716 461.316 31.5C461.316 32.3284 460.644 33 459.816 33H459.716C458.888 33 458.216 32.3284 458.216 31.5ZM463.308 31.5C463.308 30.6716 463.979 30 464.808 30H464.908C465.736 30 466.408 30.6716 466.408 31.5C466.408 32.3284 465.736 33 464.908 33H464.808C463.979 33 463.308 32.3284 463.308 31.5ZM468.4 31.5C468.4 30.6716 469.071 30 469.9 30H470C470.828 30 471.5 30.6716 471.5 31.5C471.5 32.3284 470.828 33 470 33H469.9C469.071 33 468.4 32.3284 468.4 31.5ZM473.492 31.5C473.492 30.6716 474.163 30 474.992 30H475.091C475.92 30 476.591 30.6716 476.591 31.5C476.591 32.3284 475.92 33 475.091 33H474.992C474.163 33 473.492 32.3284 473.492 31.5ZM478.583 31.5C478.583 30.6716 479.255 30 480.083 30H480.183C481.012 30 481.683 30.6716 481.683 31.5C481.683 32.3284 481.012 33 480.183 33H480.083C479.255 33 478.583 32.3284 478.583 31.5ZM483.675 31.5C483.675 30.6716 484.347 30 485.175 30H485.275C486.104 30 486.775 30.6716 486.775 31.5C486.775 32.3284 486.104 33 485.275 33H485.175C484.347 33 483.675 32.3284 483.675 31.5ZM488.767 31.5C488.767 30.6716 489.439 30 490.267 30H490.367C491.195 30 491.867 30.6716 491.867 31.5C491.867 32.3284 491.195 33 490.367 33H490.267C489.439 33 488.767 32.3284 488.767 31.5ZM493.859 31.5C493.859 30.6716 494.531 30 495.359 30H495.459C496.287 30 496.959 30.6716 496.959 31.5C496.959 32.3284 496.287 33 495.459 33H495.359C494.531 33 493.859 32.3284 493.859 31.5ZM498.951 31.5C498.951 30.6716 499.622 30 500.451 30H500.5C501.328 30 502 30.6716 502 31.5C502 32.3284 501.328 33 500.5 33H500.451C499.622 33 498.951 32.3284 498.951 31.5Z" fill="#B02418"/>
<path fill-rule="evenodd" clip-rule="evenodd" d="M0 156.5C0 155.672 0.671573 155 1.5 155H1.54992C2.37835 155 3.04992 155.672 3.04992 156.5C3.04992 157.328 2.37835 158 1.54992 158H1.5C0.671573 158 0 157.328 0 156.5ZM5.04192 156.5C5.04192 155.672 5.71349 155 6.54192 155H6.64176C7.47018 155 8.14176 155.672 8.14176 156.5C8.14176 157.328 7.47018 158 6.64176 158H6.54192C5.71349 158 5.04192 157.328 5.04192 156.5ZM10.1338 156.5C10.1338 155.672 10.8053 155 11.6338 155H11.7336C12.562 155 13.2336 155.672 13.2336 156.5C13.2336 157.328 12.562 158 11.7336 158H11.6338C10.8053 158 10.1338 157.328 10.1338 156.5ZM15.2256 156.5C15.2256 155.672 15.8972 155 16.7256 155H16.8254C17.6539 155 18.3254 155.672 18.3254 156.5C18.3254 157.328 17.6539 158 16.8254 158H16.7256C15.8972 158 15.2256 157.328 15.2256 156.5ZM20.3174 156.5C20.3174 155.672 20.989 155 21.8174 155H21.9173C22.7457 155 23.4173 155.672 23.4173 156.5C23.4173 157.328 22.7457 158 21.9173 158H21.8174C20.989 158 20.3174 157.328 20.3174 156.5ZM25.4093 156.5C25.4093 155.672 26.0808 155 26.9093 155H27.0091C27.8375 155 28.5091 155.672 28.5091 156.5C28.5091 157.328 27.8375 158 27.0091 158H26.9093C26.0808 158 25.4093 157.328 25.4093 156.5ZM30.5011 156.5C30.5011 155.672 31.1727 155 32.0011 155H32.1009C32.9294 155 33.6009 155.672 33.6009 156.5C33.6009 157.328 32.9294 158 32.1009 158H32.0011C31.1727 158 30.5011 157.328 30.5011 156.5ZM35.5929 156.5C35.5929 155.672 36.2645 155 37.0929 155H37.1928C38.0212 155 38.6928 155.672 38.6928 156.5C38.6928 157.328 38.0212 158 37.1928 158H37.0929C36.2645 158 35.5929 157.328 35.5929 156.5ZM40.6848 156.5C40.6848 155.672 41.3563 155 42.1848 155H42.2846C43.113 155 43.7846 155.672 43.7846 156.5C43.7846 157.328 43.113 158 42.2846 158H42.1848C41.3563 158 40.6848 157.328 40.6848 156.5ZM45.7766 156.5C45.7766 155.672 46.4482 155 47.2766 155H47.3764C48.2049 155 48.8764 155.672 48.8764 156.5C48.8764 157.328 48.2049 158 47.3764 158H47.2766C46.4482 158 45.7766 157.328 45.7766 156.5ZM50.8684 156.5C50.8684 155.672 51.54 155 52.3684 155H52.4683C53.2967 155 53.9683 155.672 53.9683 156.5C53.9683 157.328 53.2967 158 52.4683 158H52.3684C51.54 158 50.8684 157.328 50.8684 156.5ZM55.9603 156.5C55.9603 155.672 56.6319 155 57.4603 155H57.5601C58.3885 155 59.0601 155.672 59.0601 156.5C59.0601 157.328 58.3885 158 57.5601 158H57.4603C56.6319 158 55.9603 157.328 55.9603 156.5ZM61.0521 156.5C61.0521 155.672 61.7237 155 62.5521 155H62.652C63.4804 155 64.152 155.672 64.152 156.5C64.152 157.328 63.4804 158 62.652 158H62.5521C61.7237 158 61.0521 157.328 61.0521 156.5ZM66.144 156.5C66.144 155.672 66.8155 155 67.644 155H67.7438C68.5722 155 69.2438 155.672 69.2438 156.5C69.2438 157.328 68.5722 158 67.7438 158H67.644C66.8155 158 66.144 157.328 66.144 156.5ZM71.2358 156.5C71.2358 155.672 71.9074 155 72.7358 155H72.8356C73.6641 155 74.3356 155.672 74.3356 156.5C74.3356 157.328 73.6641 158 72.8356 158H72.7358C71.9074 158 71.2358 157.328 71.2358 156.5ZM76.3276 156.5C76.3276 155.672 76.9992 155 77.8276 155H77.9275C78.7559 155 79.4275 155.672 79.4275 156.5C79.4275 157.328 78.7559 158 77.9275 158H77.8276C76.9992 158 76.3276 157.328 76.3276 156.5ZM81.4195 156.5C81.4195 155.672 82.091 155 82.9195 155H83.0193C83.8477 155 84.5193 155.672 84.5193 156.5C84.5193 157.328 83.8477 158 83.0193 158H82.9195C82.091 158 81.4195 157.328 81.4195 156.5ZM86.5113 156.5C86.5113 155.672 87.1829 155 88.0113 155H88.1111C88.9396 155 89.6111 155.672 89.6111 156.5C89.6111 157.328 88.9396 158 88.1111 158H88.0113C87.1829 158 86.5113 157.328 86.5113 156.5ZM91.6031 156.5C91.6031 155.672 92.2747 155 93.1031 155H93.203C94.0314 155 94.703 155.672 94.703 156.5C94.703 157.328 94.0314 158 93.203 158H93.1031C92.2747 158 91.6031 157.328 91.6031 156.5ZM96.695 156.5C96.695 155.672 97.3665 155 98.195 155H98.2948C99.1232 155 99.7948 155.672 99.7948 156.5C99.7948 157.328 99.1232 158 98.2948 158H98.195C97.3665 158 96.695 157.328 96.695 156.5ZM101.787 156.5C101.787 155.672 102.458 155 103.287 155H103.387C104.215 155 104.887 155.672 104.887 156.5C104.887 157.328 104.215 158 103.387 158H103.287C102.458 158 101.787 157.328 101.787 156.5ZM106.879 156.5C106.879 155.672 107.55 155 108.379 155H108.478C109.307 155 109.978 155.672 109.978 156.5C109.978 157.328 109.307 158 108.478 158H108.379C107.55 158 106.879 157.328 106.879 156.5ZM111.97 156.5C111.97 155.672 112.642 155 113.47 155H113.57C114.399 155 115.07 155.672 115.07 156.5C115.07 157.328 114.399 158 113.57 158H113.47C112.642 158 111.97 157.328 111.97 156.5ZM117.062 156.5C117.062 155.672 117.734 155 118.562 155H118.662C119.491 155 120.162 155.672 120.162 156.5C120.162 157.328 119.491 158 118.662 158H118.562C117.734 158 117.062 157.328 117.062 156.5ZM122.154 156.5C122.154 155.672 122.826 155 123.654 155H123.754C124.582 155 125.254 155.672 125.254 156.5C125.254 157.328 124.582 158 123.754 158H123.654C122.826 158 122.154 157.328 122.154 156.5ZM127.246 156.5C127.246 155.672 127.918 155 128.746 155H128.846C129.674 155 130.346 155.672 130.346 156.5C130.346 157.328 129.674 158 128.846 158H128.746C127.918 158 127.246 157.328 127.246 156.5ZM132.338 156.5C132.338 155.672 133.009 155 133.838 155H133.938C134.766 155 135.438 155.672 135.438 156.5C135.438 157.328 134.766 158 133.938 158H133.838C133.009 158 132.338 157.328 132.338 156.5ZM137.43 156.5C137.43 155.672 138.101 155 138.93 155H139.029C139.858 155 140.529 155.672 140.529 156.5C140.529 157.328 139.858 158 139.029 158H138.93C138.101 158 137.43 157.328 137.43 156.5ZM142.521 156.5C142.521 155.672 143.193 155 144.021 155H144.121C144.95 155 145.621 155.672 145.621 156.5C145.621 157.328 144.95 158 144.121 158H144.021C143.193 158 142.521 157.328 142.521 156.5ZM147.613 156.5C147.613 155.672 148.285 155 149.113 155H149.213C150.042 155 150.713 155.672 150.713 156.5C150.713 157.328 150.042 158 149.213 158H149.113C148.285 158 147.613 157.328 147.613 156.5ZM152.705 156.5C152.705 155.672 153.377 155 154.205 155H154.305C155.133 155 155.805 155.672 155.805 156.5C155.805 157.328 155.133 158 154.305 158H154.205C153.377 158 152.705 157.328 152.705 156.5ZM157.797 156.5C157.797 155.672 158.469 155 159.297 155H159.397C160.225 155 160.897 155.672 160.897 156.5C160.897 157.328 160.225 158 159.397 158H159.297C158.469 158 157.797 157.328 157.797 156.5ZM162.889 156.5C162.889 155.672 163.56 155 164.389 155H164.489C165.317 155 165.989 155.672 165.989 156.5C165.989 157.328 165.317 158 164.489 158H164.389C163.56 158 162.889 157.328 162.889 156.5ZM167.981 156.5C167.981 155.672 168.652 155 169.481 155H169.58C170.409 155 171.08 155.672 171.08 156.5C171.08 157.328 170.409 158 169.58 158H169.481C168.652 158 167.981 157.328 167.981 156.5ZM173.072 156.5C173.072 155.672 173.744 155 174.572 155H174.672C175.501 155 176.172 155.672 176.172 156.5C176.172 157.328 175.501 158 174.672 158H174.572C173.744 158 173.072 157.328 173.072 156.5ZM178.164 156.5C178.164 155.672 178.836 155 179.664 155H179.764C180.592 155 181.264 155.672 181.264 156.5C181.264 157.328 180.592 158 179.764 158H179.664C178.836 158 178.164 157.328 178.164 156.5ZM183.256 156.5C183.256 155.672 183.928 155 184.756 155H184.856C185.684 155 186.356 155.672 186.356 156.5C186.356 157.328 185.684 158 184.856 158H184.756C183.928 158 183.256 157.328 183.256 156.5ZM188.348 156.5C188.348 155.672 189.019 155 189.848 155H189.948C190.776 155 191.448 155.672 191.448 156.5C191.448 157.328 190.776 158 189.948 158H189.848C189.019 158 188.348 157.328 188.348 156.5ZM193.44 156.5C193.44 155.672 194.111 155 194.94 155H195.04C195.868 155 196.54 155.672 196.54 156.5C196.54 157.328 195.868 158 195.04 158H194.94C194.111 158 193.44 157.328 193.44 156.5ZM198.532 156.5C198.532 155.672 199.203 155 200.032 155H200.131C200.96 155 201.631 155.672 201.631 156.5C201.631 157.328 200.96 158 200.131 158H200.032C199.203 158 198.532 157.328 198.532 156.5ZM203.623 156.5C203.623 155.672 204.295 155 205.123 155H205.223C206.052 155 206.723 155.672 206.723 156.5C206.723 157.328 206.052 158 205.223 158H205.123C204.295 158 203.623 157.328 203.623 156.5ZM208.715 156.5C208.715 155.672 209.387 155 210.215 155H210.315C211.143 155 211.815 155.672 211.815 156.5C211.815 157.328 211.143 158 210.315 158H210.215C209.387 158 208.715 157.328 208.715 156.5ZM213.807 156.5C213.807 155.672 214.479 155 215.307 155H215.407C216.235 155 216.907 155.672 216.907 156.5C216.907 157.328 216.235 158 215.407 158H215.307C214.479 158 213.807 157.328 213.807 156.5ZM218.899 156.5C218.899 155.672 219.57 155 220.399 155H220.499C221.327 155 221.999 155.672 221.999 156.5C221.999 157.328 221.327 158 220.499 158H220.399C219.57 158 218.899 157.328 218.899 156.5ZM223.991 156.5C223.991 155.672 224.662 155 225.491 155H225.591C226.419 155 227.091 155.672 227.091 156.5C227.091 157.328 226.419 158 225.591 158H225.491C224.662 158 223.991 157.328 223.991 156.5ZM229.083 156.5C229.083 155.672 229.754 155 230.583 155H230.682C231.511 155 232.182 155.672 232.182 156.5C232.182 157.328 231.511 158 230.682 158H230.583C229.754 158 229.083 157.328 229.083 156.5ZM234.174 156.5C234.174 155.672 234.846 155 235.674 155H235.774C236.603 155 237.274 155.672 237.274 156.5C237.274 157.328 236.603 158 235.774 158H235.674C234.846 158 234.174 157.328 234.174 156.5ZM239.266 156.5C239.266 155.672 239.938 155 240.766 155H240.866C241.694 155 242.366 155.672 242.366 156.5C242.366 157.328 241.694 158 240.866 158H240.766C239.938 158 239.266 157.328 239.266 156.5ZM244.358 156.5C244.358 155.672 245.03 155 245.858 155H245.958C246.786 155 247.458 155.672 247.458 156.5C247.458 157.328 246.786 158 245.958 158H245.858C245.03 158 244.358 157.328 244.358 156.5ZM249.45 156.5C249.45 155.672 250.121 155 250.95 155H251.05C251.878 155 252.55 155.672 252.55 156.5C252.55 157.328 251.878 158 251.05 158H250.95C250.121 158 249.45 157.328 249.45 156.5ZM254.542 156.5C254.542 155.672 255.213 155 256.042 155H256.142C256.97 155 257.642 155.672 257.642 156.5C257.642 157.328 256.97 158 256.142 158H256.042C255.213 158 254.542 157.328 254.542 156.5ZM259.633 156.5C259.633 155.672 260.305 155 261.133 155H261.233C262.062 155 262.733 155.672 262.733 156.5C262.733 157.328 262.062 158 261.233 158H261.133C260.305 158 259.633 157.328 259.633 156.5ZM264.725 156.5C264.725 155.672 265.397 155 266.225 155H266.325C267.154 155 267.825 155.672 267.825 156.5C267.825 157.328 267.154 158 266.325 158H266.225C265.397 158 264.725 157.328 264.725 156.5ZM269.817 156.5C269.817 155.672 270.489 155 271.317 155H271.417C272.245 155 272.917 155.672 272.917 156.5C272.917 157.328 272.245 158 271.417 158H271.317C270.489 158 269.817 157.328 269.817 156.5ZM274.909 156.5C274.909 155.672 275.581 155 276.409 155H276.509C277.337 155 278.009 155.672 278.009 156.5C278.009 157.328 277.337 158 276.509 158H276.409C275.581 158 274.909 157.328 274.909 156.5ZM280.001 156.5C280.001 155.672 280.672 155 281.501 155H281.601C282.429 155 283.101 155.672 283.101 156.5C283.101 157.328 282.429 158 281.601 158H281.501C280.672 158 280.001 157.328 280.001 156.5ZM285.093 156.5C285.093 155.672 285.764 155 286.593 155H286.693C287.521 155 288.193 155.672 288.193 156.5C288.193 157.328 287.521 158 286.693 158H286.593C285.764 158 285.093 157.328 285.093 156.5ZM290.185 156.5C290.185 155.672 290.856 155 291.685 155H291.784C292.613 155 293.284 155.672 293.284 156.5C293.284 157.328 292.613 158 291.784 158H291.685C290.856 158 290.185 157.328 290.185 156.5ZM295.276 156.5C295.276 155.672 295.948 155 296.776 155H296.876C297.705 155 298.376 155.672 298.376 156.5C298.376 157.328 297.705 158 296.876 158H296.776C295.948 158 295.276 157.328 295.276 156.5ZM300.368 156.5C300.368 155.672 301.04 155 301.868 155H301.968C302.797 155 303.468 155.672 303.468 156.5C303.468 157.328 302.797 158 301.968 158H301.868C301.04 158 300.368 157.328 300.368 156.5ZM305.46 156.5C305.46 155.672 306.132 155 306.96 155H307.06C307.888 155 308.56 155.672 308.56 156.5C308.56 157.328 307.888 158 307.06 158H306.96C306.132 158 305.46 157.328 305.46 156.5ZM310.552 156.5C310.552 155.672 311.224 155 312.052 155H312.152C312.98 155 313.652 155.672 313.652 156.5C313.652 157.328 312.98 158 312.152 158H312.052C311.224 158 310.552 157.328 310.552 156.5ZM315.644 156.5C315.644 155.672 316.315 155 317.144 155H317.244C318.072 155 318.744 155.672 318.744 156.5C318.744 157.328 318.072 158 317.244 158H317.144C316.315 158 315.644 157.328 315.644 156.5ZM320.736 156.5C320.736 155.672 321.407 155 322.236 155H322.336C323.164 155 323.836 155.672 323.836 156.5C323.836 157.328 323.164 158 322.336 158H322.236C321.407 158 320.736 157.328 320.736 156.5ZM325.828 156.5C325.828 155.672 326.499 155 327.328 155H327.427C328.256 155 328.927 155.672 328.927 156.5C328.927 157.328 328.256 158 327.427 158H327.328C326.499 158 325.828 157.328 325.828 156.5ZM330.919 156.5C330.919 155.672 331.591 155 332.419 155H332.519C333.348 155 334.019 155.672 334.019 156.5C334.019 157.328 333.348 158 332.519 158H332.419C331.591 158 330.919 157.328 330.919 156.5ZM336.011 156.5C336.011 155.672 336.683 155 337.511 155H337.611C338.44 155 339.111 155.672 339.111 156.5C339.111 157.328 338.44 158 337.611 158H337.511C336.683 158 336.011 157.328 336.011 156.5ZM341.103 156.5C341.103 155.672 341.775 155 342.603 155H342.703C343.531 155 344.203 155.672 344.203 156.5C344.203 157.328 343.531 158 342.703 158H342.603C341.775 158 341.103 157.328 341.103 156.5ZM346.195 156.5C346.195 155.672 346.867 155 347.695 155H347.795C348.623 155 349.295 155.672 349.295 156.5C349.295 157.328 348.623 158 347.795 158H347.695C346.867 158 346.195 157.328 346.195 156.5ZM351.287 156.5C351.287 155.672 351.958 155 352.787 155H352.887C353.715 155 354.387 155.672 354.387 156.5C354.387 157.328 353.715 158 352.887 158H352.787C351.958 158 351.287 157.328 351.287 156.5ZM356.379 156.5C356.379 155.672 357.05 155 357.879 155H357.979C358.807 155 359.479 155.672 359.479 156.5C359.479 157.328 358.807 158 357.979 158H357.879C357.05 158 356.379 157.328 356.379 156.5ZM361.471 156.5C361.471 155.672 362.142 155 362.971 155H363.07C363.899 155 364.57 155.672 364.57 156.5C364.57 157.328 363.899 158 363.07 158H362.971C362.142 158 361.471 157.328 361.471 156.5ZM366.562 156.5C366.562 155.672 367.234 155 368.062 155H368.162C368.991 155 369.662 155.672 369.662 156.5C369.662 157.328 368.991 158 368.162 158H368.062C367.234 158 366.562 157.328 366.562 156.5ZM371.654 156.5C371.654 155.672 372.326 155 373.154 155H373.254C374.083 155 374.754 155.672 374.754 156.5C374.754 157.328 374.083 158 373.254 158H373.154C372.326 158 371.654 157.328 371.654 156.5ZM376.746 156.5C376.746 155.672 377.418 155 378.246 155H378.346C379.174 155 379.846 155.672 379.846 156.5C379.846 157.328 379.174 158 378.346 158H378.246C377.418 158 376.746 157.328 376.746 156.5ZM381.838 156.5C381.838 155.672 382.51 155 383.338 155H383.438C384.266 155 384.938 155.672 384.938 156.5C384.938 157.328 384.266 158 383.438 158H383.338C382.51 158 381.838 157.328 381.838 156.5ZM386.93 156.5C386.93 155.672 387.602 155 388.43 155H388.53C389.358 155 390.03 155.672 390.03 156.5C390.03 157.328 389.358 158 388.53 158H388.43C387.602 158 386.93 157.328 386.93 156.5ZM392.022 156.5C392.022 155.672 392.693 155 393.522 155H393.622C394.45 155 395.122 155.672 395.122 156.5C395.122 157.328 394.45 158 393.622 158H393.522C392.693 158 392.022 157.328 392.022 156.5ZM397.114 156.5C397.114 155.672 397.785 155 398.614 155H398.714C399.542 155 400.214 155.672 400.214 156.5C400.214 157.328 399.542 158 398.714 158H398.614C397.785 158 397.114 157.328 397.114 156.5ZM402.206 156.5C402.206 155.672 402.877 155 403.706 155H403.805C404.634 155 405.305 155.672 405.305 156.5C405.305 157.328 404.634 158 403.805 158H403.706C402.877 158 402.206 157.328 402.206 156.5ZM407.297 156.5C407.297 155.672 407.969 155 408.797 155H408.897C409.726 155 410.397 155.672 410.397 156.5C410.397 157.328 409.726 158 408.897 158H408.797C407.969 158 407.297 157.328 407.297 156.5ZM412.389 156.5C412.389 155.672 413.061 155 413.889 155H413.989C414.818 155 415.489 155.672 415.489 156.5C415.489 157.328 414.818 158 413.989 158H413.889C413.061 158 412.389 157.328 412.389 156.5ZM417.481 156.5C417.481 155.672 418.153 155 418.981 155H419.081C419.909 155 420.581 155.672 420.581 156.5C420.581 157.328 419.909 158 419.081 158H418.981C418.153 158 417.481 157.328 417.481 156.5ZM422.573 156.5C422.573 155.672 423.245 155 424.073 155H424.173C425.001 155 425.673 155.672 425.673 156.5C425.673 157.328 425.001 158 424.173 158H424.073C423.245 158 422.573 157.328 422.573 156.5ZM427.665 156.5C427.665 155.672 428.336 155 429.165 155H429.265C430.093 155 430.765 155.672 430.765 156.5C430.765 157.328 430.093 158 429.265 158H429.165C428.336 158 427.665 157.328 427.665 156.5ZM432.757 156.5C432.757 155.672 433.428 155 434.257 155H434.357C435.185 155 435.857 155.672 435.857 156.5C435.857 157.328 435.185 158 434.357 158H434.257C433.428 158 432.757 157.328 432.757 156.5ZM437.849 156.5C437.849 155.672 438.52 155 439.349 155H439.448C440.277 155 440.948 155.672 440.948 156.5C440.948 157.328 440.277 158 439.448 158H439.349C438.52 158 437.849 157.328 437.849 156.5ZM442.94 156.5C442.94 155.672 443.612 155 444.44 155H444.54C445.369 155 446.04 155.672 446.04 156.5C446.04 157.328 445.369 158 444.54 158H444.44C443.612 158 442.94 157.328 442.94 156.5ZM448.032 156.5C448.032 155.672 448.704 155 449.532 155H449.632C450.461 155 451.132 155.672 451.132 156.5C451.132 157.328 450.461 158 449.632 158H449.532C448.704 158 448.032 157.328 448.032 156.5ZM453.124 156.5C453.124 155.672 453.796 155 454.624 155H454.724C455.552 155 456.224 155.672 456.224 156.5C456.224 157.328 455.552 158 454.724 158H454.624C453.796 158 453.124 157.328 453.124 156.5ZM458.216 156.5C458.216 155.672 458.888 155 459.716 155H459.816C460.644 155 461.316 155.672 461.316 156.5C461.316 157.328 460.644 158 459.816 158H459.716C458.888 158 458.216 157.328 458.216 156.5ZM463.308 156.5C463.308 155.672 463.979 155 464.808 155H464.908C465.736 155 466.408 155.672 466.408 156.5C466.408 157.328 465.736 158 464.908 158H464.808C463.979 158 463.308 157.328 463.308 156.5ZM468.4 156.5C468.4 155.672 469.071 155 469.9 155H470C470.828 155 471.5 155.672 471.5 156.5C471.5 157.328 470.828 158 470 158H469.9C469.071 158 468.4 157.328 468.4 156.5ZM473.492 156.5C473.492 155.672 474.163 155 474.992 155H475.091C475.92 155 476.591 155.672 476.591 156.5C476.591 157.328 475.92 158 475.091 158H474.992C474.163 158 473.492 157.328 473.492 156.5ZM478.583 156.5C478.583 155.672 479.255 155 480.083 155H480.183C481.012 155 481.683 155.672 481.683 156.5C481.683 157.328 481.012 158 480.183 158H480.083C479.255 158 478.583 157.328 478.583 156.5ZM483.675 156.5C483.675 155.672 484.347 155 485.175 155H485.275C486.104 155 486.775 155.672 486.775 156.5C486.775 157.328 486.104 158 485.275 158H485.175C484.347 158 483.675 157.328 483.675 156.5ZM488.767 156.5C488.767 155.672 489.439 155 490.267 155H490.367C491.195 155 491.867 155.672 491.867 156.5C491.867 157.328 491.195 158 490.367 158H490.267C489.439 158 488.767 157.328 488.767 156.5ZM493.859 156.5C493.859 155.672 494.531 155 495.359 155H495.459C496.287 155 496.959 155.672 496.959 156.5C496.959 157.328 496.287 158 495.459 158H495.359C494.531 158 493.859 157.328 493.859 156.5ZM498.951 156.5C498.951 155.672 499.622 155 500.451 155H500.5C501.328 155 502 155.672 502 156.5C502 157.328 501.328 158 500.5 158H500.451C499.622 158 498.951 157.328 498.951 156.5Z" fill="#B02418"/>
<path fill-rule="evenodd" clip-rule="evenodd" d="M0 241.5C0 240.672 0.671573 240 1.5 240H1.54992C2.37835 240 3.04992 240.672 3.04992 241.5C3.04992 242.328 2.37835 243 1.54992 243H1.5C0.671573 243 0 242.328 0 241.5ZM5.04192 241.5C5.04192 240.672 5.71349 240 6.54192 240H6.64176C7.47018 240 8.14176 240.672 8.14176 241.5C8.14176 242.328 7.47018 243 6.64176 243H6.54192C5.71349 243 5.04192 242.328 5.04192 241.5ZM10.1338 241.5C10.1338 240.672 10.8053 240 11.6338 240H11.7336C12.562 240 13.2336 240.672 13.2336 241.5C13.2336 242.328 12.562 243 11.7336 243H11.6338C10.8053 243 10.1338 242.328 10.1338 241.5ZM15.2256 241.5C15.2256 240.672 15.8972 240 16.7256 240H16.8254C17.6539 240 18.3254 240.672 18.3254 241.5C18.3254 242.328 17.6539 243 16.8254 243H16.7256C15.8972 243 15.2256 242.328 15.2256 241.5ZM20.3174 241.5C20.3174 240.672 20.989 240 21.8174 240H21.9173C22.7457 240 23.4173 240.672 23.4173 241.5C23.4173 242.328 22.7457 243 21.9173 243H21.8174C20.989 243 20.3174 242.328 20.3174 241.5ZM25.4093 241.5C25.4093 240.672 26.0808 240 26.9093 240H27.0091C27.8375 240 28.5091 240.672 28.5091 241.5C28.5091 242.328 27.8375 243 27.0091 243H26.9093C26.0808 243 25.4093 242.328 25.4093 241.5ZM30.5011 241.5C30.5011 240.672 31.1727 240 32.0011 240H32.1009C32.9294 240 33.6009 240.672 33.6009 241.5C33.6009 242.328 32.9294 243 32.1009 243H32.0011C31.1727 243 30.5011 242.328 30.5011 241.5ZM35.5929 241.5C35.5929 240.672 36.2645 240 37.0929 240H37.1928C38.0212 240 38.6928 240.672 38.6928 241.5C38.6928 242.328 38.0212 243 37.1928 243H37.0929C36.2645 243 35.5929 242.328 35.5929 241.5ZM40.6848 241.5C40.6848 240.672 41.3563 240 42.1848 240H42.2846C43.113 240 43.7846 240.672 43.7846 241.5C43.7846 242.328 43.113 243 42.2846 243H42.1848C41.3563 243 40.6848 242.328 40.6848 241.5ZM45.7766 241.5C45.7766 240.672 46.4482 240 47.2766 240H47.3764C48.2049 240 48.8764 240.672 48.8764 241.5C48.8764 242.328 48.2049 243 47.3764 243H47.2766C46.4482 243 45.7766 242.328 45.7766 241.5ZM50.8684 241.5C50.8684 240.672 51.54 240 52.3684 240H52.4683C53.2967 240 53.9683 240.672 53.9683 241.5C53.9683 242.328 53.2967 243 52.4683 243H52.3684C51.54 243 50.8684 242.328 50.8684 241.5ZM55.9603 241.5C55.9603 240.672 56.6319 240 57.4603 240H57.5601C58.3885 240 59.0601 240.672 59.0601 241.5C59.0601 242.328 58.3885 243 57.5601 243H57.4603C56.6319 243 55.9603 242.328 55.9603 241.5ZM61.0521 241.5C61.0521 240.672 61.7237 240 62.5521 240H62.652C63.4804 240 64.152 240.672 64.152 241.5C64.152 242.328 63.4804 243 62.652 243H62.5521C61.7237 243 61.0521 242.328 61.0521 241.5ZM66.144 241.5C66.144 240.672 66.8155 240 67.644 240H67.7438C68.5722 240 69.2438 240.672 69.2438 241.5C69.2438 242.328 68.5722 243 67.7438 243H67.644C66.8155 243 66.144 242.328 66.144 241.5ZM71.2358 241.5C71.2358 240.672 71.9074 240 72.7358 240H72.8356C73.6641 240 74.3356 240.672 74.3356 241.5C74.3356 242.328 73.6641 243 72.8356 243H72.7358C71.9074 243 71.2358 242.328 71.2358 241.5ZM76.3276 241.5C76.3276 240.672 76.9992 240 77.8276 240H77.9275C78.7559 240 79.4275 240.672 79.4275 241.5C79.4275 242.328 78.7559 243 77.9275 243H77.8276C76.9992 243 76.3276 242.328 76.3276 241.5ZM81.4195 241.5C81.4195 240.672 82.091 240 82.9195 240H83.0193C83.8477 240 84.5193 240.672 84.5193 241.5C84.5193 242.328 83.8477 243 83.0193 243H82.9195C82.091 243 81.4195 242.328 81.4195 241.5ZM86.5113 241.5C86.5113 240.672 87.1829 240 88.0113 240H88.1111C88.9396 240 89.6111 240.672 89.6111 241.5C89.6111 242.328 88.9396 243 88.1111 243H88.0113C87.1829 243 86.5113 242.328 86.5113 241.5ZM91.6031 241.5C91.6031 240.672 92.2747 240 93.1031 240H93.203C94.0314 240 94.703 240.672 94.703 241.5C94.703 242.328 94.0314 243 93.203 243H93.1031C92.2747 243 91.6031 242.328 91.6031 241.5ZM96.695 241.5C96.695 240.672 97.3665 240 98.195 240H98.2948C99.1232 240 99.7948 240.672 99.7948 241.5C99.7948 242.328 99.1232 243 98.2948 243H98.195C97.3665 243 96.695 242.328 96.695 241.5ZM101.787 241.5C101.787 240.672 102.458 240 103.287 240H103.387C104.215 240 104.887 240.672 104.887 241.5C104.887 242.328 104.215 243 103.387 243H103.287C102.458 243 101.787 242.328 101.787 241.5ZM106.879 241.5C106.879 240.672 107.55 240 108.379 240H108.478C109.307 240 109.978 240.672 109.978 241.5C109.978 242.328 109.307 243 108.478 243H108.379C107.55 243 106.879 242.328 106.879 241.5ZM111.97 241.5C111.97 240.672 112.642 240 113.47 240H113.57C114.399 240 115.07 240.672 115.07 241.5C115.07 242.328 114.399 243 113.57 243H113.47C112.642 243 111.97 242.328 111.97 241.5ZM117.062 241.5C117.062 240.672 117.734 240 118.562 240H118.662C119.491 240 120.162 240.672 120.162 241.5C120.162 242.328 119.491 243 118.662 243H118.562C117.734 243 117.062 242.328 117.062 241.5ZM122.154 241.5C122.154 240.672 122.826 240 123.654 240H123.754C124.582 240 125.254 240.672 125.254 241.5C125.254 242.328 124.582 243 123.754 243H123.654C122.826 243 122.154 242.328 122.154 241.5ZM127.246 241.5C127.246 240.672 127.918 240 128.746 240H128.846C129.674 240 130.346 240.672 130.346 241.5C130.346 242.328 129.674 243 128.846 243H128.746C127.918 243 127.246 242.328 127.246 241.5ZM132.338 241.5C132.338 240.672 133.009 240 133.838 240H133.938C134.766 240 135.438 240.672 135.438 241.5C135.438 242.328 134.766 243 133.938 243H133.838C133.009 243 132.338 242.328 132.338 241.5ZM137.43 241.5C137.43 240.672 138.101 240 138.93 240H139.029C139.858 240 140.529 240.672 140.529 241.5C140.529 242.328 139.858 243 139.029 243H138.93C138.101 243 137.43 242.328 137.43 241.5ZM142.521 241.5C142.521 240.672 143.193 240 144.021 240H144.121C144.95 240 145.621 240.672 145.621 241.5C145.621 242.328 144.95 243 144.121 243H144.021C143.193 243 142.521 242.328 142.521 241.5ZM147.613 241.5C147.613 240.672 148.285 240 149.113 240H149.213C150.042 240 150.713 240.672 150.713 241.5C150.713 242.328 150.042 243 149.213 243H149.113C148.285 243 147.613 242.328 147.613 241.5ZM152.705 241.5C152.705 240.672 153.377 240 154.205 240H154.305C155.133 240 155.805 240.672 155.805 241.5C155.805 242.328 155.133 243 154.305 243H154.205C153.377 243 152.705 242.328 152.705 241.5ZM157.797 241.5C157.797 240.672 158.469 240 159.297 240H159.397C160.225 240 160.897 240.672 160.897 241.5C160.897 242.328 160.225 243 159.397 243H159.297C158.469 243 157.797 242.328 157.797 241.5ZM162.889 241.5C162.889 240.672 163.56 240 164.389 240H164.489C165.317 240 165.989 240.672 165.989 241.5C165.989 242.328 165.317 243 164.489 243H164.389C163.56 243 162.889 242.328 162.889 241.5ZM167.981 241.5C167.981 240.672 168.652 240 169.481 240H169.58C170.409 240 171.08 240.672 171.08 241.5C171.08 242.328 170.409 243 169.58 243H169.481C168.652 243 167.981 242.328 167.981 241.5ZM173.072 241.5C173.072 240.672 173.744 240 174.572 240H174.672C175.501 240 176.172 240.672 176.172 241.5C176.172 242.328 175.501 243 174.672 243H174.572C173.744 243 173.072 242.328 173.072 241.5ZM178.164 241.5C178.164 240.672 178.836 240 179.664 240H179.764C180.592 240 181.264 240.672 181.264 241.5C181.264 242.328 180.592 243 179.764 243H179.664C178.836 243 178.164 242.328 178.164 241.5ZM183.256 241.5C183.256 240.672 183.928 240 184.756 240H184.856C185.684 240 186.356 240.672 186.356 241.5C186.356 242.328 185.684 243 184.856 243H184.756C183.928 243 183.256 242.328 183.256 241.5ZM188.348 241.5C188.348 240.672 189.019 240 189.848 240H189.948C190.776 240 191.448 240.672 191.448 241.5C191.448 242.328 190.776 243 189.948 243H189.848C189.019 243 188.348 242.328 188.348 241.5ZM193.44 241.5C193.44 240.672 194.111 240 194.94 240H195.04C195.868 240 196.54 240.672 196.54 241.5C196.54 242.328 195.868 243 195.04 243H194.94C194.111 243 193.44 242.328 193.44 241.5ZM198.532 241.5C198.532 240.672 199.203 240 200.032 240H200.131C200.96 240 201.631 240.672 201.631 241.5C201.631 242.328 200.96 243 200.131 243H200.032C199.203 243 198.532 242.328 198.532 241.5ZM203.623 241.5C203.623 240.672 204.295 240 205.123 240H205.223C206.052 240 206.723 240.672 206.723 241.5C206.723 242.328 206.052 243 205.223 243H205.123C204.295 243 203.623 242.328 203.623 241.5ZM208.715 241.5C208.715 240.672 209.387 240 210.215 240H210.315C211.143 240 211.815 240.672 211.815 241.5C211.815 242.328 211.143 243 210.315 243H210.215C209.387 243 208.715 242.328 208.715 241.5ZM213.807 241.5C213.807 240.672 214.479 240 215.307 240H215.407C216.235 240 216.907 240.672 216.907 241.5C216.907 242.328 216.235 243 215.407 243H215.307C214.479 243 213.807 242.328 213.807 241.5ZM218.899 241.5C218.899 240.672 219.57 240 220.399 240H220.499C221.327 240 221.999 240.672 221.999 241.5C221.999 242.328 221.327 243 220.499 243H220.399C219.57 243 218.899 242.328 218.899 241.5ZM223.991 241.5C223.991 240.672 224.662 240 225.491 240H225.591C226.419 240 227.091 240.672 227.091 241.5C227.091 242.328 226.419 243 225.591 243H225.491C224.662 243 223.991 242.328 223.991 241.5ZM229.083 241.5C229.083 240.672 229.754 240 230.583 240H230.682C231.511 240 232.182 240.672 232.182 241.5C232.182 242.328 231.511 243 230.682 243H230.583C229.754 243 229.083 242.328 229.083 241.5ZM234.174 241.5C234.174 240.672 234.846 240 235.674 240H235.774C236.603 240 237.274 240.672 237.274 241.5C237.274 242.328 236.603 243 235.774 243H235.674C234.846 243 234.174 242.328 234.174 241.5ZM239.266 241.5C239.266 240.672 239.938 240 240.766 240H240.866C241.694 240 242.366 240.672 242.366 241.5C242.366 242.328 241.694 243 240.866 243H240.766C239.938 243 239.266 242.328 239.266 241.5ZM244.358 241.5C244.358 240.672 245.03 240 245.858 240H245.958C246.786 240 247.458 240.672 247.458 241.5C247.458 242.328 246.786 243 245.958 243H245.858C245.03 243 244.358 242.328 244.358 241.5ZM249.45 241.5C249.45 240.672 250.121 240 250.95 240H251.05C251.878 240 252.55 240.672 252.55 241.5C252.55 242.328 251.878 243 251.05 243H250.95C250.121 243 249.45 242.328 249.45 241.5ZM254.542 241.5C254.542 240.672 255.213 240 256.042 240H256.142C256.97 240 257.642 240.672 257.642 241.5C257.642 242.328 256.97 243 256.142 243H256.042C255.213 243 254.542 242.328 254.542 241.5ZM259.633 241.5C259.633 240.672 260.305 240 261.133 240H261.233C262.062 240 262.733 240.672 262.733 241.5C262.733 242.328 262.062 243 261.233 243H261.133C260.305 243 259.633 242.328 259.633 241.5ZM264.725 241.5C264.725 240.672 265.397 240 266.225 240H266.325C267.154 240 267.825 240.672 267.825 241.5C267.825 242.328 267.154 243 266.325 243H266.225C265.397 243 264.725 242.328 264.725 241.5ZM269.817 241.5C269.817 240.672 270.489 240 271.317 240H271.417C272.245 240 272.917 240.672 272.917 241.5C272.917 242.328 272.245 243 271.417 243H271.317C270.489 243 269.817 242.328 269.817 241.5ZM274.909 241.5C274.909 240.672 275.581 240 276.409 240H276.509C277.337 240 278.009 240.672 278.009 241.5C278.009 242.328 277.337 243 276.509 243H276.409C275.581 243 274.909 242.328 274.909 241.5ZM280.001 241.5C280.001 240.672 280.672 240 281.501 240H281.601C282.429 240 283.101 240.672 283.101 241.5C283.101 242.328 282.429 243 281.601 243H281.501C280.672 243 280.001 242.328 280.001 241.5ZM285.093 241.5C285.093 240.672 285.764 240 286.593 240H286.693C287.521 240 288.193 240.672 288.193 241.5C288.193 242.328 287.521 243 286.693 243H286.593C285.764 243 285.093 242.328 285.093 241.5ZM290.185 241.5C290.185 240.672 290.856 240 291.685 240H291.784C292.613 240 293.284 240.672 293.284 241.5C293.284 242.328 292.613 243 291.784 243H291.685C290.856 243 290.185 242.328 290.185 241.5ZM295.276 241.5C295.276 240.672 295.948 240 296.776 240H296.876C297.705 240 298.376 240.672 298.376 241.5C298.376 242.328 297.705 243 296.876 243H296.776C295.948 243 295.276 242.328 295.276 241.5ZM300.368 241.5C300.368 240.672 301.04 240 301.868 240H301.968C302.797 240 303.468 240.672 303.468 241.5C303.468 242.328 302.797 243 301.968 243H301.868C301.04 243 300.368 242.328 300.368 241.5ZM305.46 241.5C305.46 240.672 306.132 240 306.96 240H307.06C307.888 240 308.56 240.672 308.56 241.5C308.56 242.328 307.888 243 307.06 243H306.96C306.132 243 305.46 242.328 305.46 241.5ZM310.552 241.5C310.552 240.672 311.224 240 312.052 240H312.152C312.98 240 313.652 240.672 313.652 241.5C313.652 242.328 312.98 243 312.152 243H312.052C311.224 243 310.552 242.328 310.552 241.5ZM315.644 241.5C315.644 240.672 316.315 240 317.144 240H317.244C318.072 240 318.744 240.672 318.744 241.5C318.744 242.328 318.072 243 317.244 243H317.144C316.315 243 315.644 242.328 315.644 241.5ZM320.736 241.5C320.736 240.672 321.407 240 322.236 240H322.336C323.164 240 323.836 240.672 323.836 241.5C323.836 242.328 323.164 243 322.336 243H322.236C321.407 243 320.736 242.328 320.736 241.5ZM325.828 241.5C325.828 240.672 326.499 240 327.328 240H327.427C328.256 240 328.927 240.672 328.927 241.5C328.927 242.328 328.256 243 327.427 243H327.328C326.499 243 325.828 242.328 325.828 241.5ZM330.919 241.5C330.919 240.672 331.591 240 332.419 240H332.519C333.348 240 334.019 240.672 334.019 241.5C334.019 242.328 333.348 243 332.519 243H332.419C331.591 243 330.919 242.328 330.919 241.5ZM336.011 241.5C336.011 240.672 336.683 240 337.511 240H337.611C338.44 240 339.111 240.672 339.111 241.5C339.111 242.328 338.44 243 337.611 243H337.511C336.683 243 336.011 242.328 336.011 241.5ZM341.103 241.5C341.103 240.672 341.775 240 342.603 240H342.703C343.531 240 344.203 240.672 344.203 241.5C344.203 242.328 343.531 243 342.703 243H342.603C341.775 243 341.103 242.328 341.103 241.5ZM346.195 241.5C346.195 240.672 346.867 240 347.695 240H347.795C348.623 240 349.295 240.672 349.295 241.5C349.295 242.328 348.623 243 347.795 243H347.695C346.867 243 346.195 242.328 346.195 241.5ZM351.287 241.5C351.287 240.672 351.958 240 352.787 240H352.887C353.715 240 354.387 240.672 354.387 241.5C354.387 242.328 353.715 243 352.887 243H352.787C351.958 243 351.287 242.328 351.287 241.5ZM356.379 241.5C356.379 240.672 357.05 240 357.879 240H357.979C358.807 240 359.479 240.672 359.479 241.5C359.479 242.328 358.807 243 357.979 243H357.879C357.05 243 356.379 242.328 356.379 241.5ZM361.471 241.5C361.471 240.672 362.142 240 362.971 240H363.07C363.899 240 364.57 240.672 364.57 241.5C364.57 242.328 363.899 243 363.07 243H362.971C362.142 243 361.471 242.328 361.471 241.5ZM366.562 241.5C366.562 240.672 367.234 240 368.062 240H368.162C368.991 240 369.662 240.672 369.662 241.5C369.662 242.328 368.991 243 368.162 243H368.062C367.234 243 366.562 242.328 366.562 241.5ZM371.654 241.5C371.654 240.672 372.326 240 373.154 240H373.254C374.083 240 374.754 240.672 374.754 241.5C374.754 242.328 374.083 243 373.254 243H373.154C372.326 243 371.654 242.328 371.654 241.5ZM376.746 241.5C376.746 240.672 377.418 240 378.246 240H378.346C379.174 240 379.846 240.672 379.846 241.5C379.846 242.328 379.174 243 378.346 243H378.246C377.418 243 376.746 242.328 376.746 241.5ZM381.838 241.5C381.838 240.672 382.51 240 383.338 240H383.438C384.266 240 384.938 240.672 384.938 241.5C384.938 242.328 384.266 243 383.438 243H383.338C382.51 243 381.838 242.328 381.838 241.5ZM386.93 241.5C386.93 240.672 387.602 240 388.43 240H388.53C389.358 240 390.03 240.672 390.03 241.5C390.03 242.328 389.358 243 388.53 243H388.43C387.602 243 386.93 242.328 386.93 241.5ZM392.022 241.5C392.022 240.672 392.693 240 393.522 240H393.622C394.45 240 395.122 240.672 395.122 241.5C395.122 242.328 394.45 243 393.622 243H393.522C392.693 243 392.022 242.328 392.022 241.5ZM397.114 241.5C397.114 240.672 397.785 240 398.614 240H398.714C399.542 240 400.214 240.672 400.214 241.5C400.214 242.328 399.542 243 398.714 243H398.614C397.785 243 397.114 242.328 397.114 241.5ZM402.206 241.5C402.206 240.672 402.877 240 403.706 240H403.805C404.634 240 405.305 240.672 405.305 241.5C405.305 242.328 404.634 243 403.805 243H403.706C402.877 243 402.206 242.328 402.206 241.5ZM407.297 241.5C407.297 240.672 407.969 240 408.797 240H408.897C409.726 240 410.397 240.672 410.397 241.5C410.397 242.328 409.726 243 408.897 243H408.797C407.969 243 407.297 242.328 407.297 241.5ZM412.389 241.5C412.389 240.672 413.061 240 413.889 240H413.989C414.818 240 415.489 240.672 415.489 241.5C415.489 242.328 414.818 243 413.989 243H413.889C413.061 243 412.389 242.328 412.389 241.5ZM417.481 241.5C417.481 240.672 418.153 240 418.981 240H419.081C419.909 240 420.581 240.672 420.581 241.5C420.581 242.328 419.909 243 419.081 243H418.981C418.153 243 417.481 242.328 417.481 241.5ZM422.573 241.5C422.573 240.672 423.245 240 424.073 240H424.173C425.001 240 425.673 240.672 425.673 241.5C425.673 242.328 425.001 243 424.173 243H424.073C423.245 243 422.573 242.328 422.573 241.5ZM427.665 241.5C427.665 240.672 428.336 240 429.165 240H429.265C430.093 240 430.765 240.672 430.765 241.5C430.765 242.328 430.093 243 429.265 243H429.165C428.336 243 427.665 242.328 427.665 241.5ZM432.757 241.5C432.757 240.672 433.428 240 434.257 240H434.357C435.185 240 435.857 240.672 435.857 241.5C435.857 242.328 435.185 243 434.357 243H434.257C433.428 243 432.757 242.328 432.757 241.5ZM437.849 241.5C437.849 240.672 438.52 240 439.349 240H439.448C440.277 240 440.948 240.672 440.948 241.5C440.948 242.328 440.277 243 439.448 243H439.349C438.52 243 437.849 242.328 437.849 241.5ZM442.94 241.5C442.94 240.672 443.612 240 444.44 240H444.54C445.369 240 446.04 240.672 446.04 241.5C446.04 242.328 445.369 243 444.54 243H444.44C443.612 243 442.94 242.328 442.94 241.5ZM448.032 241.5C448.032 240.672 448.704 240 449.532 240H449.632C450.461 240 451.132 240.672 451.132 241.5C451.132 242.328 450.461 243 449.632 243H449.532C448.704 243 448.032 242.328 448.032 241.5ZM453.124 241.5C453.124 240.672 453.796 240 454.624 240H454.724C455.552 240 456.224 240.672 456.224 241.5C456.224 242.328 455.552 243 454.724 243H454.624C453.796 243 453.124 242.328 453.124 241.5ZM458.216 241.5C458.216 240.672 458.888 240 459.716 240H459.816C460.644 240 461.316 240.672 461.316 241.5C461.316 242.328 460.644 243 459.816 243H459.716C458.888 243 458.216 242.328 458.216 241.5ZM463.308 241.5C463.308 240.672 463.979 240 464.808 240H464.908C465.736 240 466.408 240.672 466.408 241.5C466.408 242.328 465.736 243 464.908 243H464.808C463.979 243 463.308 242.328 463.308 241.5ZM468.4 241.5C468.4 240.672 469.071 240 469.9 240H470C470.828 240 471.5 240.672 471.5 241.5C471.5 242.328 470.828 243 470 243H469.9C469.071 243 468.4 242.328 468.4 241.5ZM473.492 241.5C473.492 240.672 474.163 240 474.992 240H475.091C475.92 240 476.591 240.672 476.591 241.5C476.591 242.328 475.92 243 475.091 243H474.992C474.163 243 473.492 242.328 473.492 241.5ZM478.583 241.5C478.583 240.672 479.255 240 480.083 240H480.183C481.012 240 481.683 240.672 481.683 241.5C481.683 242.328 481.012 243 480.183 243H480.083C479.255 243 478.583 242.328 478.583 241.5ZM483.675 241.5C483.675 240.672 484.347 240 485.175 240H485.275C486.104 240 486.775 240.672 486.775 241.5C486.775 242.328 486.104 243 485.275 243H485.175C484.347 243 483.675 242.328 483.675 241.5ZM488.767 241.5C488.767 240.672 489.439 240 490.267 240H490.367C491.195 240 491.867 240.672 491.867 241.5C491.867 242.328 491.195 243 490.367 243H490.267C489.439 243 488.767 242.328 488.767 241.5ZM493.859 241.5C493.859 240.672 494.531 240 495.359 240H495.459C496.287 240 496.959 240.672 496.959 241.5C496.959 242.328 496.287 243 495.459 243H495.359C494.531 243 493.859 242.328 493.859 241.5ZM498.951 241.5C498.951 240.672 499.622 240 500.451 240H500.5C501.328 240 502 240.672 502 241.5C502 242.328 501.328 243 500.5 243H500.451C499.622 243 498.951 242.328 498.951 241.5Z" fill="#B02418"/>
<path fill-rule="evenodd" clip-rule="evenodd" d="M0 563.5C0 562.672 0.671573 562 1.5 562H1.54992C2.37835 562 3.04992 562.672 3.04992 563.5C3.04992 564.328 2.37835 565 1.54992 565H1.5C0.671573 565 0 564.328 0 563.5ZM5.04192 563.5C5.04192 562.672 5.71349 562 6.54192 562H6.64176C7.47018 562 8.14176 562.672 8.14176 563.5C8.14176 564.328 7.47018 565 6.64176 565H6.54192C5.71349 565 5.04192 564.328 5.04192 563.5ZM10.1338 563.5C10.1338 562.672 10.8053 562 11.6338 562H11.7336C12.562 562 13.2336 562.672 13.2336 563.5C13.2336 564.328 12.562 565 11.7336 565H11.6338C10.8053 565 10.1338 564.328 10.1338 563.5ZM15.2256 563.5C15.2256 562.672 15.8972 562 16.7256 562H16.8254C17.6539 562 18.3254 562.672 18.3254 563.5C18.3254 564.328 17.6539 565 16.8254 565H16.7256C15.8972 565 15.2256 564.328 15.2256 563.5ZM20.3174 563.5C20.3174 562.672 20.989 562 21.8174 562H21.9173C22.7457 562 23.4173 562.672 23.4173 563.5C23.4173 564.328 22.7457 565 21.9173 565H21.8174C20.989 565 20.3174 564.328 20.3174 563.5ZM25.4093 563.5C25.4093 562.672 26.0808 562 26.9093 562H27.0091C27.8375 562 28.5091 562.672 28.5091 563.5C28.5091 564.328 27.8375 565 27.0091 565H26.9093C26.0808 565 25.4093 564.328 25.4093 563.5ZM30.5011 563.5C30.5011 562.672 31.1727 562 32.0011 562H32.1009C32.9294 562 33.6009 562.672 33.6009 563.5C33.6009 564.328 32.9294 565 32.1009 565H32.0011C31.1727 565 30.5011 564.328 30.5011 563.5ZM35.5929 563.5C35.5929 562.672 36.2645 562 37.0929 562H37.1928C38.0212 562 38.6928 562.672 38.6928 563.5C38.6928 564.328 38.0212 565 37.1928 565H37.0929C36.2645 565 35.5929 564.328 35.5929 563.5ZM40.6848 563.5C40.6848 562.672 41.3563 562 42.1848 562H42.2846C43.113 562 43.7846 562.672 43.7846 563.5C43.7846 564.328 43.113 565 42.2846 565H42.1848C41.3563 565 40.6848 564.328 40.6848 563.5ZM45.7766 563.5C45.7766 562.672 46.4482 562 47.2766 562H47.3764C48.2049 562 48.8764 562.672 48.8764 563.5C48.8764 564.328 48.2049 565 47.3764 565H47.2766C46.4482 565 45.7766 564.328 45.7766 563.5ZM50.8684 563.5C50.8684 562.672 51.54 562 52.3684 562H52.4683C53.2967 562 53.9683 562.672 53.9683 563.5C53.9683 564.328 53.2967 565 52.4683 565H52.3684C51.54 565 50.8684 564.328 50.8684 563.5ZM55.9603 563.5C55.9603 562.672 56.6319 562 57.4603 562H57.5601C58.3885 562 59.0601 562.672 59.0601 563.5C59.0601 564.328 58.3885 565 57.5601 565H57.4603C56.6319 565 55.9603 564.328 55.9603 563.5ZM61.0521 563.5C61.0521 562.672 61.7237 562 62.5521 562H62.652C63.4804 562 64.152 562.672 64.152 563.5C64.152 564.328 63.4804 565 62.652 565H62.5521C61.7237 565 61.0521 564.328 61.0521 563.5ZM66.144 563.5C66.144 562.672 66.8155 562 67.644 562H67.7438C68.5722 562 69.2438 562.672 69.2438 563.5C69.2438 564.328 68.5722 565 67.7438 565H67.644C66.8155 565 66.144 564.328 66.144 563.5ZM71.2358 563.5C71.2358 562.672 71.9074 562 72.7358 562H72.8356C73.6641 562 74.3356 562.672 74.3356 563.5C74.3356 564.328 73.6641 565 72.8356 565H72.7358C71.9074 565 71.2358 564.328 71.2358 563.5ZM76.3276 563.5C76.3276 562.672 76.9992 562 77.8276 562H77.9275C78.7559 562 79.4275 562.672 79.4275 563.5C79.4275 564.328 78.7559 565 77.9275 565H77.8276C76.9992 565 76.3276 564.328 76.3276 563.5ZM81.4195 563.5C81.4195 562.672 82.091 562 82.9195 562H83.0193C83.8477 562 84.5193 562.672 84.5193 563.5C84.5193 564.328 83.8477 565 83.0193 565H82.9195C82.091 565 81.4195 564.328 81.4195 563.5ZM86.5113 563.5C86.5113 562.672 87.1829 562 88.0113 562H88.1111C88.9396 562 89.6111 562.672 89.6111 563.5C89.6111 564.328 88.9396 565 88.1111 565H88.0113C87.1829 565 86.5113 564.328 86.5113 563.5ZM91.6031 563.5C91.6031 562.672 92.2747 562 93.1031 562H93.203C94.0314 562 94.703 562.672 94.703 563.5C94.703 564.328 94.0314 565 93.203 565H93.1031C92.2747 565 91.6031 564.328 91.6031 563.5ZM96.695 563.5C96.695 562.672 97.3665 562 98.195 562H98.2948C99.1232 562 99.7948 562.672 99.7948 563.5C99.7948 564.328 99.1232 565 98.2948 565H98.195C97.3665 565 96.695 564.328 96.695 563.5ZM101.787 563.5C101.787 562.672 102.458 562 103.287 562H103.387C104.215 562 104.887 562.672 104.887 563.5C104.887 564.328 104.215 565 103.387 565H103.287C102.458 565 101.787 564.328 101.787 563.5ZM106.879 563.5C106.879 562.672 107.55 562 108.379 562H108.478C109.307 562 109.978 562.672 109.978 563.5C109.978 564.328 109.307 565 108.478 565H108.379C107.55 565 106.879 564.328 106.879 563.5ZM111.97 563.5C111.97 562.672 112.642 562 113.47 562H113.57C114.399 562 115.07 562.672 115.07 563.5C115.07 564.328 114.399 565 113.57 565H113.47C112.642 565 111.97 564.328 111.97 563.5ZM117.062 563.5C117.062 562.672 117.734 562 118.562 562H118.662C119.491 562 120.162 562.672 120.162 563.5C120.162 564.328 119.491 565 118.662 565H118.562C117.734 565 117.062 564.328 117.062 563.5ZM122.154 563.5C122.154 562.672 122.826 562 123.654 562H123.754C124.582 562 125.254 562.672 125.254 563.5C125.254 564.328 124.582 565 123.754 565H123.654C122.826 565 122.154 564.328 122.154 563.5ZM127.246 563.5C127.246 562.672 127.918 562 128.746 562H128.846C129.674 562 130.346 562.672 130.346 563.5C130.346 564.328 129.674 565 128.846 565H128.746C127.918 565 127.246 564.328 127.246 563.5ZM132.338 563.5C132.338 562.672 133.009 562 133.838 562H133.938C134.766 562 135.438 562.672 135.438 563.5C135.438 564.328 134.766 565 133.938 565H133.838C133.009 565 132.338 564.328 132.338 563.5ZM137.43 563.5C137.43 562.672 138.101 562 138.93 562H139.029C139.858 562 140.529 562.672 140.529 563.5C140.529 564.328 139.858 565 139.029 565H138.93C138.101 565 137.43 564.328 137.43 563.5ZM142.521 563.5C142.521 562.672 143.193 562 144.021 562H144.121C144.95 562 145.621 562.672 145.621 563.5C145.621 564.328 144.95 565 144.121 565H144.021C143.193 565 142.521 564.328 142.521 563.5ZM147.613 563.5C147.613 562.672 148.285 562 149.113 562H149.213C150.042 562 150.713 562.672 150.713 563.5C150.713 564.328 150.042 565 149.213 565H149.113C148.285 565 147.613 564.328 147.613 563.5ZM152.705 563.5C152.705 562.672 153.377 562 154.205 562H154.305C155.133 562 155.805 562.672 155.805 563.5C155.805 564.328 155.133 565 154.305 565H154.205C153.377 565 152.705 564.328 152.705 563.5ZM157.797 563.5C157.797 562.672 158.469 562 159.297 562H159.397C160.225 562 160.897 562.672 160.897 563.5C160.897 564.328 160.225 565 159.397 565H159.297C158.469 565 157.797 564.328 157.797 563.5ZM162.889 563.5C162.889 562.672 163.56 562 164.389 562H164.489C165.317 562 165.989 562.672 165.989 563.5C165.989 564.328 165.317 565 164.489 565H164.389C163.56 565 162.889 564.328 162.889 563.5ZM167.981 563.5C167.981 562.672 168.652 562 169.481 562H169.58C170.409 562 171.08 562.672 171.08 563.5C171.08 564.328 170.409 565 169.58 565H169.481C168.652 565 167.981 564.328 167.981 563.5ZM173.072 563.5C173.072 562.672 173.744 562 174.572 562H174.672C175.501 562 176.172 562.672 176.172 563.5C176.172 564.328 175.501 565 174.672 565H174.572C173.744 565 173.072 564.328 173.072 563.5ZM178.164 563.5C178.164 562.672 178.836 562 179.664 562H179.764C180.592 562 181.264 562.672 181.264 563.5C181.264 564.328 180.592 565 179.764 565H179.664C178.836 565 178.164 564.328 178.164 563.5ZM183.256 563.5C183.256 562.672 183.928 562 184.756 562H184.856C185.684 562 186.356 562.672 186.356 563.5C186.356 564.328 185.684 565 184.856 565H184.756C183.928 565 183.256 564.328 183.256 563.5ZM188.348 563.5C188.348 562.672 189.019 562 189.848 562H189.948C190.776 562 191.448 562.672 191.448 563.5C191.448 564.328 190.776 565 189.948 565H189.848C189.019 565 188.348 564.328 188.348 563.5ZM193.44 563.5C193.44 562.672 194.111 562 194.94 562H195.04C195.868 562 196.54 562.672 196.54 563.5C196.54 564.328 195.868 565 195.04 565H194.94C194.111 565 193.44 564.328 193.44 563.5ZM198.532 563.5C198.532 562.672 199.203 562 200.032 562H200.131C200.96 562 201.631 562.672 201.631 563.5C201.631 564.328 200.96 565 200.131 565H200.032C199.203 565 198.532 564.328 198.532 563.5ZM203.623 563.5C203.623 562.672 204.295 562 205.123 562H205.223C206.052 562 206.723 562.672 206.723 563.5C206.723 564.328 206.052 565 205.223 565H205.123C204.295 565 203.623 564.328 203.623 563.5ZM208.715 563.5C208.715 562.672 209.387 562 210.215 562H210.315C211.143 562 211.815 562.672 211.815 563.5C211.815 564.328 211.143 565 210.315 565H210.215C209.387 565 208.715 564.328 208.715 563.5ZM213.807 563.5C213.807 562.672 214.479 562 215.307 562H215.407C216.235 562 216.907 562.672 216.907 563.5C216.907 564.328 216.235 565 215.407 565H215.307C214.479 565 213.807 564.328 213.807 563.5ZM218.899 563.5C218.899 562.672 219.57 562 220.399 562H220.499C221.327 562 221.999 562.672 221.999 563.5C221.999 564.328 221.327 565 220.499 565H220.399C219.57 565 218.899 564.328 218.899 563.5ZM223.991 563.5C223.991 562.672 224.662 562 225.491 562H225.591C226.419 562 227.091 562.672 227.091 563.5C227.091 564.328 226.419 565 225.591 565H225.491C224.662 565 223.991 564.328 223.991 563.5ZM229.083 563.5C229.083 562.672 229.754 562 230.583 562H230.682C231.511 562 232.182 562.672 232.182 563.5C232.182 564.328 231.511 565 230.682 565H230.583C229.754 565 229.083 564.328 229.083 563.5ZM234.174 563.5C234.174 562.672 234.846 562 235.674 562H235.774C236.603 562 237.274 562.672 237.274 563.5C237.274 564.328 236.603 565 235.774 565H235.674C234.846 565 234.174 564.328 234.174 563.5ZM239.266 563.5C239.266 562.672 239.938 562 240.766 562H240.866C241.694 562 242.366 562.672 242.366 563.5C242.366 564.328 241.694 565 240.866 565H240.766C239.938 565 239.266 564.328 239.266 563.5ZM244.358 563.5C244.358 562.672 245.03 562 245.858 562H245.958C246.786 562 247.458 562.672 247.458 563.5C247.458 564.328 246.786 565 245.958 565H245.858C245.03 565 244.358 564.328 244.358 563.5ZM249.45 563.5C249.45 562.672 250.121 562 250.95 562H251.05C251.878 562 252.55 562.672 252.55 563.5C252.55 564.328 251.878 565 251.05 565H250.95C250.121 565 249.45 564.328 249.45 563.5ZM254.542 563.5C254.542 562.672 255.213 562 256.042 562H256.142C256.97 562 257.642 562.672 257.642 563.5C257.642 564.328 256.97 565 256.142 565H256.042C255.213 565 254.542 564.328 254.542 563.5ZM259.633 563.5C259.633 562.672 260.305 562 261.133 562H261.233C262.062 562 262.733 562.672 262.733 563.5C262.733 564.328 262.062 565 261.233 565H261.133C260.305 565 259.633 564.328 259.633 563.5ZM264.725 563.5C264.725 562.672 265.397 562 266.225 562H266.325C267.154 562 267.825 562.672 267.825 563.5C267.825 564.328 267.154 565 266.325 565H266.225C265.397 565 264.725 564.328 264.725 563.5ZM269.817 563.5C269.817 562.672 270.489 562 271.317 562H271.417C272.245 562 272.917 562.672 272.917 563.5C272.917 564.328 272.245 565 271.417 565H271.317C270.489 565 269.817 564.328 269.817 563.5ZM274.909 563.5C274.909 562.672 275.581 562 276.409 562H276.509C277.337 562 278.009 562.672 278.009 563.5C278.009 564.328 277.337 565 276.509 565H276.409C275.581 565 274.909 564.328 274.909 563.5ZM280.001 563.5C280.001 562.672 280.672 562 281.501 562H281.601C282.429 562 283.101 562.672 283.101 563.5C283.101 564.328 282.429 565 281.601 565H281.501C280.672 565 280.001 564.328 280.001 563.5ZM285.093 563.5C285.093 562.672 285.764 562 286.593 562H286.693C287.521 562 288.193 562.672 288.193 563.5C288.193 564.328 287.521 565 286.693 565H286.593C285.764 565 285.093 564.328 285.093 563.5ZM290.185 563.5C290.185 562.672 290.856 562 291.685 562H291.784C292.613 562 293.284 562.672 293.284 563.5C293.284 564.328 292.613 565 291.784 565H291.685C290.856 565 290.185 564.328 290.185 563.5ZM295.276 563.5C295.276 562.672 295.948 562 296.776 562H296.876C297.705 562 298.376 562.672 298.376 563.5C298.376 564.328 297.705 565 296.876 565H296.776C295.948 565 295.276 564.328 295.276 563.5ZM300.368 563.5C300.368 562.672 301.04 562 301.868 562H301.968C302.797 562 303.468 562.672 303.468 563.5C303.468 564.328 302.797 565 301.968 565H301.868C301.04 565 300.368 564.328 300.368 563.5ZM305.46 563.5C305.46 562.672 306.132 562 306.96 562H307.06C307.888 562 308.56 562.672 308.56 563.5C308.56 564.328 307.888 565 307.06 565H306.96C306.132 565 305.46 564.328 305.46 563.5ZM310.552 563.5C310.552 562.672 311.224 562 312.052 562H312.152C312.98 562 313.652 562.672 313.652 563.5C313.652 564.328 312.98 565 312.152 565H312.052C311.224 565 310.552 564.328 310.552 563.5ZM315.644 563.5C315.644 562.672 316.315 562 317.144 562H317.244C318.072 562 318.744 562.672 318.744 563.5C318.744 564.328 318.072 565 317.244 565H317.144C316.315 565 315.644 564.328 315.644 563.5ZM320.736 563.5C320.736 562.672 321.407 562 322.236 562H322.336C323.164 562 323.836 562.672 323.836 563.5C323.836 564.328 323.164 565 322.336 565H322.236C321.407 565 320.736 564.328 320.736 563.5ZM325.828 563.5C325.828 562.672 326.499 562 327.328 562H327.427C328.256 562 328.927 562.672 328.927 563.5C328.927 564.328 328.256 565 327.427 565H327.328C326.499 565 325.828 564.328 325.828 563.5ZM330.919 563.5C330.919 562.672 331.591 562 332.419 562H332.519C333.348 562 334.019 562.672 334.019 563.5C334.019 564.328 333.348 565 332.519 565H332.419C331.591 565 330.919 564.328 330.919 563.5ZM336.011 563.5C336.011 562.672 336.683 562 337.511 562H337.611C338.44 562 339.111 562.672 339.111 563.5C339.111 564.328 338.44 565 337.611 565H337.511C336.683 565 336.011 564.328 336.011 563.5ZM341.103 563.5C341.103 562.672 341.775 562 342.603 562H342.703C343.531 562 344.203 562.672 344.203 563.5C344.203 564.328 343.531 565 342.703 565H342.603C341.775 565 341.103 564.328 341.103 563.5ZM346.195 563.5C346.195 562.672 346.867 562 347.695 562H347.795C348.623 562 349.295 562.672 349.295 563.5C349.295 564.328 348.623 565 347.795 565H347.695C346.867 565 346.195 564.328 346.195 563.5ZM351.287 563.5C351.287 562.672 351.958 562 352.787 562H352.887C353.715 562 354.387 562.672 354.387 563.5C354.387 564.328 353.715 565 352.887 565H352.787C351.958 565 351.287 564.328 351.287 563.5ZM356.379 563.5C356.379 562.672 357.05 562 357.879 562H357.979C358.807 562 359.479 562.672 359.479 563.5C359.479 564.328 358.807 565 357.979 565H357.879C357.05 565 356.379 564.328 356.379 563.5ZM361.471 563.5C361.471 562.672 362.142 562 362.971 562H363.07C363.899 562 364.57 562.672 364.57 563.5C364.57 564.328 363.899 565 363.07 565H362.971C362.142 565 361.471 564.328 361.471 563.5ZM366.562 563.5C366.562 562.672 367.234 562 368.062 562H368.162C368.991 562 369.662 562.672 369.662 563.5C369.662 564.328 368.991 565 368.162 565H368.062C367.234 565 366.562 564.328 366.562 563.5ZM371.654 563.5C371.654 562.672 372.326 562 373.154 562H373.254C374.083 562 374.754 562.672 374.754 563.5C374.754 564.328 374.083 565 373.254 565H373.154C372.326 565 371.654 564.328 371.654 563.5ZM376.746 563.5C376.746 562.672 377.418 562 378.246 562H378.346C379.174 562 379.846 562.672 379.846 563.5C379.846 564.328 379.174 565 378.346 565H378.246C377.418 565 376.746 564.328 376.746 563.5ZM381.838 563.5C381.838 562.672 382.51 562 383.338 562H383.438C384.266 562 384.938 562.672 384.938 563.5C384.938 564.328 384.266 565 383.438 565H383.338C382.51 565 381.838 564.328 381.838 563.5ZM386.93 563.5C386.93 562.672 387.602 562 388.43 562H388.53C389.358 562 390.03 562.672 390.03 563.5C390.03 564.328 389.358 565 388.53 565H388.43C387.602 565 386.93 564.328 386.93 563.5ZM392.022 563.5C392.022 562.672 392.693 562 393.522 562H393.622C394.45 562 395.122 562.672 395.122 563.5C395.122 564.328 394.45 565 393.622 565H393.522C392.693 565 392.022 564.328 392.022 563.5ZM397.114 563.5C397.114 562.672 397.785 562 398.614 562H398.714C399.542 562 400.214 562.672 400.214 563.5C400.214 564.328 399.542 565 398.714 565H398.614C397.785 565 397.114 564.328 397.114 563.5ZM402.206 563.5C402.206 562.672 402.877 562 403.706 562H403.805C404.634 562 405.305 562.672 405.305 563.5C405.305 564.328 404.634 565 403.805 565H403.706C402.877 565 402.206 564.328 402.206 563.5ZM407.297 563.5C407.297 562.672 407.969 562 408.797 562H408.897C409.726 562 410.397 562.672 410.397 563.5C410.397 564.328 409.726 565 408.897 565H408.797C407.969 565 407.297 564.328 407.297 563.5ZM412.389 563.5C412.389 562.672 413.061 562 413.889 562H413.989C414.818 562 415.489 562.672 415.489 563.5C415.489 564.328 414.818 565 413.989 565H413.889C413.061 565 412.389 564.328 412.389 563.5ZM417.481 563.5C417.481 562.672 418.153 562 418.981 562H419.081C419.909 562 420.581 562.672 420.581 563.5C420.581 564.328 419.909 565 419.081 565H418.981C418.153 565 417.481 564.328 417.481 563.5ZM422.573 563.5C422.573 562.672 423.245 562 424.073 562H424.173C425.001 562 425.673 562.672 425.673 563.5C425.673 564.328 425.001 565 424.173 565H424.073C423.245 565 422.573 564.328 422.573 563.5ZM427.665 563.5C427.665 562.672 428.336 562 429.165 562H429.265C430.093 562 430.765 562.672 430.765 563.5C430.765 564.328 430.093 565 429.265 565H429.165C428.336 565 427.665 564.328 427.665 563.5ZM432.757 563.5C432.757 562.672 433.428 562 434.257 562H434.357C435.185 562 435.857 562.672 435.857 563.5C435.857 564.328 435.185 565 434.357 565H434.257C433.428 565 432.757 564.328 432.757 563.5ZM437.849 563.5C437.849 562.672 438.52 562 439.349 562H439.448C440.277 562 440.948 562.672 440.948 563.5C440.948 564.328 440.277 565 439.448 565H439.349C438.52 565 437.849 564.328 437.849 563.5ZM442.94 563.5C442.94 562.672 443.612 562 444.44 562H444.54C445.369 562 446.04 562.672 446.04 563.5C446.04 564.328 445.369 565 444.54 565H444.44C443.612 565 442.94 564.328 442.94 563.5ZM448.032 563.5C448.032 562.672 448.704 562 449.532 562H449.632C450.461 562 451.132 562.672 451.132 563.5C451.132 564.328 450.461 565 449.632 565H449.532C448.704 565 448.032 564.328 448.032 563.5ZM453.124 563.5C453.124 562.672 453.796 562 454.624 562H454.724C455.552 562 456.224 562.672 456.224 563.5C456.224 564.328 455.552 565 454.724 565H454.624C453.796 565 453.124 564.328 453.124 563.5ZM458.216 563.5C458.216 562.672 458.888 562 459.716 562H459.816C460.644 562 461.316 562.672 461.316 563.5C461.316 564.328 460.644 565 459.816 565H459.716C458.888 565 458.216 564.328 458.216 563.5ZM463.308 563.5C463.308 562.672 463.979 562 464.808 562H464.908C465.736 562 466.408 562.672 466.408 563.5C466.408 564.328 465.736 565 464.908 565H464.808C463.979 565 463.308 564.328 463.308 563.5ZM468.4 563.5C468.4 562.672 469.071 562 469.9 562H470C470.828 562 471.5 562.672 471.5 563.5C471.5 564.328 470.828 565 470 565H469.9C469.071 565 468.4 564.328 468.4 563.5ZM473.492 563.5C473.492 562.672 474.163 562 474.992 562H475.091C475.92 562 476.591 562.672 476.591 563.5C476.591 564.328 475.92 565 475.091 565H474.992C474.163 565 473.492 564.328 473.492 563.5ZM478.583 563.5C478.583 562.672 479.255 562 480.083 562H480.183C481.012 562 481.683 562.672 481.683 563.5C481.683 564.328 481.012 565 480.183 565H480.083C479.255 565 478.583 564.328 478.583 563.5ZM483.675 563.5C483.675 562.672 484.347 562 485.175 562H485.275C486.104 562 486.775 562.672 486.775 563.5C486.775 564.328 486.104 565 485.275 565H485.175C484.347 565 483.675 564.328 483.675 563.5ZM488.767 563.5C488.767 562.672 489.439 562 490.267 562H490.367C491.195 562 491.867 562.672 491.867 563.5C491.867 564.328 491.195 565 490.367 565H490.267C489.439 565 488.767 564.328 488.767 563.5ZM493.859 563.5C493.859 562.672 494.531 562 495.359 562H495.459C496.287 562 496.959 562.672 496.959 563.5C496.959 564.328 496.287 565 495.459 565H495.359C494.531 565 493.859 564.328 493.859 563.5ZM498.951 563.5C498.951 562.672 499.622 562 500.451 562H500.5C501.328 562 502 562.672 502 563.5C502 564.328 501.328 565 500.5 565H500.451C499.622 565 498.951 564.328 498.951 563.5Z" fill="#B02418"/>
<path d="M326.33 100.24C326.33 97.1885 329.016 96.5049 331.311 96.334C332.153 96.2729 334.301 96.1631 334.899 96.1387V95.0645C334.899 93.3799 333.898 92.4033 331.896 92.4033C330.212 92.4033 329.211 93.1846 328.918 94.1855H326.721C326.989 92.0615 329.064 90.5723 331.994 90.5723C333.728 90.5723 336.975 91.085 336.975 95.2598V104H334.899V102.193H334.802C334.362 103.097 333.142 104.317 330.847 104.317C328.332 104.317 326.33 102.828 326.33 100.24ZM328.43 100.338C328.43 101.729 329.602 102.438 331.213 102.438C333.581 102.438 334.899 100.851 334.899 99.1904V97.8477L331.555 98.0918C329.65 98.2139 328.43 98.8975 328.43 100.338Z" fill="#B02418"/>
<path d="M318.713 104.269C314.88 104.269 312.512 101.559 312.512 97.4814C312.512 93.4043 314.904 90.5723 318.518 90.5723C321.301 90.5723 324.23 92.2812 324.23 97.1885V98.0674H314.611C314.709 100.875 316.345 102.413 318.713 102.413C320.3 102.413 321.301 101.729 321.789 100.899H324.035C323.4 102.901 321.447 104.269 318.713 104.269ZM314.636 96.2852H322.106C322.106 94.0635 320.69 92.4277 318.518 92.4277C316.223 92.4277 314.758 94.2344 314.636 96.2852Z" fill="#B02418"/>
<path d="M304.846 104V90.7432H306.872V92.7695H307.019C307.507 91.4268 308.874 90.5234 310.437 90.5234C310.754 90.5234 311.291 90.5479 311.535 90.5723V92.6963C311.389 92.6475 310.803 92.5498 310.266 92.5498C308.361 92.5498 306.945 93.8682 306.945 95.6504V104H304.846Z" fill="#B02418"/>
<path d="M289.758 104H287.463L293.933 86.3242H296.252L302.722 104H300.402L298.645 99.0195H291.54L289.758 104ZM292.199 97.0908H297.961L295.153 89.1807H295.007L292.199 97.0908Z" fill="#B02418"/>
<path d="M273.693 104V90.7432H275.72V92.7695H275.866C276.354 91.4268 277.722 90.5234 279.284 90.5234C279.602 90.5234 280.139 90.5479 280.383 90.5723V92.6963C280.236 92.6475 279.65 92.5498 279.113 92.5498C277.209 92.5498 275.793 93.8682 275.793 95.6504V104H273.693Z" fill="#B02418"/>
<path d="M265.441 104.269C261.608 104.269 259.24 101.559 259.24 97.4814C259.24 93.4043 261.633 90.5723 265.246 90.5723C268.029 90.5723 270.959 92.2812 270.959 97.1885V98.0674H261.34C261.438 100.875 263.073 102.413 265.441 102.413C267.028 102.413 268.029 101.729 268.518 100.899H270.764C270.129 102.901 268.176 104.269 265.441 104.269ZM261.364 96.2852H268.835C268.835 94.0635 267.419 92.4277 265.246 92.4277C262.951 92.4277 261.486 94.2344 261.364 96.2852Z" fill="#B02418"/>
<path d="M248.059 96.041V104H245.959V90.7432H247.985V92.8184H248.156C248.791 91.4756 250.012 90.5723 252.038 90.5723C254.724 90.5723 256.506 92.208 256.506 95.5771V104H254.406V95.7236C254.406 93.6729 253.283 92.4521 251.403 92.4521C249.475 92.4521 248.059 93.7461 248.059 96.041Z" fill="#B02418"/>
<path d="M234.143 96.041V104H232.043V90.7432H234.069V92.8184H234.24C234.875 91.4756 236.096 90.5723 238.122 90.5723C240.808 90.5723 242.59 92.208 242.59 95.5771V104H240.49V95.7236C240.49 93.6729 239.367 92.4521 237.487 92.4521C235.559 92.4521 234.143 93.7461 234.143 96.041Z" fill="#B02418"/>
<path d="M218.029 100.24C218.029 97.1885 220.715 96.5049 223.01 96.334C223.852 96.2729 226 96.1631 226.599 96.1387V95.0645C226.599 93.3799 225.598 92.4033 223.596 92.4033C221.911 92.4033 220.91 93.1846 220.617 94.1855H218.42C218.688 92.0615 220.764 90.5723 223.693 90.5723C225.427 90.5723 228.674 91.085 228.674 95.2598V104H226.599V102.193H226.501C226.062 103.097 224.841 104.317 222.546 104.317C220.031 104.317 218.029 102.828 218.029 100.24ZM220.129 100.338C220.129 101.729 221.301 102.438 222.912 102.438C225.28 102.438 226.599 100.851 226.599 99.1904V97.8477L223.254 98.0918C221.35 98.2139 220.129 98.8975 220.129 100.338Z" fill="#B02418"/>
<path d="M203.453 104V86.3242H209.654C213.365 86.3242 215.099 88.3994 215.099 91.0117C215.099 93.2822 213.756 94.3076 212.218 94.7227V94.8936C213.854 94.9912 215.807 96.5049 215.807 99.3125C215.807 101.974 214.049 104 209.874 104H203.453ZM209.85 102.047C212.608 102.047 213.683 100.826 213.683 99.2881C213.683 97.4814 212.242 95.9678 209.972 95.9678H205.65V102.047H209.85ZM209.581 94.0635C211.485 94.0635 212.999 92.8916 212.999 91.0361C212.999 89.498 211.974 88.2773 209.654 88.2773H205.65V94.0635H209.581Z" fill="#B02418"/>
<path d="M189.993 104.146C189.138 104.146 188.406 103.438 188.43 102.56C188.406 101.705 189.138 100.997 189.993 100.997C190.847 100.997 191.555 101.705 191.555 102.56C191.555 103.438 190.847 104.146 189.993 104.146Z" fill="#B02418"/>
<path d="M181.595 86.3242V104H179.373V88.6191H179.275L174.979 91.4756V89.2539L179.373 86.3242H181.595Z" fill="#B02418"/>
<path d="M339.012 206.24C339.012 203.188 341.697 202.505 343.992 202.334C344.834 202.273 346.983 202.163 347.581 202.139V201.064C347.581 199.38 346.58 198.403 344.578 198.403C342.894 198.403 341.893 199.185 341.6 200.186H339.402C339.671 198.062 341.746 196.572 344.676 196.572C346.409 196.572 349.656 197.085 349.656 201.26V210H347.581V208.193H347.483C347.044 209.097 345.823 210.317 343.528 210.317C341.014 210.317 339.012 208.828 339.012 206.24ZM341.111 206.338C341.111 207.729 342.283 208.438 343.895 208.438C346.263 208.438 347.581 206.851 347.581 205.19V203.848L344.236 204.092C342.332 204.214 341.111 204.897 341.111 206.338Z" fill="#B02418"/>
<path d="M331.395 210.269C327.562 210.269 325.193 207.559 325.193 203.481C325.193 199.404 327.586 196.572 331.199 196.572C333.982 196.572 336.912 198.281 336.912 203.188V204.067H327.293C327.391 206.875 329.026 208.413 331.395 208.413C332.981 208.413 333.982 207.729 334.471 206.899H336.717C336.082 208.901 334.129 210.269 331.395 210.269ZM327.317 202.285H334.788C334.788 200.063 333.372 198.428 331.199 198.428C328.904 198.428 327.439 200.234 327.317 202.285Z" fill="#B02418"/>
<path d="M317.527 210V196.743H319.554V198.77H319.7C320.188 197.427 321.556 196.523 323.118 196.523C323.436 196.523 323.973 196.548 324.217 196.572V198.696C324.07 198.647 323.484 198.55 322.947 198.55C321.043 198.55 319.627 199.868 319.627 201.65V210H317.527Z" fill="#B02418"/>
<path d="M302.439 210H300.145L306.614 192.324H308.934L315.403 210H313.084L311.326 205.02H304.222L302.439 210ZM304.881 203.091H310.643L307.835 195.181H307.688L304.881 203.091Z" fill="#B02418"/>
<path d="M283.227 214.98C282.763 214.98 282.323 214.956 282.055 214.932V213.052C282.274 213.076 282.763 213.101 283.08 213.101C283.935 213.101 284.643 213.027 285.351 211.099L285.741 210.098L280.834 196.743H283.129L286.742 207.266H286.889L290.502 196.743H292.797L287.182 211.904C286.4 213.979 285.106 214.98 283.227 214.98Z" fill="#B02418"/>
<path d="M272.729 210V196.743H274.755V198.77H274.901C275.39 197.427 276.757 196.523 278.319 196.523C278.637 196.523 279.174 196.548 279.418 196.572V198.696C279.271 198.647 278.686 198.55 278.148 198.55C276.244 198.55 274.828 199.868 274.828 201.65V210H272.729Z" fill="#B02418"/>
<path d="M263.963 210.269C260.35 210.269 257.908 207.559 257.908 203.433C257.908 199.307 260.35 196.572 263.963 196.572C267.552 196.572 269.969 199.307 269.969 203.433C269.969 207.559 267.552 210.269 263.963 210.269ZM263.963 208.413C266.624 208.413 267.869 206.069 267.869 203.433C267.869 200.796 266.624 198.428 263.963 198.428C261.253 198.428 260.008 200.796 260.008 203.433C260.008 206.069 261.253 208.413 263.963 208.413Z" fill="#B02418"/>
<path d="M249.438 215.249C246.239 215.249 244.066 213.857 243.822 211.392H246.02C246.312 212.734 247.558 213.418 249.438 213.418C251.708 213.418 253.1 212.441 253.1 210.244V207.559H252.929C252.489 208.291 251.635 209.805 249.071 209.805C245.849 209.805 243.432 207.363 243.432 203.188C243.432 199.111 245.775 196.572 249.096 196.572C251.659 196.572 252.489 198.135 252.978 198.843H253.148V196.743H255.199V210.366C255.199 213.784 252.66 215.249 249.438 215.249ZM249.364 207.925C251.781 207.925 253.148 206.191 253.148 203.262C253.148 200.43 251.83 198.452 249.364 198.452C246.825 198.452 245.556 200.601 245.556 203.262C245.556 206.021 246.85 207.925 249.364 207.925Z" fill="#B02418"/>
<path d="M235.814 210.269C231.981 210.269 229.613 207.559 229.613 203.481C229.613 199.404 232.006 196.572 235.619 196.572C238.402 196.572 241.332 198.281 241.332 203.188V204.067H231.713C231.811 206.875 233.446 208.413 235.814 208.413C237.401 208.413 238.402 207.729 238.891 206.899H241.137C240.502 208.901 238.549 210.269 235.814 210.269ZM231.737 202.285H239.208C239.208 200.063 237.792 198.428 235.619 198.428C233.324 198.428 231.859 200.234 231.737 202.285Z" fill="#B02418"/>
<path d="M227.685 196.743V198.501H224.901V206.191C224.901 207.9 225.731 208.169 226.635 208.169C227.025 208.169 227.562 208.145 227.88 208.12V210.073C227.562 210.122 227.025 210.171 226.415 210.171C224.657 210.171 222.777 209.072 222.777 206.729V198.501H220.775V196.743H222.777V193.569H224.901V196.743H227.685Z" fill="#B02418"/>
<path d="M207.885 206.24C207.885 203.188 210.57 202.505 212.865 202.334C213.708 202.273 215.856 202.163 216.454 202.139V201.064C216.454 199.38 215.453 198.403 213.451 198.403C211.767 198.403 210.766 199.185 210.473 200.186H208.275C208.544 198.062 210.619 196.572 213.549 196.572C215.282 196.572 218.529 197.085 218.529 201.26V210H216.454V208.193H216.356C215.917 209.097 214.696 210.317 212.401 210.317C209.887 210.317 207.885 208.828 207.885 206.24ZM209.984 206.338C209.984 207.729 211.156 208.438 212.768 208.438C215.136 208.438 216.454 206.851 216.454 205.19V203.848L213.109 204.092C211.205 204.214 209.984 204.897 209.984 206.338Z" fill="#B02418"/>
<path d="M203.514 197.891C203.001 195.449 200.901 194.131 198.582 194.131C195.384 194.131 192.894 196.597 192.894 201.162C192.894 205.728 195.384 208.193 198.582 208.193C200.901 208.193 202.977 206.875 203.514 204.458H205.711C205.076 208.071 202.171 210.244 198.582 210.244C194.041 210.244 190.77 206.753 190.77 201.162C190.77 195.571 194.041 192.08 198.582 192.08C202.146 192.08 205.052 194.229 205.711 197.891H203.514Z" fill="#B02418"/>
<path d="M177.993 210.146C177.138 210.146 176.406 209.438 176.43 208.56C176.406 207.705 177.138 206.997 177.993 206.997C178.847 206.997 179.555 207.705 179.555 208.56C179.555 209.438 178.847 210.146 177.993 210.146Z" fill="#B02418"/>
<path d="M161.636 210L161.611 208.389L167.642 202.041C169.741 199.819 170.742 198.623 170.742 196.987C170.742 195.181 169.204 193.984 167.227 193.984C165.127 193.984 163.784 195.327 163.784 197.305H161.709C161.685 194.18 164.102 192.08 167.3 192.08C170.498 192.08 172.793 194.229 172.793 196.987C172.793 198.965 171.865 200.503 168.74 203.726L164.688 207.9V208.047H173.11V210H161.636Z" fill="#B02418"/>
<path d="M317.947 405.24C317.947 402.188 320.633 401.505 322.928 401.334C323.77 401.273 325.918 401.163 326.517 401.139V400.064C326.517 398.38 325.516 397.403 323.514 397.403C321.829 397.403 320.828 398.185 320.535 399.186H318.338C318.606 397.062 320.682 395.572 323.611 395.572C325.345 395.572 328.592 396.085 328.592 400.26V409H326.517V407.193H326.419C325.979 408.097 324.759 409.317 322.464 409.317C319.949 409.317 317.947 407.828 317.947 405.24ZM320.047 405.338C320.047 406.729 321.219 407.438 322.83 407.438C325.198 407.438 326.517 405.851 326.517 404.19V402.848L323.172 403.092C321.268 403.214 320.047 403.897 320.047 405.338Z" fill="#B02418"/>
<path d="M310.33 409.269C306.497 409.269 304.129 406.559 304.129 402.481C304.129 398.404 306.521 395.572 310.135 395.572C312.918 395.572 315.848 397.281 315.848 402.188V403.067H306.229C306.326 405.875 307.962 407.413 310.33 407.413C311.917 407.413 312.918 406.729 313.406 405.899H315.652C315.018 407.901 313.064 409.269 310.33 409.269ZM306.253 401.285H313.724C313.724 399.063 312.308 397.428 310.135 397.428C307.84 397.428 306.375 399.234 306.253 401.285Z" fill="#B02418"/>
<path d="M296.463 409V395.743H298.489V397.77H298.636C299.124 396.427 300.491 395.523 302.054 395.523C302.371 395.523 302.908 395.548 303.152 395.572V397.696C303.006 397.647 302.42 397.55 301.883 397.55C299.979 397.55 298.562 398.868 298.562 400.65V409H296.463Z" fill="#B02418"/>
<path d="M281.375 409H279.08L285.55 391.324H287.869L294.339 409H292.02L290.262 404.02H283.157L281.375 409ZM283.816 402.091H289.578L286.771 394.181H286.624L283.816 402.091Z" fill="#B02418"/>
<path d="M268.606 403.556V395.743H270.682V409H268.606V406.754H268.46C267.825 408.097 266.531 409.171 264.529 409.171C262.015 409.171 260.232 407.535 260.232 404.166V395.743H262.332V404.02C262.332 405.924 263.528 407.145 265.213 407.145C266.702 407.145 268.606 406.021 268.606 403.556Z" fill="#B02418"/>
<path d="M248.416 401.041V409H246.316V395.743H248.343V397.818H248.514C249.148 396.476 250.369 395.572 252.396 395.572C255.081 395.572 256.863 397.208 256.863 400.577V409H254.764V400.724C254.764 398.673 253.641 397.452 251.761 397.452C249.832 397.452 248.416 398.746 248.416 401.041Z" fill="#B02418"/>
<path d="M238.064 409.269C234.231 409.269 231.863 406.559 231.863 402.481C231.863 398.404 234.256 395.572 237.869 395.572C240.652 395.572 243.582 397.281 243.582 402.188V403.067H233.963C234.061 405.875 235.696 407.413 238.064 407.413C239.651 407.413 240.652 406.729 241.141 405.899H243.387C242.752 407.901 240.799 409.269 238.064 409.269ZM233.987 401.285H241.458C241.458 399.063 240.042 397.428 237.869 397.428C235.574 397.428 234.109 399.234 233.987 401.285Z" fill="#B02418"/>
<path d="M211.453 391.324H214.09L220.047 405.875H220.267L226.224 391.324H228.86V409H226.785V395.646H226.614L221.121 409H219.168L213.675 395.646H213.528V409H211.453V391.324Z" fill="#B02418"/>
<path d="M197.993 409.146C197.138 409.146 196.406 408.438 196.43 407.56C196.406 406.705 197.138 405.997 197.993 405.997C198.847 405.997 199.555 406.705 199.555 407.56C199.555 408.438 198.847 409.146 197.993 409.146Z" fill="#B02418"/>
<path d="M187.348 409.244C183.832 409.244 181.317 407.364 181.195 404.557H183.417C183.539 406.241 185.224 407.291 187.323 407.291C189.643 407.291 191.352 406.021 191.352 404.19C191.352 402.262 189.813 400.895 187.055 400.895H185.614V398.966H187.055C189.203 398.966 190.692 397.77 190.692 395.938C190.692 394.181 189.398 392.984 187.396 392.984C185.517 392.984 183.783 394.034 183.686 395.768H181.562C181.684 392.96 184.271 391.08 187.421 391.08C190.79 391.08 192.841 393.277 192.816 395.816C192.841 397.818 191.669 399.308 189.813 399.82V399.942C192.108 400.309 193.524 401.944 193.5 404.19C193.524 407.096 190.863 409.244 187.348 409.244Z" fill="#B02418"/>
<path d="M310.859 631.24C310.859 628.188 313.545 627.505 315.84 627.334C316.682 627.273 318.831 627.163 319.429 627.139V626.064C319.429 624.38 318.428 623.403 316.426 623.403C314.741 623.403 313.74 624.185 313.447 625.186H311.25C311.519 623.062 313.594 621.572 316.523 621.572C318.257 621.572 321.504 622.085 321.504 626.26V635H319.429V633.193H319.331C318.892 634.097 317.671 635.317 315.376 635.317C312.861 635.317 310.859 633.828 310.859 631.24ZM312.959 631.338C312.959 632.729 314.131 633.438 315.742 633.438C318.11 633.438 319.429 631.851 319.429 630.19V628.848L316.084 629.092C314.18 629.214 312.959 629.897 312.959 631.338Z" fill="#B02418"/>
<path d="M303.242 635.269C299.409 635.269 297.041 632.559 297.041 628.481C297.041 624.404 299.434 621.572 303.047 621.572C305.83 621.572 308.76 623.281 308.76 628.188V629.067H299.141C299.238 631.875 300.874 633.413 303.242 633.413C304.829 633.413 305.83 632.729 306.318 631.899H308.564C307.93 633.901 305.977 635.269 303.242 635.269ZM299.165 627.285H306.636C306.636 625.063 305.22 623.428 303.047 623.428C300.752 623.428 299.287 625.234 299.165 627.285Z" fill="#B02418"/>
<path d="M289.375 635V621.743H291.401V623.77H291.548C292.036 622.427 293.403 621.523 294.966 621.523C295.283 621.523 295.82 621.548 296.064 621.572V623.696C295.918 623.647 295.332 623.55 294.795 623.55C292.891 623.55 291.475 624.868 291.475 626.65V635H289.375Z" fill="#B02418"/>
<path d="M274.287 635H271.992L278.462 617.324H280.781L287.251 635H284.932L283.174 630.02H276.069L274.287 635ZM276.729 628.091H282.49L279.683 620.181H279.536L276.729 628.091Z" fill="#B02418"/>
<path d="M264.253 621.743V623.501H261.47V631.191C261.47 632.9 262.3 633.169 263.203 633.169C263.594 633.169 264.131 633.145 264.448 633.12V635.073C264.131 635.122 263.594 635.171 262.983 635.171C261.226 635.171 259.346 634.072 259.346 631.729V623.501H257.344V621.743H259.346V618.569H261.47V621.743H264.253Z" fill="#B02418"/>
<path d="M248.896 635V621.743H250.923V623.77H251.069C251.558 622.427 252.925 621.523 254.487 621.523C254.805 621.523 255.342 621.548 255.586 621.572V623.696C255.439 623.647 254.854 623.55 254.316 623.55C252.412 623.55 250.996 624.868 250.996 626.65V635H248.896Z" fill="#B02418"/>
<path d="M234.883 631.24C234.883 628.188 237.568 627.505 239.863 627.334C240.706 627.273 242.854 627.163 243.452 627.139V626.064C243.452 624.38 242.451 623.403 240.449 623.403C238.765 623.403 237.764 624.185 237.471 625.186H235.273C235.542 623.062 237.617 621.572 240.547 621.572C242.28 621.572 245.527 622.085 245.527 626.26V635H243.452V633.193H243.354C242.915 634.097 241.694 635.317 239.399 635.317C236.885 635.317 234.883 633.828 234.883 631.24ZM236.982 631.338C236.982 632.729 238.154 633.438 239.766 633.438C242.134 633.438 243.452 631.851 243.452 630.19V628.848L240.107 629.092C238.203 629.214 236.982 629.897 236.982 631.338Z" fill="#B02418"/>
<path d="M230.514 622.891C230.001 620.449 227.901 619.131 225.582 619.131C222.384 619.131 219.894 621.597 219.894 626.162C219.894 630.728 222.384 633.193 225.582 633.193C227.901 633.193 229.977 631.875 230.514 629.458H232.711C232.076 633.071 229.171 635.244 225.582 635.244C221.041 635.244 217.77 631.753 217.77 626.162C217.77 620.571 221.041 617.08 225.582 617.08C229.146 617.08 232.052 619.229 232.711 622.891H230.514Z" fill="#B02418"/>
<path d="M204.993 635.146C204.138 635.146 203.406 634.438 203.43 633.56C203.406 632.705 204.138 631.997 204.993 631.997C205.847 631.997 206.555 632.705 206.555 633.56C206.555 634.438 205.847 635.146 204.993 635.146Z" fill="#B02418"/>
<path d="M187.658 631.387V629.58L195.617 617.324H198.327V629.458H200.793V631.387H198.327V635H196.228V631.387H187.658ZM190.026 629.458H196.228V620.107H196.008L190.026 629.312V629.458Z" fill="#B02418"/>
</svg>
