<svg width="502" height="832" viewBox="0 0 502 832" fill="none" xmlns="http://www.w3.org/2000/svg">
<rect x="26.5" y="0.5" width="448" height="831" fill="#F2F2F2" stroke="#C0C0C0"/>
<rect x="56.5" y="31.5" width="388" height="653" fill="white" stroke="#C0C0C0"/>
<rect x="56.5" y="156.5" width="388" height="86" fill="#FFFADA" stroke="#C0C0C0"/>
<rect x="56.5" y="243.5" width="249" height="441" fill="#FFFADA" stroke="#C0C0C0"/>
<line x1="1.5" y1="31.5" x2="500.5" y2="31.5" stroke="#B02418" stroke-width="3" stroke-linecap="round" stroke-linejoin="round" stroke-dasharray="0.1 5"/>
<line x1="1.5" y1="156.5" x2="500.5" y2="156.5" stroke="#B02418" stroke-width="3" stroke-linecap="round" stroke-linejoin="round" stroke-dasharray="0.1 5"/>
<line x1="1.5" y1="243.5" x2="500.5" y2="243.5" stroke="#B02418" stroke-width="3" stroke-linecap="round" stroke-linejoin="round" stroke-dasharray="0.1 5"/>
<line x1="306.5" y1="244.5" x2="306.5" y2="683.5" stroke="#B02418" stroke-width="3" stroke-linecap="round" stroke-linejoin="round" stroke-dasharray="0.1 5"/>
<path d="M303.192 98.2627V105.978H301.264V99.8008H288.593V98.2627H303.192ZM303.192 84.2734V97.0664H301.264V93.9414H295.673C294.66 95.1743 293.061 95.9067 291.181 95.8945C287.934 95.9189 285.541 93.7705 285.541 90.6943C285.541 87.667 287.934 85.5186 291.181 85.5186C293.048 85.5186 294.647 86.251 295.673 87.4717H301.264V84.2734H303.192ZM291.181 87.1543C288.959 87.1543 287.372 88.6436 287.372 90.6943C287.372 92.8184 288.959 94.2832 291.181 94.2832C293.305 94.2832 294.94 92.8184 294.94 90.6943C294.94 88.6436 293.305 87.1543 291.181 87.1543ZM296.527 92.3545H301.264V89.0586H296.527C296.698 89.5713 296.796 90.1084 296.796 90.6943C296.796 91.2803 296.698 91.8418 296.527 92.3545Z" fill="#B02418"/>
<path d="M269.573 85.5918C271.404 85.5796 272.967 86.2632 273.968 87.4229H279.656V84.2734H281.585V97.1396H279.656V94.0391H273.992C272.967 95.1987 271.404 95.8823 269.573 95.8701C266.326 95.8945 263.934 93.7705 263.934 90.7432C263.934 87.6914 266.326 85.5674 269.573 85.5918ZM269.573 87.252C267.352 87.2275 265.765 88.6924 265.765 90.7432C265.765 92.7695 267.352 94.2344 269.573 94.2344C271.722 94.2344 273.333 92.7695 273.333 90.7432C273.333 88.6924 271.722 87.2275 269.573 87.252ZM274.383 97.6523C278.875 97.6523 281.658 99.166 281.658 101.778C281.658 104.415 278.875 105.929 274.383 105.929C269.866 105.929 267.107 104.415 267.107 101.778C267.107 99.166 269.866 97.6523 274.383 97.6523ZM274.383 99.1416C271.062 99.1416 268.987 100.143 268.987 101.778C268.987 103.414 271.062 104.391 274.383 104.391C277.728 104.391 279.778 103.414 279.778 101.778C279.778 100.143 277.728 99.1416 274.383 99.1416ZM274.896 88.9854C275.079 89.5225 275.188 90.1084 275.188 90.7432C275.188 91.3535 275.079 91.9272 274.896 92.4521H279.656V88.9854H274.896Z" fill="#B02418"/>
<path d="M260.003 84.2734V106.026H258.074V93.0381H251.312V91.4512H258.074V84.2734H260.003ZM245.11 86.7148V99.1416C248.418 99.105 251.373 98.9341 254.632 98.2627L254.876 99.8496C251.409 100.558 248.357 100.753 244.842 100.753H243.182V86.7148H245.11Z" fill="#B02418"/>
<path d="M223.017 86.3486V91.6465H227.729V86.3486H229.511V100.558H221.186V86.3486H223.017ZM223.017 98.9707H227.729V93.209H223.017V98.9707ZM238.983 84.2734V105.978H237.128V94.4785H234.101V104.879H232.27V84.7373H234.101V92.8916H237.128V84.2734H238.983Z" fill="#B02418"/>
<path d="M207.993 104.146C207.138 104.146 206.406 103.438 206.43 102.56C206.406 101.705 207.138 100.997 207.993 100.997C208.847 100.997 209.555 101.705 209.555 102.56C209.555 103.438 208.847 104.146 207.993 104.146Z" fill="#B02418"/>
<path d="M199.595 86.3242V104H197.373V88.6191H197.275L192.979 91.4756V89.2539L197.373 86.3242H199.595Z" fill="#B02418"/>
<path d="M334.679 204.263V211.978H332.75V205.801H320.079V204.263H334.679ZM334.679 190.273V203.066H332.75V199.941H327.159C326.146 201.174 324.547 201.907 322.667 201.895C319.42 201.919 317.027 199.771 317.027 196.694C317.027 193.667 319.42 191.519 322.667 191.519C324.535 191.519 326.134 192.251 327.159 193.472H332.75V190.273H334.679ZM322.667 193.154C320.445 193.154 318.858 194.644 318.858 196.694C318.858 198.818 320.445 200.283 322.667 200.283C324.791 200.283 326.427 198.818 326.427 196.694C326.427 194.644 324.791 193.154 322.667 193.154ZM328.014 198.354H332.75V195.059H328.014C328.185 195.571 328.282 196.108 328.282 196.694C328.282 197.28 328.185 197.842 328.014 198.354Z" fill="#B02418"/>
<path d="M301.062 191.592C302.893 191.58 304.455 192.263 305.456 193.423H311.145V190.273H313.073V203.14H311.145V200.039H305.48C304.455 201.199 302.893 201.882 301.062 201.87C297.814 201.895 295.422 199.771 295.422 196.743C295.422 193.691 297.814 191.567 301.062 191.592ZM301.062 193.252C298.84 193.228 297.253 194.692 297.253 196.743C297.253 198.77 298.84 200.234 301.062 200.234C303.21 200.234 304.821 198.77 304.821 196.743C304.821 194.692 303.21 193.228 301.062 193.252ZM305.871 203.652C310.363 203.652 313.146 205.166 313.146 207.778C313.146 210.415 310.363 211.929 305.871 211.929C301.354 211.929 298.596 210.415 298.596 207.778C298.596 205.166 301.354 203.652 305.871 203.652ZM305.871 205.142C302.551 205.142 300.476 206.143 300.476 207.778C300.476 209.414 302.551 210.391 305.871 210.391C309.216 210.391 311.267 209.414 311.267 207.778C311.267 206.143 309.216 205.142 305.871 205.142ZM306.384 194.985C306.567 195.522 306.677 196.108 306.677 196.743C306.677 197.354 306.567 197.927 306.384 198.452H311.145V194.985H306.384Z" fill="#B02418"/>
<path d="M285.119 190.273V212.026H283.215V190.273H285.119ZM278.527 192.3V200.015H270.422V205.142C274.023 205.142 277.233 204.983 281.115 204.36L281.311 205.972C277.307 206.606 274.011 206.753 270.275 206.753H268.469V198.452H276.599V193.887H268.42V192.3H278.527Z" fill="#B02418"/>
<path d="M262.999 192.471V194.644C262.975 197.305 262.975 200.283 262.193 204.653L260.24 204.434C261.07 200.283 261.07 197.231 261.07 194.644V194.058H247.691V192.471H262.999ZM265.367 207.314V208.901H245.592V207.314H253.355V199.551H255.235V207.314H265.367Z" fill="#B02418"/>
<path d="M232.921 192.935V194.473H226.671V198.77H231.92V200.308H226.671V205.19C229.784 205.154 231.688 205.044 234.044 204.604L234.215 206.167C231.7 206.68 229.649 206.729 226.207 206.753H224.84V192.935H232.921ZM242.564 190.273V211.978H240.709V190.273H242.564ZM238.121 190.811V210.854H236.29V200.112H233.092V198.525H236.29V190.811H238.121Z" fill="#B02418"/>
<path d="M213.635 192.544C213.61 198.818 211.486 204.556 203.674 208.389L202.6 206.924C206.689 204.946 209.143 202.432 210.461 199.502L203.015 200.21L202.697 198.525L211.047 197.964C211.425 196.743 211.645 195.461 211.73 194.131H203.796V192.544H213.635ZM219.177 190.273V199.111H222.692V200.723H219.177V211.978H217.272V190.273H219.177Z" fill="#B02418"/>
<path d="M189.993 210.146C189.138 210.146 188.406 209.438 188.43 208.56C188.406 207.705 189.138 206.997 189.993 206.997C190.847 206.997 191.555 207.705 191.555 208.56C191.555 209.438 190.847 210.146 189.993 210.146Z" fill="#B02418"/>
<path d="M173.636 210L173.611 208.389L179.642 202.041C181.741 199.819 182.742 198.623 182.742 196.987C182.742 195.181 181.204 193.984 179.227 193.984C177.127 193.984 175.784 195.327 175.784 197.305H173.709C173.685 194.18 176.102 192.08 179.3 192.08C182.498 192.08 184.793 194.229 184.793 196.987C184.793 198.965 183.865 200.503 180.74 203.726L176.688 207.9V208.047H185.11V210H173.636Z" fill="#B02418"/>
<path d="M242.466 458.263V465.978H240.537V459.801H227.866V458.263H242.466ZM242.466 444.273V457.066H240.537V453.941H234.946C233.933 455.174 232.334 455.907 230.454 455.895C227.207 455.919 224.814 453.771 224.814 450.694C224.814 447.667 227.207 445.519 230.454 445.519C232.322 445.519 233.921 446.251 234.946 447.472H240.537V444.273H242.466ZM230.454 447.154C228.232 447.154 226.646 448.644 226.646 450.694C226.646 452.818 228.232 454.283 230.454 454.283C232.578 454.283 234.214 452.818 234.214 450.694C234.214 448.644 232.578 447.154 230.454 447.154ZM235.801 452.354H240.537V449.059H235.801C235.972 449.571 236.069 450.108 236.069 450.694C236.069 451.28 235.972 451.842 235.801 452.354Z" fill="#B02418"/>
<path d="M208.847 445.592C210.678 445.58 212.24 446.263 213.241 447.423H218.93V444.273H220.858V457.14H218.93V454.039H213.266C212.24 455.199 210.678 455.882 208.847 455.87C205.6 455.895 203.207 453.771 203.207 450.743C203.207 447.691 205.6 445.567 208.847 445.592ZM208.847 447.252C206.625 447.228 205.038 448.692 205.038 450.743C205.038 452.77 206.625 454.234 208.847 454.234C210.995 454.234 212.606 452.77 212.606 450.743C212.606 448.692 210.995 447.228 208.847 447.252ZM213.656 457.652C218.148 457.652 220.932 459.166 220.932 461.778C220.932 464.415 218.148 465.929 213.656 465.929C209.14 465.929 206.381 464.415 206.381 461.778C206.381 459.166 209.14 457.652 213.656 457.652ZM213.656 459.142C210.336 459.142 208.261 460.143 208.261 461.778C208.261 463.414 210.336 464.391 213.656 464.391C217.001 464.391 219.052 463.414 219.052 461.778C219.052 460.143 217.001 459.142 213.656 459.142ZM214.169 448.985C214.352 449.522 214.462 450.108 214.462 450.743C214.462 451.354 214.352 451.927 214.169 452.452H218.93V448.985H214.169Z" fill="#B02418"/>
<path d="M192.44 451.622V453.209H177.499V445.396H179.452V451.622H192.44ZM194.76 456.358V457.945H189.608V465.978H187.704V457.945H182.064V465.978H180.16V457.945H174.984V456.358H194.76Z" fill="#B02418"/>
<path d="M162.484 446.812V452.477H165.78V444.737H167.611V464.879H165.78V454.063H162.484V460.143H154.184V446.812H162.484ZM155.99 448.351V458.604H160.678V448.351H155.99ZM171.981 444.273V465.978H170.126V444.273H171.981Z" fill="#B02418"/>
<path d="M140.993 464.146C140.138 464.146 139.406 463.438 139.43 462.56C139.406 461.705 140.138 460.997 140.993 460.997C141.847 460.997 142.555 461.705 142.555 462.56C142.555 463.438 141.847 464.146 140.993 464.146Z" fill="#B02418"/>
<path d="M130.348 464.244C126.832 464.244 124.317 462.364 124.195 459.557H126.417C126.539 461.241 128.224 462.291 130.323 462.291C132.643 462.291 134.352 461.021 134.352 459.19C134.352 457.262 132.813 455.895 130.055 455.895H128.614V453.966H130.055C132.203 453.966 133.692 452.77 133.692 450.938C133.692 449.181 132.398 447.984 130.396 447.984C128.517 447.984 126.783 449.034 126.686 450.768H124.562C124.684 447.96 127.271 446.08 130.421 446.08C133.79 446.08 135.841 448.277 135.816 450.816C135.841 452.818 134.669 454.308 132.813 454.82V454.942C135.108 455.309 136.524 456.944 136.5 459.19C136.524 462.096 133.863 464.244 130.348 464.244Z" fill="#B02418"/>
<path d="M402.978 474.263V481.978H401.049V475.801H388.378V474.263H402.978ZM402.978 460.273V473.066H401.049V469.941H395.458C394.445 471.174 392.846 471.907 390.966 471.895C387.719 471.919 385.326 469.771 385.326 466.694C385.326 463.667 387.719 461.519 390.966 461.519C392.833 461.519 394.433 462.251 395.458 463.472H401.049V460.273H402.978ZM390.966 463.154C388.744 463.154 387.157 464.644 387.157 466.694C387.157 468.818 388.744 470.283 390.966 470.283C393.09 470.283 394.726 468.818 394.726 466.694C394.726 464.644 393.09 463.154 390.966 463.154ZM396.312 468.354H401.049V465.059H396.312C396.483 465.571 396.581 466.108 396.581 466.694C396.581 467.28 396.483 467.842 396.312 468.354Z" fill="#B02418"/>
<path d="M369.36 461.592C371.191 461.58 372.754 462.263 373.755 463.423H379.443V460.273H381.372V473.14H379.443V470.039H373.779C372.754 471.199 371.191 471.882 369.36 471.87C366.113 471.895 363.721 469.771 363.721 466.743C363.721 463.691 366.113 461.567 369.36 461.592ZM369.36 463.252C367.139 463.228 365.552 464.692 365.552 466.743C365.552 468.77 367.139 470.234 369.36 470.234C371.509 470.234 373.12 468.77 373.12 466.743C373.12 464.692 371.509 463.228 369.36 463.252ZM374.17 473.652C378.662 473.652 381.445 475.166 381.445 477.778C381.445 480.415 378.662 481.929 374.17 481.929C369.653 481.929 366.895 480.415 366.895 477.778C366.895 475.166 369.653 473.652 374.17 473.652ZM374.17 475.142C370.85 475.142 368.774 476.143 368.774 477.778C368.774 479.414 370.85 480.391 374.17 480.391C377.515 480.391 379.565 479.414 379.565 477.778C379.565 476.143 377.515 475.142 374.17 475.142ZM374.683 464.985C374.866 465.522 374.976 466.108 374.976 466.743C374.976 467.354 374.866 467.927 374.683 468.452H379.443V464.985H374.683Z" fill="#B02418"/>
<path d="M402.562 440.017V441.579H387.548V430.153H402.318V431.765H389.501V434.987H401.854V436.525H389.501V440.017H402.562ZM404.857 445.559V447.146H384.984V445.559H404.857Z" fill="#B02418"/>
<path d="M374.633 430.544C374.608 436.818 372.484 442.556 364.672 446.389L363.598 444.924C367.687 442.946 370.141 440.432 371.459 437.502L364.013 438.21L363.695 436.525L372.045 435.964C372.423 434.743 372.643 433.461 372.729 432.131H364.794V430.544H374.633ZM380.175 428.273V437.111H383.69V438.723H380.175V449.978H378.271V428.273H380.175Z" fill="#B02418"/>
<path d="M350.993 448.146C350.138 448.146 349.406 447.438 349.43 446.56C349.406 445.705 350.138 444.997 350.993 444.997C351.847 444.997 352.555 445.705 352.555 446.56C352.555 447.438 351.847 448.146 350.993 448.146Z" fill="#B02418"/>
<path d="M333.658 444.387V442.58L341.617 430.324H344.327V442.458H346.793V444.387H344.327V448H342.228V444.387H333.658ZM336.026 442.458H342.228V433.107H342.008L336.026 442.312V442.458Z" fill="#B02418"/>
</svg>
