<svg width="502" height="832" viewBox="0 0 502 832" fill="none" xmlns="http://www.w3.org/2000/svg">
<path d="M26 0H475V832H26V0Z" fill="#F2F2F2"/>
<path fill-rule="evenodd" clip-rule="evenodd" d="M474 1H27V831H474V1ZM26 0V832H475V0H26Z" fill="#C0C0C0"/>
<path d="M56 31H445V685H56V31Z" fill="white"/>
<path fill-rule="evenodd" clip-rule="evenodd" d="M444 32H57V684H444V32ZM56 31V685H445V31H56Z" fill="#C0C0C0"/>
<path d="M56 156H445V243H56V156Z" fill="#FFFADA"/>
<path fill-rule="evenodd" clip-rule="evenodd" d="M444 157H57V242H444V157ZM56 156V243H445V156H56Z" fill="#C0C0C0"/>
<path d="M56 243H306V685H56V243Z" fill="#FFFADA"/>
<path fill-rule="evenodd" clip-rule="evenodd" d="M305 244H57V684H305V244ZM56 243V685H306V243H56Z" fill="#C0C0C0"/>
<path fill-rule="evenodd" clip-rule="evenodd" d="M0 31.5C0 30.6716 0.671573 30 1.5 30H1.54992C2.37835 30 3.04992 30.6716 3.04992 31.5C3.04992 32.3284 2.37835 33 1.54992 33H1.5C0.671573 33 0 32.3284 0 31.5ZM5.04192 31.5C5.04192 30.6716 5.71349 30 6.54192 30H6.64176C7.47018 30 8.14176 30.6716 8.14176 31.5C8.14176 32.3284 7.47018 33 6.64176 33H6.54192C5.71349 33 5.04192 32.3284 5.04192 31.5ZM10.1338 31.5C10.1338 30.6716 10.8053 30 11.6338 30H11.7336C12.562 30 13.2336 30.6716 13.2336 31.5C13.2336 32.3284 12.562 33 11.7336 33H11.6338C10.8053 33 10.1338 32.3284 10.1338 31.5ZM15.2256 31.5C15.2256 30.6716 15.8972 30 16.7256 30H16.8254C17.6539 30 18.3254 30.6716 18.3254 31.5C18.3254 32.3284 17.6539 33 16.8254 33H16.7256C15.8972 33 15.2256 32.3284 15.2256 31.5ZM20.3174 31.5C20.3174 30.6716 20.989 30 21.8174 30H21.9173C22.7457 30 23.4173 30.6716 23.4173 31.5C23.4173 32.3284 22.7457 33 21.9173 33H21.8174C20.989 33 20.3174 32.3284 20.3174 31.5ZM25.4093 31.5C25.4093 30.6716 26.0808 30 26.9093 30H27.0091C27.8375 30 28.5091 30.6716 28.5091 31.5C28.5091 32.3284 27.8375 33 27.0091 33H26.9093C26.0808 33 25.4093 32.3284 25.4093 31.5ZM30.5011 31.5C30.5011 30.6716 31.1727 30 32.0011 30H32.1009C32.9294 30 33.6009 30.6716 33.6009 31.5C33.6009 32.3284 32.9294 33 32.1009 33H32.0011C31.1727 33 30.5011 32.3284 30.5011 31.5ZM35.5929 31.5C35.5929 30.6716 36.2645 30 37.0929 30H37.1928C38.0212 30 38.6928 30.6716 38.6928 31.5C38.6928 32.3284 38.0212 33 37.1928 33H37.0929C36.2645 33 35.5929 32.3284 35.5929 31.5ZM40.6848 31.5C40.6848 30.6716 41.3563 30 42.1848 30H42.2846C43.113 30 43.7846 30.6716 43.7846 31.5C43.7846 32.3284 43.113 33 42.2846 33H42.1848C41.3563 33 40.6848 32.3284 40.6848 31.5ZM45.7766 31.5C45.7766 30.6716 46.4482 30 47.2766 30H47.3764C48.2049 30 48.8764 30.6716 48.8764 31.5C48.8764 32.3284 48.2049 33 47.3764 33H47.2766C46.4482 33 45.7766 32.3284 45.7766 31.5ZM50.8684 31.5C50.8684 30.6716 51.54 30 52.3684 30H52.4683C53.2967 30 53.9683 30.6716 53.9683 31.5C53.9683 32.3284 53.2967 33 52.4683 33H52.3684C51.54 33 50.8684 32.3284 50.8684 31.5ZM55.9603 31.5C55.9603 30.6716 56.6319 30 57.4603 30H57.5601C58.3885 30 59.0601 30.6716 59.0601 31.5C59.0601 32.3284 58.3885 33 57.5601 33H57.4603C56.6319 33 55.9603 32.3284 55.9603 31.5ZM61.0521 31.5C61.0521 30.6716 61.7237 30 62.5521 30H62.652C63.4804 30 64.152 30.6716 64.152 31.5C64.152 32.3284 63.4804 33 62.652 33H62.5521C61.7237 33 61.0521 32.3284 61.0521 31.5ZM66.144 31.5C66.144 30.6716 66.8155 30 67.644 30H67.7438C68.5722 30 69.2438 30.6716 69.2438 31.5C69.2438 32.3284 68.5722 33 67.7438 33H67.644C66.8155 33 66.144 32.3284 66.144 31.5ZM71.2358 31.5C71.2358 30.6716 71.9074 30 72.7358 30H72.8356C73.6641 30 74.3356 30.6716 74.3356 31.5C74.3356 32.3284 73.6641 33 72.8356 33H72.7358C71.9074 33 71.2358 32.3284 71.2358 31.5ZM76.3276 31.5C76.3276 30.6716 76.9992 30 77.8276 30H77.9275C78.7559 30 79.4275 30.6716 79.4275 31.5C79.4275 32.3284 78.7559 33 77.9275 33H77.8276C76.9992 33 76.3276 32.3284 76.3276 31.5ZM81.4195 31.5C81.4195 30.6716 82.091 30 82.9195 30H83.0193C83.8477 30 84.5193 30.6716 84.5193 31.5C84.5193 32.3284 83.8477 33 83.0193 33H82.9195C82.091 33 81.4195 32.3284 81.4195 31.5ZM86.5113 31.5C86.5113 30.6716 87.1829 30 88.0113 30H88.1111C88.9396 30 89.6111 30.6716 89.6111 31.5C89.6111 32.3284 88.9396 33 88.1111 33H88.0113C87.1829 33 86.5113 32.3284 86.5113 31.5ZM91.6031 31.5C91.6031 30.6716 92.2747 30 93.1031 30H93.203C94.0314 30 94.703 30.6716 94.703 31.5C94.703 32.3284 94.0314 33 93.203 33H93.1031C92.2747 33 91.6031 32.3284 91.6031 31.5ZM96.695 31.5C96.695 30.6716 97.3665 30 98.195 30H98.2948C99.1232 30 99.7948 30.6716 99.7948 31.5C99.7948 32.3284 99.1232 33 98.2948 33H98.195C97.3665 33 96.695 32.3284 96.695 31.5ZM101.787 31.5C101.787 30.6716 102.458 30 103.287 30H103.387C104.215 30 104.887 30.6716 104.887 31.5C104.887 32.3284 104.215 33 103.387 33H103.287C102.458 33 101.787 32.3284 101.787 31.5ZM106.879 31.5C106.879 30.6716 107.55 30 108.379 30H108.478C109.307 30 109.978 30.6716 109.978 31.5C109.978 32.3284 109.307 33 108.478 33H108.379C107.55 33 106.879 32.3284 106.879 31.5ZM111.97 31.5C111.97 30.6716 112.642 30 113.47 30H113.57C114.399 30 115.07 30.6716 115.07 31.5C115.07 32.3284 114.399 33 113.57 33H113.47C112.642 33 111.97 32.3284 111.97 31.5ZM117.062 31.5C117.062 30.6716 117.734 30 118.562 30H118.662C119.491 30 120.162 30.6716 120.162 31.5C120.162 32.3284 119.491 33 118.662 33H118.562C117.734 33 117.062 32.3284 117.062 31.5ZM122.154 31.5C122.154 30.6716 122.826 30 123.654 30H123.754C124.582 30 125.254 30.6716 125.254 31.5C125.254 32.3284 124.582 33 123.754 33H123.654C122.826 33 122.154 32.3284 122.154 31.5ZM127.246 31.5C127.246 30.6716 127.918 30 128.746 30H128.846C129.674 30 130.346 30.6716 130.346 31.5C130.346 32.3284 129.674 33 128.846 33H128.746C127.918 33 127.246 32.3284 127.246 31.5ZM132.338 31.5C132.338 30.6716 133.009 30 133.838 30H133.938C134.766 30 135.438 30.6716 135.438 31.5C135.438 32.3284 134.766 33 133.938 33H133.838C133.009 33 132.338 32.3284 132.338 31.5ZM137.43 31.5C137.43 30.6716 138.101 30 138.93 30H139.029C139.858 30 140.529 30.6716 140.529 31.5C140.529 32.3284 139.858 33 139.029 33H138.93C138.101 33 137.43 32.3284 137.43 31.5ZM142.521 31.5C142.521 30.6716 143.193 30 144.021 30H144.121C144.95 30 145.621 30.6716 145.621 31.5C145.621 32.3284 144.95 33 144.121 33H144.021C143.193 33 142.521 32.3284 142.521 31.5ZM147.613 31.5C147.613 30.6716 148.285 30 149.113 30H149.213C150.042 30 150.713 30.6716 150.713 31.5C150.713 32.3284 150.042 33 149.213 33H149.113C148.285 33 147.613 32.3284 147.613 31.5ZM152.705 31.5C152.705 30.6716 153.377 30 154.205 30H154.305C155.133 30 155.805 30.6716 155.805 31.5C155.805 32.3284 155.133 33 154.305 33H154.205C153.377 33 152.705 32.3284 152.705 31.5ZM157.797 31.5C157.797 30.6716 158.469 30 159.297 30H159.397C160.225 30 160.897 30.6716 160.897 31.5C160.897 32.3284 160.225 33 159.397 33H159.297C158.469 33 157.797 32.3284 157.797 31.5ZM162.889 31.5C162.889 30.6716 163.56 30 164.389 30H164.489C165.317 30 165.989 30.6716 165.989 31.5C165.989 32.3284 165.317 33 164.489 33H164.389C163.56 33 162.889 32.3284 162.889 31.5ZM167.981 31.5C167.981 30.6716 168.652 30 169.481 30H169.58C170.409 30 171.08 30.6716 171.08 31.5C171.08 32.3284 170.409 33 169.58 33H169.481C168.652 33 167.981 32.3284 167.981 31.5ZM173.072 31.5C173.072 30.6716 173.744 30 174.572 30H174.672C175.501 30 176.172 30.6716 176.172 31.5C176.172 32.3284 175.501 33 174.672 33H174.572C173.744 33 173.072 32.3284 173.072 31.5ZM178.164 31.5C178.164 30.6716 178.836 30 179.664 30H179.764C180.592 30 181.264 30.6716 181.264 31.5C181.264 32.3284 180.592 33 179.764 33H179.664C178.836 33 178.164 32.3284 178.164 31.5ZM183.256 31.5C183.256 30.6716 183.928 30 184.756 30H184.856C185.684 30 186.356 30.6716 186.356 31.5C186.356 32.3284 185.684 33 184.856 33H184.756C183.928 33 183.256 32.3284 183.256 31.5ZM188.348 31.5C188.348 30.6716 189.019 30 189.848 30H189.948C190.776 30 191.448 30.6716 191.448 31.5C191.448 32.3284 190.776 33 189.948 33H189.848C189.019 33 188.348 32.3284 188.348 31.5ZM193.44 31.5C193.44 30.6716 194.111 30 194.94 30H195.04C195.868 30 196.54 30.6716 196.54 31.5C196.54 32.3284 195.868 33 195.04 33H194.94C194.111 33 193.44 32.3284 193.44 31.5ZM198.532 31.5C198.532 30.6716 199.203 30 200.032 30H200.131C200.96 30 201.631 30.6716 201.631 31.5C201.631 32.3284 200.96 33 200.131 33H200.032C199.203 33 198.532 32.3284 198.532 31.5ZM203.623 31.5C203.623 30.6716 204.295 30 205.123 30H205.223C206.052 30 206.723 30.6716 206.723 31.5C206.723 32.3284 206.052 33 205.223 33H205.123C204.295 33 203.623 32.3284 203.623 31.5ZM208.715 31.5C208.715 30.6716 209.387 30 210.215 30H210.315C211.143 30 211.815 30.6716 211.815 31.5C211.815 32.3284 211.143 33 210.315 33H210.215C209.387 33 208.715 32.3284 208.715 31.5ZM213.807 31.5C213.807 30.6716 214.479 30 215.307 30H215.407C216.235 30 216.907 30.6716 216.907 31.5C216.907 32.3284 216.235 33 215.407 33H215.307C214.479 33 213.807 32.3284 213.807 31.5ZM218.899 31.5C218.899 30.6716 219.57 30 220.399 30H220.499C221.327 30 221.999 30.6716 221.999 31.5C221.999 32.3284 221.327 33 220.499 33H220.399C219.57 33 218.899 32.3284 218.899 31.5ZM223.991 31.5C223.991 30.6716 224.662 30 225.491 30H225.591C226.419 30 227.091 30.6716 227.091 31.5C227.091 32.3284 226.419 33 225.591 33H225.491C224.662 33 223.991 32.3284 223.991 31.5ZM229.083 31.5C229.083 30.6716 229.754 30 230.583 30H230.682C231.511 30 232.182 30.6716 232.182 31.5C232.182 32.3284 231.511 33 230.682 33H230.583C229.754 33 229.083 32.3284 229.083 31.5ZM234.174 31.5C234.174 30.6716 234.846 30 235.674 30H235.774C236.603 30 237.274 30.6716 237.274 31.5C237.274 32.3284 236.603 33 235.774 33H235.674C234.846 33 234.174 32.3284 234.174 31.5ZM239.266 31.5C239.266 30.6716 239.938 30 240.766 30H240.866C241.694 30 242.366 30.6716 242.366 31.5C242.366 32.3284 241.694 33 240.866 33H240.766C239.938 33 239.266 32.3284 239.266 31.5ZM244.358 31.5C244.358 30.6716 245.03 30 245.858 30H245.958C246.786 30 247.458 30.6716 247.458 31.5C247.458 32.3284 246.786 33 245.958 33H245.858C245.03 33 244.358 32.3284 244.358 31.5ZM249.45 31.5C249.45 30.6716 250.121 30 250.95 30H251.05C251.878 30 252.55 30.6716 252.55 31.5C252.55 32.3284 251.878 33 251.05 33H250.95C250.121 33 249.45 32.3284 249.45 31.5ZM254.542 31.5C254.542 30.6716 255.213 30 256.042 30H256.142C256.97 30 257.642 30.6716 257.642 31.5C257.642 32.3284 256.97 33 256.142 33H256.042C255.213 33 254.542 32.3284 254.542 31.5ZM259.633 31.5C259.633 30.6716 260.305 30 261.133 30H261.233C262.062 30 262.733 30.6716 262.733 31.5C262.733 32.3284 262.062 33 261.233 33H261.133C260.305 33 259.633 32.3284 259.633 31.5ZM264.725 31.5C264.725 30.6716 265.397 30 266.225 30H266.325C267.154 30 267.825 30.6716 267.825 31.5C267.825 32.3284 267.154 33 266.325 33H266.225C265.397 33 264.725 32.3284 264.725 31.5ZM269.817 31.5C269.817 30.6716 270.489 30 271.317 30H271.417C272.245 30 272.917 30.6716 272.917 31.5C272.917 32.3284 272.245 33 271.417 33H271.317C270.489 33 269.817 32.3284 269.817 31.5ZM274.909 31.5C274.909 30.6716 275.581 30 276.409 30H276.509C277.337 30 278.009 30.6716 278.009 31.5C278.009 32.3284 277.337 33 276.509 33H276.409C275.581 33 274.909 32.3284 274.909 31.5ZM280.001 31.5C280.001 30.6716 280.672 30 281.501 30H281.601C282.429 30 283.101 30.6716 283.101 31.5C283.101 32.3284 282.429 33 281.601 33H281.501C280.672 33 280.001 32.3284 280.001 31.5ZM285.093 31.5C285.093 30.6716 285.764 30 286.593 30H286.693C287.521 30 288.193 30.6716 288.193 31.5C288.193 32.3284 287.521 33 286.693 33H286.593C285.764 33 285.093 32.3284 285.093 31.5ZM290.185 31.5C290.185 30.6716 290.856 30 291.685 30H291.784C292.613 30 293.284 30.6716 293.284 31.5C293.284 32.3284 292.613 33 291.784 33H291.685C290.856 33 290.185 32.3284 290.185 31.5ZM295.276 31.5C295.276 30.6716 295.948 30 296.776 30H296.876C297.705 30 298.376 30.6716 298.376 31.5C298.376 32.3284 297.705 33 296.876 33H296.776C295.948 33 295.276 32.3284 295.276 31.5ZM300.368 31.5C300.368 30.6716 301.04 30 301.868 30H301.968C302.797 30 303.468 30.6716 303.468 31.5C303.468 32.3284 302.797 33 301.968 33H301.868C301.04 33 300.368 32.3284 300.368 31.5ZM305.46 31.5C305.46 30.6716 306.132 30 306.96 30H307.06C307.888 30 308.56 30.6716 308.56 31.5C308.56 32.3284 307.888 33 307.06 33H306.96C306.132 33 305.46 32.3284 305.46 31.5ZM310.552 31.5C310.552 30.6716 311.224 30 312.052 30H312.152C312.98 30 313.652 30.6716 313.652 31.5C313.652 32.3284 312.98 33 312.152 33H312.052C311.224 33 310.552 32.3284 310.552 31.5ZM315.644 31.5C315.644 30.6716 316.315 30 317.144 30H317.244C318.072 30 318.744 30.6716 318.744 31.5C318.744 32.3284 318.072 33 317.244 33H317.144C316.315 33 315.644 32.3284 315.644 31.5ZM320.736 31.5C320.736 30.6716 321.407 30 322.236 30H322.336C323.164 30 323.836 30.6716 323.836 31.5C323.836 32.3284 323.164 33 322.336 33H322.236C321.407 33 320.736 32.3284 320.736 31.5ZM325.828 31.5C325.828 30.6716 326.499 30 327.328 30H327.427C328.256 30 328.927 30.6716 328.927 31.5C328.927 32.3284 328.256 33 327.427 33H327.328C326.499 33 325.828 32.3284 325.828 31.5ZM330.919 31.5C330.919 30.6716 331.591 30 332.419 30H332.519C333.348 30 334.019 30.6716 334.019 31.5C334.019 32.3284 333.348 33 332.519 33H332.419C331.591 33 330.919 32.3284 330.919 31.5ZM336.011 31.5C336.011 30.6716 336.683 30 337.511 30H337.611C338.44 30 339.111 30.6716 339.111 31.5C339.111 32.3284 338.44 33 337.611 33H337.511C336.683 33 336.011 32.3284 336.011 31.5ZM341.103 31.5C341.103 30.6716 341.775 30 342.603 30H342.703C343.531 30 344.203 30.6716 344.203 31.5C344.203 32.3284 343.531 33 342.703 33H342.603C341.775 33 341.103 32.3284 341.103 31.5ZM346.195 31.5C346.195 30.6716 346.867 30 347.695 30H347.795C348.623 30 349.295 30.6716 349.295 31.5C349.295 32.3284 348.623 33 347.795 33H347.695C346.867 33 346.195 32.3284 346.195 31.5ZM351.287 31.5C351.287 30.6716 351.958 30 352.787 30H352.887C353.715 30 354.387 30.6716 354.387 31.5C354.387 32.3284 353.715 33 352.887 33H352.787C351.958 33 351.287 32.3284 351.287 31.5ZM356.379 31.5C356.379 30.6716 357.05 30 357.879 30H357.979C358.807 30 359.479 30.6716 359.479 31.5C359.479 32.3284 358.807 33 357.979 33H357.879C357.05 33 356.379 32.3284 356.379 31.5ZM361.471 31.5C361.471 30.6716 362.142 30 362.971 30H363.07C363.899 30 364.57 30.6716 364.57 31.5C364.57 32.3284 363.899 33 363.07 33H362.971C362.142 33 361.471 32.3284 361.471 31.5ZM366.562 31.5C366.562 30.6716 367.234 30 368.062 30H368.162C368.991 30 369.662 30.6716 369.662 31.5C369.662 32.3284 368.991 33 368.162 33H368.062C367.234 33 366.562 32.3284 366.562 31.5ZM371.654 31.5C371.654 30.6716 372.326 30 373.154 30H373.254C374.083 30 374.754 30.6716 374.754 31.5C374.754 32.3284 374.083 33 373.254 33H373.154C372.326 33 371.654 32.3284 371.654 31.5ZM376.746 31.5C376.746 30.6716 377.418 30 378.246 30H378.346C379.174 30 379.846 30.6716 379.846 31.5C379.846 32.3284 379.174 33 378.346 33H378.246C377.418 33 376.746 32.3284 376.746 31.5ZM381.838 31.5C381.838 30.6716 382.51 30 383.338 30H383.438C384.266 30 384.938 30.6716 384.938 31.5C384.938 32.3284 384.266 33 383.438 33H383.338C382.51 33 381.838 32.3284 381.838 31.5ZM386.93 31.5C386.93 30.6716 387.602 30 388.43 30H388.53C389.358 30 390.03 30.6716 390.03 31.5C390.03 32.3284 389.358 33 388.53 33H388.43C387.602 33 386.93 32.3284 386.93 31.5ZM392.022 31.5C392.022 30.6716 392.693 30 393.522 30H393.622C394.45 30 395.122 30.6716 395.122 31.5C395.122 32.3284 394.45 33 393.622 33H393.522C392.693 33 392.022 32.3284 392.022 31.5ZM397.114 31.5C397.114 30.6716 397.785 30 398.614 30H398.714C399.542 30 400.214 30.6716 400.214 31.5C400.214 32.3284 399.542 33 398.714 33H398.614C397.785 33 397.114 32.3284 397.114 31.5ZM402.206 31.5C402.206 30.6716 402.877 30 403.706 30H403.805C404.634 30 405.305 30.6716 405.305 31.5C405.305 32.3284 404.634 33 403.805 33H403.706C402.877 33 402.206 32.3284 402.206 31.5ZM407.297 31.5C407.297 30.6716 407.969 30 408.797 30H408.897C409.726 30 410.397 30.6716 410.397 31.5C410.397 32.3284 409.726 33 408.897 33H408.797C407.969 33 407.297 32.3284 407.297 31.5ZM412.389 31.5C412.389 30.6716 413.061 30 413.889 30H413.989C414.818 30 415.489 30.6716 415.489 31.5C415.489 32.3284 414.818 33 413.989 33H413.889C413.061 33 412.389 32.3284 412.389 31.5ZM417.481 31.5C417.481 30.6716 418.153 30 418.981 30H419.081C419.909 30 420.581 30.6716 420.581 31.5C420.581 32.3284 419.909 33 419.081 33H418.981C418.153 33 417.481 32.3284 417.481 31.5ZM422.573 31.5C422.573 30.6716 423.245 30 424.073 30H424.173C425.001 30 425.673 30.6716 425.673 31.5C425.673 32.3284 425.001 33 424.173 33H424.073C423.245 33 422.573 32.3284 422.573 31.5ZM427.665 31.5C427.665 30.6716 428.336 30 429.165 30H429.265C430.093 30 430.765 30.6716 430.765 31.5C430.765 32.3284 430.093 33 429.265 33H429.165C428.336 33 427.665 32.3284 427.665 31.5ZM432.757 31.5C432.757 30.6716 433.428 30 434.257 30H434.357C435.185 30 435.857 30.6716 435.857 31.5C435.857 32.3284 435.185 33 434.357 33H434.257C433.428 33 432.757 32.3284 432.757 31.5ZM437.849 31.5C437.849 30.6716 438.52 30 439.349 30H439.448C440.277 30 440.948 30.6716 440.948 31.5C440.948 32.3284 440.277 33 439.448 33H439.349C438.52 33 437.849 32.3284 437.849 31.5ZM442.94 31.5C442.94 30.6716 443.612 30 444.44 30H444.54C445.369 30 446.04 30.6716 446.04 31.5C446.04 32.3284 445.369 33 444.54 33H444.44C443.612 33 442.94 32.3284 442.94 31.5ZM448.032 31.5C448.032 30.6716 448.704 30 449.532 30H449.632C450.461 30 451.132 30.6716 451.132 31.5C451.132 32.3284 450.461 33 449.632 33H449.532C448.704 33 448.032 32.3284 448.032 31.5ZM453.124 31.5C453.124 30.6716 453.796 30 454.624 30H454.724C455.552 30 456.224 30.6716 456.224 31.5C456.224 32.3284 455.552 33 454.724 33H454.624C453.796 33 453.124 32.3284 453.124 31.5ZM458.216 31.5C458.216 30.6716 458.888 30 459.716 30H459.816C460.644 30 461.316 30.6716 461.316 31.5C461.316 32.3284 460.644 33 459.816 33H459.716C458.888 33 458.216 32.3284 458.216 31.5ZM463.308 31.5C463.308 30.6716 463.979 30 464.808 30H464.908C465.736 30 466.408 30.6716 466.408 31.5C466.408 32.3284 465.736 33 464.908 33H464.808C463.979 33 463.308 32.3284 463.308 31.5ZM468.4 31.5C468.4 30.6716 469.071 30 469.9 30H470C470.828 30 471.5 30.6716 471.5 31.5C471.5 32.3284 470.828 33 470 33H469.9C469.071 33 468.4 32.3284 468.4 31.5ZM473.492 31.5C473.492 30.6716 474.163 30 474.992 30H475.091C475.92 30 476.591 30.6716 476.591 31.5C476.591 32.3284 475.92 33 475.091 33H474.992C474.163 33 473.492 32.3284 473.492 31.5ZM478.583 31.5C478.583 30.6716 479.255 30 480.083 30H480.183C481.012 30 481.683 30.6716 481.683 31.5C481.683 32.3284 481.012 33 480.183 33H480.083C479.255 33 478.583 32.3284 478.583 31.5ZM483.675 31.5C483.675 30.6716 484.347 30 485.175 30H485.275C486.104 30 486.775 30.6716 486.775 31.5C486.775 32.3284 486.104 33 485.275 33H485.175C484.347 33 483.675 32.3284 483.675 31.5ZM488.767 31.5C488.767 30.6716 489.439 30 490.267 30H490.367C491.195 30 491.867 30.6716 491.867 31.5C491.867 32.3284 491.195 33 490.367 33H490.267C489.439 33 488.767 32.3284 488.767 31.5ZM493.859 31.5C493.859 30.6716 494.531 30 495.359 30H495.459C496.287 30 496.959 30.6716 496.959 31.5C496.959 32.3284 496.287 33 495.459 33H495.359C494.531 33 493.859 32.3284 493.859 31.5ZM498.951 31.5C498.951 30.6716 499.622 30 500.451 30H500.5C501.328 30 502 30.6716 502 31.5C502 32.3284 501.328 33 500.5 33H500.451C499.622 33 498.951 32.3284 498.951 31.5Z" fill="#B02418"/>
<path fill-rule="evenodd" clip-rule="evenodd" d="M0 156.5C0 155.672 0.671573 155 1.5 155H1.54992C2.37835 155 3.04992 155.672 3.04992 156.5C3.04992 157.328 2.37835 158 1.54992 158H1.5C0.671573 158 0 157.328 0 156.5ZM5.04192 156.5C5.04192 155.672 5.71349 155 6.54192 155H6.64176C7.47018 155 8.14176 155.672 8.14176 156.5C8.14176 157.328 7.47018 158 6.64176 158H6.54192C5.71349 158 5.04192 157.328 5.04192 156.5ZM10.1338 156.5C10.1338 155.672 10.8053 155 11.6338 155H11.7336C12.562 155 13.2336 155.672 13.2336 156.5C13.2336 157.328 12.562 158 11.7336 158H11.6338C10.8053 158 10.1338 157.328 10.1338 156.5ZM15.2256 156.5C15.2256 155.672 15.8972 155 16.7256 155H16.8254C17.6539 155 18.3254 155.672 18.3254 156.5C18.3254 157.328 17.6539 158 16.8254 158H16.7256C15.8972 158 15.2256 157.328 15.2256 156.5ZM20.3174 156.5C20.3174 155.672 20.989 155 21.8174 155H21.9173C22.7457 155 23.4173 155.672 23.4173 156.5C23.4173 157.328 22.7457 158 21.9173 158H21.8174C20.989 158 20.3174 157.328 20.3174 156.5ZM25.4093 156.5C25.4093 155.672 26.0808 155 26.9093 155H27.0091C27.8375 155 28.5091 155.672 28.5091 156.5C28.5091 157.328 27.8375 158 27.0091 158H26.9093C26.0808 158 25.4093 157.328 25.4093 156.5ZM30.5011 156.5C30.5011 155.672 31.1727 155 32.0011 155H32.1009C32.9294 155 33.6009 155.672 33.6009 156.5C33.6009 157.328 32.9294 158 32.1009 158H32.0011C31.1727 158 30.5011 157.328 30.5011 156.5ZM35.5929 156.5C35.5929 155.672 36.2645 155 37.0929 155H37.1928C38.0212 155 38.6928 155.672 38.6928 156.5C38.6928 157.328 38.0212 158 37.1928 158H37.0929C36.2645 158 35.5929 157.328 35.5929 156.5ZM40.6848 156.5C40.6848 155.672 41.3563 155 42.1848 155H42.2846C43.113 155 43.7846 155.672 43.7846 156.5C43.7846 157.328 43.113 158 42.2846 158H42.1848C41.3563 158 40.6848 157.328 40.6848 156.5ZM45.7766 156.5C45.7766 155.672 46.4482 155 47.2766 155H47.3764C48.2049 155 48.8764 155.672 48.8764 156.5C48.8764 157.328 48.2049 158 47.3764 158H47.2766C46.4482 158 45.7766 157.328 45.7766 156.5ZM50.8684 156.5C50.8684 155.672 51.54 155 52.3684 155H52.4683C53.2967 155 53.9683 155.672 53.9683 156.5C53.9683 157.328 53.2967 158 52.4683 158H52.3684C51.54 158 50.8684 157.328 50.8684 156.5ZM55.9603 156.5C55.9603 155.672 56.6319 155 57.4603 155H57.5601C58.3885 155 59.0601 155.672 59.0601 156.5C59.0601 157.328 58.3885 158 57.5601 158H57.4603C56.6319 158 55.9603 157.328 55.9603 156.5ZM61.0521 156.5C61.0521 155.672 61.7237 155 62.5521 155H62.652C63.4804 155 64.152 155.672 64.152 156.5C64.152 157.328 63.4804 158 62.652 158H62.5521C61.7237 158 61.0521 157.328 61.0521 156.5ZM66.144 156.5C66.144 155.672 66.8155 155 67.644 155H67.7438C68.5722 155 69.2438 155.672 69.2438 156.5C69.2438 157.328 68.5722 158 67.7438 158H67.644C66.8155 158 66.144 157.328 66.144 156.5ZM71.2358 156.5C71.2358 155.672 71.9074 155 72.7358 155H72.8356C73.6641 155 74.3356 155.672 74.3356 156.5C74.3356 157.328 73.6641 158 72.8356 158H72.7358C71.9074 158 71.2358 157.328 71.2358 156.5ZM76.3276 156.5C76.3276 155.672 76.9992 155 77.8276 155H77.9275C78.7559 155 79.4275 155.672 79.4275 156.5C79.4275 157.328 78.7559 158 77.9275 158H77.8276C76.9992 158 76.3276 157.328 76.3276 156.5ZM81.4195 156.5C81.4195 155.672 82.091 155 82.9195 155H83.0193C83.8477 155 84.5193 155.672 84.5193 156.5C84.5193 157.328 83.8477 158 83.0193 158H82.9195C82.091 158 81.4195 157.328 81.4195 156.5ZM86.5113 156.5C86.5113 155.672 87.1829 155 88.0113 155H88.1111C88.9396 155 89.6111 155.672 89.6111 156.5C89.6111 157.328 88.9396 158 88.1111 158H88.0113C87.1829 158 86.5113 157.328 86.5113 156.5ZM91.6031 156.5C91.6031 155.672 92.2747 155 93.1031 155H93.203C94.0314 155 94.703 155.672 94.703 156.5C94.703 157.328 94.0314 158 93.203 158H93.1031C92.2747 158 91.6031 157.328 91.6031 156.5ZM96.695 156.5C96.695 155.672 97.3665 155 98.195 155H98.2948C99.1232 155 99.7948 155.672 99.7948 156.5C99.7948 157.328 99.1232 158 98.2948 158H98.195C97.3665 158 96.695 157.328 96.695 156.5ZM101.787 156.5C101.787 155.672 102.458 155 103.287 155H103.387C104.215 155 104.887 155.672 104.887 156.5C104.887 157.328 104.215 158 103.387 158H103.287C102.458 158 101.787 157.328 101.787 156.5ZM106.879 156.5C106.879 155.672 107.55 155 108.379 155H108.478C109.307 155 109.978 155.672 109.978 156.5C109.978 157.328 109.307 158 108.478 158H108.379C107.55 158 106.879 157.328 106.879 156.5ZM111.97 156.5C111.97 155.672 112.642 155 113.47 155H113.57C114.399 155 115.07 155.672 115.07 156.5C115.07 157.328 114.399 158 113.57 158H113.47C112.642 158 111.97 157.328 111.97 156.5ZM117.062 156.5C117.062 155.672 117.734 155 118.562 155H118.662C119.491 155 120.162 155.672 120.162 156.5C120.162 157.328 119.491 158 118.662 158H118.562C117.734 158 117.062 157.328 117.062 156.5ZM122.154 156.5C122.154 155.672 122.826 155 123.654 155H123.754C124.582 155 125.254 155.672 125.254 156.5C125.254 157.328 124.582 158 123.754 158H123.654C122.826 158 122.154 157.328 122.154 156.5ZM127.246 156.5C127.246 155.672 127.918 155 128.746 155H128.846C129.674 155 130.346 155.672 130.346 156.5C130.346 157.328 129.674 158 128.846 158H128.746C127.918 158 127.246 157.328 127.246 156.5ZM132.338 156.5C132.338 155.672 133.009 155 133.838 155H133.938C134.766 155 135.438 155.672 135.438 156.5C135.438 157.328 134.766 158 133.938 158H133.838C133.009 158 132.338 157.328 132.338 156.5ZM137.43 156.5C137.43 155.672 138.101 155 138.93 155H139.029C139.858 155 140.529 155.672 140.529 156.5C140.529 157.328 139.858 158 139.029 158H138.93C138.101 158 137.43 157.328 137.43 156.5ZM142.521 156.5C142.521 155.672 143.193 155 144.021 155H144.121C144.95 155 145.621 155.672 145.621 156.5C145.621 157.328 144.95 158 144.121 158H144.021C143.193 158 142.521 157.328 142.521 156.5ZM147.613 156.5C147.613 155.672 148.285 155 149.113 155H149.213C150.042 155 150.713 155.672 150.713 156.5C150.713 157.328 150.042 158 149.213 158H149.113C148.285 158 147.613 157.328 147.613 156.5ZM152.705 156.5C152.705 155.672 153.377 155 154.205 155H154.305C155.133 155 155.805 155.672 155.805 156.5C155.805 157.328 155.133 158 154.305 158H154.205C153.377 158 152.705 157.328 152.705 156.5ZM157.797 156.5C157.797 155.672 158.469 155 159.297 155H159.397C160.225 155 160.897 155.672 160.897 156.5C160.897 157.328 160.225 158 159.397 158H159.297C158.469 158 157.797 157.328 157.797 156.5ZM162.889 156.5C162.889 155.672 163.56 155 164.389 155H164.489C165.317 155 165.989 155.672 165.989 156.5C165.989 157.328 165.317 158 164.489 158H164.389C163.56 158 162.889 157.328 162.889 156.5ZM167.981 156.5C167.981 155.672 168.652 155 169.481 155H169.58C170.409 155 171.08 155.672 171.08 156.5C171.08 157.328 170.409 158 169.58 158H169.481C168.652 158 167.981 157.328 167.981 156.5ZM173.072 156.5C173.072 155.672 173.744 155 174.572 155H174.672C175.501 155 176.172 155.672 176.172 156.5C176.172 157.328 175.501 158 174.672 158H174.572C173.744 158 173.072 157.328 173.072 156.5ZM178.164 156.5C178.164 155.672 178.836 155 179.664 155H179.764C180.592 155 181.264 155.672 181.264 156.5C181.264 157.328 180.592 158 179.764 158H179.664C178.836 158 178.164 157.328 178.164 156.5ZM183.256 156.5C183.256 155.672 183.928 155 184.756 155H184.856C185.684 155 186.356 155.672 186.356 156.5C186.356 157.328 185.684 158 184.856 158H184.756C183.928 158 183.256 157.328 183.256 156.5ZM188.348 156.5C188.348 155.672 189.019 155 189.848 155H189.948C190.776 155 191.448 155.672 191.448 156.5C191.448 157.328 190.776 158 189.948 158H189.848C189.019 158 188.348 157.328 188.348 156.5ZM193.44 156.5C193.44 155.672 194.111 155 194.94 155H195.04C195.868 155 196.54 155.672 196.54 156.5C196.54 157.328 195.868 158 195.04 158H194.94C194.111 158 193.44 157.328 193.44 156.5ZM198.532 156.5C198.532 155.672 199.203 155 200.032 155H200.131C200.96 155 201.631 155.672 201.631 156.5C201.631 157.328 200.96 158 200.131 158H200.032C199.203 158 198.532 157.328 198.532 156.5ZM203.623 156.5C203.623 155.672 204.295 155 205.123 155H205.223C206.052 155 206.723 155.672 206.723 156.5C206.723 157.328 206.052 158 205.223 158H205.123C204.295 158 203.623 157.328 203.623 156.5ZM208.715 156.5C208.715 155.672 209.387 155 210.215 155H210.315C211.143 155 211.815 155.672 211.815 156.5C211.815 157.328 211.143 158 210.315 158H210.215C209.387 158 208.715 157.328 208.715 156.5ZM213.807 156.5C213.807 155.672 214.479 155 215.307 155H215.407C216.235 155 216.907 155.672 216.907 156.5C216.907 157.328 216.235 158 215.407 158H215.307C214.479 158 213.807 157.328 213.807 156.5ZM218.899 156.5C218.899 155.672 219.57 155 220.399 155H220.499C221.327 155 221.999 155.672 221.999 156.5C221.999 157.328 221.327 158 220.499 158H220.399C219.57 158 218.899 157.328 218.899 156.5ZM223.991 156.5C223.991 155.672 224.662 155 225.491 155H225.591C226.419 155 227.091 155.672 227.091 156.5C227.091 157.328 226.419 158 225.591 158H225.491C224.662 158 223.991 157.328 223.991 156.5ZM229.083 156.5C229.083 155.672 229.754 155 230.583 155H230.682C231.511 155 232.182 155.672 232.182 156.5C232.182 157.328 231.511 158 230.682 158H230.583C229.754 158 229.083 157.328 229.083 156.5ZM234.174 156.5C234.174 155.672 234.846 155 235.674 155H235.774C236.603 155 237.274 155.672 237.274 156.5C237.274 157.328 236.603 158 235.774 158H235.674C234.846 158 234.174 157.328 234.174 156.5ZM239.266 156.5C239.266 155.672 239.938 155 240.766 155H240.866C241.694 155 242.366 155.672 242.366 156.5C242.366 157.328 241.694 158 240.866 158H240.766C239.938 158 239.266 157.328 239.266 156.5ZM244.358 156.5C244.358 155.672 245.03 155 245.858 155H245.958C246.786 155 247.458 155.672 247.458 156.5C247.458 157.328 246.786 158 245.958 158H245.858C245.03 158 244.358 157.328 244.358 156.5ZM249.45 156.5C249.45 155.672 250.121 155 250.95 155H251.05C251.878 155 252.55 155.672 252.55 156.5C252.55 157.328 251.878 158 251.05 158H250.95C250.121 158 249.45 157.328 249.45 156.5ZM254.542 156.5C254.542 155.672 255.213 155 256.042 155H256.142C256.97 155 257.642 155.672 257.642 156.5C257.642 157.328 256.97 158 256.142 158H256.042C255.213 158 254.542 157.328 254.542 156.5ZM259.633 156.5C259.633 155.672 260.305 155 261.133 155H261.233C262.062 155 262.733 155.672 262.733 156.5C262.733 157.328 262.062 158 261.233 158H261.133C260.305 158 259.633 157.328 259.633 156.5ZM264.725 156.5C264.725 155.672 265.397 155 266.225 155H266.325C267.154 155 267.825 155.672 267.825 156.5C267.825 157.328 267.154 158 266.325 158H266.225C265.397 158 264.725 157.328 264.725 156.5ZM269.817 156.5C269.817 155.672 270.489 155 271.317 155H271.417C272.245 155 272.917 155.672 272.917 156.5C272.917 157.328 272.245 158 271.417 158H271.317C270.489 158 269.817 157.328 269.817 156.5ZM274.909 156.5C274.909 155.672 275.581 155 276.409 155H276.509C277.337 155 278.009 155.672 278.009 156.5C278.009 157.328 277.337 158 276.509 158H276.409C275.581 158 274.909 157.328 274.909 156.5ZM280.001 156.5C280.001 155.672 280.672 155 281.501 155H281.601C282.429 155 283.101 155.672 283.101 156.5C283.101 157.328 282.429 158 281.601 158H281.501C280.672 158 280.001 157.328 280.001 156.5ZM285.093 156.5C285.093 155.672 285.764 155 286.593 155H286.693C287.521 155 288.193 155.672 288.193 156.5C288.193 157.328 287.521 158 286.693 158H286.593C285.764 158 285.093 157.328 285.093 156.5ZM290.185 156.5C290.185 155.672 290.856 155 291.685 155H291.784C292.613 155 293.284 155.672 293.284 156.5C293.284 157.328 292.613 158 291.784 158H291.685C290.856 158 290.185 157.328 290.185 156.5ZM295.276 156.5C295.276 155.672 295.948 155 296.776 155H296.876C297.705 155 298.376 155.672 298.376 156.5C298.376 157.328 297.705 158 296.876 158H296.776C295.948 158 295.276 157.328 295.276 156.5ZM300.368 156.5C300.368 155.672 301.04 155 301.868 155H301.968C302.797 155 303.468 155.672 303.468 156.5C303.468 157.328 302.797 158 301.968 158H301.868C301.04 158 300.368 157.328 300.368 156.5ZM305.46 156.5C305.46 155.672 306.132 155 306.96 155H307.06C307.888 155 308.56 155.672 308.56 156.5C308.56 157.328 307.888 158 307.06 158H306.96C306.132 158 305.46 157.328 305.46 156.5ZM310.552 156.5C310.552 155.672 311.224 155 312.052 155H312.152C312.98 155 313.652 155.672 313.652 156.5C313.652 157.328 312.98 158 312.152 158H312.052C311.224 158 310.552 157.328 310.552 156.5ZM315.644 156.5C315.644 155.672 316.315 155 317.144 155H317.244C318.072 155 318.744 155.672 318.744 156.5C318.744 157.328 318.072 158 317.244 158H317.144C316.315 158 315.644 157.328 315.644 156.5ZM320.736 156.5C320.736 155.672 321.407 155 322.236 155H322.336C323.164 155 323.836 155.672 323.836 156.5C323.836 157.328 323.164 158 322.336 158H322.236C321.407 158 320.736 157.328 320.736 156.5ZM325.828 156.5C325.828 155.672 326.499 155 327.328 155H327.427C328.256 155 328.927 155.672 328.927 156.5C328.927 157.328 328.256 158 327.427 158H327.328C326.499 158 325.828 157.328 325.828 156.5ZM330.919 156.5C330.919 155.672 331.591 155 332.419 155H332.519C333.348 155 334.019 155.672 334.019 156.5C334.019 157.328 333.348 158 332.519 158H332.419C331.591 158 330.919 157.328 330.919 156.5ZM336.011 156.5C336.011 155.672 336.683 155 337.511 155H337.611C338.44 155 339.111 155.672 339.111 156.5C339.111 157.328 338.44 158 337.611 158H337.511C336.683 158 336.011 157.328 336.011 156.5ZM341.103 156.5C341.103 155.672 341.775 155 342.603 155H342.703C343.531 155 344.203 155.672 344.203 156.5C344.203 157.328 343.531 158 342.703 158H342.603C341.775 158 341.103 157.328 341.103 156.5ZM346.195 156.5C346.195 155.672 346.867 155 347.695 155H347.795C348.623 155 349.295 155.672 349.295 156.5C349.295 157.328 348.623 158 347.795 158H347.695C346.867 158 346.195 157.328 346.195 156.5ZM351.287 156.5C351.287 155.672 351.958 155 352.787 155H352.887C353.715 155 354.387 155.672 354.387 156.5C354.387 157.328 353.715 158 352.887 158H352.787C351.958 158 351.287 157.328 351.287 156.5ZM356.379 156.5C356.379 155.672 357.05 155 357.879 155H357.979C358.807 155 359.479 155.672 359.479 156.5C359.479 157.328 358.807 158 357.979 158H357.879C357.05 158 356.379 157.328 356.379 156.5ZM361.471 156.5C361.471 155.672 362.142 155 362.971 155H363.07C363.899 155 364.57 155.672 364.57 156.5C364.57 157.328 363.899 158 363.07 158H362.971C362.142 158 361.471 157.328 361.471 156.5ZM366.562 156.5C366.562 155.672 367.234 155 368.062 155H368.162C368.991 155 369.662 155.672 369.662 156.5C369.662 157.328 368.991 158 368.162 158H368.062C367.234 158 366.562 157.328 366.562 156.5ZM371.654 156.5C371.654 155.672 372.326 155 373.154 155H373.254C374.083 155 374.754 155.672 374.754 156.5C374.754 157.328 374.083 158 373.254 158H373.154C372.326 158 371.654 157.328 371.654 156.5ZM376.746 156.5C376.746 155.672 377.418 155 378.246 155H378.346C379.174 155 379.846 155.672 379.846 156.5C379.846 157.328 379.174 158 378.346 158H378.246C377.418 158 376.746 157.328 376.746 156.5ZM381.838 156.5C381.838 155.672 382.51 155 383.338 155H383.438C384.266 155 384.938 155.672 384.938 156.5C384.938 157.328 384.266 158 383.438 158H383.338C382.51 158 381.838 157.328 381.838 156.5ZM386.93 156.5C386.93 155.672 387.602 155 388.43 155H388.53C389.358 155 390.03 155.672 390.03 156.5C390.03 157.328 389.358 158 388.53 158H388.43C387.602 158 386.93 157.328 386.93 156.5ZM392.022 156.5C392.022 155.672 392.693 155 393.522 155H393.622C394.45 155 395.122 155.672 395.122 156.5C395.122 157.328 394.45 158 393.622 158H393.522C392.693 158 392.022 157.328 392.022 156.5ZM397.114 156.5C397.114 155.672 397.785 155 398.614 155H398.714C399.542 155 400.214 155.672 400.214 156.5C400.214 157.328 399.542 158 398.714 158H398.614C397.785 158 397.114 157.328 397.114 156.5ZM402.206 156.5C402.206 155.672 402.877 155 403.706 155H403.805C404.634 155 405.305 155.672 405.305 156.5C405.305 157.328 404.634 158 403.805 158H403.706C402.877 158 402.206 157.328 402.206 156.5ZM407.297 156.5C407.297 155.672 407.969 155 408.797 155H408.897C409.726 155 410.397 155.672 410.397 156.5C410.397 157.328 409.726 158 408.897 158H408.797C407.969 158 407.297 157.328 407.297 156.5ZM412.389 156.5C412.389 155.672 413.061 155 413.889 155H413.989C414.818 155 415.489 155.672 415.489 156.5C415.489 157.328 414.818 158 413.989 158H413.889C413.061 158 412.389 157.328 412.389 156.5ZM417.481 156.5C417.481 155.672 418.153 155 418.981 155H419.081C419.909 155 420.581 155.672 420.581 156.5C420.581 157.328 419.909 158 419.081 158H418.981C418.153 158 417.481 157.328 417.481 156.5ZM422.573 156.5C422.573 155.672 423.245 155 424.073 155H424.173C425.001 155 425.673 155.672 425.673 156.5C425.673 157.328 425.001 158 424.173 158H424.073C423.245 158 422.573 157.328 422.573 156.5ZM427.665 156.5C427.665 155.672 428.336 155 429.165 155H429.265C430.093 155 430.765 155.672 430.765 156.5C430.765 157.328 430.093 158 429.265 158H429.165C428.336 158 427.665 157.328 427.665 156.5ZM432.757 156.5C432.757 155.672 433.428 155 434.257 155H434.357C435.185 155 435.857 155.672 435.857 156.5C435.857 157.328 435.185 158 434.357 158H434.257C433.428 158 432.757 157.328 432.757 156.5ZM437.849 156.5C437.849 155.672 438.52 155 439.349 155H439.448C440.277 155 440.948 155.672 440.948 156.5C440.948 157.328 440.277 158 439.448 158H439.349C438.52 158 437.849 157.328 437.849 156.5ZM442.94 156.5C442.94 155.672 443.612 155 444.44 155H444.54C445.369 155 446.04 155.672 446.04 156.5C446.04 157.328 445.369 158 444.54 158H444.44C443.612 158 442.94 157.328 442.94 156.5ZM448.032 156.5C448.032 155.672 448.704 155 449.532 155H449.632C450.461 155 451.132 155.672 451.132 156.5C451.132 157.328 450.461 158 449.632 158H449.532C448.704 158 448.032 157.328 448.032 156.5ZM453.124 156.5C453.124 155.672 453.796 155 454.624 155H454.724C455.552 155 456.224 155.672 456.224 156.5C456.224 157.328 455.552 158 454.724 158H454.624C453.796 158 453.124 157.328 453.124 156.5ZM458.216 156.5C458.216 155.672 458.888 155 459.716 155H459.816C460.644 155 461.316 155.672 461.316 156.5C461.316 157.328 460.644 158 459.816 158H459.716C458.888 158 458.216 157.328 458.216 156.5ZM463.308 156.5C463.308 155.672 463.979 155 464.808 155H464.908C465.736 155 466.408 155.672 466.408 156.5C466.408 157.328 465.736 158 464.908 158H464.808C463.979 158 463.308 157.328 463.308 156.5ZM468.4 156.5C468.4 155.672 469.071 155 469.9 155H470C470.828 155 471.5 155.672 471.5 156.5C471.5 157.328 470.828 158 470 158H469.9C469.071 158 468.4 157.328 468.4 156.5ZM473.492 156.5C473.492 155.672 474.163 155 474.992 155H475.091C475.92 155 476.591 155.672 476.591 156.5C476.591 157.328 475.92 158 475.091 158H474.992C474.163 158 473.492 157.328 473.492 156.5ZM478.583 156.5C478.583 155.672 479.255 155 480.083 155H480.183C481.012 155 481.683 155.672 481.683 156.5C481.683 157.328 481.012 158 480.183 158H480.083C479.255 158 478.583 157.328 478.583 156.5ZM483.675 156.5C483.675 155.672 484.347 155 485.175 155H485.275C486.104 155 486.775 155.672 486.775 156.5C486.775 157.328 486.104 158 485.275 158H485.175C484.347 158 483.675 157.328 483.675 156.5ZM488.767 156.5C488.767 155.672 489.439 155 490.267 155H490.367C491.195 155 491.867 155.672 491.867 156.5C491.867 157.328 491.195 158 490.367 158H490.267C489.439 158 488.767 157.328 488.767 156.5ZM493.859 156.5C493.859 155.672 494.531 155 495.359 155H495.459C496.287 155 496.959 155.672 496.959 156.5C496.959 157.328 496.287 158 495.459 158H495.359C494.531 158 493.859 157.328 493.859 156.5ZM498.951 156.5C498.951 155.672 499.622 155 500.451 155H500.5C501.328 155 502 155.672 502 156.5C502 157.328 501.328 158 500.5 158H500.451C499.622 158 498.951 157.328 498.951 156.5Z" fill="#B02418"/>
<path fill-rule="evenodd" clip-rule="evenodd" d="M0 243.5C0 242.672 0.671573 242 1.5 242H1.54992C2.37835 242 3.04992 242.672 3.04992 243.5C3.04992 244.328 2.37835 245 1.54992 245H1.5C0.671573 245 0 244.328 0 243.5ZM5.04192 243.5C5.04192 242.672 5.71349 242 6.54192 242H6.64176C7.47018 242 8.14176 242.672 8.14176 243.5C8.14176 244.328 7.47018 245 6.64176 245H6.54192C5.71349 245 5.04192 244.328 5.04192 243.5ZM10.1338 243.5C10.1338 242.672 10.8053 242 11.6338 242H11.7336C12.562 242 13.2336 242.672 13.2336 243.5C13.2336 244.328 12.562 245 11.7336 245H11.6338C10.8053 245 10.1338 244.328 10.1338 243.5ZM15.2256 243.5C15.2256 242.672 15.8972 242 16.7256 242H16.8254C17.6539 242 18.3254 242.672 18.3254 243.5C18.3254 244.328 17.6539 245 16.8254 245H16.7256C15.8972 245 15.2256 244.328 15.2256 243.5ZM20.3174 243.5C20.3174 242.672 20.989 242 21.8174 242H21.9173C22.7457 242 23.4173 242.672 23.4173 243.5C23.4173 244.328 22.7457 245 21.9173 245H21.8174C20.989 245 20.3174 244.328 20.3174 243.5ZM25.4093 243.5C25.4093 242.672 26.0808 242 26.9093 242H27.0091C27.8375 242 28.5091 242.672 28.5091 243.5C28.5091 244.328 27.8375 245 27.0091 245H26.9093C26.0808 245 25.4093 244.328 25.4093 243.5ZM30.5011 243.5C30.5011 242.672 31.1727 242 32.0011 242H32.1009C32.9294 242 33.6009 242.672 33.6009 243.5C33.6009 244.328 32.9294 245 32.1009 245H32.0011C31.1727 245 30.5011 244.328 30.5011 243.5ZM35.5929 243.5C35.5929 242.672 36.2645 242 37.0929 242H37.1928C38.0212 242 38.6928 242.672 38.6928 243.5C38.6928 244.328 38.0212 245 37.1928 245H37.0929C36.2645 245 35.5929 244.328 35.5929 243.5ZM40.6848 243.5C40.6848 242.672 41.3563 242 42.1848 242H42.2846C43.113 242 43.7846 242.672 43.7846 243.5C43.7846 244.328 43.113 245 42.2846 245H42.1848C41.3563 245 40.6848 244.328 40.6848 243.5ZM45.7766 243.5C45.7766 242.672 46.4482 242 47.2766 242H47.3764C48.2049 242 48.8764 242.672 48.8764 243.5C48.8764 244.328 48.2049 245 47.3764 245H47.2766C46.4482 245 45.7766 244.328 45.7766 243.5ZM50.8684 243.5C50.8684 242.672 51.54 242 52.3684 242H52.4683C53.2967 242 53.9683 242.672 53.9683 243.5C53.9683 244.328 53.2967 245 52.4683 245H52.3684C51.54 245 50.8684 244.328 50.8684 243.5ZM55.9603 243.5C55.9603 242.672 56.6319 242 57.4603 242H57.5601C58.3885 242 59.0601 242.672 59.0601 243.5C59.0601 244.328 58.3885 245 57.5601 245H57.4603C56.6319 245 55.9603 244.328 55.9603 243.5ZM61.0521 243.5C61.0521 242.672 61.7237 242 62.5521 242H62.652C63.4804 242 64.152 242.672 64.152 243.5C64.152 244.328 63.4804 245 62.652 245H62.5521C61.7237 245 61.0521 244.328 61.0521 243.5ZM66.144 243.5C66.144 242.672 66.8155 242 67.644 242H67.7438C68.5722 242 69.2438 242.672 69.2438 243.5C69.2438 244.328 68.5722 245 67.7438 245H67.644C66.8155 245 66.144 244.328 66.144 243.5ZM71.2358 243.5C71.2358 242.672 71.9074 242 72.7358 242H72.8356C73.6641 242 74.3356 242.672 74.3356 243.5C74.3356 244.328 73.6641 245 72.8356 245H72.7358C71.9074 245 71.2358 244.328 71.2358 243.5ZM76.3276 243.5C76.3276 242.672 76.9992 242 77.8276 242H77.9275C78.7559 242 79.4275 242.672 79.4275 243.5C79.4275 244.328 78.7559 245 77.9275 245H77.8276C76.9992 245 76.3276 244.328 76.3276 243.5ZM81.4195 243.5C81.4195 242.672 82.091 242 82.9195 242H83.0193C83.8477 242 84.5193 242.672 84.5193 243.5C84.5193 244.328 83.8477 245 83.0193 245H82.9195C82.091 245 81.4195 244.328 81.4195 243.5ZM86.5113 243.5C86.5113 242.672 87.1829 242 88.0113 242H88.1111C88.9396 242 89.6111 242.672 89.6111 243.5C89.6111 244.328 88.9396 245 88.1111 245H88.0113C87.1829 245 86.5113 244.328 86.5113 243.5ZM91.6031 243.5C91.6031 242.672 92.2747 242 93.1031 242H93.203C94.0314 242 94.703 242.672 94.703 243.5C94.703 244.328 94.0314 245 93.203 245H93.1031C92.2747 245 91.6031 244.328 91.6031 243.5ZM96.695 243.5C96.695 242.672 97.3665 242 98.195 242H98.2948C99.1232 242 99.7948 242.672 99.7948 243.5C99.7948 244.328 99.1232 245 98.2948 245H98.195C97.3665 245 96.695 244.328 96.695 243.5ZM101.787 243.5C101.787 242.672 102.458 242 103.287 242H103.387C104.215 242 104.887 242.672 104.887 243.5C104.887 244.328 104.215 245 103.387 245H103.287C102.458 245 101.787 244.328 101.787 243.5ZM106.879 243.5C106.879 242.672 107.55 242 108.379 242H108.478C109.307 242 109.978 242.672 109.978 243.5C109.978 244.328 109.307 245 108.478 245H108.379C107.55 245 106.879 244.328 106.879 243.5ZM111.97 243.5C111.97 242.672 112.642 242 113.47 242H113.57C114.399 242 115.07 242.672 115.07 243.5C115.07 244.328 114.399 245 113.57 245H113.47C112.642 245 111.97 244.328 111.97 243.5ZM117.062 243.5C117.062 242.672 117.734 242 118.562 242H118.662C119.491 242 120.162 242.672 120.162 243.5C120.162 244.328 119.491 245 118.662 245H118.562C117.734 245 117.062 244.328 117.062 243.5ZM122.154 243.5C122.154 242.672 122.826 242 123.654 242H123.754C124.582 242 125.254 242.672 125.254 243.5C125.254 244.328 124.582 245 123.754 245H123.654C122.826 245 122.154 244.328 122.154 243.5ZM127.246 243.5C127.246 242.672 127.918 242 128.746 242H128.846C129.674 242 130.346 242.672 130.346 243.5C130.346 244.328 129.674 245 128.846 245H128.746C127.918 245 127.246 244.328 127.246 243.5ZM132.338 243.5C132.338 242.672 133.009 242 133.838 242H133.938C134.766 242 135.438 242.672 135.438 243.5C135.438 244.328 134.766 245 133.938 245H133.838C133.009 245 132.338 244.328 132.338 243.5ZM137.43 243.5C137.43 242.672 138.101 242 138.93 242H139.029C139.858 242 140.529 242.672 140.529 243.5C140.529 244.328 139.858 245 139.029 245H138.93C138.101 245 137.43 244.328 137.43 243.5ZM142.521 243.5C142.521 242.672 143.193 242 144.021 242H144.121C144.95 242 145.621 242.672 145.621 243.5C145.621 244.328 144.95 245 144.121 245H144.021C143.193 245 142.521 244.328 142.521 243.5ZM147.613 243.5C147.613 242.672 148.285 242 149.113 242H149.213C150.042 242 150.713 242.672 150.713 243.5C150.713 244.328 150.042 245 149.213 245H149.113C148.285 245 147.613 244.328 147.613 243.5ZM152.705 243.5C152.705 242.672 153.377 242 154.205 242H154.305C155.133 242 155.805 242.672 155.805 243.5C155.805 244.328 155.133 245 154.305 245H154.205C153.377 245 152.705 244.328 152.705 243.5ZM157.797 243.5C157.797 242.672 158.469 242 159.297 242H159.397C160.225 242 160.897 242.672 160.897 243.5C160.897 244.328 160.225 245 159.397 245H159.297C158.469 245 157.797 244.328 157.797 243.5ZM162.889 243.5C162.889 242.672 163.56 242 164.389 242H164.489C165.317 242 165.989 242.672 165.989 243.5C165.989 244.328 165.317 245 164.489 245H164.389C163.56 245 162.889 244.328 162.889 243.5ZM167.981 243.5C167.981 242.672 168.652 242 169.481 242H169.58C170.409 242 171.08 242.672 171.08 243.5C171.08 244.328 170.409 245 169.58 245H169.481C168.652 245 167.981 244.328 167.981 243.5ZM173.072 243.5C173.072 242.672 173.744 242 174.572 242H174.672C175.501 242 176.172 242.672 176.172 243.5C176.172 244.328 175.501 245 174.672 245H174.572C173.744 245 173.072 244.328 173.072 243.5ZM178.164 243.5C178.164 242.672 178.836 242 179.664 242H179.764C180.592 242 181.264 242.672 181.264 243.5C181.264 244.328 180.592 245 179.764 245H179.664C178.836 245 178.164 244.328 178.164 243.5ZM183.256 243.5C183.256 242.672 183.928 242 184.756 242H184.856C185.684 242 186.356 242.672 186.356 243.5C186.356 244.328 185.684 245 184.856 245H184.756C183.928 245 183.256 244.328 183.256 243.5ZM188.348 243.5C188.348 242.672 189.019 242 189.848 242H189.948C190.776 242 191.448 242.672 191.448 243.5C191.448 244.328 190.776 245 189.948 245H189.848C189.019 245 188.348 244.328 188.348 243.5ZM193.44 243.5C193.44 242.672 194.111 242 194.94 242H195.04C195.868 242 196.54 242.672 196.54 243.5C196.54 244.328 195.868 245 195.04 245H194.94C194.111 245 193.44 244.328 193.44 243.5ZM198.532 243.5C198.532 242.672 199.203 242 200.032 242H200.131C200.96 242 201.631 242.672 201.631 243.5C201.631 244.328 200.96 245 200.131 245H200.032C199.203 245 198.532 244.328 198.532 243.5ZM203.623 243.5C203.623 242.672 204.295 242 205.123 242H205.223C206.052 242 206.723 242.672 206.723 243.5C206.723 244.328 206.052 245 205.223 245H205.123C204.295 245 203.623 244.328 203.623 243.5ZM208.715 243.5C208.715 242.672 209.387 242 210.215 242H210.315C211.143 242 211.815 242.672 211.815 243.5C211.815 244.328 211.143 245 210.315 245H210.215C209.387 245 208.715 244.328 208.715 243.5ZM213.807 243.5C213.807 242.672 214.479 242 215.307 242H215.407C216.235 242 216.907 242.672 216.907 243.5C216.907 244.328 216.235 245 215.407 245H215.307C214.479 245 213.807 244.328 213.807 243.5ZM218.899 243.5C218.899 242.672 219.57 242 220.399 242H220.499C221.327 242 221.999 242.672 221.999 243.5C221.999 244.328 221.327 245 220.499 245H220.399C219.57 245 218.899 244.328 218.899 243.5ZM223.991 243.5C223.991 242.672 224.662 242 225.491 242H225.591C226.419 242 227.091 242.672 227.091 243.5C227.091 244.328 226.419 245 225.591 245H225.491C224.662 245 223.991 244.328 223.991 243.5ZM229.083 243.5C229.083 242.672 229.754 242 230.583 242H230.682C231.511 242 232.182 242.672 232.182 243.5C232.182 244.328 231.511 245 230.682 245H230.583C229.754 245 229.083 244.328 229.083 243.5ZM234.174 243.5C234.174 242.672 234.846 242 235.674 242H235.774C236.603 242 237.274 242.672 237.274 243.5C237.274 244.328 236.603 245 235.774 245H235.674C234.846 245 234.174 244.328 234.174 243.5ZM239.266 243.5C239.266 242.672 239.938 242 240.766 242H240.866C241.694 242 242.366 242.672 242.366 243.5C242.366 244.328 241.694 245 240.866 245H240.766C239.938 245 239.266 244.328 239.266 243.5ZM244.358 243.5C244.358 242.672 245.03 242 245.858 242H245.958C246.786 242 247.458 242.672 247.458 243.5C247.458 244.328 246.786 245 245.958 245H245.858C245.03 245 244.358 244.328 244.358 243.5ZM249.45 243.5C249.45 242.672 250.121 242 250.95 242H251.05C251.878 242 252.55 242.672 252.55 243.5C252.55 244.328 251.878 245 251.05 245H250.95C250.121 245 249.45 244.328 249.45 243.5ZM254.542 243.5C254.542 242.672 255.213 242 256.042 242H256.142C256.97 242 257.642 242.672 257.642 243.5C257.642 244.328 256.97 245 256.142 245H256.042C255.213 245 254.542 244.328 254.542 243.5ZM259.633 243.5C259.633 242.672 260.305 242 261.133 242H261.233C262.062 242 262.733 242.672 262.733 243.5C262.733 244.328 262.062 245 261.233 245H261.133C260.305 245 259.633 244.328 259.633 243.5ZM264.725 243.5C264.725 242.672 265.397 242 266.225 242H266.325C267.154 242 267.825 242.672 267.825 243.5C267.825 244.328 267.154 245 266.325 245H266.225C265.397 245 264.725 244.328 264.725 243.5ZM269.817 243.5C269.817 242.672 270.489 242 271.317 242H271.417C272.245 242 272.917 242.672 272.917 243.5C272.917 244.328 272.245 245 271.417 245H271.317C270.489 245 269.817 244.328 269.817 243.5ZM274.909 243.5C274.909 242.672 275.581 242 276.409 242H276.509C277.337 242 278.009 242.672 278.009 243.5C278.009 244.328 277.337 245 276.509 245H276.409C275.581 245 274.909 244.328 274.909 243.5ZM280.001 243.5C280.001 242.672 280.672 242 281.501 242H281.601C282.429 242 283.101 242.672 283.101 243.5C283.101 244.328 282.429 245 281.601 245H281.501C280.672 245 280.001 244.328 280.001 243.5ZM285.093 243.5C285.093 242.672 285.764 242 286.593 242H286.693C287.521 242 288.193 242.672 288.193 243.5C288.193 244.328 287.521 245 286.693 245H286.593C285.764 245 285.093 244.328 285.093 243.5ZM290.185 243.5C290.185 242.672 290.856 242 291.685 242H291.784C292.613 242 293.284 242.672 293.284 243.5C293.284 244.328 292.613 245 291.784 245H291.685C290.856 245 290.185 244.328 290.185 243.5ZM295.276 243.5C295.276 242.672 295.948 242 296.776 242H296.876C297.705 242 298.376 242.672 298.376 243.5C298.376 244.328 297.705 245 296.876 245H296.776C295.948 245 295.276 244.328 295.276 243.5ZM300.368 243.5C300.368 242.672 301.04 242 301.868 242H301.968C302.797 242 303.468 242.672 303.468 243.5C303.468 244.328 302.797 245 301.968 245H301.868C301.04 245 300.368 244.328 300.368 243.5ZM305.46 243.5C305.46 242.672 306.132 242 306.96 242H307.06C307.888 242 308.56 242.672 308.56 243.5C308.56 244.328 307.888 245 307.06 245H306.96C306.132 245 305.46 244.328 305.46 243.5ZM310.552 243.5C310.552 242.672 311.224 242 312.052 242H312.152C312.98 242 313.652 242.672 313.652 243.5C313.652 244.328 312.98 245 312.152 245H312.052C311.224 245 310.552 244.328 310.552 243.5ZM315.644 243.5C315.644 242.672 316.315 242 317.144 242H317.244C318.072 242 318.744 242.672 318.744 243.5C318.744 244.328 318.072 245 317.244 245H317.144C316.315 245 315.644 244.328 315.644 243.5ZM320.736 243.5C320.736 242.672 321.407 242 322.236 242H322.336C323.164 242 323.836 242.672 323.836 243.5C323.836 244.328 323.164 245 322.336 245H322.236C321.407 245 320.736 244.328 320.736 243.5ZM325.828 243.5C325.828 242.672 326.499 242 327.328 242H327.427C328.256 242 328.927 242.672 328.927 243.5C328.927 244.328 328.256 245 327.427 245H327.328C326.499 245 325.828 244.328 325.828 243.5ZM330.919 243.5C330.919 242.672 331.591 242 332.419 242H332.519C333.348 242 334.019 242.672 334.019 243.5C334.019 244.328 333.348 245 332.519 245H332.419C331.591 245 330.919 244.328 330.919 243.5ZM336.011 243.5C336.011 242.672 336.683 242 337.511 242H337.611C338.44 242 339.111 242.672 339.111 243.5C339.111 244.328 338.44 245 337.611 245H337.511C336.683 245 336.011 244.328 336.011 243.5ZM341.103 243.5C341.103 242.672 341.775 242 342.603 242H342.703C343.531 242 344.203 242.672 344.203 243.5C344.203 244.328 343.531 245 342.703 245H342.603C341.775 245 341.103 244.328 341.103 243.5ZM346.195 243.5C346.195 242.672 346.867 242 347.695 242H347.795C348.623 242 349.295 242.672 349.295 243.5C349.295 244.328 348.623 245 347.795 245H347.695C346.867 245 346.195 244.328 346.195 243.5ZM351.287 243.5C351.287 242.672 351.958 242 352.787 242H352.887C353.715 242 354.387 242.672 354.387 243.5C354.387 244.328 353.715 245 352.887 245H352.787C351.958 245 351.287 244.328 351.287 243.5ZM356.379 243.5C356.379 242.672 357.05 242 357.879 242H357.979C358.807 242 359.479 242.672 359.479 243.5C359.479 244.328 358.807 245 357.979 245H357.879C357.05 245 356.379 244.328 356.379 243.5ZM361.471 243.5C361.471 242.672 362.142 242 362.971 242H363.07C363.899 242 364.57 242.672 364.57 243.5C364.57 244.328 363.899 245 363.07 245H362.971C362.142 245 361.471 244.328 361.471 243.5ZM366.562 243.5C366.562 242.672 367.234 242 368.062 242H368.162C368.991 242 369.662 242.672 369.662 243.5C369.662 244.328 368.991 245 368.162 245H368.062C367.234 245 366.562 244.328 366.562 243.5ZM371.654 243.5C371.654 242.672 372.326 242 373.154 242H373.254C374.083 242 374.754 242.672 374.754 243.5C374.754 244.328 374.083 245 373.254 245H373.154C372.326 245 371.654 244.328 371.654 243.5ZM376.746 243.5C376.746 242.672 377.418 242 378.246 242H378.346C379.174 242 379.846 242.672 379.846 243.5C379.846 244.328 379.174 245 378.346 245H378.246C377.418 245 376.746 244.328 376.746 243.5ZM381.838 243.5C381.838 242.672 382.51 242 383.338 242H383.438C384.266 242 384.938 242.672 384.938 243.5C384.938 244.328 384.266 245 383.438 245H383.338C382.51 245 381.838 244.328 381.838 243.5ZM386.93 243.5C386.93 242.672 387.602 242 388.43 242H388.53C389.358 242 390.03 242.672 390.03 243.5C390.03 244.328 389.358 245 388.53 245H388.43C387.602 245 386.93 244.328 386.93 243.5ZM392.022 243.5C392.022 242.672 392.693 242 393.522 242H393.622C394.45 242 395.122 242.672 395.122 243.5C395.122 244.328 394.45 245 393.622 245H393.522C392.693 245 392.022 244.328 392.022 243.5ZM397.114 243.5C397.114 242.672 397.785 242 398.614 242H398.714C399.542 242 400.214 242.672 400.214 243.5C400.214 244.328 399.542 245 398.714 245H398.614C397.785 245 397.114 244.328 397.114 243.5ZM402.206 243.5C402.206 242.672 402.877 242 403.706 242H403.805C404.634 242 405.305 242.672 405.305 243.5C405.305 244.328 404.634 245 403.805 245H403.706C402.877 245 402.206 244.328 402.206 243.5ZM407.297 243.5C407.297 242.672 407.969 242 408.797 242H408.897C409.726 242 410.397 242.672 410.397 243.5C410.397 244.328 409.726 245 408.897 245H408.797C407.969 245 407.297 244.328 407.297 243.5ZM412.389 243.5C412.389 242.672 413.061 242 413.889 242H413.989C414.818 242 415.489 242.672 415.489 243.5C415.489 244.328 414.818 245 413.989 245H413.889C413.061 245 412.389 244.328 412.389 243.5ZM417.481 243.5C417.481 242.672 418.153 242 418.981 242H419.081C419.909 242 420.581 242.672 420.581 243.5C420.581 244.328 419.909 245 419.081 245H418.981C418.153 245 417.481 244.328 417.481 243.5ZM422.573 243.5C422.573 242.672 423.245 242 424.073 242H424.173C425.001 242 425.673 242.672 425.673 243.5C425.673 244.328 425.001 245 424.173 245H424.073C423.245 245 422.573 244.328 422.573 243.5ZM427.665 243.5C427.665 242.672 428.336 242 429.165 242H429.265C430.093 242 430.765 242.672 430.765 243.5C430.765 244.328 430.093 245 429.265 245H429.165C428.336 245 427.665 244.328 427.665 243.5ZM432.757 243.5C432.757 242.672 433.428 242 434.257 242H434.357C435.185 242 435.857 242.672 435.857 243.5C435.857 244.328 435.185 245 434.357 245H434.257C433.428 245 432.757 244.328 432.757 243.5ZM437.849 243.5C437.849 242.672 438.52 242 439.349 242H439.448C440.277 242 440.948 242.672 440.948 243.5C440.948 244.328 440.277 245 439.448 245H439.349C438.52 245 437.849 244.328 437.849 243.5ZM442.94 243.5C442.94 242.672 443.612 242 444.44 242H444.54C445.369 242 446.04 242.672 446.04 243.5C446.04 244.328 445.369 245 444.54 245H444.44C443.612 245 442.94 244.328 442.94 243.5ZM448.032 243.5C448.032 242.672 448.704 242 449.532 242H449.632C450.461 242 451.132 242.672 451.132 243.5C451.132 244.328 450.461 245 449.632 245H449.532C448.704 245 448.032 244.328 448.032 243.5ZM453.124 243.5C453.124 242.672 453.796 242 454.624 242H454.724C455.552 242 456.224 242.672 456.224 243.5C456.224 244.328 455.552 245 454.724 245H454.624C453.796 245 453.124 244.328 453.124 243.5ZM458.216 243.5C458.216 242.672 458.888 242 459.716 242H459.816C460.644 242 461.316 242.672 461.316 243.5C461.316 244.328 460.644 245 459.816 245H459.716C458.888 245 458.216 244.328 458.216 243.5ZM463.308 243.5C463.308 242.672 463.979 242 464.808 242H464.908C465.736 242 466.408 242.672 466.408 243.5C466.408 244.328 465.736 245 464.908 245H464.808C463.979 245 463.308 244.328 463.308 243.5ZM468.4 243.5C468.4 242.672 469.071 242 469.9 242H470C470.828 242 471.5 242.672 471.5 243.5C471.5 244.328 470.828 245 470 245H469.9C469.071 245 468.4 244.328 468.4 243.5ZM473.492 243.5C473.492 242.672 474.163 242 474.992 242H475.091C475.92 242 476.591 242.672 476.591 243.5C476.591 244.328 475.92 245 475.091 245H474.992C474.163 245 473.492 244.328 473.492 243.5ZM478.583 243.5C478.583 242.672 479.255 242 480.083 242H480.183C481.012 242 481.683 242.672 481.683 243.5C481.683 244.328 481.012 245 480.183 245H480.083C479.255 245 478.583 244.328 478.583 243.5ZM483.675 243.5C483.675 242.672 484.347 242 485.175 242H485.275C486.104 242 486.775 242.672 486.775 243.5C486.775 244.328 486.104 245 485.275 245H485.175C484.347 245 483.675 244.328 483.675 243.5ZM488.767 243.5C488.767 242.672 489.439 242 490.267 242H490.367C491.195 242 491.867 242.672 491.867 243.5C491.867 244.328 491.195 245 490.367 245H490.267C489.439 245 488.767 244.328 488.767 243.5ZM493.859 243.5C493.859 242.672 494.531 242 495.359 242H495.459C496.287 242 496.959 242.672 496.959 243.5C496.959 244.328 496.287 245 495.459 245H495.359C494.531 245 493.859 244.328 493.859 243.5ZM498.951 243.5C498.951 242.672 499.622 242 500.451 242H500.5C501.328 242 502 242.672 502 243.5C502 244.328 501.328 245 500.5 245H500.451C499.622 245 498.951 244.328 498.951 243.5Z" fill="#B02418"/>
<path fill-rule="evenodd" clip-rule="evenodd" d="M306.5 243C307.328 243 308 243.672 308 244.5L308 244.55C308 245.378 307.328 246.05 306.5 246.05C305.672 246.05 305 245.378 305 244.55L305 244.5C305 243.672 305.672 243 306.5 243ZM306.5 248.055C307.328 248.055 308 248.726 308 249.555L308 249.655C308 250.483 307.328 251.155 306.5 251.155C305.672 251.155 305 250.483 305 249.655L305 249.555C305 248.726 305.672 248.055 306.5 248.055ZM306.5 253.159C307.328 253.159 308 253.831 308 254.659L308 254.759C308 255.588 307.328 256.259 306.5 256.259C305.672 256.259 305 255.588 305 254.759L305 254.659C305 253.831 305.672 253.159 306.5 253.159ZM306.5 258.264C307.328 258.264 308 258.935 308 259.764L308 259.864C308 260.692 307.328 261.364 306.5 261.364C305.672 261.364 305 260.692 305 259.864L305 259.764C305 258.935 305.672 258.264 306.5 258.264ZM306.5 263.369C307.328 263.369 308 264.04 308 264.869L308 264.969C308 265.797 307.328 266.469 306.5 266.469C305.672 266.469 305 265.797 305 264.969L305 264.869C305 264.04 305.672 263.369 306.5 263.369ZM306.5 268.473C307.328 268.473 308 269.145 308 269.973L308 270.073C308 270.902 307.328 271.573 306.5 271.573C305.672 271.573 305 270.902 305 270.073L305 269.973C305 269.145 305.672 268.473 306.5 268.473ZM306.5 273.578C307.328 273.578 308 274.249 308 275.078L308 275.178C308 276.006 307.328 276.678 306.5 276.678C305.672 276.678 305 276.006 305 275.178L305 275.078C305 274.249 305.672 273.578 306.5 273.578ZM306.5 278.683C307.328 278.683 308 279.354 308 280.183L308 280.283C308 281.111 307.328 281.783 306.5 281.783C305.672 281.783 305 281.111 305 280.283L305 280.183C305 279.354 305.672 278.683 306.5 278.683ZM306.5 283.787C307.328 283.787 308 284.459 308 285.287L308 285.387C308 286.216 307.328 286.887 306.5 286.887C305.672 286.887 305 286.216 305 285.387L305 285.287C305 284.459 305.672 283.787 306.5 283.787ZM306.5 288.892C307.328 288.892 308 289.563 308 290.392L308 290.492C308 291.32 307.328 291.992 306.5 291.992C305.672 291.992 305 291.32 305 290.492L305 290.392C305 289.563 305.672 288.892 306.5 288.892ZM306.5 293.996C307.328 293.996 308 294.668 308 295.496L308 295.597C308 296.425 307.328 297.097 306.5 297.097C305.672 297.097 305 296.425 305 295.597L305 295.496C305 294.668 305.672 293.996 306.5 293.996ZM306.5 299.101C307.328 299.101 308 299.773 308 300.601L308 300.701C308 301.53 307.328 302.201 306.5 302.201C305.672 302.201 305 301.53 305 300.701L305 300.601C305 299.773 305.672 299.101 306.5 299.101ZM306.5 304.206C307.328 304.206 308 304.877 308 305.706L308 305.806C308 306.634 307.328 307.306 306.5 307.306C305.672 307.306 305 306.634 305 305.806L305 305.706C305 304.877 305.672 304.206 306.5 304.206ZM306.5 309.31C307.328 309.31 308 309.982 308 310.81L308 310.91C308 311.739 307.328 312.41 306.5 312.41C305.672 312.41 305 311.739 305 310.91L305 310.81C305 309.982 305.672 309.31 306.5 309.31ZM306.5 314.415C307.328 314.415 308 315.087 308 315.915L308 316.015C308 316.844 307.328 317.515 306.5 317.515C305.672 317.515 305 316.844 305 316.015L305 315.915C305 315.087 305.672 314.415 306.5 314.415ZM306.5 319.52C307.328 319.52 308 320.191 308 321.02L308 321.12C308 321.948 307.328 322.62 306.5 322.62C305.672 322.62 305 321.948 305 321.12L305 321.02C305 320.191 305.672 319.52 306.5 319.52ZM306.5 324.624C307.328 324.624 308 325.296 308 326.124L308 326.224C308 327.053 307.328 327.724 306.5 327.724C305.672 327.724 305 327.053 305 326.224L305 326.124C305 325.296 305.672 324.624 306.5 324.624ZM306.5 329.729C307.328 329.729 308 330.401 308 331.229L308 331.329C308 332.158 307.328 332.829 306.5 332.829C305.672 332.829 305 332.158 305 331.329L305 331.229C305 330.401 305.672 329.729 306.5 329.729ZM306.5 334.834C307.328 334.834 308 335.505 308 336.334L308 336.434C308 337.262 307.328 337.934 306.5 337.934C305.672 337.934 305 337.262 305 336.434L305 336.334C305 335.505 305.672 334.834 306.5 334.834ZM306.5 339.938C307.328 339.938 308 340.61 308 341.438L308 341.538C308 342.367 307.328 343.038 306.5 343.038C305.672 343.038 305 342.367 305 341.538L305 341.438C305 340.61 305.672 339.938 306.5 339.938ZM306.5 345.043C307.328 345.043 308 345.715 308 346.543L308 346.643C308 347.471 307.328 348.143 306.5 348.143C305.672 348.143 305 347.471 305 346.643L305 346.543C305 345.715 305.672 345.043 306.5 345.043ZM306.5 350.148C307.328 350.148 308 350.819 308 351.648L308 351.748C308 352.576 307.328 353.248 306.5 353.248C305.672 353.248 305 352.576 305 351.748L305 351.648C305 350.819 305.672 350.148 306.5 350.148ZM306.5 355.252C307.328 355.252 308 355.924 308 356.752L308 356.852C308 357.681 307.328 358.352 306.5 358.352C305.672 358.352 305 357.681 305 356.852L305 356.752C305 355.924 305.672 355.252 306.5 355.252ZM306.5 360.357C307.328 360.357 308 361.029 308 361.857L308 361.957C308 362.785 307.328 363.457 306.5 363.457C305.672 363.457 305 362.785 305 361.957L305 361.857C305 361.029 305.672 360.357 306.5 360.357ZM306.5 365.462C307.328 365.462 308 366.133 308 366.962L308 367.062C308 367.89 307.328 368.562 306.5 368.562C305.672 368.562 305 367.89 305 367.062L305 366.962C305 366.133 305.672 365.462 306.5 365.462ZM306.5 370.566C307.328 370.566 308 371.238 308 372.066L308 372.166C308 372.995 307.328 373.666 306.5 373.666C305.672 373.666 305 372.995 305 372.166L305 372.066C305 371.238 305.672 370.566 306.5 370.566ZM306.5 375.671C307.328 375.671 308 376.342 308 377.171L308 377.271C308 378.099 307.328 378.771 306.5 378.771C305.672 378.771 305 378.099 305 377.271L305 377.171C305 376.342 305.672 375.671 306.5 375.671ZM306.5 380.776C307.328 380.776 308 381.447 308 382.276L308 382.376C308 383.204 307.328 383.876 306.5 383.876C305.672 383.876 305 383.204 305 382.376L305 382.276C305 381.447 305.672 380.776 306.5 380.776ZM306.5 385.88C307.328 385.88 308 386.552 308 387.38L308 387.48C308 388.309 307.328 388.98 306.5 388.98C305.672 388.98 305 388.309 305 387.48L305 387.38C305 386.552 305.672 385.88 306.5 385.88ZM306.5 390.985C307.328 390.985 308 391.656 308 392.485L308 392.585C308 393.413 307.328 394.085 306.5 394.085C305.672 394.085 305 393.413 305 392.585L305 392.485C305 391.656 305.672 390.985 306.5 390.985ZM306.5 396.09C307.328 396.09 308 396.761 308 397.59L308 397.69C308 398.518 307.328 399.19 306.5 399.19C305.672 399.19 305 398.518 305 397.69L305 397.59C305 396.761 305.672 396.09 306.5 396.09ZM306.5 401.194C307.328 401.194 308 401.866 308 402.694L308 402.794C308 403.623 307.328 404.294 306.5 404.294C305.672 404.294 305 403.623 305 402.794L305 402.694C305 401.866 305.672 401.194 306.5 401.194ZM306.5 406.299C307.328 406.299 308 406.97 308 407.799L308 407.899C308 408.727 307.328 409.399 306.5 409.399C305.672 409.399 305 408.727 305 407.899L305 407.799C305 406.97 305.672 406.299 306.5 406.299ZM306.5 411.404C307.328 411.404 308 412.075 308 412.904L308 413.004C308 413.832 307.328 414.504 306.5 414.504C305.672 414.504 305 413.832 305 413.004L305 412.904C305 412.075 305.672 411.404 306.5 411.404ZM306.5 416.508C307.328 416.508 308 417.18 308 418.008L308 418.108C308 418.937 307.328 419.608 306.5 419.608C305.672 419.608 305 418.937 305 418.108L305 418.008C305 417.18 305.672 416.508 306.5 416.508ZM306.5 421.613C307.328 421.613 308 422.284 308 423.113L308 423.213C308 424.041 307.328 424.713 306.5 424.713C305.672 424.713 305 424.041 305 423.213L305 423.113C305 422.284 305.672 421.613 306.5 421.613ZM306.5 426.717C307.328 426.717 308 427.389 308 428.217L308 428.318C308 429.146 307.328 429.818 306.5 429.818C305.672 429.818 305 429.146 305 428.318L305 428.217C305 427.389 305.672 426.717 306.5 426.717ZM306.5 431.822C307.328 431.822 308 432.494 308 433.322L308 433.422C308 434.251 307.328 434.922 306.5 434.922C305.672 434.922 305 434.251 305 433.422L305 433.322C305 432.494 305.672 431.822 306.5 431.822ZM306.5 436.927C307.328 436.927 308 437.598 308 438.427L308 438.527C308 439.355 307.328 440.027 306.5 440.027C305.672 440.027 305 439.355 305 438.527L305 438.427C305 437.598 305.672 436.927 306.5 436.927ZM306.5 442.031C307.328 442.031 308 442.703 308 443.531L308 443.632C308 444.46 307.328 445.132 306.5 445.132C305.672 445.132 305 444.46 305 443.632L305 443.531C305 442.703 305.672 442.031 306.5 442.031ZM306.5 447.136C307.328 447.136 308 447.808 308 448.636L308 448.736C308 449.565 307.328 450.236 306.5 450.236C305.672 450.236 305 449.565 305 448.736L305 448.636C305 447.808 305.672 447.136 306.5 447.136ZM306.5 452.241C307.328 452.241 308 452.912 308 453.741L308 453.841C308 454.669 307.328 455.341 306.5 455.341C305.672 455.341 305 454.669 305 453.841L305 453.741C305 452.912 305.672 452.241 306.5 452.241ZM306.5 457.345C307.328 457.345 308 458.017 308 458.845L308 458.946C308 459.774 307.328 460.446 306.5 460.446C305.672 460.446 305 459.774 305 458.946L305 458.845C305 458.017 305.672 457.345 306.5 457.345ZM306.5 462.45C307.328 462.45 308 463.122 308 463.95L308 464.05C308 464.879 307.328 465.55 306.5 465.55C305.672 465.55 305 464.879 305 464.05L305 463.95C305 463.122 305.672 462.45 306.5 462.45ZM306.5 467.555C307.328 467.555 308 468.226 308 469.055L308 469.155C308 469.983 307.328 470.655 306.5 470.655C305.672 470.655 305 469.983 305 469.155L305 469.055C305 468.226 305.672 467.555 306.5 467.555ZM306.5 472.659C307.328 472.659 308 473.331 308 474.159L308 474.26C308 475.088 307.328 475.76 306.5 475.76C305.672 475.76 305 475.088 305 474.26L305 474.159C305 473.331 305.672 472.659 306.5 472.659ZM306.5 477.764C307.328 477.764 308 478.436 308 479.264L308 479.364C308 480.193 307.328 480.864 306.5 480.864C305.672 480.864 305 480.193 305 479.364L305 479.264C305 478.436 305.672 477.764 306.5 477.764ZM306.5 482.869C307.328 482.869 308 483.54 308 484.369L308 484.469C308 485.297 307.328 485.969 306.5 485.969C305.672 485.969 305 485.297 305 484.469L305 484.369C305 483.54 305.672 482.869 306.5 482.869ZM306.5 487.973C307.328 487.973 308 488.645 308 489.473L308 489.574C308 490.402 307.328 491.074 306.5 491.074C305.672 491.074 305 490.402 305 489.574L305 489.473C305 488.645 305.672 487.973 306.5 487.973ZM306.5 493.078C307.328 493.078 308 493.75 308 494.578L308 494.678C308 495.507 307.328 496.178 306.5 496.178C305.672 496.178 305 495.507 305 494.678L305 494.578C305 493.75 305.672 493.078 306.5 493.078ZM306.5 498.183C307.328 498.183 308 498.854 308 499.683L308 499.783C308 500.611 307.328 501.283 306.5 501.283C305.672 501.283 305 500.611 305 499.783L305 499.683C305 498.854 305.672 498.183 306.5 498.183ZM306.5 503.287C307.328 503.287 308 503.959 308 504.787L308 504.887C308 505.716 307.328 506.387 306.5 506.387C305.672 506.387 305 505.716 305 504.887L305 504.787C305 503.959 305.672 503.287 306.5 503.287ZM306.5 508.392C307.328 508.392 308 509.064 308 509.892L308 509.992C308 510.821 307.328 511.492 306.5 511.492C305.672 511.492 305 510.821 305 509.992L305 509.892C305 509.064 305.672 508.392 306.5 508.392ZM306.5 513.497C307.328 513.497 308 514.168 308 514.997L308 515.097C308 515.925 307.328 516.597 306.5 516.597C305.672 516.597 305 515.925 305 515.097L305 514.997C305 514.168 305.672 513.497 306.5 513.497ZM306.5 518.601C307.328 518.601 308 519.273 308 520.101L308 520.201C308 521.03 307.328 521.701 306.5 521.701C305.672 521.701 305 521.03 305 520.201L305 520.101C305 519.273 305.672 518.601 306.5 518.601ZM306.5 523.706C307.328 523.706 308 524.378 308 525.206L308 525.306C308 526.134 307.328 526.806 306.5 526.806C305.672 526.806 305 526.134 305 525.306L305 525.206C305 524.378 305.672 523.706 306.5 523.706ZM306.5 528.811C307.328 528.811 308 529.482 308 530.311L308 530.411C308 531.239 307.328 531.911 306.5 531.911C305.672 531.911 305 531.239 305 530.411L305 530.311C305 529.482 305.672 528.811 306.5 528.811ZM306.5 533.915C307.328 533.915 308 534.587 308 535.415L308 535.515C308 536.344 307.328 537.015 306.5 537.015C305.672 537.015 305 536.344 305 535.515L305 535.415C305 534.587 305.672 533.915 306.5 533.915ZM306.5 539.02C307.328 539.02 308 539.691 308 540.52L308 540.62C308 541.448 307.328 542.12 306.5 542.12C305.672 542.12 305 541.448 305 540.62L305 540.52C305 539.691 305.672 539.02 306.5 539.02ZM306.5 544.125C307.328 544.125 308 544.796 308 545.625L308 545.725C308 546.553 307.328 547.225 306.5 547.225C305.672 547.225 305 546.553 305 545.725L305 545.625C305 544.796 305.672 544.125 306.5 544.125ZM306.5 549.229C307.328 549.229 308 549.901 308 550.729L308 550.829C308 551.658 307.328 552.329 306.5 552.329C305.672 552.329 305 551.658 305 550.829L305 550.729C305 549.901 305.672 549.229 306.5 549.229ZM306.5 554.334C307.328 554.334 308 555.005 308 555.834L308 555.934C308 556.762 307.328 557.434 306.5 557.434C305.672 557.434 305 556.762 305 555.934L305 555.834C305 555.005 305.672 554.334 306.5 554.334ZM306.5 559.438C307.328 559.438 308 560.11 308 560.938L308 561.039C308 561.867 307.328 562.539 306.5 562.539C305.672 562.539 305 561.867 305 561.039L305 560.938C305 560.11 305.672 559.438 306.5 559.438ZM306.5 564.543C307.328 564.543 308 565.215 308 566.043L308 566.143C308 566.972 307.328 567.643 306.5 567.643C305.672 567.643 305 566.972 305 566.143L305 566.043C305 565.215 305.672 564.543 306.5 564.543ZM306.5 569.648C307.328 569.648 308 570.319 308 571.148L308 571.248C308 572.076 307.328 572.748 306.5 572.748C305.672 572.748 305 572.076 305 571.248L305 571.148C305 570.319 305.672 569.648 306.5 569.648ZM306.5 574.752C307.328 574.752 308 575.424 308 576.252L308 576.353C308 577.181 307.328 577.853 306.5 577.853C305.672 577.853 305 577.181 305 576.353L305 576.252C305 575.424 305.672 574.752 306.5 574.752ZM306.5 579.857C307.328 579.857 308 580.529 308 581.357L308 581.457C308 582.286 307.328 582.957 306.5 582.957C305.672 582.957 305 582.286 305 581.457L305 581.357C305 580.529 305.672 579.857 306.5 579.857ZM306.5 584.962C307.328 584.962 308 585.633 308 586.462L308 586.562C308 587.39 307.328 588.062 306.5 588.062C305.672 588.062 305 587.39 305 586.562L305 586.462C305 585.633 305.672 584.962 306.5 584.962ZM306.5 590.066C307.328 590.066 308 590.738 308 591.566L308 591.666C308 592.495 307.328 593.166 306.5 593.166C305.672 593.166 305 592.495 305 591.666L305 591.566C305 590.738 305.672 590.066 306.5 590.066ZM306.5 595.171C307.328 595.171 308 595.843 308 596.671L308 596.771C308 597.6 307.328 598.271 306.5 598.271C305.672 598.271 305 597.6 305 596.771L305 596.671C305 595.843 305.672 595.171 306.5 595.171ZM306.5 600.276C307.328 600.276 308 600.947 308 601.776L308 601.876C308 602.704 307.328 603.376 306.5 603.376C305.672 603.376 305 602.704 305 601.876L305 601.776C305 600.947 305.672 600.276 306.5 600.276ZM306.5 605.38C307.328 605.38 308 606.052 308 606.88L308 606.98C308 607.809 307.328 608.48 306.5 608.48C305.672 608.48 305 607.809 305 606.98L305 606.88C305 606.052 305.672 605.38 306.5 605.38ZM306.5 610.485C307.328 610.485 308 611.156 308 611.985L308 612.085C308 612.913 307.328 613.585 306.5 613.585C305.672 613.585 305 612.913 305 612.085L305 611.985C305 611.156 305.672 610.485 306.5 610.485ZM306.5 615.59C307.328 615.59 308 616.261 308 617.09L308 617.19C308 618.018 307.328 618.69 306.5 618.69C305.672 618.69 305 618.018 305 617.19L305 617.09C305 616.261 305.672 615.59 306.5 615.59ZM306.5 620.694C307.328 620.694 308 621.366 308 622.194L308 622.294C308 623.123 307.328 623.794 306.5 623.794C305.672 623.794 305 623.123 305 622.294L305 622.194C305 621.366 305.672 620.694 306.5 620.694ZM306.5 625.799C307.328 625.799 308 626.47 308 627.299L308 627.399C308 628.227 307.328 628.899 306.5 628.899C305.672 628.899 305 628.227 305 627.399L305 627.299C305 626.47 305.672 625.799 306.5 625.799ZM306.5 630.904C307.328 630.904 308 631.575 308 632.404L308 632.504C308 633.332 307.328 634.004 306.5 634.004C305.672 634.004 305 633.332 305 632.504L305 632.404C305 631.575 305.672 630.904 306.5 630.904ZM306.5 636.008C307.328 636.008 308 636.68 308 637.508L308 637.608C308 638.437 307.328 639.108 306.5 639.108C305.672 639.108 305 638.437 305 637.608L305 637.508C305 636.68 305.672 636.008 306.5 636.008ZM306.5 641.113C307.328 641.113 308 641.784 308 642.613L308 642.713C308 643.541 307.328 644.213 306.5 644.213C305.672 644.213 305 643.541 305 642.713L305 642.613C305 641.784 305.672 641.113 306.5 641.113ZM306.5 646.217C307.328 646.217 308 646.889 308 647.717L308 647.818C308 648.646 307.328 649.318 306.5 649.318C305.672 649.318 305 648.646 305 647.818L305 647.717C305 646.889 305.672 646.217 306.5 646.217ZM306.5 651.322C307.328 651.322 308 651.994 308 652.822L308 652.922C308 653.751 307.328 654.422 306.5 654.422C305.672 654.422 305 653.751 305 652.922L305 652.822C305 651.994 305.672 651.322 306.5 651.322ZM306.5 656.427C307.328 656.427 308 657.098 308 657.927L308 658.027C308 658.855 307.328 659.527 306.5 659.527C305.672 659.527 305 658.855 305 658.027L305 657.927C305 657.098 305.672 656.427 306.5 656.427ZM306.5 661.531C307.328 661.531 308 662.203 308 663.031L308 663.131C308 663.96 307.328 664.631 306.5 664.631C305.672 664.631 305 663.96 305 663.131L305 663.031C305 662.203 305.672 661.531 306.5 661.531ZM306.5 666.636C307.328 666.636 308 667.308 308 668.136L308 668.236C308 669.065 307.328 669.736 306.5 669.736C305.672 669.736 305 669.065 305 668.236L305 668.136C305 667.308 305.672 666.636 306.5 666.636ZM306.5 671.741C307.328 671.741 308 672.412 308 673.241L308 673.341C308 674.169 307.328 674.841 306.5 674.841C305.672 674.841 305 674.169 305 673.341L305 673.241C305 672.412 305.672 671.741 306.5 671.741ZM306.5 676.845C307.328 676.845 308 677.517 308 678.345L308 678.445C308 679.274 307.328 679.945 306.5 679.945C305.672 679.945 305 679.274 305 678.445L305 678.345C305 677.517 305.672 676.845 306.5 676.845ZM306.5 681.95C307.328 681.95 308 682.622 308 683.45L308 683.5C308 684.328 307.328 685 306.5 685C305.672 685 305 684.328 305 683.5L305 683.45C305 682.622 305.672 681.95 306.5 681.95Z" fill="#B02418"/>
<path d="M325.33 100.24C325.33 97.1885 328.016 96.5049 330.311 96.334C331.153 96.2729 333.301 96.1631 333.899 96.1387V95.0645C333.899 93.3799 332.898 92.4033 330.896 92.4033C329.212 92.4033 328.211 93.1846 327.918 94.1855H325.721C325.989 92.0615 328.064 90.5723 330.994 90.5723C332.728 90.5723 335.975 91.085 335.975 95.2598V104H333.899V102.193H333.802C333.362 103.097 332.142 104.317 329.847 104.317C327.332 104.317 325.33 102.828 325.33 100.24ZM327.43 100.338C327.43 101.729 328.602 102.438 330.213 102.438C332.581 102.438 333.899 100.851 333.899 99.1904V97.8477L330.555 98.0918C328.65 98.2139 327.43 98.8975 327.43 100.338Z" fill="#B02418"/>
<path d="M317.713 104.269C313.88 104.269 311.512 101.559 311.512 97.4814C311.512 93.4043 313.904 90.5723 317.518 90.5723C320.301 90.5723 323.23 92.2812 323.23 97.1885V98.0674H313.611C313.709 100.875 315.345 102.413 317.713 102.413C319.3 102.413 320.301 101.729 320.789 100.899H323.035C322.4 102.901 320.447 104.269 317.713 104.269ZM313.636 96.2852H321.106C321.106 94.0635 319.69 92.4277 317.518 92.4277C315.223 92.4277 313.758 94.2344 313.636 96.2852Z" fill="#B02418"/>
<path d="M303.846 104V90.7432H305.872V92.7695H306.019C306.507 91.4268 307.874 90.5234 309.437 90.5234C309.754 90.5234 310.291 90.5479 310.535 90.5723V92.6963C310.389 92.6475 309.803 92.5498 309.266 92.5498C307.361 92.5498 305.945 93.8682 305.945 95.6504V104H303.846Z" fill="#B02418"/>
<path d="M288.758 104H286.463L292.933 86.3242H295.252L301.722 104H299.402L297.645 99.0195H290.54L288.758 104ZM291.199 97.0908H296.961L294.153 89.1807H294.007L291.199 97.0908Z" fill="#B02418"/>
<path d="M272.693 104V90.7432H274.72V92.7695H274.866C275.354 91.4268 276.722 90.5234 278.284 90.5234C278.602 90.5234 279.139 90.5479 279.383 90.5723V92.6963C279.236 92.6475 278.65 92.5498 278.113 92.5498C276.209 92.5498 274.793 93.8682 274.793 95.6504V104H272.693Z" fill="#B02418"/>
<path d="M264.441 104.269C260.608 104.269 258.24 101.559 258.24 97.4814C258.24 93.4043 260.633 90.5723 264.246 90.5723C267.029 90.5723 269.959 92.2812 269.959 97.1885V98.0674H260.34C260.438 100.875 262.073 102.413 264.441 102.413C266.028 102.413 267.029 101.729 267.518 100.899H269.764C269.129 102.901 267.176 104.269 264.441 104.269ZM260.364 96.2852H267.835C267.835 94.0635 266.419 92.4277 264.246 92.4277C261.951 92.4277 260.486 94.2344 260.364 96.2852Z" fill="#B02418"/>
<path d="M247.059 96.041V104H244.959V90.7432H246.985V92.8184H247.156C247.791 91.4756 249.012 90.5723 251.038 90.5723C253.724 90.5723 255.506 92.208 255.506 95.5771V104H253.406V95.7236C253.406 93.6729 252.283 92.4521 250.403 92.4521C248.475 92.4521 247.059 93.7461 247.059 96.041Z" fill="#B02418"/>
<path d="M233.143 96.041V104H231.043V90.7432H233.069V92.8184H233.24C233.875 91.4756 235.096 90.5723 237.122 90.5723C239.808 90.5723 241.59 92.208 241.59 95.5771V104H239.49V95.7236C239.49 93.6729 238.367 92.4521 236.487 92.4521C234.559 92.4521 233.143 93.7461 233.143 96.041Z" fill="#B02418"/>
<path d="M217.029 100.24C217.029 97.1885 219.715 96.5049 222.01 96.334C222.852 96.2729 225 96.1631 225.599 96.1387V95.0645C225.599 93.3799 224.598 92.4033 222.596 92.4033C220.911 92.4033 219.91 93.1846 219.617 94.1855H217.42C217.688 92.0615 219.764 90.5723 222.693 90.5723C224.427 90.5723 227.674 91.085 227.674 95.2598V104H225.599V102.193H225.501C225.062 103.097 223.841 104.317 221.546 104.317C219.031 104.317 217.029 102.828 217.029 100.24ZM219.129 100.338C219.129 101.729 220.301 102.438 221.912 102.438C224.28 102.438 225.599 100.851 225.599 99.1904V97.8477L222.254 98.0918C220.35 98.2139 219.129 98.8975 219.129 100.338Z" fill="#B02418"/>
<path d="M202.453 104V86.3242H208.654C212.365 86.3242 214.099 88.3994 214.099 91.0117C214.099 93.2822 212.756 94.3076 211.218 94.7227V94.8936C212.854 94.9912 214.807 96.5049 214.807 99.3125C214.807 101.974 213.049 104 208.874 104H202.453ZM208.85 102.047C211.608 102.047 212.683 100.826 212.683 99.2881C212.683 97.4814 211.242 95.9678 208.972 95.9678H204.65V102.047H208.85ZM208.581 94.0635C210.485 94.0635 211.999 92.8916 211.999 91.0361C211.999 89.498 210.974 88.2773 208.654 88.2773H204.65V94.0635H208.581Z" fill="#B02418"/>
<path d="M188.993 104.146C188.138 104.146 187.406 103.438 187.43 102.56C187.406 101.705 188.138 100.997 188.993 100.997C189.847 100.997 190.555 101.705 190.555 102.56C190.555 103.438 189.847 104.146 188.993 104.146Z" fill="#B02418"/>
<path d="M180.595 86.3242V104H178.373V88.6191H178.275L173.979 91.4756V89.2539L178.373 86.3242H180.595Z" fill="#B02418"/>
<path d="M338.012 206.24C338.012 203.188 340.697 202.505 342.992 202.334C343.834 202.273 345.983 202.163 346.581 202.139V201.064C346.581 199.38 345.58 198.403 343.578 198.403C341.894 198.403 340.893 199.185 340.6 200.186H338.402C338.671 198.062 340.746 196.572 343.676 196.572C345.409 196.572 348.656 197.085 348.656 201.26V210H346.581V208.193H346.483C346.044 209.097 344.823 210.317 342.528 210.317C340.014 210.317 338.012 208.828 338.012 206.24ZM340.111 206.338C340.111 207.729 341.283 208.438 342.895 208.438C345.263 208.438 346.581 206.851 346.581 205.19V203.848L343.236 204.092C341.332 204.214 340.111 204.897 340.111 206.338Z" fill="#B02418"/>
<path d="M330.395 210.269C326.562 210.269 324.193 207.559 324.193 203.481C324.193 199.404 326.586 196.572 330.199 196.572C332.982 196.572 335.912 198.281 335.912 203.188V204.067H326.293C326.391 206.875 328.026 208.413 330.395 208.413C331.981 208.413 332.982 207.729 333.471 206.899H335.717C335.082 208.901 333.129 210.269 330.395 210.269ZM326.317 202.285H333.788C333.788 200.063 332.372 198.428 330.199 198.428C327.904 198.428 326.439 200.234 326.317 202.285Z" fill="#B02418"/>
<path d="M316.527 210V196.743H318.554V198.77H318.7C319.188 197.427 320.556 196.523 322.118 196.523C322.436 196.523 322.973 196.548 323.217 196.572V198.696C323.07 198.647 322.484 198.55 321.947 198.55C320.043 198.55 318.627 199.868 318.627 201.65V210H316.527Z" fill="#B02418"/>
<path d="M301.439 210H299.145L305.614 192.324H307.934L314.403 210H312.084L310.326 205.02H303.222L301.439 210ZM303.881 203.091H309.643L306.835 195.181H306.688L303.881 203.091Z" fill="#B02418"/>
<path d="M282.227 214.98C281.763 214.98 281.323 214.956 281.055 214.932V213.052C281.274 213.076 281.763 213.101 282.08 213.101C282.935 213.101 283.643 213.027 284.351 211.099L284.741 210.098L279.834 196.743H282.129L285.742 207.266H285.889L289.502 196.743H291.797L286.182 211.904C285.4 213.979 284.106 214.98 282.227 214.98Z" fill="#B02418"/>
<path d="M271.729 210V196.743H273.755V198.77H273.901C274.39 197.427 275.757 196.523 277.319 196.523C277.637 196.523 278.174 196.548 278.418 196.572V198.696C278.271 198.647 277.686 198.55 277.148 198.55C275.244 198.55 273.828 199.868 273.828 201.65V210H271.729Z" fill="#B02418"/>
<path d="M262.963 210.269C259.35 210.269 256.908 207.559 256.908 203.433C256.908 199.307 259.35 196.572 262.963 196.572C266.552 196.572 268.969 199.307 268.969 203.433C268.969 207.559 266.552 210.269 262.963 210.269ZM262.963 208.413C265.624 208.413 266.869 206.069 266.869 203.433C266.869 200.796 265.624 198.428 262.963 198.428C260.253 198.428 259.008 200.796 259.008 203.433C259.008 206.069 260.253 208.413 262.963 208.413Z" fill="#B02418"/>
<path d="M248.438 215.249C245.239 215.249 243.066 213.857 242.822 211.392H245.02C245.312 212.734 246.558 213.418 248.438 213.418C250.708 213.418 252.1 212.441 252.1 210.244V207.559H251.929C251.489 208.291 250.635 209.805 248.071 209.805C244.849 209.805 242.432 207.363 242.432 203.188C242.432 199.111 244.775 196.572 248.096 196.572C250.659 196.572 251.489 198.135 251.978 198.843H252.148V196.743H254.199V210.366C254.199 213.784 251.66 215.249 248.438 215.249ZM248.364 207.925C250.781 207.925 252.148 206.191 252.148 203.262C252.148 200.43 250.83 198.452 248.364 198.452C245.825 198.452 244.556 200.601 244.556 203.262C244.556 206.021 245.85 207.925 248.364 207.925Z" fill="#B02418"/>
<path d="M234.814 210.269C230.981 210.269 228.613 207.559 228.613 203.481C228.613 199.404 231.006 196.572 234.619 196.572C237.402 196.572 240.332 198.281 240.332 203.188V204.067H230.713C230.811 206.875 232.446 208.413 234.814 208.413C236.401 208.413 237.402 207.729 237.891 206.899H240.137C239.502 208.901 237.549 210.269 234.814 210.269ZM230.737 202.285H238.208C238.208 200.063 236.792 198.428 234.619 198.428C232.324 198.428 230.859 200.234 230.737 202.285Z" fill="#B02418"/>
<path d="M226.685 196.743V198.501H223.901V206.191C223.901 207.9 224.731 208.169 225.635 208.169C226.025 208.169 226.562 208.145 226.88 208.12V210.073C226.562 210.122 226.025 210.171 225.415 210.171C223.657 210.171 221.777 209.072 221.777 206.729V198.501H219.775V196.743H221.777V193.569H223.901V196.743H226.685Z" fill="#B02418"/>
<path d="M206.885 206.24C206.885 203.188 209.57 202.505 211.865 202.334C212.708 202.273 214.856 202.163 215.454 202.139V201.064C215.454 199.38 214.453 198.403 212.451 198.403C210.767 198.403 209.766 199.185 209.473 200.186H207.275C207.544 198.062 209.619 196.572 212.549 196.572C214.282 196.572 217.529 197.085 217.529 201.26V210H215.454V208.193H215.356C214.917 209.097 213.696 210.317 211.401 210.317C208.887 210.317 206.885 208.828 206.885 206.24ZM208.984 206.338C208.984 207.729 210.156 208.438 211.768 208.438C214.136 208.438 215.454 206.851 215.454 205.19V203.848L212.109 204.092C210.205 204.214 208.984 204.897 208.984 206.338Z" fill="#B02418"/>
<path d="M202.514 197.891C202.001 195.449 199.901 194.131 197.582 194.131C194.384 194.131 191.894 196.597 191.894 201.162C191.894 205.728 194.384 208.193 197.582 208.193C199.901 208.193 201.977 206.875 202.514 204.458H204.711C204.076 208.071 201.171 210.244 197.582 210.244C193.041 210.244 189.77 206.753 189.77 201.162C189.77 195.571 193.041 192.08 197.582 192.08C201.146 192.08 204.052 194.229 204.711 197.891H202.514Z" fill="#B02418"/>
<path d="M176.993 210.146C176.138 210.146 175.406 209.438 175.43 208.56C175.406 207.705 176.138 206.997 176.993 206.997C177.847 206.997 178.555 207.705 178.555 208.56C178.555 209.438 177.847 210.146 176.993 210.146Z" fill="#B02418"/>
<path d="M160.636 210L160.611 208.389L166.642 202.041C168.741 199.819 169.742 198.623 169.742 196.987C169.742 195.181 168.204 193.984 166.227 193.984C164.127 193.984 162.784 195.327 162.784 197.305H160.709C160.685 194.18 163.102 192.08 166.3 192.08C169.498 192.08 171.793 194.229 171.793 196.987C171.793 198.965 170.865 200.503 167.74 203.726L163.688 207.9V208.047H172.11V210H160.636Z" fill="#B02418"/>
<path d="M246.947 460.24C246.947 457.188 249.633 456.505 251.928 456.334C252.77 456.273 254.918 456.163 255.517 456.139V455.064C255.517 453.38 254.516 452.403 252.514 452.403C250.829 452.403 249.828 453.185 249.535 454.186H247.338C247.606 452.062 249.682 450.572 252.611 450.572C254.345 450.572 257.592 451.085 257.592 455.26V464H255.517V462.193H255.419C254.979 463.097 253.759 464.317 251.464 464.317C248.949 464.317 246.947 462.828 246.947 460.24ZM249.047 460.338C249.047 461.729 250.219 462.438 251.83 462.438C254.198 462.438 255.517 460.851 255.517 459.19V457.848L252.172 458.092C250.268 458.214 249.047 458.897 249.047 460.338Z" fill="#B02418"/>
<path d="M239.33 464.269C235.497 464.269 233.129 461.559 233.129 457.481C233.129 453.404 235.521 450.572 239.135 450.572C241.918 450.572 244.848 452.281 244.848 457.188V458.067H235.229C235.326 460.875 236.962 462.413 239.33 462.413C240.917 462.413 241.918 461.729 242.406 460.899H244.652C244.018 462.901 242.064 464.269 239.33 464.269ZM235.253 456.285H242.724C242.724 454.063 241.308 452.428 239.135 452.428C236.84 452.428 235.375 454.234 235.253 456.285Z" fill="#B02418"/>
<path d="M225.463 464V450.743H227.489V452.77H227.636C228.124 451.427 229.491 450.523 231.054 450.523C231.371 450.523 231.908 450.548 232.152 450.572V452.696C232.006 452.647 231.42 452.55 230.883 452.55C228.979 452.55 227.562 453.868 227.562 455.65V464H225.463Z" fill="#B02418"/>
<path d="M210.375 464H208.08L214.55 446.324H216.869L223.339 464H221.02L219.262 459.02H212.157L210.375 464ZM212.816 457.091H218.578L215.771 449.181H215.624L212.816 457.091Z" fill="#B02418"/>
<path d="M197.606 458.556V450.743H199.682V464H197.606V461.754H197.46C196.825 463.097 195.531 464.171 193.529 464.171C191.015 464.171 189.232 462.535 189.232 459.166V450.743H191.332V459.02C191.332 460.924 192.528 462.145 194.213 462.145C195.702 462.145 197.606 461.021 197.606 458.556Z" fill="#B02418"/>
<path d="M177.416 456.041V464H175.316V450.743H177.343V452.818H177.514C178.148 451.476 179.369 450.572 181.396 450.572C184.081 450.572 185.863 452.208 185.863 455.577V464H183.764V455.724C183.764 453.673 182.641 452.452 180.761 452.452C178.832 452.452 177.416 453.746 177.416 456.041Z" fill="#B02418"/>
<path d="M167.064 464.269C163.231 464.269 160.863 461.559 160.863 457.481C160.863 453.404 163.256 450.572 166.869 450.572C169.652 450.572 172.582 452.281 172.582 457.188V458.067H162.963C163.061 460.875 164.696 462.413 167.064 462.413C168.651 462.413 169.652 461.729 170.141 460.899H172.387C171.752 462.901 169.799 464.269 167.064 464.269ZM162.987 456.285H170.458C170.458 454.063 169.042 452.428 166.869 452.428C164.574 452.428 163.109 454.234 162.987 456.285Z" fill="#B02418"/>
<path d="M140.453 446.324H143.09L149.047 460.875H149.267L155.224 446.324H157.86V464H155.785V450.646H155.614L150.121 464H148.168L142.675 450.646H142.528V464H140.453V446.324Z" fill="#B02418"/>
<path d="M126.993 464.146C126.138 464.146 125.406 463.438 125.43 462.56C125.406 461.705 126.138 460.997 126.993 460.997C127.847 460.997 128.555 461.705 128.555 462.56C128.555 463.438 127.847 464.146 126.993 464.146Z" fill="#B02418"/>
<path d="M116.348 464.244C112.832 464.244 110.317 462.364 110.195 459.557H112.417C112.539 461.241 114.224 462.291 116.323 462.291C118.643 462.291 120.352 461.021 120.352 459.19C120.352 457.262 118.813 455.895 116.055 455.895H114.614V453.966H116.055C118.203 453.966 119.692 452.77 119.692 450.938C119.692 449.181 118.398 447.984 116.396 447.984C114.517 447.984 112.783 449.034 112.686 450.768H110.562C110.684 447.96 113.271 446.08 116.421 446.08C119.79 446.08 121.841 448.277 121.816 450.816C121.841 452.818 120.669 454.308 118.813 454.82V454.942C121.108 455.309 122.524 456.944 122.5 459.19C122.524 462.096 119.863 464.244 116.348 464.244Z" fill="#B02418"/>
<path d="M401.807 476.24C401.807 473.188 404.492 472.505 406.787 472.334C407.629 472.273 409.778 472.163 410.376 472.139V471.064C410.376 469.38 409.375 468.403 407.373 468.403C405.688 468.403 404.688 469.185 404.395 470.186H402.197C402.466 468.062 404.541 466.572 407.471 466.572C409.204 466.572 412.451 467.085 412.451 471.26V480H410.376V478.193H410.278C409.839 479.097 408.618 480.317 406.323 480.317C403.809 480.317 401.807 478.828 401.807 476.24ZM403.906 476.338C403.906 477.729 405.078 478.438 406.689 478.438C409.058 478.438 410.376 476.851 410.376 475.19V473.848L407.031 474.092C405.127 474.214 403.906 474.897 403.906 476.338Z" fill="#B02418"/>
<path d="M394.189 480.269C390.356 480.269 387.988 477.559 387.988 473.481C387.988 469.404 390.381 466.572 393.994 466.572C396.777 466.572 399.707 468.281 399.707 473.188V474.067H390.088C390.186 476.875 391.821 478.413 394.189 478.413C395.776 478.413 396.777 477.729 397.266 476.899H399.512C398.877 478.901 396.924 480.269 394.189 480.269ZM390.112 472.285H397.583C397.583 470.063 396.167 468.428 393.994 468.428C391.699 468.428 390.234 470.234 390.112 472.285Z" fill="#B02418"/>
<path d="M380.322 480V466.743H382.349V468.77H382.495C382.983 467.427 384.351 466.523 385.913 466.523C386.23 466.523 386.768 466.548 387.012 466.572V468.696C386.865 468.647 386.279 468.55 385.742 468.55C383.838 468.55 382.422 469.868 382.422 471.65V480H380.322Z" fill="#B02418"/>
<path d="M365.234 480H362.939L369.409 462.324H371.729L378.198 480H375.879L374.121 475.02H367.017L365.234 480ZM367.676 473.091H373.438L370.63 465.181H370.483L367.676 473.091Z" fill="#B02418"/>
<path d="M410.253 434.743V436.501H407.47V444.191C407.47 445.9 408.3 446.169 409.203 446.169C409.594 446.169 410.131 446.145 410.448 446.12V448.073C410.131 448.122 409.594 448.171 408.983 448.171C407.226 448.171 405.346 447.072 405.346 444.729V436.501H403.344V434.743H405.346V431.569H407.47V434.743H410.253Z" fill="#B02418"/>
<path d="M394.896 448V434.743H396.923V436.77H397.069C397.558 435.427 398.925 434.523 400.487 434.523C400.805 434.523 401.342 434.548 401.586 434.572V436.696C401.439 436.647 400.854 436.55 400.316 436.55C398.412 436.55 396.996 437.868 396.996 439.65V448H394.896Z" fill="#B02418"/>
<path d="M380.883 444.24C380.883 441.188 383.568 440.505 385.863 440.334C386.706 440.273 388.854 440.163 389.452 440.139V439.064C389.452 437.38 388.451 436.403 386.449 436.403C384.765 436.403 383.764 437.185 383.471 438.186H381.273C381.542 436.062 383.617 434.572 386.547 434.572C388.28 434.572 391.527 435.085 391.527 439.26V448H389.452V446.193H389.354C388.915 447.097 387.694 448.317 385.399 448.317C382.885 448.317 380.883 446.828 380.883 444.24ZM382.982 444.338C382.982 445.729 384.154 446.438 385.766 446.438C388.134 446.438 389.452 444.851 389.452 443.19V441.848L386.107 442.092C384.203 442.214 382.982 442.897 382.982 444.338Z" fill="#B02418"/>
<path d="M376.514 435.891C376.001 433.449 373.901 432.131 371.582 432.131C368.384 432.131 365.894 434.597 365.894 439.162C365.894 443.728 368.384 446.193 371.582 446.193C373.901 446.193 375.977 444.875 376.514 442.458H378.711C378.076 446.071 375.171 448.244 371.582 448.244C367.041 448.244 363.77 444.753 363.77 439.162C363.77 433.571 367.041 430.08 371.582 430.08C375.146 430.08 378.052 432.229 378.711 435.891H376.514Z" fill="#B02418"/>
<path d="M350.993 448.146C350.138 448.146 349.406 447.438 349.43 446.56C349.406 445.705 350.138 444.997 350.993 444.997C351.847 444.997 352.555 445.705 352.555 446.56C352.555 447.438 351.847 448.146 350.993 448.146Z" fill="#B02418"/>
<path d="M333.658 444.387V442.58L341.617 430.324H344.327V442.458H346.793V444.387H344.327V448H342.228V444.387H333.658ZM336.026 442.458H342.228V433.107H342.008L336.026 442.312V442.458Z" fill="#B02418"/>
</svg>
