<?xml version="1.0" encoding="UTF-8"?>
<svg id="Layer_1" xmlns="http://www.w3.org/2000/svg" version="1.1" viewBox="0 0 416.75 345.6">
  <!-- Generator: Adobe Illustrator 29.0.1, SVG Export Plug-In . SVG Version: 2.1.0 Build 192)  -->
  <defs>
    <style>
      .st0 {
        fill: #211815;
      }

      .st1 {
        fill: #fff;
      }

      .st2 {
        fill: none;
        stroke: #90c31e;
        stroke-miterlimit: 10;
      }

      .st3 {
        fill: #90c31e;
      }
    </style>
  </defs>
  <g>
    <path class="st0" d="M112.63,31.42l-.21.47-2.7,6.4h-2.47l8.45-19.11,8.45,19.11h-2.47l-2.65-6.24-.21-.52-3.12-7.33-3.07,7.23ZM111.72,30.74h8.06l.78,2.08h-9.62l.78-2.08Z"/>
    <path class="st0" d="M128.35,34.69c.46.55.98.99,1.55,1.3.57.31,1.22.47,1.95.47.97,0,1.75-.27,2.34-.81.59-.54.88-1.22.88-2.05s-.19-1.46-.57-1.95-.88-.88-1.49-1.18c-.62-.3-1.27-.58-1.96-.82-.45-.16-.95-.36-1.51-.61-.55-.25-1.08-.57-1.59-.96-.5-.39-.91-.87-1.23-1.44-.32-.57-.48-1.27-.48-2.11,0-.9.23-1.71.68-2.42.45-.71,1.07-1.27,1.87-1.68.8-.41,1.71-.61,2.73-.61s1.85.19,2.59.56c.74.37,1.37.85,1.89,1.43.52.58.93,1.19,1.22,1.83l-1.9,1.09c-.23-.45-.51-.89-.86-1.33-.35-.43-.77-.79-1.26-1.07-.49-.28-1.1-.42-1.81-.42-.99,0-1.71.24-2.16.71-.45.48-.68,1.01-.68,1.6,0,.5.13.97.39,1.39.26.42.7.82,1.31,1.2.62.37,1.45.74,2.51,1.1.48.17,1,.4,1.53.68s1.04.63,1.5,1.05c.46.43.84.94,1.13,1.53.29.6.44,1.31.44,2.15s-.15,1.52-.46,2.16c-.3.64-.72,1.19-1.25,1.64-.53.45-1.13.8-1.79,1.04-.67.24-1.37.36-2.09.36-.99,0-1.9-.21-2.74-.64-.84-.42-1.58-.99-2.21-1.69-.63-.7-1.15-1.45-1.55-2.25l1.77-1.2c.42.73.85,1.37,1.31,1.92Z"/>
    <path class="st0" d="M138.66,31.13h5.2v1.95h-5.2v-1.95Z"/>
    <path class="st0" d="M148.28,20.08v18.2h-2.21v-18.2h2.21Z"/>
    <path class="st0" d="M154.43,34.69c.46.55.98.99,1.55,1.3.57.31,1.22.47,1.95.47.97,0,1.75-.27,2.34-.81.59-.54.88-1.22.88-2.05s-.19-1.46-.57-1.95-.88-.88-1.49-1.18c-.62-.3-1.27-.58-1.96-.82-.45-.16-.95-.36-1.51-.61-.55-.25-1.08-.57-1.59-.96-.5-.39-.91-.87-1.23-1.44-.32-.57-.48-1.27-.48-2.11,0-.9.23-1.71.68-2.42.45-.71,1.07-1.27,1.87-1.68.8-.41,1.71-.61,2.73-.61s1.85.19,2.59.56c.74.37,1.37.85,1.89,1.43.52.58.93,1.19,1.22,1.83l-1.9,1.09c-.23-.45-.51-.89-.86-1.33-.35-.43-.77-.79-1.26-1.07-.49-.28-1.1-.42-1.81-.42-.99,0-1.71.24-2.16.71-.45.48-.68,1.01-.68,1.6,0,.5.13.97.39,1.39.26.42.7.82,1.31,1.2.62.37,1.45.74,2.51,1.1.48.17,1,.4,1.53.68s1.04.63,1.5,1.05c.46.43.84.94,1.13,1.53.29.6.44,1.31.44,2.15s-.15,1.52-.46,2.16c-.3.64-.72,1.19-1.25,1.64-.53.45-1.13.8-1.79,1.04-.67.24-1.37.36-2.09.36-.99,0-1.9-.21-2.74-.64-.84-.42-1.58-.99-2.21-1.69-.63-.7-1.15-1.45-1.55-2.25l1.77-1.2c.42.73.85,1.37,1.31,1.92Z"/>
  </g>
  <path class="st3" d="M140.29,306.39c69.33,0,125.53-56.2,125.53-125.53s-56.2-125.53-125.53-125.53S14.76,111.53,14.76,180.86s56.2,125.53,125.53,125.53"/>
  <g>
    <path class="st1" d="M108.01,171.06h11.57v2.08h-4.68v16.12h-2.21v-16.12h-4.68v-2.08Z"/>
    <path class="st1" d="M121.57,176.45c.46-1.14,1.1-2.12,1.94-2.96s1.81-1.5,2.94-1.98c1.13-.48,2.35-.71,3.67-.71s2.56.24,3.68.71c1.12.48,2.09,1.14,2.92,1.98s1.48,1.83,1.94,2.96c.46,1.13.69,2.37.69,3.71s-.23,2.55-.69,3.69c-.46,1.14-1.1,2.14-1.94,2.98s-1.81,1.5-2.92,1.98c-1.12.48-2.34.71-3.68.71s-2.54-.24-3.67-.71c-1.13-.48-2.11-1.13-2.94-1.98s-1.48-1.83-1.94-2.98c-.46-1.14-.69-2.37-.69-3.69s.23-2.57.69-3.71ZM124.11,183.83c.6,1.07,1.42,1.92,2.46,2.55s2.22.94,3.54.94,2.52-.31,3.55-.94,1.85-1.47,2.44-2.55c.6-1.08.9-2.3.9-3.67s-.3-2.59-.9-3.67c-.6-1.08-1.41-1.92-2.44-2.55s-2.21-.94-3.55-.94-2.5.31-3.54.94-1.86,1.47-2.46,2.55c-.6,1.07-.9,2.3-.9,3.67s.3,2.59.9,3.67Z"/>
    <path class="st1" d="M142.11,176.45c.46-1.14,1.1-2.12,1.94-2.96s1.81-1.5,2.94-1.98c1.13-.48,2.35-.71,3.67-.71s2.56.24,3.68.71c1.12.48,2.09,1.14,2.92,1.98s1.48,1.83,1.94,2.96c.46,1.13.69,2.37.69,3.71s-.23,2.55-.69,3.69c-.46,1.14-1.1,2.14-1.94,2.98s-1.81,1.5-2.92,1.98c-1.12.48-2.34.71-3.68.71s-2.54-.24-3.67-.71c-1.13-.48-2.11-1.13-2.94-1.98s-1.48-1.83-1.94-2.98c-.46-1.14-.69-2.37-.69-3.69s.23-2.57.69-3.71ZM144.65,183.83c.6,1.07,1.42,1.92,2.46,2.55s2.22.94,3.54.94,2.52-.31,3.55-.94,1.85-1.47,2.44-2.55c.6-1.08.9-2.3.9-3.67s-.3-2.59-.9-3.67c-.6-1.08-1.41-1.92-2.44-2.55s-2.21-.94-3.55-.94-2.5.31-3.54.94-1.86,1.47-2.46,2.55c-.6,1.07-.9,2.3-.9,3.67s.3,2.59.9,3.67Z"/>
    <path class="st1" d="M165.21,171.06v16.12h7.15v2.08h-9.36v-18.2h2.21Z"/>
  </g>
  <polyline class="st2" points="283.66 187.81 406.67 187.8 388.67 169.77"/>
</svg>