<?xml version="1.0" encoding="UTF-8"?>
<svg xmlns="http://www.w3.org/2000/svg" xmlns:xlink="http://www.w3.org/1999/xlink" version="1.1" viewBox="0 0 770.82 345.6">
  <!-- Generator: Adobe Illustrator 29.0.1, SVG Export Plug-In . SVG Version: 2.1.0 Build 192)  -->
  <defs>
    <style>
      .st0, .st1 {
        fill: none;
      }

      .st2 {
        fill: #ffc80e;
      }

      .st2, .st3 {
        mix-blend-mode: multiply;
      }

      .st4 {
        fill: #211815;
      }

      .st1 {
        stroke: #90c31e;
      }

      .st5 {
        isolation: isolate;
      }

      .st6 {
        clip-path: url(#clippath-1);
      }

      .st7 {
        fill: #fff;
      }

      .st8 {
        fill: #90c31e;
      }

      .st9 {
        fill: #e85d5d;
      }

      .st10 {
        clip-path: url(#clippath);
      }
    </style>
    <clipPath id="clippath">
      <rect class="st0" x="487.75" y="54.33" width="253.06" height="253.06"/>
    </clipPath>
    <clipPath id="clippath-1">
      <rect class="st0" x="44.29" y="54.33" width="253.06" height="253.06"/>
    </clipPath>
  </defs>
  <g class="st5">
    <g id="Layer_1">
      <path class="st1" d="M760.17,182.29c0-80.32-65.12-145.44-145.45-145.44H168.78c-80.33,0-145.45,65.12-145.45,145.44s65.12,145.44,145.45,145.44h445.94c80.33,0,145.45-65.12,145.45-145.44Z"/>
      <rect class="st7" x="346.25" y="21.02" width="97.72" height="29.11"/>
      <g>
        <path class="st4" d="M359.8,25.22h11.57v2.08h-4.68v16.12h-2.21v-16.12h-4.68v-2.08Z"/>
        <path class="st4" d="M373.36,30.61c.46-1.13,1.1-2.12,1.94-2.96.83-.84,1.81-1.5,2.94-1.98,1.13-.48,2.35-.71,3.67-.71s2.56.24,3.68.71c1.12.48,2.09,1.14,2.92,1.98.83.84,1.48,1.83,1.94,2.96.46,1.14.69,2.37.69,3.71s-.23,2.55-.69,3.69c-.46,1.14-1.1,2.14-1.94,2.98-.83.84-1.81,1.5-2.92,1.98-1.12.48-2.34.71-3.68.71s-2.54-.24-3.67-.71c-1.13-.48-2.11-1.13-2.94-1.98-.83-.84-1.48-1.83-1.94-2.98-.46-1.14-.69-2.37-.69-3.69s.23-2.57.69-3.71ZM375.91,37.98c.6,1.08,1.42,1.92,2.46,2.55,1.04.62,2.22.94,3.54.94s2.52-.31,3.55-.94c1.03-.62,1.85-1.47,2.44-2.55.6-1.07.9-2.3.9-3.67s-.3-2.59-.9-3.67c-.6-1.07-1.41-1.92-2.44-2.55s-2.21-.94-3.55-.94-2.5.31-3.54.94-1.86,1.47-2.46,2.55c-.6,1.08-.9,2.3-.9,3.67s.3,2.59.9,3.67Z"/>
        <path class="st4" d="M392.3,36.27h5.2v1.95h-5.2v-1.95Z"/>
        <path class="st4" d="M401.45,32.58h2.94c.61,0,1.15-.1,1.64-.31s.87-.51,1.14-.91c.28-.4.42-.88.42-1.46,0-.87-.3-1.54-.91-2.02-.61-.48-1.37-.71-2.29-.71h-2.47v14.3h2.73c.78,0,1.47-.14,2.07-.42.6-.28,1.07-.68,1.4-1.2.34-.52.51-1.15.51-1.9,0-.55-.1-1.05-.29-1.48-.19-.43-.46-.8-.82-1.09-.36-.29-.78-.52-1.26-.66s-1.02-.22-1.61-.22h-3.2v-1.22h3.2c.88,0,1.7.1,2.44.29.75.19,1.4.48,1.96.87.56.39,1,.89,1.31,1.5.31.61.47,1.33.47,2.16,0,1.2-.27,2.19-.82,2.98-.55.79-1.28,1.38-2.21,1.77-.93.39-1.98.58-3.16.58h-4.94v-18.2h4.68c1.09,0,2.04.17,2.85.49.81.33,1.43.83,1.89,1.5.45.67.68,1.52.68,2.56,0,.85-.23,1.58-.68,2.18-.45.61-1.08,1.07-1.89,1.38s-1.75.47-2.85.47h-2.94v-1.22Z"/>
        <path class="st4" d="M416.43,25.22v18.2h-2.21v-18.2h2.21ZM415.44,25.22h9.18v2.08h-9.18v-2.08ZM415.44,32.5h8.66v2.08h-8.66v-2.08ZM415.44,41.34h9.18v2.08h-9.18v-2.08Z"/>
      </g>
      <path class="st2" d="M390.11,306.39c69.33,0,125.53-56.2,125.53-125.53s-56.2-125.53-125.53-125.53-125.53,56.2-125.53,125.53,56.2,125.53,125.53,125.53"/>
      <g class="st3">
        <g class="st10">
          <path class="st9" d="M614.28,306.39c69.33,0,125.53-56.2,125.53-125.53s-56.2-125.53-125.53-125.53-125.53,56.2-125.53,125.53,56.2,125.53,125.53,125.53"/>
        </g>
      </g>
      <g class="st3">
        <g class="st6">
          <path class="st8" d="M170.82,306.39c69.33,0,125.53-56.2,125.53-125.53s-56.2-125.53-125.53-125.53-125.53,56.2-125.53,125.53,56.2,125.53,125.53,125.53"/>
        </g>
      </g>
      <g>
        <path class="st7" d="M134.7,169.66h12.46v2.24h-5.04v17.36h-2.38v-17.36h-5.04v-2.24Z"/>
        <path class="st7" d="M149.3,175.47c.49-1.22,1.19-2.29,2.09-3.19.9-.9,1.95-1.61,3.16-2.13,1.21-.51,2.53-.77,3.95-.77s2.76.26,3.96.77c1.2.51,2.25,1.22,3.15,2.13.9.91,1.59,1.97,2.09,3.19s.74,2.55.74,3.99-.25,2.74-.74,3.98c-.49,1.23-1.19,2.3-2.09,3.21-.9.91-1.95,1.62-3.15,2.13-1.2.51-2.52.77-3.96.77s-2.73-.26-3.95-.77c-1.21-.51-2.27-1.22-3.16-2.13-.9-.91-1.59-1.97-2.09-3.21-.49-1.23-.74-2.56-.74-3.98s.25-2.77.74-3.99ZM152.05,183.41c.64,1.16,1.53,2.07,2.65,2.74,1.12.67,2.39,1.01,3.81,1.01s2.71-.34,3.82-1.01c1.11-.67,1.99-1.59,2.63-2.74s.97-2.47.97-3.95-.32-2.79-.97-3.95-1.52-2.07-2.63-2.74c-1.11-.67-2.38-1.01-3.82-1.01s-2.69.34-3.81,1.01-2,1.59-2.65,2.74-.97,2.47-.97,3.95.32,2.79.97,3.95Z"/>
        <path class="st7" d="M171.42,175.47c.49-1.22,1.19-2.29,2.09-3.19.9-.9,1.95-1.61,3.16-2.13,1.21-.51,2.53-.77,3.95-.77s2.76.26,3.96.77c1.2.51,2.25,1.22,3.15,2.13.9.91,1.59,1.97,2.09,3.19s.74,2.55.74,3.99-.25,2.74-.74,3.98c-.49,1.23-1.19,2.3-2.09,3.21-.9.91-1.95,1.62-3.15,2.13-1.2.51-2.52.77-3.96.77s-2.73-.26-3.95-.77c-1.21-.51-2.27-1.22-3.16-2.13-.9-.91-1.59-1.97-2.09-3.21-.49-1.23-.74-2.56-.74-3.98s.25-2.77.74-3.99ZM174.17,183.41c.64,1.16,1.53,2.07,2.65,2.74,1.12.67,2.39,1.01,3.81,1.01s2.71-.34,3.82-1.01c1.11-.67,1.99-1.59,2.63-2.74s.97-2.47.97-3.95-.32-2.79-.97-3.95-1.52-2.07-2.63-2.74c-1.11-.67-2.38-1.01-3.82-1.01s-2.69.34-3.81,1.01-2,1.59-2.65,2.74-.97,2.47-.97,3.95.32,2.79.97,3.95Z"/>
        <path class="st7" d="M196.3,169.66v17.36h7.7v2.24h-10.08v-19.6h2.38Z"/>
      </g>
      <g>
        <path class="st7" d="M304.53,184.55c.42.51.9.91,1.43,1.2.53.29,1.13.43,1.8.43.9,0,1.62-.25,2.16-.74s.82-1.13.82-1.9-.18-1.35-.53-1.8c-.35-.45-.81-.81-1.38-1.09s-1.17-.53-1.81-.76c-.42-.14-.88-.33-1.39-.56-.51-.23-1-.53-1.46-.89s-.84-.8-1.14-1.33c-.3-.53-.44-1.18-.44-1.94,0-.83.21-1.58.62-2.23s.99-1.17,1.73-1.55,1.58-.56,2.52-.56,1.71.17,2.39.52c.68.34,1.26.78,1.74,1.32s.86,1.1,1.13,1.69l-1.75,1.01c-.21-.42-.47-.82-.79-1.22-.32-.4-.71-.73-1.16-.98-.46-.26-1.01-.38-1.67-.38-.91,0-1.58.22-1.99.66-.42.44-.62.93-.62,1.48,0,.46.12.89.36,1.28.24.39.64.76,1.21,1.1.57.34,1.34.68,2.32,1.02.45.16.92.37,1.42.62.5.26.96.58,1.38.97.42.39.77.86,1.04,1.42.27.55.41,1.21.41,1.98s-.14,1.4-.42,1.99c-.28.59-.66,1.1-1.15,1.51-.49.42-1.04.74-1.66.96-.62.22-1.26.34-1.93.34-.91,0-1.76-.2-2.53-.59-.78-.39-1.46-.91-2.04-1.56-.58-.65-1.06-1.34-1.43-2.08l1.63-1.1c.38.67.79,1.26,1.21,1.78Z"/>
        <path class="st7" d="M316.93,187.86h-2.04l2.04-17.64,6.72,12.17,6.72-12.17,2.04,17.64h-2.04l-1.25-11.35-5.47,9.79-5.47-9.79-1.25,11.35Z"/>
        <path class="st7" d="M338.46,181.52l-.19.43-2.5,5.9h-2.28l7.8-17.64,7.8,17.64h-2.28l-2.45-5.76-.19-.48-2.88-6.77-2.83,6.67ZM337.62,180.9h7.44l.72,1.92h-8.88l.72-1.92Z"/>
        <path class="st7" d="M353.17,171.06v16.8h-2.04v-16.8h2.04ZM352.26,171.06h3.43c1.09,0,2.06.2,2.92.61.86.41,1.54.99,2.04,1.74.5.75.76,1.65.76,2.69s-.25,1.92-.76,2.68-1.18,1.34-2.04,1.75-1.83.61-2.92.61h-3.43v-1.8h3.43c.72,0,1.36-.13,1.91-.38.55-.26.98-.62,1.3-1.1.31-.48.47-1.06.47-1.75s-.16-1.27-.47-1.75c-.31-.48-.74-.85-1.3-1.1-.55-.26-1.19-.38-1.91-.38h-3.43v-1.8ZM356.41,179.58l6,8.28h-2.52l-5.76-8.28h2.28Z"/>
        <path class="st7" d="M362.89,171.06h10.68v1.92h-4.32v14.88h-2.04v-14.88h-4.32v-1.92Z"/>
        <path class="st7" d="M384.97,171.06v16.8h-2.04v-16.8h2.04ZM384.06,171.06h3.43c1.09,0,2.06.2,2.92.61.86.41,1.54.99,2.04,1.74.5.75.76,1.65.76,2.69s-.25,1.92-.76,2.68-1.18,1.34-2.04,1.75-1.83.61-2.92.61h-3.43v-1.92h3.43c1.09,0,1.97-.26,2.65-.79.68-.53,1.02-1.3,1.02-2.33s-.34-1.82-1.02-2.34c-.68-.52-1.56-.78-2.65-.78h-3.43v-1.92Z"/>
        <path class="st7" d="M399.25,181.52l-.19.43-2.5,5.9h-2.28l7.8-17.64,7.8,17.64h-2.28l-2.45-5.76-.19-.48-2.88-6.77-2.83,6.67ZM398.41,180.9h7.44l.72,1.92h-8.88l.72-1.92Z"/>
        <path class="st7" d="M413.96,171.06v16.8h-2.04v-16.8h2.04ZM413.05,171.06h3.43c1.09,0,2.06.2,2.92.61.86.41,1.54.99,2.04,1.74.5.75.76,1.65.76,2.69s-.25,1.92-.76,2.68-1.18,1.34-2.04,1.75-1.83.61-2.92.61h-3.43v-1.8h3.43c.72,0,1.36-.13,1.91-.38.55-.26.98-.62,1.3-1.1.31-.48.47-1.06.47-1.75s-.16-1.27-.47-1.75c-.31-.48-.74-.85-1.3-1.1-.55-.26-1.19-.38-1.91-.38h-3.43v-1.8ZM417.2,179.58l6,8.28h-2.52l-5.76-8.28h2.28Z"/>
        <path class="st7" d="M423.68,171.06h10.68v1.92h-4.32v14.88h-2.04v-14.88h-4.32v-1.92Z"/>
        <path class="st7" d="M451.28,171.06v17.64l-12.72-13.34v12.5h-2.04v-17.64l12.72,13.34v-12.5h2.04Z"/>
        <path class="st7" d="M457.16,171.06v16.8h-2.04v-16.8h2.04ZM456.25,171.06h8.47v1.92h-8.47v-1.92ZM456.25,177.78h7.99v1.92h-7.99v-1.92ZM456.25,185.94h8.47v1.92h-8.47v-1.92Z"/>
        <path class="st7" d="M470.36,171.06v16.8h-2.04v-16.8h2.04ZM469.45,171.06h3.43c1.09,0,2.06.2,2.92.61.86.41,1.54.99,2.04,1.74.5.75.76,1.65.76,2.69s-.25,1.92-.76,2.68-1.18,1.34-2.04,1.75-1.83.61-2.92.61h-3.43v-1.8h3.43c.72,0,1.36-.13,1.91-.38.55-.26.98-.62,1.3-1.1.31-.48.47-1.06.47-1.75s-.16-1.27-.47-1.75c-.31-.48-.74-.85-1.3-1.1-.55-.26-1.19-.38-1.91-.38h-3.43v-1.8ZM473.6,179.58l6,8.28h-2.52l-5.76-8.28h2.28Z"/>
      </g>
      <g>
        <path class="st7" d="M511.02,171.06v16.8h-2.04v-16.8h2.04ZM520.14,171.06l-7.27,7.87,7.63,8.93h-2.52l-7.58-8.88,7.22-7.92h2.52Z"/>
        <path class="st7" d="M524.46,171.06v11.28c0,1.15.31,2.08.94,2.78.62.7,1.54,1.06,2.74,1.06s2.11-.35,2.74-1.06c.62-.7.94-1.63.94-2.78v-11.28h2.04v11.28c0,.83-.13,1.6-.4,2.3s-.65,1.31-1.15,1.82c-.5.51-1.11.91-1.81,1.2s-1.49.43-2.35.43-1.65-.14-2.35-.43-1.31-.69-1.81-1.2c-.5-.51-.89-1.12-1.15-1.82-.26-.7-.4-1.47-.4-2.3v-11.28h2.04Z"/>
        <path class="st7" d="M538.64,187.86h-2.04l2.04-17.64,6.72,12.17,6.72-12.17,2.04,17.64h-2.04l-1.25-11.35-5.47,9.79-5.47-9.79-1.25,11.35Z"/>
        <path class="st7" d="M556.68,176.04c.42-1.05,1.02-1.96,1.79-2.74.77-.78,1.67-1.38,2.71-1.82s2.17-.66,3.38-.66,2.36.22,3.4.66,1.93,1.05,2.7,1.82c.77.78,1.36,1.69,1.79,2.74.42,1.05.64,2.19.64,3.42s-.21,2.35-.64,3.41c-.42,1.06-1.02,1.97-1.79,2.75-.77.78-1.67,1.38-2.7,1.82-1.03.44-2.16.66-3.4.66s-2.34-.22-3.38-.66c-1.04-.44-1.94-1.05-2.71-1.82-.77-.78-1.36-1.69-1.79-2.75-.42-1.06-.64-2.19-.64-3.41s.21-2.37.64-3.42ZM559.03,182.84c.55.99,1.31,1.78,2.27,2.35s2.05.86,3.26.86,2.32-.29,3.28-.86,1.7-1.36,2.26-2.35c.55-.99.83-2.12.83-3.38s-.28-2.39-.83-3.38c-.55-.99-1.3-1.78-2.26-2.35s-2.04-.86-3.28-.86-2.3.29-3.26.86-1.72,1.36-2.27,2.35c-.55.99-.83,2.12-.83,3.38s.28,2.39.83,3.38Z"/>
        <path class="st7" d="M590.72,171.06v17.64l-12.72-13.34v12.5h-2.04v-17.64l12.72,13.34v-12.5h2.04Z"/>
        <path class="st7" d="M603.84,182.89c.58.99,1.35,1.77,2.29,2.33.94.56,1.97.84,3.07.84.8,0,1.53-.1,2.2-.31.66-.21,1.27-.5,1.81-.88.54-.38,1.01-.81,1.39-1.31v2.69c-.7.62-1.47,1.09-2.3,1.39s-1.86.46-3.1.46-2.26-.21-3.28-.64c-1.02-.42-1.91-1.02-2.68-1.8-.77-.78-1.37-1.69-1.8-2.75-.43-1.06-.65-2.21-.65-3.46s.22-2.4.65-3.46c.43-1.06,1.03-1.97,1.8-2.75.77-.78,1.66-1.38,2.68-1.8,1.02-.42,2.11-.64,3.28-.64,1.23,0,2.26.15,3.1.46s1.6.77,2.3,1.39v2.69c-.38-.5-.85-.93-1.39-1.31s-1.15-.67-1.81-.88c-.66-.21-1.4-.31-2.2-.31-1.1,0-2.13.28-3.07.84-.94.56-1.71,1.33-2.29,2.32-.58.98-.88,2.13-.88,3.44s.29,2.44.88,3.43Z"/>
        <path class="st7" d="M617.88,176.04c.42-1.05,1.02-1.96,1.79-2.74.77-.78,1.67-1.38,2.71-1.82s2.17-.66,3.38-.66,2.36.22,3.4.66,1.93,1.05,2.7,1.82c.77.78,1.36,1.69,1.79,2.74.42,1.05.64,2.19.64,3.42s-.21,2.35-.64,3.41c-.42,1.06-1.02,1.97-1.79,2.75-.77.78-1.67,1.38-2.7,1.82-1.03.44-2.16.66-3.4.66s-2.34-.22-3.38-.66c-1.04-.44-1.94-1.05-2.71-1.82-.77-.78-1.36-1.69-1.79-2.75-.42-1.06-.64-2.19-.64-3.41s.21-2.37.64-3.42ZM620.23,182.84c.55.99,1.31,1.78,2.27,2.35s2.05.86,3.26.86,2.32-.29,3.28-.86,1.7-1.36,2.26-2.35c.55-.99.83-2.12.83-3.38s-.28-2.39-.83-3.38c-.55-.99-1.3-1.78-2.26-2.35s-2.04-.86-3.28-.86-2.3.29-3.26.86-1.72,1.36-2.27,2.35c-.55.99-.83,2.12-.83,3.38s.28,2.39.83,3.38Z"/>
        <path class="st7" d="M651.92,171.06v17.64l-12.72-13.34v12.5h-2.04v-17.64l12.72,13.34v-12.5h2.04Z"/>
        <path class="st7" d="M654.08,171.06h10.68v1.92h-4.32v14.88h-2.04v-14.88h-4.32v-1.92Z"/>
        <path class="st7" d="M668.96,171.06v16.8h-2.04v-16.8h2.04ZM668.05,171.06h8.47v1.92h-8.47v-1.92ZM668.05,177.78h7.99v1.92h-7.99v-1.92ZM668.05,185.94h8.47v1.92h-8.47v-1.92Z"/>
        <path class="st7" d="M694.88,171.06v17.64l-12.72-13.34v12.5h-2.04v-17.64l12.72,13.34v-12.5h2.04Z"/>
        <path class="st7" d="M697.04,171.06h10.68v1.92h-4.32v14.88h-2.04v-14.88h-4.32v-1.92Z"/>
        <path class="st7" d="M711.72,184.55c.42.51.9.91,1.43,1.2.53.29,1.13.43,1.8.43.9,0,1.62-.25,2.16-.74s.82-1.13.82-1.9-.18-1.35-.53-1.8c-.35-.45-.81-.81-1.38-1.09s-1.17-.53-1.81-.76c-.42-.14-.88-.33-1.39-.56-.51-.23-1-.53-1.46-.89s-.84-.8-1.14-1.33c-.3-.53-.44-1.18-.44-1.94,0-.83.21-1.58.62-2.23s.99-1.17,1.73-1.55c.74-.38,1.58-.56,2.52-.56s1.71.17,2.39.52c.68.34,1.26.78,1.74,1.32.48.54.86,1.1,1.13,1.69l-1.75,1.01c-.21-.42-.47-.82-.79-1.22-.32-.4-.71-.73-1.16-.98s-1.01-.38-1.67-.38c-.91,0-1.58.22-1.99.66-.42.44-.62.93-.62,1.48,0,.46.12.89.36,1.28.24.39.64.76,1.21,1.1.57.34,1.34.68,2.32,1.02.45.16.92.37,1.42.62.5.26.96.58,1.38.97.42.39.77.86,1.04,1.42.27.55.41,1.21.41,1.98s-.14,1.4-.42,1.99c-.28.59-.66,1.1-1.15,1.51s-1.04.74-1.66.96c-.62.22-1.26.34-1.93.34-.91,0-1.76-.2-2.53-.59-.78-.39-1.46-.91-2.04-1.56-.58-.65-1.06-1.34-1.43-2.08l1.63-1.1c.38.67.79,1.26,1.21,1.78Z"/>
      </g>
    </g>
  </g>
</svg>