<?xml version="1.0" encoding="UTF-8"?>
<svg id="Layer_1" xmlns="http://www.w3.org/2000/svg" version="1.1" viewBox="0 0 524.33 345.6">
  <!-- Generator: Adobe Illustrator 29.0.1, SVG Export Plug-In . SVG Version: 2.1.0 Build 192)  -->
  <defs>
    <style>
      .st0 {
        fill: #211815;
      }

      .st1, .st2 {
        fill: none;
        stroke: #90c31e;
      }

      .st3 {
        fill: #fff;
      }

      .st2 {
        stroke-miterlimit: 10;
      }

      .st4 {
        fill: #e85d5d;
      }
    </style>
  </defs>
  <rect class="st1" x="151.15" y="36.85" width="325.87" height="291.4"/>
  <rect class="st3" x="182.34" y="21.02" width="263.47" height="342.86"/>
  <g>
    <path class="st0" d="M209.79,25.82v19.6h-2.38v-19.6h2.38ZM208.73,45.42v-2.38h4.56c1.1,0,2.11-.17,3.02-.52.92-.34,1.7-.84,2.35-1.48s1.16-1.42,1.51-2.34c.35-.91.53-1.94.53-3.08s-.18-2.17-.53-3.08-.86-1.69-1.51-2.34c-.65-.64-1.44-1.14-2.35-1.48-.91-.35-1.92-.52-3.02-.52h-4.56v-2.38h4.56c1.9,0,3.59.41,5.07,1.23,1.47.82,2.63,1.96,3.47,3.43.84,1.47,1.26,3.18,1.26,5.14s-.42,3.67-1.26,5.14c-.84,1.47-2,2.61-3.47,3.43-1.48.82-3.16,1.23-5.07,1.23h-4.56Z"/>
    <path class="st0" d="M228.83,25.82v19.6h-2.38v-19.6h2.38ZM227.77,25.82h9.88v2.24h-9.88v-2.24ZM227.77,33.66h9.32v2.24h-9.32v-2.24ZM227.77,43.18h9.88v2.24h-9.88v-2.24Z"/>
    <path class="st0" d="M243.99,41.56c.49.6,1.05,1.06,1.67,1.4s1.32.5,2.1.5c1.04,0,1.88-.29,2.52-.87.63-.58.95-1.32.95-2.21s-.21-1.58-.62-2.1c-.41-.52-.95-.95-1.61-1.27-.66-.33-1.37-.62-2.11-.88-.49-.17-1.03-.39-1.62-.66-.6-.27-1.17-.62-1.71-1.04-.54-.42-.99-.94-1.33-1.55-.35-.62-.52-1.37-.52-2.27,0-.97.24-1.84.73-2.6.49-.77,1.16-1.37,2.02-1.81.86-.44,1.84-.66,2.94-.66s1.99.2,2.79.6c.79.4,1.47.91,2.03,1.54.56.63,1,1.28,1.32,1.97l-2.04,1.18c-.24-.49-.55-.96-.92-1.43-.37-.47-.83-.85-1.36-1.15-.53-.3-1.18-.45-1.95-.45-1.06,0-1.84.26-2.32.77-.49.51-.73,1.09-.73,1.72,0,.54.14,1.04.42,1.5.28.46.75.89,1.41,1.29s1.56.8,2.7,1.19c.52.19,1.07.43,1.65.73.58.3,1.12.68,1.61,1.13.5.46.9,1.01,1.22,1.65.32.64.48,1.41.48,2.31s-.16,1.63-.49,2.32c-.33.69-.77,1.28-1.34,1.76-.57.49-1.21.86-1.93,1.12-.72.26-1.47.39-2.25.39-1.06,0-2.05-.23-2.95-.69-.91-.46-1.7-1.06-2.38-1.82-.68-.76-1.24-1.56-1.67-2.42l1.9-1.29c.45.78.92,1.48,1.41,2.07Z"/>
    <path class="st0" d="M259.57,25.82v19.6h-2.38v-19.6h2.38Z"/>
    <path class="st0" d="M273.15,35.48h9.1c0,1.36-.21,2.66-.62,3.88-.41,1.22-1.02,2.31-1.82,3.26s-1.79,1.7-2.95,2.25-2.5.83-3.99.83-2.73-.25-3.95-.74c-1.21-.49-2.27-1.19-3.16-2.1-.9-.9-1.59-1.97-2.09-3.21-.5-1.23-.74-2.58-.74-4.03s.25-2.8.74-4.03c.49-1.23,1.19-2.3,2.09-3.21.9-.91,1.95-1.6,3.16-2.1,1.21-.49,2.53-.74,3.95-.74,1.21,0,2.33.16,3.35.48,1.02.32,1.93.78,2.74,1.4.81.62,1.5,1.38,2.06,2.3l-1.68,1.54c-.62-1.05-1.48-1.86-2.58-2.45-1.1-.59-2.4-.88-3.89-.88-1.38,0-2.63.33-3.75.98-1.12.65-2.01,1.55-2.67,2.7-.66,1.15-.99,2.49-.99,4.02s.33,2.85.99,4c.66,1.16,1.55,2.06,2.67,2.72,1.12.65,2.37.98,3.75.98.97,0,1.84-.14,2.62-.43.77-.29,1.44-.69,2-1.22.56-.52,1.02-1.12,1.39-1.79.36-.67.63-1.39.8-2.16h-6.52v-2.24Z"/>
    <path class="st0" d="M302.97,25.82v20.58l-14.84-15.57v14.59h-2.38v-20.58l14.84,15.57v-14.59h2.38Z"/>
    <path class="st0" d="M317.11,45.42h-2.38l2.38-20.58,7.84,14.2,7.84-14.2,2.38,20.58h-2.38l-1.46-13.24-6.38,11.42-6.38-11.42-1.46,13.24Z"/>
    <path class="st0" d="M340.91,25.82v19.6h-2.38v-19.6h2.38Z"/>
    <path class="st0" d="M347.53,41.56c.49.6,1.05,1.06,1.67,1.4s1.32.5,2.1.5c1.04,0,1.88-.29,2.52-.87.63-.58.95-1.32.95-2.21s-.21-1.58-.62-2.1c-.41-.52-.95-.95-1.61-1.27-.66-.33-1.37-.62-2.11-.88-.49-.17-1.03-.39-1.62-.66-.6-.27-1.17-.62-1.71-1.04-.54-.42-.99-.94-1.33-1.55-.35-.62-.52-1.37-.52-2.27,0-.97.24-1.84.73-2.6.49-.77,1.16-1.37,2.02-1.81.86-.44,1.84-.66,2.94-.66s1.99.2,2.79.6c.79.4,1.47.91,2.03,1.54.56.63,1,1.28,1.32,1.97l-2.04,1.18c-.24-.49-.55-.96-.92-1.43-.37-.47-.83-.85-1.36-1.15-.53-.3-1.18-.45-1.95-.45-1.06,0-1.84.26-2.32.77-.49.51-.73,1.09-.73,1.72,0,.54.14,1.04.42,1.5.28.46.75.89,1.41,1.29s1.56.8,2.7,1.19c.52.19,1.07.43,1.65.73.58.3,1.12.68,1.61,1.13.5.46.9,1.01,1.22,1.65.32.64.48,1.41.48,2.31s-.16,1.63-.49,2.32c-.33.69-.77,1.28-1.34,1.76-.57.49-1.21.86-1.93,1.12-.72.26-1.47.39-2.25.39-1.06,0-2.05-.23-2.95-.69-.91-.46-1.7-1.06-2.38-1.82-.68-.76-1.24-1.56-1.67-2.42l1.9-1.29c.45.78.92,1.48,1.41,2.07Z"/>
    <path class="st0" d="M362.88,41.56c.49.6,1.05,1.06,1.67,1.4s1.32.5,2.1.5c1.04,0,1.88-.29,2.52-.87.63-.58.95-1.32.95-2.21s-.21-1.58-.62-2.1c-.41-.52-.95-.95-1.61-1.27-.66-.33-1.37-.62-2.11-.88-.49-.17-1.03-.39-1.62-.66-.6-.27-1.17-.62-1.71-1.04-.54-.42-.99-.94-1.33-1.55-.35-.62-.52-1.37-.52-2.27,0-.97.24-1.84.73-2.6.49-.77,1.16-1.37,2.02-1.81.86-.44,1.84-.66,2.94-.66s1.99.2,2.79.6c.79.4,1.47.91,2.03,1.54.56.63,1,1.28,1.32,1.97l-2.04,1.18c-.24-.49-.55-.96-.92-1.43-.37-.47-.83-.85-1.36-1.15-.53-.3-1.18-.45-1.95-.45-1.06,0-1.84.26-2.32.77-.49.51-.73,1.09-.73,1.72,0,.54.14,1.04.42,1.5.28.46.75.89,1.41,1.29s1.56.8,2.7,1.19c.52.19,1.07.43,1.65.73.58.3,1.12.68,1.61,1.13.5.46.9,1.01,1.22,1.65.32.64.48,1.41.48,2.31s-.16,1.63-.49,2.32c-.33.69-.77,1.28-1.34,1.76-.57.49-1.21.86-1.93,1.12-.72.26-1.47.39-2.25.39-1.06,0-2.05-.23-2.95-.69-.91-.46-1.7-1.06-2.38-1.82-.68-.76-1.24-1.56-1.67-2.42l1.9-1.29c.45.78.92,1.48,1.41,2.07Z"/>
    <path class="st0" d="M378.46,25.82v19.6h-2.38v-19.6h2.38Z"/>
    <path class="st0" d="M382.56,31.63c.49-1.22,1.19-2.29,2.09-3.19.9-.91,1.95-1.61,3.16-2.13,1.21-.51,2.53-.77,3.95-.77s2.76.26,3.96.77c1.2.51,2.25,1.22,3.15,2.13.9.91,1.59,1.97,2.09,3.19.49,1.22.74,2.55.74,3.99s-.25,2.74-.74,3.98c-.49,1.23-1.19,2.3-2.09,3.21-.9.91-1.95,1.61-3.15,2.13-1.2.51-2.53.77-3.96.77s-2.73-.26-3.95-.77c-1.21-.51-2.27-1.22-3.16-2.13-.9-.91-1.59-1.97-2.09-3.21-.5-1.23-.74-2.56-.74-3.98s.25-2.77.74-3.99ZM385.31,39.57c.64,1.16,1.53,2.07,2.65,2.74s2.39,1.01,3.81,1.01,2.71-.34,3.82-1.01,1.99-1.59,2.63-2.74c.64-1.16.97-2.47.97-3.95s-.32-2.79-.97-3.95c-.64-1.16-1.52-2.07-2.63-2.74-1.11-.67-2.38-1.01-3.82-1.01s-2.69.34-3.81,1.01c-1.12.67-2,1.59-2.65,2.74-.64,1.16-.97,2.47-.97,3.95s.32,2.79.97,3.95Z"/>
    <path class="st0" d="M422.28,25.82v20.58l-14.84-15.57v14.59h-2.38v-20.58l14.84,15.57v-14.59h2.38Z"/>
  </g>
  <rect class="st3" x="178.16" y="112.34" width="279.24" height="46.03"/>
  <g>
    <path class="st4" d="M273.81,128.15h2.66l-7.7,20.58-5.88-15.23-5.88,15.23-7.7-20.58h2.66l5.21,14.42,5.71-15.4,5.82,15.4,5.1-14.42Z"/>
    <path class="st4" d="M281.37,128.15v19.6h-2.38v-19.6h2.38Z"/>
    <path class="st4" d="M288.23,128.15v19.6h-2.38v-19.6h2.38ZM287.16,147.75v-2.38h4.56c1.1,0,2.11-.17,3.02-.52.92-.34,1.7-.84,2.35-1.48.65-.64,1.16-1.42,1.51-2.34.35-.92.53-1.94.53-3.08s-.18-2.17-.53-3.08c-.35-.91-.86-1.69-1.51-2.34-.65-.64-1.44-1.14-2.35-1.48-.91-.34-1.92-.52-3.02-.52h-4.56v-2.38h4.56c1.9,0,3.59.41,5.07,1.23,1.47.82,2.63,1.96,3.47,3.43.84,1.47,1.26,3.18,1.26,5.14s-.42,3.67-1.26,5.14c-.84,1.47-2,2.61-3.47,3.43-1.48.82-3.16,1.23-5.07,1.23h-4.56Z"/>
    <path class="st4" d="M307.27,128.15v19.6h-2.38v-19.6h2.38ZM306.2,128.15h9.88v2.24h-9.88v-2.24ZM306.2,135.99h9.32v2.24h-9.32v-2.24ZM306.2,145.51h9.88v2.24h-9.88v-2.24Z"/>
    <path class="st4" d="M330.93,128.15v13.16c0,1.34.36,2.43,1.09,3.25.73.82,1.79,1.23,3.19,1.23s2.46-.41,3.19-1.23c.73-.82,1.09-1.9,1.09-3.25v-13.16h2.38v13.16c0,.97-.15,1.87-.46,2.69-.31.82-.76,1.53-1.34,2.13-.59.6-1.29,1.06-2.11,1.4s-1.74.5-2.74.5-1.92-.17-2.74-.5-1.53-.8-2.11-1.4c-.59-.6-1.04-1.31-1.34-2.13-.31-.82-.46-1.72-.46-2.69v-13.16h2.38Z"/>
    <path class="st4" d="M348.36,143.89c.49.6,1.05,1.06,1.67,1.4s1.32.5,2.1.5c1.04,0,1.88-.29,2.52-.87.63-.58.95-1.32.95-2.21s-.21-1.58-.62-2.1c-.41-.52-.95-.95-1.61-1.27-.66-.33-1.37-.62-2.11-.88-.49-.17-1.03-.39-1.62-.66-.6-.27-1.17-.62-1.71-1.04-.54-.42-.99-.94-1.33-1.55-.35-.62-.52-1.37-.52-2.27,0-.97.24-1.84.73-2.6s1.16-1.37,2.02-1.81,1.84-.66,2.94-.66,1.99.2,2.79.6c.79.4,1.47.92,2.03,1.54.56.63,1,1.28,1.32,1.97l-2.04,1.18c-.24-.49-.55-.96-.92-1.43-.37-.47-.83-.85-1.36-1.15-.53-.3-1.18-.45-1.95-.45-1.06,0-1.84.26-2.32.77-.49.51-.73,1.09-.73,1.72,0,.54.14,1.04.42,1.5.28.46.75.89,1.41,1.29s1.56.8,2.7,1.19c.52.19,1.07.43,1.65.73.58.3,1.12.68,1.61,1.13.5.46.9,1.01,1.22,1.65.32.64.48,1.41.48,2.31s-.16,1.63-.49,2.32-.77,1.28-1.34,1.76c-.57.49-1.21.86-1.93,1.12-.72.26-1.47.39-2.25.39-1.06,0-2.05-.23-2.95-.69-.91-.46-1.7-1.06-2.38-1.82-.68-.76-1.24-1.56-1.67-2.42l1.9-1.29c.45.78.92,1.47,1.41,2.07Z"/>
    <path class="st4" d="M363.94,128.15v19.6h-2.38v-19.6h2.38ZM362.87,128.15h9.88v2.24h-9.88v-2.24ZM362.87,135.99h9.32v2.24h-9.32v-2.24ZM362.87,145.51h9.88v2.24h-9.88v-2.24Z"/>
  </g>
  <polyline class="st2" points="151.71 187.81 28.7 187.8 46.7 169.77"/>
  <rect class="st3" x="182.35" y="165.29" width="263.47" height="46.03"/>
  <g>
    <path class="st4" d="M217.76,181.11v13.16c0,1.34.36,2.43,1.09,3.25.73.82,1.79,1.23,3.19,1.23s2.46-.41,3.19-1.23c.73-.82,1.09-1.9,1.09-3.25v-13.16h2.38v13.16c0,.97-.15,1.87-.46,2.69-.31.82-.76,1.53-1.34,2.13-.59.6-1.29,1.06-2.11,1.4s-1.74.5-2.74.5-1.92-.17-2.74-.5-1.53-.8-2.11-1.4c-.59-.6-1.04-1.31-1.34-2.13-.31-.82-.46-1.72-.46-2.69v-13.16h2.38Z"/>
    <path class="st4" d="M235.19,196.84c.49.6,1.05,1.06,1.67,1.4s1.32.5,2.1.5c1.04,0,1.88-.29,2.52-.87.63-.58.95-1.32.95-2.21s-.21-1.58-.62-2.1c-.41-.52-.95-.95-1.61-1.27-.66-.33-1.37-.62-2.11-.88-.49-.17-1.03-.39-1.62-.66-.6-.27-1.17-.62-1.71-1.04-.54-.42-.99-.94-1.33-1.55-.35-.62-.52-1.37-.52-2.27,0-.97.24-1.84.73-2.6s1.16-1.37,2.02-1.81,1.84-.66,2.94-.66,1.99.2,2.79.6c.79.4,1.47.92,2.03,1.54.56.63,1,1.28,1.32,1.97l-2.04,1.18c-.24-.49-.55-.96-.92-1.43-.37-.47-.83-.85-1.36-1.15-.53-.3-1.18-.45-1.95-.45-1.06,0-1.84.26-2.32.77-.49.51-.73,1.09-.73,1.72,0,.54.14,1.04.42,1.5.28.46.75.89,1.41,1.29s1.56.8,2.7,1.19c.52.19,1.07.43,1.65.73.58.3,1.12.68,1.61,1.13.5.46.9,1.01,1.22,1.65.32.64.48,1.41.48,2.31s-.16,1.63-.49,2.32-.77,1.28-1.34,1.76c-.57.49-1.21.86-1.93,1.12-.72.26-1.47.39-2.25.39-1.06,0-2.05-.23-2.95-.69-.91-.46-1.7-1.06-2.38-1.82-.68-.76-1.24-1.56-1.67-2.42l1.9-1.29c.45.78.92,1.47,1.41,2.07Z"/>
    <path class="st4" d="M250.77,181.11v19.6h-2.38v-19.6h2.38ZM249.71,181.11h9.88v2.24h-9.88v-2.24ZM249.71,188.95h9.32v2.24h-9.32v-2.24ZM249.71,198.47h9.88v2.24h-9.88v-2.24Z"/>
    <path class="st4" d="M266.17,181.11v19.6h-2.38v-19.6h2.38ZM265.11,181.11h4c1.27,0,2.4.24,3.4.71,1,.48,1.79,1.15,2.38,2.03.59.88.88,1.92.88,3.14s-.29,2.24-.88,3.12-1.38,1.57-2.38,2.04c-1,.48-2.13.71-3.4.71h-4v-2.1h4c.84,0,1.58-.15,2.23-.45.64-.3,1.15-.73,1.51-1.29.36-.56.55-1.24.55-2.04s-.18-1.48-.55-2.04c-.36-.56-.87-.99-1.51-1.29-.64-.3-1.39-.45-2.23-.45h-4v-2.1ZM269.95,191.05l7,9.66h-2.94l-6.72-9.66h2.66Z"/>
    <path class="st4" d="M290.25,181.11v19.6h-2.38v-19.6h2.38ZM289.19,181.11h8.76v2.24h-8.76v-2.24ZM289.19,188.95h8.48v2.24h-8.48v-2.24Z"/>
    <path class="st4" d="M304.25,181.11v19.6h-2.38v-19.6h2.38ZM303.19,181.11h4c1.27,0,2.4.24,3.4.71,1,.48,1.79,1.15,2.38,2.03.59.88.88,1.92.88,3.14s-.29,2.24-.88,3.12-1.38,1.57-2.38,2.04c-1,.48-2.13.71-3.4.71h-4v-2.1h4c.84,0,1.58-.15,2.23-.45.64-.3,1.15-.73,1.51-1.29.36-.56.55-1.24.55-2.04s-.18-1.48-.55-2.04c-.36-.56-.87-.99-1.51-1.29-.64-.3-1.39-.45-2.23-.45h-4v-2.1ZM308.03,191.05l7,9.66h-2.94l-6.72-9.66h2.66Z"/>
    <path class="st4" d="M319.93,181.11v19.6h-2.38v-19.6h2.38Z"/>
    <path class="st4" d="M326.79,181.11v19.6h-2.38v-19.6h2.38ZM325.73,181.11h9.88v2.24h-9.88v-2.24ZM325.73,188.95h9.32v2.24h-9.32v-2.24ZM325.73,198.47h9.88v2.24h-9.88v-2.24Z"/>
    <path class="st4" d="M357.03,181.11v20.58l-14.84-15.57v14.59h-2.38v-20.58l14.84,15.57v-14.59h2.38Z"/>
    <path class="st4" d="M363.89,181.11v19.6h-2.38v-19.6h2.38ZM362.83,200.71v-2.38h4.56c1.1,0,2.11-.17,3.02-.52.92-.34,1.7-.84,2.35-1.48.65-.64,1.16-1.42,1.51-2.34.35-.92.53-1.94.53-3.08s-.18-2.17-.53-3.08c-.35-.91-.86-1.69-1.51-2.34-.65-.64-1.44-1.14-2.35-1.48-.91-.34-1.92-.52-3.02-.52h-4.56v-2.38h4.56c1.9,0,3.59.41,5.07,1.23,1.47.82,2.63,1.96,3.47,3.43.84,1.47,1.26,3.18,1.26,5.14s-.42,3.67-1.26,5.14c-.84,1.47-2,2.61-3.47,3.43-1.48.82-3.16,1.23-5.07,1.23h-4.56Z"/>
    <path class="st4" d="M382.93,181.11v17.36h7.7v2.24h-10.08v-19.6h2.38Z"/>
    <path class="st4" d="M406.48,181.11l-6.52,11.14v8.46h-2.38v-8.43l-6.52-11.17h2.66l5.04,9.07,5.07-9.07h2.66Z"/>
  </g>
  <rect class="st3" x="167.14" y="216.34" width="293.88" height="46.03"/>
  <g>
    <path class="st4" d="M207.82,232.16v19.6h-2.38v-19.6h2.38ZM218.46,232.16l-8.48,9.18,8.9,10.42h-2.94l-8.85-10.36,8.43-9.24h2.94Z"/>
    <path class="st4" d="M223.5,232.16v13.16c0,1.34.36,2.43,1.09,3.25.73.82,1.79,1.23,3.19,1.23s2.46-.41,3.19-1.23c.73-.82,1.09-1.9,1.09-3.25v-13.16h2.38v13.16c0,.97-.15,1.87-.46,2.69-.31.82-.76,1.53-1.34,2.13-.59.6-1.29,1.06-2.11,1.4s-1.74.5-2.74.5-1.92-.17-2.74-.5-1.53-.8-2.11-1.4c-.59-.6-1.04-1.31-1.34-2.13-.31-.82-.46-1.72-.46-2.69v-13.16h2.38Z"/>
    <path class="st4" d="M240.05,251.76h-2.38l2.38-20.58,7.84,14.2,7.84-14.2,2.38,20.58h-2.38l-1.46-13.24-6.38,11.42-6.38-11.42-1.46,13.24Z"/>
    <path class="st4" d="M261.09,237.97c.49-1.22,1.19-2.29,2.09-3.19.9-.9,1.95-1.61,3.16-2.13,1.21-.51,2.53-.77,3.95-.77s2.76.26,3.96.77c1.2.51,2.25,1.22,3.15,2.13.9.91,1.59,1.97,2.09,3.19s.74,2.55.74,3.99-.25,2.74-.74,3.98c-.49,1.23-1.19,2.3-2.09,3.21-.9.91-1.95,1.62-3.15,2.13-1.2.51-2.53.77-3.96.77s-2.73-.26-3.95-.77c-1.21-.51-2.27-1.22-3.16-2.13-.9-.91-1.59-1.97-2.09-3.21-.5-1.23-.74-2.56-.74-3.98s.25-2.77.74-3.99ZM263.84,245.91c.64,1.16,1.53,2.07,2.65,2.74,1.12.67,2.39,1.01,3.81,1.01s2.71-.34,3.82-1.01c1.11-.67,1.99-1.59,2.63-2.74.64-1.16.97-2.47.97-3.95s-.32-2.79-.97-3.95c-.64-1.16-1.52-2.07-2.63-2.74s-2.38-1.01-3.82-1.01-2.69.34-3.81,1.01-2,1.59-2.65,2.74c-.64,1.16-.97,2.47-.97,3.95s.32,2.79.97,3.95Z"/>
    <path class="st4" d="M300.81,232.16v20.58l-14.84-15.57v14.59h-2.38v-20.58l14.84,15.57v-14.59h2.38Z"/>
    <path class="st4" d="M316.07,232.16v19.6h-2.38v-19.6h2.38Z"/>
    <path class="st4" d="M322.93,232.16v19.6h-2.38v-19.6h2.38ZM321.86,251.76v-2.38h4.56c1.1,0,2.11-.17,3.02-.52.92-.34,1.7-.84,2.35-1.48.65-.64,1.16-1.42,1.51-2.34.35-.92.53-1.94.53-3.08s-.18-2.17-.53-3.08c-.35-.91-.86-1.69-1.51-2.34-.65-.64-1.44-1.14-2.35-1.48-.91-.34-1.92-.52-3.02-.52h-4.56v-2.38h4.56c1.9,0,3.59.41,5.07,1.23,1.47.82,2.63,1.96,3.47,3.43.84,1.47,1.26,3.18,1.26,5.14s-.42,3.67-1.26,5.14c-.84,1.47-2,2.61-3.47,3.43-1.48.82-3.16,1.23-5.07,1.23h-4.56Z"/>
    <path class="st4" d="M341.97,232.16v19.6h-2.38v-19.6h2.38ZM340.9,232.16h9.88v2.24h-9.88v-2.24ZM340.9,240h9.32v2.24h-9.32v-2.24ZM340.9,249.52h9.88v2.24h-9.88v-2.24Z"/>
    <path class="st4" d="M372.21,232.16v20.58l-14.84-15.57v14.59h-2.38v-20.58l14.84,15.57v-14.59h2.38Z"/>
    <path class="st4" d="M374.73,232.16h12.46v2.24h-5.04v17.36h-2.38v-17.36h-5.04v-2.24Z"/>
    <path class="st4" d="M392.09,232.16v19.6h-2.38v-19.6h2.38Z"/>
    <path class="st4" d="M394.61,232.16h12.46v2.24h-5.04v17.36h-2.38v-17.36h-5.04v-2.24Z"/>
    <path class="st4" d="M422.92,232.16l-6.52,11.14v8.46h-2.38v-8.43l-6.52-11.17h2.66l5.04,9.07,5.07-9.07h2.66Z"/>
  </g>
</svg>