<?xml version="1.0" encoding="UTF-8"?>
<svg id="Layer_1" xmlns="http://www.w3.org/2000/svg" xmlns:xlink="http://www.w3.org/1999/xlink" version="1.1" viewBox="0 0 1807.62 868.23">
  <!-- Generator: Adobe Illustrator 29.0.1, SVG Export Plug-In . SVG Version: 2.1.0 Build 192)  -->
  <defs>
    <style>
      .st0 {
        fill: none;
      }

      .st1 {
        fill: #f70;
      }

      .st2 {
        fill: #2aa738;
      }

      .st3 {
        fill: #5ab4e6;
      }

      .st4 {
        fill: #e8aacb;
      }

      .st5 {
        clip-path: url(#clippath-11);
      }

      .st6 {
        clip-path: url(#clippath-10);
      }

      .st7 {
        fill: #45b9a7;
      }

      .st8 {
        clip-path: url(#clippath-1);
      }

      .st9 {
        clip-path: url(#clippath-3);
      }

      .st10 {
        clip-path: url(#clippath-4);
      }

      .st11 {
        clip-path: url(#clippath-2);
      }

      .st12 {
        clip-path: url(#clippath-7);
      }

      .st13 {
        clip-path: url(#clippath-6);
      }

      .st14 {
        clip-path: url(#clippath-9);
      }

      .st15 {
        clip-path: url(#clippath-8);
      }

      .st16 {
        clip-path: url(#clippath-5);
      }

      .st17 {
        fill: #fb5058;
      }

      .st18 {
        fill: #fff;
      }

      .st19 {
        fill: #f60;
      }

      .st20 {
        opacity: .6;
      }

      .st21 {
        opacity: .3;
      }

      .st22 {
        clip-path: url(#clippath);
      }

      .st23 {
        fill: #91c41e;
      }

      .st24 {
        fill: #ffc90e;
      }
    </style>
    <clipPath id="clippath">
      <rect class="st0" x="1286.48" y="21.43" width="502" height="502"/>
    </clipPath>
    <clipPath id="clippath-1">
      <rect class="st0" x="1317.67" y="52.62" width="439.62" height="439.62"/>
    </clipPath>
    <clipPath id="clippath-2">
      <rect class="st0" x="1010.93" y="437.6" width="357.17" height="357.17"/>
    </clipPath>
    <clipPath id="clippath-3">
      <rect class="st0" x="984.63" y="409.75" width="412.87" height="412.87"/>
    </clipPath>
    <clipPath id="clippath-4">
      <rect class="st0" x="954.88" y="378.63" width="472.13" height="472.13"/>
    </clipPath>
    <clipPath id="clippath-5">
      <rect class="st0" x="568.2" y="76.37" width="307.49" height="307.49"/>
    </clipPath>
    <clipPath id="clippath-6">
      <rect class="st0" x="441.6" y="358.95" width="255.21" height="255.21"/>
    </clipPath>
    <clipPath id="clippath-7">
      <rect class="st0" x="303.14" y="169.48" width="209.79" height="209.79"/>
    </clipPath>
    <clipPath id="clippath-8">
      <rect class="st0" x="881.98" y="229.11" width="209.8" height="209.79"/>
    </clipPath>
    <clipPath id="clippath-9">
      <rect class="st0" x="46.64" y="161.83" width="209.79" height="209.79"/>
    </clipPath>
    <clipPath id="clippath-10">
      <rect class="st0" x="720.95" y="417.53" width="209.79" height="209.79"/>
    </clipPath>
    <clipPath id="clippath-11">
      <rect class="st0" x="1461.38" y="523.43" width="250.16" height="250.17"/>
    </clipPath>
  </defs>
  <g class="st21">
    <g class="st22">
      <path class="st23" d="M1537.48,522.43c138.07,0,250-111.93,250-250s-111.93-250-250-250-250,111.93-250,250,111.93,250,250,250"/>
    </g>
  </g>
  <g class="st20">
    <g class="st8">
      <path class="st23" d="M1537.48,491.24c120.84,0,218.81-97.96,218.81-218.81s-97.96-218.81-218.81-218.81-218.81,97.97-218.81,218.81,97.96,218.81,218.81,218.81"/>
    </g>
  </g>
  <path class="st23" d="M1537.48,467.96c107.99,0,195.53-87.54,195.53-195.53s-87.54-195.53-195.53-195.53-195.53,87.54-195.53,195.53,87.54,195.53,195.53,195.53"/>
  <g>
    <path class="st18" d="M1462.76,261.94v-5.42h30.8v5.42h-30.8ZM1478.3,281.72c-7.27,0-12.75-3.75-12.75-9.23s5.42-9.17,12.75-9.17,12.57,3.69,12.57,9.17-5.36,9.23-12.57,9.23ZM1504.69,284.04v16.98h-6.97v-11.44h-28v-5.54h34.97ZM1470.44,248.78h15.73v5.42h-15.73v-5.42ZM1478.3,276.42c3.1,0,5.72-1.61,5.72-3.93s-2.62-3.87-5.72-3.87-5.78,1.55-5.78,3.87,2.62,3.93,5.78,3.93ZM1504.69,268.62v12.87h-7.03v-33.6h7.03v15.13h7.45v5.6h-7.45Z"/>
    <path class="st18" d="M1533.94,301.02v-17.45h-20.37v-5.54h47.95v5.54h-20.61v17.45h-6.97ZM1519.34,272.67v-22.28h6.91v6.02h22.46v-6.08h7.03v22.34h-36.4ZM1548.71,261.82h-22.46v5.3h22.46v-5.3Z"/>
    <path class="st18" d="M1563.96,294.29v-5.54h20.37v-11.26h-14.59v-25.44h36.46v25.44h-14.89v11.26h20.61v5.54h-47.95ZM1599.22,257.54h-22.58v14.42h22.58v-14.42Z"/>
  </g>
  <path class="st24" d="M248.72,757.05c98.57,0,178.47-80.09,178.47-178.89s-79.91-178.88-178.47-178.88-178.47,80.09-178.47,178.88,79.9,178.89,178.47,178.89"/>
  <g class="st20">
    <path class="st24" d="M248.72,784.02c113.43,0,205.39-92.17,205.39-205.86s-91.96-205.86-205.39-205.86-205.39,92.17-205.39,205.86,91.96,205.86,205.39,205.86"/>
  </g>
  <g class="st21">
    <path class="st24" d="M248.72,808.23c126.77,0,229.54-103.01,229.54-230.07s-102.77-230.07-229.54-230.07S19.18,451.09,19.18,578.16s102.77,230.07,229.54,230.07"/>
  </g>
  <g>
    <path class="st18" d="M197.54,573.68v-5.43h30.88v5.43h-30.88ZM213.13,593.51c-7.29,0-12.78-3.76-12.78-9.26s5.43-9.2,12.78-9.2,12.6,3.7,12.6,9.2-5.38,9.26-12.6,9.26ZM239.59,595.84v17.02h-6.99v-11.47h-28.07v-5.55h35.06ZM205.25,560.49h15.77v5.44h-15.77v-5.44ZM213.13,588.2c3.11,0,5.73-1.61,5.73-3.94s-2.63-3.88-5.73-3.88-5.79,1.55-5.79,3.88,2.63,3.94,5.79,3.94ZM239.59,580.37v12.9h-7.05v-33.68h7.05v15.17h7.47v5.61h-7.47Z"/>
    <path class="st18" d="M271.72,588.44c-3.52-1.55-8.24-5.85-9.62-9.26-1.49,4.12-5.67,8.84-10.27,10.93l-3.82-4.96c6.45-3.58,10.51-9.44,10.51-16.96v-5.26h6.75v5.08c0,7.41,4.48,12.6,9.97,15.17l-3.52,5.26ZM275.6,612.8c-11.53,0-18.51-4.24-18.51-10.75s6.99-10.75,18.51-10.75,18.57,4.18,18.57,10.75-6.99,10.75-18.57,10.75ZM275.6,596.92c-6.93,0-11.29,1.97-11.29,5.14s4.36,5.14,11.29,5.14,11.47-1.91,11.47-5.14-4.42-5.14-11.47-5.14ZM287.13,591.54v-13.2h-4.36v11.11h-6.45v-28.91h6.45v12.18h4.36v-13.14h6.63v31.95h-6.63Z"/>
  </g>
  <g class="st11">
    <path class="st3" d="M1189.51,793.52c97.94,0,177.34-79.4,177.34-177.34s-79.4-177.34-177.34-177.34-177.34,79.4-177.34,177.34,79.4,177.34,177.34,177.34"/>
  </g>
  <g class="st20">
    <g class="st9">
      <path class="st3" d="M1191.07,821.18c113.22,0,205-91.78,205-205s-91.78-205-205-205-205,91.78-205,205,91.78,205,205,205"/>
    </g>
  </g>
  <g class="st21">
    <g class="st10">
      <path class="st3" d="M1190.94,849.11c129.47,0,234.42-104.95,234.42-234.42s-104.95-234.42-234.42-234.42-234.42,104.95-234.42,234.42,104.95,234.42,234.42,234.42"/>
    </g>
  </g>
  <g>
    <path class="st18" d="M1081.73,620.97c-4.34-1.75-10.29-6.34-12.82-11.72-1.75,5.89-8.03,11.33-13.4,13.14l-4.53-6.02c8.35-3.04,13.92-9.77,13.92-18.51v-5.7h7.83v5.31c0,8.93,6.6,15.41,13.33,17.61l-4.34,5.89ZM1079.78,647.12c-12.43,0-19.61-4.6-19.61-11.59s7.18-11.72,19.61-11.72,19.87,4.53,19.87,11.72-7.25,11.59-19.87,11.59ZM1067.94,635.53c0,3.43,4.4,5.5,11.84,5.5s12.04-2.07,12.04-5.5-4.27-5.63-12.04-5.63-11.84,2.14-11.84,5.63ZM1091.69,623.17v-15.66h-9.84v-6.02h9.84v-11.97h7.57v33.66h-7.57Z"/>
    <path class="st18" d="M1123.73,593.78c9.51,0,15.6,6.08,15.6,14.24s-6.08,14.18-15.6,14.18-15.6-5.89-15.6-14.18,6.15-14.24,15.6-14.24ZM1115.25,645.63v-18.45h7.64v12.49h32.36v5.95h-40ZM1123.73,615.99c4.98,0,7.9-3.37,7.9-7.96s-2.91-7.77-7.9-7.77-7.83,3.37-7.83,7.77,2.98,7.96,7.83,7.96ZM1146.45,631.33v-41.81h7.51v41.81h-7.51Z"/>
    <path class="st18" d="M1160.62,604.79v-5.89h33.46v5.89h-33.46ZM1177.52,626.28c-7.9,0-13.85-4.08-13.85-10.03s5.89-9.97,13.85-9.97,13.66,4.01,13.66,9.97-5.83,10.03-13.66,10.03ZM1206.19,628.8v18.45h-7.57v-12.43h-30.42v-6.02h38ZM1168.97,590.48h17.09v5.89h-17.09v-5.89ZM1177.52,620.52c3.37,0,6.21-1.75,6.21-4.27s-2.85-4.21-6.21-4.21-6.28,1.68-6.28,4.21,2.85,4.27,6.28,4.27ZM1206.19,612.04v13.98h-7.64v-36.51h7.64v16.44h8.09v6.08h-8.09Z"/>
    <path class="st18" d="M1215.83,621.29v-6.02h52.11v6.02h-52.11ZM1221.27,612.17l-3.17-5.89c9.64-.97,19.94-5.95,19.94-14.63v-1.55h7.83v1.55c0,8.67,11.72,14.24,20,14.63l-3.24,5.96c-7.7-1.1-17.8-5.44-20.71-12.17-2.91,6.73-12.3,11-20.65,12.1ZM1222.5,646.47v-22.07h7.51v5.5h23.75v-5.63h7.51v22.2h-38.77ZM1253.76,635.6h-23.75v4.85h23.75v-4.85Z"/>
    <path class="st18" d="M1302.43,633.79c-5.31-2.65-12.17-10.1-13.85-15.66-1.42,5.89-7.25,13.59-13.98,16.89l-4.66-5.63c9.58-5.24,14.63-14.11,14.63-26.21v-1.55h-11.65v-6.21h30.75v6.21h-11.26v1.49c0,12.17,5.57,20.39,14.24,25.18l-4.21,5.5ZM1316.93,611.71h8.22v6.28h-8.22v29.19h-7.57v-57.67h7.57v22.2Z"/>
  </g>
  <g class="st16">
    <path class="st17" d="M721.95,382.86c84.36,0,152.75-68.39,152.75-152.75s-68.39-152.74-152.75-152.74-152.75,68.39-152.75,152.74,68.39,152.75,152.75,152.75"/>
  </g>
  <g>
    <path class="st18" d="M681.19,235.83c-3.54-1.3-8.38-5.46-10.41-9.78-1.4,4.73-6.4,9.57-10.77,11.03l-3.59-4.84c6.76-2.5,11.13-8.53,11.13-15.45v-5.46h6.35v5.15c0,7.08,5.31,12.85,10.72,14.62-1.14,1.61-2.34,3.17-3.43,4.73ZM664.85,253.79v-14.57h6.04v9.73h25.5v4.84h-31.53ZM689.3,242.29v-18.06h-7.96v-4.89h7.96v-10.67h6.09v33.61h-6.09Z"/>
    <path class="st18" d="M721.3,233.81c-3.07-1.35-7.18-5.1-8.38-8.06-1.3,3.59-4.94,7.7-8.95,9.52l-3.33-4.32c5.62-3.12,9.16-8.22,9.16-14.78v-4.58h5.88v4.42c0,6.45,3.9,10.98,8.69,13.22l-3.07,4.58ZM724.68,255.03c-10.04,0-16.13-3.69-16.13-9.37s6.09-9.37,16.13-9.37,16.18,3.64,16.18,9.37-6.09,9.37-16.18,9.37ZM724.68,241.19c-6.04,0-9.83,1.72-9.83,4.47s3.8,4.48,9.83,4.48,9.99-1.67,9.99-4.48-3.85-4.47-9.99-4.47ZM734.72,236.51v-11.5h-3.8v9.68h-5.62v-25.18h5.62v10.61h3.8v-11.45h5.78v27.84h-5.78Z"/>
    <path class="st18" d="M773.69,229.95c-5.93,1.46-15.82,2.03-21.49,2.03h-4.58v-20.6h6.04v15.4c6.45,0,13.68-.47,19.36-1.77l.68,4.94ZM752.93,254.46v-17.69h30.44v17.69h-30.44ZM777.28,241.45h-18.21v8.22h18.21v-8.22ZM783.37,208.67v25.6h-6.09v-25.6h6.09Z"/>
  </g>
  <g class="st13">
    <path class="st4" d="M569.2,613.16c69.92,0,126.61-56.68,126.61-126.61s-56.68-126.61-126.61-126.61-126.61,56.68-126.61,126.61,56.68,126.61,126.61,126.61"/>
  </g>
  <g>
    <path class="st18" d="M514.45,500.83c-3.88-1.94-8.89-7.38-10.12-11.45-1.04,4.3-5.3,9.93-10.22,12.35l-3.41-4.12c7-3.83,10.69-10.31,10.69-19.16v-1.13h-8.51v-4.54h22.47v4.54h-8.23v1.09c0,8.89,4.07,14.9,10.41,18.4l-3.07,4.02ZM525.05,484.7h6.01v4.59h-6.01v21.33h-5.53v-42.15h5.53v16.22Z"/>
    <path class="st18" d="M535.17,503l-3.41-4.16c9.22-4.21,15.52-13.01,16.27-21.38h-13.72v-4.59h19.68c-.33,12.72-5.96,23.13-18.83,30.13ZM561.42,510.62v-42.15h5.53v42.15h-5.53Z"/>
    <path class="st18" d="M574.67,502.39l-3.59-3.83c8.14-4.92,12.58-12.3,13.24-20.67h-10.6v-4.45h15.94c.05,12.58-4.73,22.18-15,28.95ZM594.39,508.68v-14.19h-5.35v-4.49h5.35v-5.96h-4.3v-4.49h4.3v-10.26h5.16v39.4h-5.16ZM602.72,510.62v-42.15h5.25v42.15h-5.25Z"/>
    <path class="st18" d="M613.22,488.34v-18.26h5.44v5.3h8.94v-5.39h5.53v18.35h-19.91ZM617.57,510.29v-11.16h21.9v-2.7h-22.23v-4.4h27.86v11.16h-22.04v2.65h23.23v4.45h-28.71ZM627.6,479.73h-8.94v4.3h8.94v-4.3ZM645.1,481.67v8.18h-5.63v-21.38h5.63v8.66h5.91v4.54h-5.91Z"/>
  </g>
  <g class="st12">
    <path class="st1" d="M408.04,378.27c57.38,0,103.9-46.52,103.9-103.9s-46.52-103.9-103.9-103.9-103.9,46.52-103.9,103.9,46.52,103.9,103.9,103.9"/>
  </g>
  <g>
    <path class="st18" d="M342.6,267.51v-3.55h20.17v3.55h-20.17ZM352.78,280.46c-4.76,0-8.35-2.46-8.35-6.05s3.55-6.01,8.35-6.01,8.23,2.42,8.23,6.01-3.51,6.05-8.23,6.05ZM370.07,281.99v11.12h-4.56v-7.49h-18.34v-3.63h22.9ZM347.63,258.89h10.3v3.55h-10.3v-3.55ZM352.78,276.99c2.03,0,3.75-1.05,3.75-2.58s-1.72-2.54-3.75-2.54-3.78,1.01-3.78,2.54,1.72,2.58,3.78,2.58ZM370.07,271.88v8.43h-4.6v-22.01h4.6v9.91h4.88v3.67h-4.88Z"/>
    <path class="st18" d="M375.88,277.46v-3.63h31.41v3.63h-31.41ZM379.16,271.96l-1.91-3.55c5.81-.59,12.02-3.59,12.02-8.82v-.94h4.72v.94c0,5.23,7.06,8.58,12.06,8.82l-1.95,3.59c-4.64-.66-10.73-3.28-12.49-7.33-1.76,4.06-7.41,6.63-12.45,7.3ZM379.9,292.64v-13.3h4.53v3.32h14.32v-3.39h4.53v13.38h-23.37ZM398.75,286.08h-14.32v2.93h14.32v-2.93Z"/>
    <path class="st18" d="M411,286.28l-2.97-3.16c6.71-4.06,10.38-10.14,10.92-17.05h-8.74v-3.67h13.15c.04,10.38-3.9,18.3-12.37,23.88ZM427.27,291.47v-11.7h-4.41v-3.71h4.41v-4.92h-3.55v-3.71h3.55v-8.47h4.25v32.5h-4.25ZM434.14,293.07v-34.76h4.33v34.76h-4.33Z"/>
    <path class="st18" d="M455.64,276.99v1.56c3.24-.19,6.28-.47,8.86-.78l.35,3.43c-6.36.86-16.04,1.29-22.51,1.29-.16-1.21-.39-2.46-.58-3.67,3.08,0,6.28-.04,9.32-.12v-1.76c-3.51-.47-5.89-2.03-5.89-4.45,0-3,3.43-4.76,8.19-4.76s8.27,1.76,8.27,4.76c0,2.42-2.46,4.02-6.01,4.49ZM443.74,267v-3.43h19.55v3.43h-19.55ZM470.82,284.02v9.13h-4.6v-5.62h-19.63v-3.51h24.23ZM448.58,259.01h9.83v3.36h-9.83v-3.36ZM453.38,270.79c-2.42,0-3.75.7-3.75,1.72,0,.94,1.33,1.6,3.75,1.6s3.75-.66,3.75-1.6c0-1.01-1.29-1.72-3.75-1.72ZM470.82,282.45h-4.56v-24.15h4.56v24.15Z"/>
  </g>
  <g class="st15">
    <path class="st2" d="M986.87,437.9c57.38,0,103.9-46.52,103.9-103.9s-46.52-103.9-103.9-103.9-103.9,46.52-103.9,103.9,46.52,103.9,103.9,103.9"/>
  </g>
  <g>
    <path class="st18" d="M914.1,335.24v-13.69h14.71v13.69h-14.71ZM938.22,338.48v3.27h-8.31c.6,3.31,5.42,6.16,9.82,6.16l-1.94,3.2c-4.22-.39-8.94-3.45-10.14-5.63-1.13,2.22-5.67,5.25-10.1,5.6l-1.97-3.2c4.47,0,9.33-2.71,10-6.12h-8.31v-3.27h20.94ZM924.73,324.71h-6.55v7.32h6.55v-7.32ZM937.72,330.17v6.79h-4.15v-17.46h4.15v7.29h4.47v3.38h-4.47Z"/>
    <path class="st18" d="M959.16,339.01v1.97h8.8v9.5h-21.54v-9.5h8.62v-1.97h-12.04v-3.24h28.34v3.24h-12.18ZM968.27,334.75c-4.58-.32-9.26-2.36-11.12-4.79-1.76,2.53-6.09,4.47-11.09,4.68l-1.65-3.34c5.03.04,9.15-1.65,10.35-3.77h-8.94v-3.17h22.71v3.17h-8.83c1.27,2.15,5.56,3.84,10.17,3.84l-1.58,3.38ZM963.8,344.01h-13.31v3.34h13.31v-3.34ZM951.94,319.96h10.42v3.17h-10.42v-3.17Z"/>
    <path class="st18" d="M973.09,328.45v-3.2h16.47v3.2h-16.47ZM981.58,339.75c-4.29,0-7.46-2.08-7.46-5.21s3.13-5.21,7.46-5.21,7.46,2.11,7.46,5.21-3.17,5.21-7.46,5.21ZM977.21,320.7h8.8v3.2h-8.8v-3.2ZM988.09,351.05c-6.72,0-10.81-2.01-10.81-5.49s4.08-5.46,10.81-5.46,10.91,2.04,10.91,5.46-4.08,5.49-10.91,5.49ZM981.58,336.72c1.87,0,3.42-.92,3.42-2.18s-1.55-2.22-3.42-2.22-3.41.95-3.41,2.22,1.55,2.18,3.41,2.18ZM981.54,345.55c0,1.37,2.43,2.32,6.55,2.32s6.58-.95,6.58-2.32-2.32-2.25-6.58-2.25-6.55.95-6.55,2.25ZM994.6,340.03v-3.87h-4.12v-3.17h4.12v-2.78h-4.08v-3.13h4.08v-7.57h4.12v20.52h-4.12Z"/>
    <path class="st18" d="M1003.64,321.72h16.51v3.38h-5.95c.32,4.36,3.49,7.29,6.9,8.41-.7,1.09-1.48,2.15-2.22,3.24-2.39-.92-5.46-3.27-6.79-6.12-.95,3.03-4.26,5.98-7.29,7.04-.84-1.09-1.62-2.15-2.46-3.2,4.4-1.58,7.29-4.89,7.53-9.36h-6.23v-3.38ZM1017.73,350.8c-6.94,0-10.98-2.39-10.98-6.2s4.05-6.3,10.98-6.3,10.98,2.39,10.98,6.3-4.05,6.2-10.98,6.2ZM1010.97,344.6c0,1.83,2.5,2.92,6.76,2.92s6.79-1.09,6.79-2.92-2.46-2.99-6.79-2.99-6.76,1.09-6.76,2.99ZM1019.66,327h4.72v-7.5h4.12v18.66h-4.12v-7.85h-4.72v-3.31Z"/>
    <path class="st18" d="M1032.33,346.96v-3.27h12.04v-6.09h-8.62v-15.95h4.08v4.86h13.34v-4.93h4.12v16.02h-8.8v6.09h12.18v3.27h-28.34ZM1053.17,329.68h-13.34v4.65h13.34v-4.65Z"/>
  </g>
  <g class="st14">
    <path class="st7" d="M151.53,370.62c57.38,0,103.9-46.52,103.9-103.9s-46.52-103.9-103.9-103.9-103.9,46.52-103.9,103.9,46.52,103.9,103.9,103.9"/>
  </g>
  <g>
    <path class="st18" d="M116.6,254.37c5.14,0,8.13,4.61,8.13,11.23s-2.99,11.16-8.13,11.16-8.1-4.58-8.1-11.16,2.99-11.23,8.1-11.23ZM116.6,257.68c-2.36,0-4.08,2.96-4.08,7.92s1.72,7.85,4.08,7.85,4.19-2.92,4.19-7.85-1.76-7.92-4.19-7.92ZM129.45,283.59v-31.36h4.08v31.36h-4.08Z"/>
    <path class="st18" d="M138.49,269.93v-15.31h4.15v4.61h4.44v-4.68h4.12v5.81h2.82v-7.57h3.91v21.83h-3.91v-10.91h-2.82v6.23h-12.71ZM147.08,262.4h-4.44v4.29h4.44v-4.29ZM142.68,282.81v-10.07h4.08v6.79h18.06v3.27h-22.14ZM160.14,275.46v-23.23h3.91v23.23h-3.91Z"/>
    <path class="st18" d="M195.52,279.64h-28.34v-3.24h28.34v3.24ZM174.89,264.68v3.41h17.39v3.24h-21.47v-16.65h21.16v3.24h-17.07v3.52h16.33v3.24h-16.33Z"/>
  </g>
  <g class="st6">
    <path class="st7" d="M825.85,626.32c57.38,0,103.9-46.52,103.9-103.89s-46.52-103.9-103.9-103.9-103.9,46.52-103.9,103.9,46.52,103.89,103.9,103.89"/>
  </g>
  <g>
    <path class="st18" d="M772,538.1v-4.01h34.75v4.01h-34.75ZM803.47,526.27c-5.27-1.21-11.91-5.22-14.12-10.27-1.99,5.18-8.85,9.28-14.16,10.45l-2.37-4.1c6.3-.91,13.94-6,13.94-12.82v-2.55h5.27v2.55c0,6.78,8.12,11.83,13.99,12.82l-2.55,3.93Z"/>
    <path class="st18" d="M827.73,533.17h-18.26v-24.99h18.26v24.99ZM822.67,512.24h-8.2v16.92h8.2v-16.92ZM838.6,519.41h5.22v4.19h-5.22v19.51h-5.14v-38.46h5.14v14.76Z"/>
    <path class="st18" d="M879.78,538.27h-34.75v-3.97h34.75v3.97ZM854.48,519.92v4.19h21.32v3.97h-26.33v-20.42h25.94v3.97h-20.94v4.32h20.03v3.97h-20.03Z"/>
  </g>
  <g class="st5">
    <path class="st19" d="M1586.47,772.6c68.53,0,124.08-55.55,124.08-124.08s-55.55-124.08-124.08-124.08-124.08,55.55-124.08,124.08,55.55,124.08,124.08,124.08"/>
  </g>
  <g>
    <path class="st18" d="M1514.09,640.91v-3.93h22.32v3.93h-22.32ZM1525.35,655.24c-5.27,0-9.24-2.72-9.24-6.69s3.93-6.65,9.24-6.65,9.11,2.68,9.11,6.65-3.89,6.69-9.11,6.69ZM1544.47,656.93v12.3h-5.05v-8.29h-20.29v-4.01h25.34ZM1519.65,631.37h11.4v3.93h-11.4v-3.93ZM1525.35,651.4c2.24,0,4.14-1.17,4.14-2.85s-1.9-2.81-4.14-2.81-4.19,1.12-4.19,2.81,1.9,2.85,4.19,2.85ZM1544.47,645.75v9.32h-5.09v-24.35h5.09v10.96h5.4v4.06h-5.4Z"/>
    <path class="st18" d="M1550.9,651.92v-4.01h34.75v4.01h-34.75ZM1554.53,645.83l-2.12-3.93c6.43-.65,13.3-3.97,13.3-9.76v-1.04h5.22v1.04c0,5.78,7.81,9.5,13.34,9.76l-2.16,3.97c-5.14-.73-11.87-3.63-13.81-8.12-1.94,4.49-8.2,7.34-13.77,8.07ZM1555.35,668.71v-14.72h5.01v3.67h15.84v-3.76h5.01v14.81h-25.86ZM1576.2,661.46h-15.84v3.24h15.84v-3.24Z"/>
    <path class="st18" d="M1607.23,645.19v3.76h14.94v4.06h-34.75v-4.06h14.76v-3.76h-10.14v-13.47h25.51v13.47h-10.32ZM1617.68,656.11v13.12h-5.01v-9.11h-21.15v-4.01h26.16ZM1612.41,635.6h-15.32v5.7h15.32v-5.7Z"/>
    <path class="st18" d="M1623.93,664.35v-3.97h8.5v-7.42h5.05v7.42h7.51v-7.42h5.01v7.42h8.68v3.97h-34.75ZM1627.04,637.59v-4.01h28.36v4.01h-28.36ZM1627.12,651.14v-4.01h5.31l-.73-7.25,5.05-.52.43,7.77h8.38l1.04-7.68,4.88.73-1.21,6.95h5.05v4.01h-28.19Z"/>
  </g>
  <path class="st4" d="M1182.59,323.84c57.38,0,103.9-46.52,103.9-103.9s-46.52-103.9-103.9-103.9-103.9,46.52-103.9,103.9,46.52,103.9,103.9,103.9"/>
  <g>
    <path class="st18" d="M1104.34,213.39v-3.39h19.26v3.39h-19.26ZM1114.07,225.76c-4.55,0-7.97-2.35-7.97-5.78s3.39-5.74,7.97-5.74,7.86,2.31,7.86,5.74-3.35,5.78-7.86,5.78ZM1130.58,227.22v10.62h-4.36v-7.15h-17.51v-3.47h21.87ZM1109.15,205.16h9.84v3.39h-9.84v-3.39ZM1114.07,222.45c1.94,0,3.58-1.01,3.58-2.46s-1.64-2.42-3.58-2.42-3.61.97-3.61,2.42,1.64,2.46,3.61,2.46ZM1130.58,217.57v8.05h-4.4v-21.02h4.4v9.46h4.66v3.5h-4.66Z"/>
    <path class="st18" d="M1136.13,222.89v-3.47h30v3.47h-30ZM1139.26,217.64l-1.83-3.39c5.55-.56,11.48-3.43,11.48-8.42v-.89h4.51v.89c0,4.99,6.74,8.2,11.51,8.42l-1.86,3.43c-4.43-.63-10.25-3.13-11.92-7.01-1.68,3.88-7.08,6.33-11.89,6.97ZM1139.97,237.39v-12.71h4.32v3.17h13.67v-3.24h4.32v12.78h-22.32ZM1157.97,231.13h-13.67v2.79h13.67v-2.79Z"/>
    <path class="st18" d="M1182.31,225.76l.52,3.35c-2.5.63-7.19.86-11.03.86h-3.17v-21.43h12.56v3.43h-8.2v14.57c4.06,0,7.12-.26,9.32-.78ZM1179.36,220.17v-3.47h5.7v-11.51h4.06v31.08h-4.06v-16.1h-5.7ZM1191.73,237.8v-33.2h4.17v33.2h-4.17Z"/>
    <path class="st18" d="M1208.69,206.87c5.44,0,8.61,4.88,8.61,11.89s-3.17,11.81-8.61,11.81-8.57-4.84-8.57-11.81,3.17-11.89,8.57-11.89ZM1208.69,210.37c-2.5,0-4.32,3.13-4.32,8.38s1.83,8.31,4.32,8.31,4.43-3.09,4.43-8.31-1.86-8.38-4.43-8.38ZM1222.29,237.8v-33.2h4.32v33.2h-4.32Z"/>
    <path class="st18" d="M1249.16,225.95l.48,3.32c-3.43.78-9.17,1.16-14.46,1.12l-3.17-.04v-22.88h15.24v3.47h-10.96v5.63h9.54v3.47h-9.54v6.82c3.95.07,9.09.04,12.86-.89ZM1253.82,237.8v-17.62h-5.55v-3.73h5.55v-11.85h4.32v33.2h-4.32Z"/>
  </g>
</svg>