<svg width="1808" height="869" viewBox="0 0 1808 869" fill="none" xmlns="http://www.w3.org/2000/svg">
<g opacity="0.3">
<mask id="mask0_4999_2664" style="mask-type:luminance" maskUnits="userSpaceOnUse" x="1286" y="21" width="503" height="503">
<path d="M1788.48 21.4302H1286.48V523.43H1788.48V21.4302Z" fill="white"/>
</mask>
<g mask="url(#mask0_4999_2664)">
<path d="M1537.48 522.43C1675.55 522.43 1787.48 410.5 1787.48 272.43C1787.48 134.36 1675.55 22.4302 1537.48 22.4302C1399.41 22.4302 1287.48 134.36 1287.48 272.43C1287.48 410.5 1399.41 522.43 1537.48 522.43Z" fill="#91C41E"/>
</g>
</g>
<g opacity="0.6">
<mask id="mask1_4999_2664" style="mask-type:luminance" maskUnits="userSpaceOnUse" x="1317" y="52" width="441" height="441">
<path d="M1757.29 52.6201H1317.67V492.24H1757.29V52.6201Z" fill="white"/>
</mask>
<g mask="url(#mask1_4999_2664)">
<path d="M1537.48 491.24C1658.32 491.24 1756.29 393.28 1756.29 272.43C1756.29 151.58 1658.33 53.6201 1537.48 53.6201C1416.63 53.6201 1318.67 151.59 1318.67 272.43C1318.67 393.27 1416.63 491.24 1537.48 491.24Z" fill="#91C41E"/>
</g>
</g>
<path d="M1537.48 467.96C1645.47 467.96 1733.01 380.42 1733.01 272.43C1733.01 164.44 1645.47 76.8999 1537.48 76.8999C1429.49 76.8999 1341.95 164.44 1341.95 272.43C1341.95 380.42 1429.49 467.96 1537.48 467.96Z" fill="#91C41E"/>
<path d="M248.72 757.05C347.29 757.05 427.19 676.96 427.19 578.16C427.19 479.36 347.28 399.28 248.72 399.28C150.16 399.28 70.25 479.37 70.25 578.16C70.25 676.95 150.15 757.05 248.72 757.05Z" fill="#FFC90E"/>
<g opacity="0.6">
<path d="M248.72 784.02C362.15 784.02 454.11 691.85 454.11 578.16C454.11 464.47 362.15 372.3 248.72 372.3C135.29 372.3 43.3301 464.47 43.3301 578.16C43.3301 691.85 135.29 784.02 248.72 784.02Z" fill="#FFC90E"/>
</g>
<g opacity="0.3">
<path d="M248.72 808.23C375.49 808.23 478.26 705.22 478.26 578.16C478.26 451.1 375.49 348.09 248.72 348.09C121.95 348.09 19.1797 451.09 19.1797 578.16C19.1797 705.23 121.95 808.23 248.72 808.23Z" fill="#FFC90E"/>
</g>
<mask id="mask2_4999_2664" style="mask-type:luminance" maskUnits="userSpaceOnUse" x="1010" y="437" width="359" height="358">
<path d="M1368.1 437.6H1010.93V794.77H1368.1V437.6Z" fill="white"/>
</mask>
<g mask="url(#mask2_4999_2664)">
<path d="M1189.51 793.52C1287.45 793.52 1366.85 714.12 1366.85 616.18C1366.85 518.24 1287.45 438.84 1189.51 438.84C1091.57 438.84 1012.17 518.24 1012.17 616.18C1012.17 714.12 1091.57 793.52 1189.51 793.52Z" fill="#5AB4E6"/>
</g>
<g opacity="0.6">
<mask id="mask3_4999_2664" style="mask-type:luminance" maskUnits="userSpaceOnUse" x="984" y="409" width="414" height="414">
<path d="M1397.5 409.75H984.631V822.62H1397.5V409.75Z" fill="white"/>
</mask>
<g mask="url(#mask3_4999_2664)">
<path d="M1191.07 821.18C1304.29 821.18 1396.07 729.4 1396.07 616.18C1396.07 502.96 1304.29 411.18 1191.07 411.18C1077.85 411.18 986.07 502.96 986.07 616.18C986.07 729.4 1077.85 821.18 1191.07 821.18Z" fill="#5AB4E6"/>
</g>
</g>
<g opacity="0.3">
<mask id="mask4_4999_2664" style="mask-type:luminance" maskUnits="userSpaceOnUse" x="954" y="378" width="474" height="473">
<path d="M1427.01 378.63H954.881V850.76H1427.01V378.63Z" fill="white"/>
</mask>
<g mask="url(#mask4_4999_2664)">
<path d="M1190.94 849.11C1320.41 849.11 1425.36 744.16 1425.36 614.69C1425.36 485.22 1320.41 380.27 1190.94 380.27C1061.47 380.27 956.521 485.22 956.521 614.69C956.521 744.16 1061.47 849.11 1190.94 849.11Z" fill="#5AB4E6"/>
</g>
</g>
<mask id="mask5_4999_2664" style="mask-type:luminance" maskUnits="userSpaceOnUse" x="568" y="76" width="308" height="308">
<path d="M875.689 76.3701H568.199V383.86H875.689V76.3701Z" fill="white"/>
</mask>
<g mask="url(#mask5_4999_2664)">
<path d="M721.949 382.86C806.309 382.86 874.699 314.47 874.699 230.11C874.699 145.75 806.309 77.3701 721.949 77.3701C637.589 77.3701 569.199 145.76 569.199 230.11C569.199 314.46 637.589 382.86 721.949 382.86Z" fill="#FB5058"/>
</g>
<mask id="mask6_4999_2664" style="mask-type:luminance" maskUnits="userSpaceOnUse" x="441" y="358" width="256" height="257">
<path d="M696.81 358.95H441.6V614.16H696.81V358.95Z" fill="white"/>
</mask>
<g mask="url(#mask6_4999_2664)">
<path d="M569.2 613.16C639.12 613.16 695.81 556.48 695.81 486.55C695.81 416.62 639.13 359.94 569.2 359.94C499.27 359.94 442.59 416.62 442.59 486.55C442.59 556.48 499.27 613.16 569.2 613.16Z" fill="#E8AACB"/>
</g>
<mask id="mask7_4999_2664" style="mask-type:luminance" maskUnits="userSpaceOnUse" x="303" y="169" width="210" height="211">
<path d="M512.931 169.48H303.141V379.27H512.931V169.48Z" fill="white"/>
</mask>
<g mask="url(#mask7_4999_2664)">
<path d="M408.041 378.27C465.421 378.27 511.941 331.75 511.941 274.37C511.941 216.99 465.421 170.47 408.041 170.47C350.661 170.47 304.141 216.99 304.141 274.37C304.141 331.75 350.661 378.27 408.041 378.27Z" fill="#FF7700"/>
</g>
<mask id="mask8_4999_2664" style="mask-type:luminance" maskUnits="userSpaceOnUse" x="881" y="229" width="211" height="210">
<path d="M1091.78 229.11H881.98V438.9H1091.78V229.11Z" fill="white"/>
</mask>
<g mask="url(#mask8_4999_2664)">
<path d="M986.871 437.901C1044.25 437.901 1090.77 391.381 1090.77 334.001C1090.77 276.621 1044.25 230.101 986.871 230.101C929.491 230.101 882.971 276.621 882.971 334.001C882.971 391.381 929.491 437.901 986.871 437.901Z" fill="#2AA738"/>
</g>
<mask id="mask9_4999_2664" style="mask-type:luminance" maskUnits="userSpaceOnUse" x="46" y="161" width="211" height="211">
<path d="M256.431 161.83H46.6406V371.62H256.431V161.83Z" fill="white"/>
</mask>
<g mask="url(#mask9_4999_2664)">
<path d="M151.531 370.62C208.911 370.62 255.431 324.1 255.431 266.72C255.431 209.34 208.911 162.82 151.531 162.82C94.1509 162.82 47.6309 209.34 47.6309 266.72C47.6309 324.1 94.1509 370.62 151.531 370.62Z" fill="#45B9A7"/>
</g>
<mask id="mask10_4999_2664" style="mask-type:luminance" maskUnits="userSpaceOnUse" x="720" y="417" width="211" height="211">
<path d="M930.739 417.53H720.949V627.32H930.739V417.53Z" fill="white"/>
</mask>
<g mask="url(#mask10_4999_2664)">
<path d="M825.849 626.32C883.229 626.32 929.749 579.8 929.749 522.43C929.749 465.06 883.229 418.53 825.849 418.53C768.469 418.53 721.949 465.05 721.949 522.43C721.949 579.81 768.469 626.32 825.849 626.32Z" fill="#45B9A7"/>
</g>
<mask id="mask11_4999_2664" style="mask-type:luminance" maskUnits="userSpaceOnUse" x="1461" y="523" width="251" height="251">
<path d="M1711.54 523.43H1461.38V773.6H1711.54V523.43Z" fill="white"/>
</mask>
<g mask="url(#mask11_4999_2664)">
<path d="M1586.47 772.599C1655 772.599 1710.55 717.049 1710.55 648.519C1710.55 579.989 1655 524.439 1586.47 524.439C1517.94 524.439 1462.39 579.989 1462.39 648.519C1462.39 717.049 1517.94 772.599 1586.47 772.599Z" fill="#FF6600"/>
</g>
<path d="M1182.59 323.84C1239.97 323.84 1286.49 277.32 1286.49 219.94C1286.49 162.56 1239.97 116.04 1182.59 116.04C1125.21 116.04 1078.69 162.56 1078.69 219.94C1078.69 277.32 1125.21 323.84 1182.59 323.84Z" fill="#E8AACB"/>
<path d="M358.382 574.229C358.071 572.262 356.312 570.968 353.775 570.968C351.291 570.968 349.376 572.158 349.428 573.866C349.376 575.108 350.411 576.092 353.051 576.661L358.071 577.696C363.506 578.835 366.146 581.268 366.197 585.305C366.146 590.843 361.177 594.569 353.724 594.569C346.115 594.569 341.664 591.153 341.043 585.667H348.755C349.117 587.893 350.929 589.031 353.724 589.031C356.519 589.031 358.382 587.893 358.382 586.081C358.382 584.632 357.191 583.752 354.552 583.183L349.894 582.251C344.562 581.216 341.768 578.421 341.819 574.28C341.768 568.897 346.426 565.533 353.672 565.533C360.763 565.533 365.162 568.897 365.576 574.229H358.382Z" fill="white"/>
<path d="M337.938 565.896V571.641H332.659V585.356C332.659 587.582 333.746 588.151 335.299 588.203C336.075 588.203 337.421 588.151 338.353 588.048V594.104C337.524 594.259 336.179 594.362 334.264 594.362C328.726 594.362 324.947 591.878 324.999 586.443V571.641H321.117V565.896H324.999V559.167H332.659V565.896H337.938Z" fill="white"/>
<path d="M299.119 577.748V594H291.459V565.896H298.757V570.812H299.067C300.361 567.552 303.363 565.533 307.504 565.533C313.353 565.533 317.234 569.519 317.183 576.092V594H309.574V577.438C309.574 573.97 307.659 571.899 304.502 571.899C301.293 571.899 299.119 574.021 299.119 577.748Z" fill="white"/>
<path d="M273.758 594.569C265.166 594.569 259.887 588.979 259.887 580.077C259.887 571.382 265.218 565.533 273.447 565.533C280.849 565.533 286.646 570.191 286.646 579.767V581.94H267.443C267.443 586.185 269.979 588.824 273.913 588.824C276.501 588.824 278.364 587.686 279.141 585.978H286.438C285.352 591.153 280.693 594.569 273.758 594.569ZM267.443 577.127H279.399C279.399 573.711 277.019 571.278 273.603 571.278C270.083 571.278 267.573 573.892 267.443 577.127Z" fill="white"/>
<path d="M238.978 594.466C232.56 594.466 227.539 589.342 227.539 579.974C227.539 570.347 232.767 565.533 238.978 565.533C243.688 565.533 245.913 568.328 246.948 570.605H247.207V556.527H254.867V594H247.311V589.497H246.948C245.861 591.826 243.532 594.466 238.978 594.466ZM241.358 588.358C245.188 588.358 247.362 584.994 247.362 579.922C247.362 574.85 245.188 571.641 241.358 571.641C237.477 571.641 235.406 575.005 235.406 579.922C235.406 584.891 237.477 588.358 241.358 588.358Z" fill="white"/>
<path d="M215.012 582.044V565.896H222.672V594H215.322V588.928H215.012C213.718 592.188 210.716 594.362 206.472 594.362C200.83 594.362 197 590.377 197 583.804V565.896H204.66V582.458C204.66 585.771 206.575 587.893 209.577 587.893C212.372 587.893 215.012 585.874 215.012 582.044Z" fill="white"/>
<path d="M192.188 565.896V571.641H186.909V585.356C186.909 587.582 187.996 588.151 189.549 588.203C190.325 588.203 191.671 588.151 192.603 588.048V594.104C191.774 594.259 190.429 594.362 188.514 594.362C182.976 594.362 179.197 591.878 179.249 586.443V571.641H175.367V565.896H179.249V559.167H186.909V565.896H192.188Z" fill="white"/>
<path d="M164.497 567.241C164.187 564.291 161.806 562.531 158.027 562.531C154.094 562.531 151.92 564.343 151.868 566.827C151.816 569.519 154.663 570.761 157.872 571.485L161.236 572.313C167.654 573.763 172.468 577.023 172.468 583.286C172.468 590.17 167.085 594.518 157.976 594.518C148.918 594.518 143.121 590.325 142.914 582.303H150.471C150.729 586.081 153.731 587.996 157.872 587.996C161.961 587.996 164.601 586.081 164.601 583.286C164.601 580.75 162.271 579.56 158.183 578.524L154.094 577.541C147.779 575.988 143.897 572.831 143.897 567.345C143.897 560.513 149.901 556.01 158.079 556.01C166.36 556.01 171.847 560.616 171.95 567.241H164.497Z" fill="white"/>
<path d="M1263.59 664V638.017H1270.43V642.515H1270.72C1271.68 639.309 1274.07 637.634 1276.99 637.634C1277.71 637.634 1278.62 637.729 1279.24 637.873V644.189C1278.57 643.998 1277.23 643.807 1276.22 643.807C1273.02 643.807 1270.67 646.056 1270.67 649.214V664H1263.59Z" fill="white"/>
<path d="M1247.23 664.526C1239.28 664.526 1234.4 659.358 1234.4 651.128C1234.4 643.089 1239.33 637.682 1246.94 637.682C1253.78 637.682 1259.14 641.988 1259.14 650.841V652.851H1241.39C1241.39 656.774 1243.73 659.215 1247.37 659.215C1249.76 659.215 1251.49 658.162 1252.2 656.583H1258.95C1257.95 661.368 1253.64 664.526 1247.23 664.526ZM1241.39 648.4H1252.44C1252.44 645.242 1250.24 642.993 1247.08 642.993C1243.83 642.993 1241.51 645.41 1241.39 648.4Z" fill="white"/>
<path d="M1213.25 648.975V664H1206.17V638.017H1212.92V642.562H1213.2C1214.4 639.548 1217.18 637.682 1221 637.682C1226.41 637.682 1230 641.366 1229.95 647.443V664H1222.92V648.688C1222.92 645.481 1221.15 643.567 1218.23 643.567C1215.26 643.567 1213.25 645.529 1213.25 648.975Z" fill="white"/>
<path d="M1187.08 664V638.017H1193.92V642.515H1194.21C1195.17 639.309 1197.56 637.634 1200.48 637.634C1201.19 637.634 1202.1 637.729 1202.73 637.873V644.189C1202.06 643.998 1200.72 643.807 1199.71 643.807C1196.5 643.807 1194.16 646.056 1194.16 649.214V664H1187.08Z" fill="white"/>
<path d="M1158.51 656.727C1158.51 650.937 1163.2 649.022 1168.18 648.735C1170.04 648.616 1173.54 648.448 1174.64 648.4V646.295C1174.59 644.142 1173.1 642.85 1170.47 642.85C1168.08 642.85 1166.55 643.95 1166.17 645.721H1159.42C1159.85 641.223 1163.77 637.682 1170.66 637.682C1176.31 637.682 1181.67 640.218 1181.67 646.486V664H1174.97V660.411H1174.78C1173.49 662.804 1171.05 664.479 1167.17 664.479C1162.19 664.479 1158.51 661.895 1158.51 656.727ZM1165.3 656.535C1165.3 658.545 1166.93 659.598 1169.18 659.598C1172.39 659.598 1174.68 657.444 1174.64 654.717V652.803C1173.56 652.851 1170.54 653.018 1169.32 653.138C1166.88 653.377 1165.3 654.525 1165.3 656.535Z" fill="white"/>
<path d="M1143.39 664.526C1135.45 664.526 1130.56 659.358 1130.56 651.128C1130.56 643.089 1135.49 637.682 1143.1 637.682C1149.94 637.682 1155.3 641.988 1155.3 650.841V652.851H1137.55C1137.55 656.774 1139.9 659.215 1143.53 659.215C1145.92 659.215 1147.65 658.162 1148.37 656.583H1155.11C1154.11 661.368 1149.8 664.526 1143.39 664.526ZM1137.55 648.4H1148.6C1148.6 645.242 1146.4 642.993 1143.25 642.993C1139.99 642.993 1137.67 645.41 1137.55 648.4Z" fill="white"/>
<path d="M1105.01 664V629.355H1112.19V658.066H1127.12V664H1105.01Z" fill="white"/>
<path d="M1245.62 574.017V579.328H1240.74V592.009C1240.74 594.066 1241.75 594.593 1243.18 594.641C1243.9 594.641 1245.15 594.593 1246.01 594.497V600.096C1245.24 600.239 1244 600.335 1242.23 600.335C1237.11 600.335 1233.61 598.038 1233.66 593.014V579.328H1230.07V574.017H1233.66V567.796H1240.74V574.017H1245.62Z" fill="white"/>
<path d="M1226.44 565.355V600H1219.35V565.355H1226.44Z" fill="white"/>
<path d="M1206.77 588.946V574.017H1213.85V600H1207.05V595.311H1206.77C1205.57 598.325 1202.8 600.335 1198.87 600.335C1193.66 600.335 1190.12 596.65 1190.12 590.573V574.017H1197.2V589.329C1197.2 592.392 1198.97 594.354 1201.74 594.354C1204.33 594.354 1206.77 592.487 1206.77 588.946Z" fill="white"/>
<path d="M1169.73 600.431C1163.8 600.431 1159.16 595.693 1159.16 587.032C1159.16 578.132 1163.99 573.682 1169.73 573.682C1174.09 573.682 1176.14 576.266 1177.1 578.371H1177.34V565.355H1184.42V600H1177.44V595.837H1177.1C1176.1 597.99 1173.94 600.431 1169.73 600.431ZM1171.93 594.784C1175.47 594.784 1177.48 591.674 1177.48 586.984C1177.48 582.295 1175.47 579.328 1171.93 579.328C1168.34 579.328 1166.43 582.438 1166.43 586.984C1166.43 591.578 1168.34 594.784 1171.93 594.784Z" fill="white"/>
<path d="M1132.12 600H1124.37L1136.38 565.355H1145.61L1157.58 600H1149.87L1147.29 592.009H1134.75L1132.12 600ZM1136.57 586.41H1145.47L1141.12 573.155H1140.88L1136.57 586.41Z" fill="white"/>
<path d="M682.389 496.971V500.656H679.002V509.455C679.002 510.883 679.699 511.248 680.695 511.281C681.193 511.281 682.057 511.248 682.654 511.182V515.066C682.123 515.166 681.26 515.232 680.031 515.232C676.479 515.232 674.055 513.639 674.088 510.152V500.656H671.598V496.971H674.088V492.654H679.002V496.971H682.389Z" fill="white"/>
<path d="M657.486 504.574V515H652.572V496.971H657.254V500.125H657.453C658.283 498.033 660.209 496.738 662.865 496.738C666.617 496.738 669.107 499.295 669.074 503.512V515H664.193V504.375C664.193 502.15 662.965 500.822 660.939 500.822C658.881 500.822 657.486 502.184 657.486 504.574Z" fill="white"/>
<path d="M641.217 515.365C635.705 515.365 632.318 511.779 632.318 506.068C632.318 500.49 635.738 496.738 641.018 496.738C645.766 496.738 649.484 499.727 649.484 505.869V507.264H637.166C637.166 509.986 638.793 511.68 641.316 511.68C642.977 511.68 644.172 510.949 644.67 509.854H649.352C648.654 513.174 645.666 515.365 641.217 515.365ZM637.166 504.176H644.836C644.836 501.984 643.309 500.424 641.117 500.424C638.859 500.424 637.249 502.101 637.166 504.176Z" fill="white"/>
<path d="M603.166 515V496.971H607.848V500.125H608.047C608.811 498.033 610.637 496.738 613.061 496.738C615.551 496.738 617.377 498.033 617.975 500.125H618.141C618.904 498.066 620.93 496.738 623.586 496.738C626.939 496.738 629.264 498.963 629.264 502.881V515H624.35V503.844C624.35 501.785 623.154 500.789 621.527 500.789C619.668 500.789 618.605 502.084 618.605 503.977V515H613.824V503.711C613.824 501.918 612.695 500.789 611.035 500.789C609.375 500.789 608.08 502.117 608.08 504.176V515H603.166Z" fill="white"/>
<path d="M591.811 515.365C586.299 515.365 582.912 511.779 582.912 506.068C582.912 500.49 586.332 496.738 591.611 496.738C596.359 496.738 600.078 499.727 600.078 505.869V507.264H587.76C587.76 509.986 589.387 511.68 591.91 511.68C593.57 511.68 594.766 510.949 595.264 509.854H599.945C599.248 513.174 596.26 515.365 591.811 515.365ZM587.76 504.176H595.43C595.43 501.984 593.902 500.424 591.711 500.424C589.453 500.424 587.843 502.101 587.76 504.176Z" fill="white"/>
<path d="M581.85 496.971L575.508 515H569.996L563.688 496.971H568.867L572.652 509.92H572.852L576.637 496.971H581.85Z" fill="white"/>
<path d="M553.76 515.365C548.314 515.365 544.928 511.613 544.928 506.035C544.928 500.457 548.314 496.738 553.76 496.738C559.205 496.738 562.625 500.457 562.625 506.035C562.625 511.613 559.205 515.365 553.76 515.365ZM553.793 511.547C556.316 511.547 557.611 509.189 557.611 506.035C557.611 502.848 556.316 500.49 553.793 500.49C551.236 500.49 549.908 502.848 549.908 506.035C549.908 509.189 551.236 511.547 553.793 511.547Z" fill="white"/>
<path d="M532.975 515V496.971H537.723V500.092H537.922C538.586 497.867 540.246 496.705 542.271 496.705C542.77 496.705 543.4 496.771 543.832 496.871V501.254C543.367 501.121 542.438 500.988 541.74 500.988C539.516 500.988 537.889 502.549 537.889 504.74V515H532.975Z" fill="white"/>
<path d="M512.289 521.773V496.971H517.137V499.992H517.336C518 498.531 519.461 496.738 522.482 496.738C526.467 496.738 529.787 499.826 529.787 506.002C529.787 512.012 526.6 515.299 522.482 515.299C519.527 515.299 518.033 513.605 517.336 512.111H517.203V521.773H512.289ZM517.104 505.969C517.104 509.223 518.498 511.381 520.922 511.381C523.445 511.381 524.773 509.156 524.773 505.969C524.773 502.814 523.445 500.656 520.922 500.656C518.465 500.656 517.104 502.715 517.104 505.969Z" fill="white"/>
<path d="M482.406 515V496.971H487.088V500.125H487.287C488.051 498.033 489.877 496.738 492.301 496.738C494.791 496.738 496.617 498.033 497.215 500.125H497.381C498.145 498.066 500.17 496.738 502.826 496.738C506.18 496.738 508.504 498.963 508.504 502.881V515H503.59V503.844C503.59 501.785 502.395 500.789 500.768 500.789C498.908 500.789 497.846 502.084 497.846 503.977V515H493.064V503.711C493.064 501.918 491.936 500.789 490.275 500.789C488.615 500.789 487.32 502.117 487.32 504.176V515H482.406Z" fill="white"/>
<path d="M478.455 490.961V515H473.475V490.961H478.455Z" fill="white"/>
<path d="M620.117 461.055V465.664H607.227V461.055H620.117Z" fill="white"/>
<path d="M604.336 453.789V458.125H600.117V475H594.336V458.125H591.328V453.789H594.336V452.188C594.336 447.734 597.031 445.391 601.289 445.391C602.617 445.391 603.711 445.508 604.727 445.742V450.117C603.906 450.039 603.281 450 602.969 450C601.094 450 600.117 450.742 600.117 452.5V453.789H604.336Z" fill="white"/>
<path d="M588.555 446.719V475H582.773V446.719H588.555Z" fill="white"/>
<path d="M569.414 475.43C562.93 475.43 558.945 471.211 558.945 464.492C558.945 457.93 562.969 453.516 569.18 453.516C574.766 453.516 579.141 457.031 579.141 464.258V465.898H564.648C564.648 469.102 566.562 471.094 569.531 471.094C571.484 471.094 572.891 470.234 573.477 468.945H578.984C578.164 472.852 574.648 475.43 569.414 475.43ZM564.648 462.266H573.672C573.672 459.688 571.875 457.852 569.297 457.852C566.641 457.852 564.746 459.824 564.648 462.266Z" fill="white"/>
<path d="M550.078 454.805C549.844 452.578 548.047 451.25 545.195 451.25C542.227 451.25 540.586 452.617 540.547 454.492C540.508 456.523 542.656 457.461 545.078 458.008L547.617 458.633C552.461 459.727 556.094 462.188 556.094 466.914C556.094 472.109 552.031 475.391 545.156 475.391C538.32 475.391 533.945 472.227 533.789 466.172H539.492C539.688 469.023 541.953 470.469 545.078 470.469C548.164 470.469 550.156 469.023 550.156 466.914C550.156 465 548.398 464.102 545.312 463.32L542.227 462.578C537.461 461.406 534.531 459.023 534.531 454.883C534.531 449.727 539.062 446.328 545.234 446.328C551.484 446.328 555.625 449.805 555.703 454.805H550.078Z" fill="white"/>
<path d="M878.184 516.789V521.125H874.199V531.477C874.199 533.156 875.02 533.586 876.191 533.625C876.777 533.625 877.793 533.586 878.496 533.508V538.078C877.871 538.195 876.855 538.273 875.41 538.273C871.23 538.273 868.379 536.398 868.418 532.297V521.125H865.488V516.789H868.418V511.711H874.199V516.789H878.184Z" fill="white"/>
<path d="M850.371 538V516.789H855.957V520.461H856.191C856.973 517.844 858.926 516.477 861.309 516.477C861.895 516.477 862.637 516.555 863.145 516.672V521.828C862.598 521.672 861.504 521.516 860.684 521.516C858.066 521.516 856.152 523.352 856.152 525.93V538H850.371Z" fill="white"/>
<path d="M827.051 532.062C827.051 527.336 830.879 525.773 834.941 525.539C836.465 525.441 839.316 525.305 840.215 525.266V523.547C840.176 521.789 838.965 520.734 836.816 520.734C834.863 520.734 833.613 521.633 833.301 523.078H827.793C828.145 519.406 831.348 516.516 836.973 516.516C841.582 516.516 845.957 518.586 845.957 523.703V538H840.488V535.07H840.332C839.277 537.023 837.285 538.391 834.121 538.391C830.059 538.391 827.051 536.281 827.051 532.062ZM832.598 531.906C832.598 533.547 833.926 534.406 835.762 534.406C838.379 534.406 840.254 532.648 840.215 530.422V528.859C839.336 528.898 836.875 529.035 835.879 529.133C833.887 529.328 832.598 530.266 832.598 531.906Z" fill="white"/>
<path d="M792.91 538V516.789H798.418V520.5H798.652C799.551 518.039 801.699 516.516 804.551 516.516C807.48 516.516 809.629 518.039 810.332 520.5H810.527C811.426 518.078 813.809 516.516 816.934 516.516C820.879 516.516 823.613 519.133 823.613 523.742V538H817.832V524.875C817.832 522.453 816.426 521.281 814.512 521.281C812.324 521.281 811.074 522.805 811.074 525.031V538H805.449V524.719C805.449 522.609 804.121 521.281 802.168 521.281C800.215 521.281 798.691 522.844 798.691 525.266V538H792.91Z" fill="white"/>
<path d="M783.184 517.805C782.949 515.578 781.152 514.25 778.301 514.25C775.332 514.25 773.691 515.617 773.652 517.492C773.613 519.523 775.762 520.461 778.184 521.008L780.723 521.633C785.566 522.727 789.199 525.188 789.199 529.914C789.199 535.109 785.137 538.391 778.262 538.391C771.426 538.391 767.051 535.227 766.895 529.172H772.598C772.793 532.023 775.059 533.469 778.184 533.469C781.27 533.469 783.262 532.023 783.262 529.914C783.262 528 781.504 527.102 778.418 526.32L775.332 525.578C770.566 524.406 767.637 522.023 767.637 517.883C767.637 512.727 772.168 509.328 778.34 509.328C784.59 509.328 788.73 512.805 788.809 517.805H783.184Z" fill="white"/>
<path d="M1047.93 357.027V365H1044.17V351.213H1047.75V353.625H1047.9C1048.54 352.025 1050.01 351.035 1052.04 351.035C1054.91 351.035 1056.82 352.99 1056.79 356.215V365H1053.06V356.875C1053.06 355.174 1052.12 354.158 1050.57 354.158C1049 354.158 1047.93 355.199 1047.93 357.027Z" fill="white"/>
<path d="M1035.03 365.279C1030.87 365.279 1028.28 362.41 1028.28 358.145C1028.28 353.879 1030.87 351.035 1035.03 351.035C1039.2 351.035 1041.81 353.879 1041.81 358.145C1041.81 362.41 1039.2 365.279 1035.03 365.279ZM1035.06 362.359C1036.99 362.359 1037.98 360.557 1037.98 358.145C1037.98 355.707 1036.99 353.904 1035.06 353.904C1033.1 353.904 1032.09 355.707 1032.09 358.145C1032.09 360.557 1033.1 362.359 1035.06 362.359Z" fill="white"/>
<path d="M1022.16 365V351.213H1025.92V365H1022.16ZM1024.04 349.41C1022.89 349.41 1021.98 348.547 1021.98 347.506C1021.98 346.439 1022.89 345.576 1024.04 345.576C1025.15 345.576 1026.07 346.439 1026.07 347.506C1026.07 348.547 1025.15 349.41 1024.04 349.41Z" fill="white"/>
<path d="M1019.79 351.213V354.031H1017.21V360.76C1017.21 361.852 1017.74 362.131 1018.5 362.156C1018.88 362.156 1019.54 362.131 1020 362.08V365.051C1019.59 365.127 1018.93 365.178 1017.99 365.178C1015.28 365.178 1013.42 363.959 1013.45 361.293V354.031H1011.54V351.213H1013.45V347.912H1017.21V351.213H1019.79Z" fill="white"/>
<path d="M997.375 361.141C997.375 358.068 999.863 357.053 1002.5 356.9C1003.49 356.837 1005.35 356.748 1005.93 356.723V355.605C1005.91 354.463 1005.12 353.777 1003.72 353.777C1002.45 353.777 1001.64 354.361 1001.44 355.301H997.857C998.086 352.914 1000.17 351.035 1003.82 351.035C1006.82 351.035 1009.66 352.381 1009.66 355.707V365H1006.11V363.096H1006.01C1005.32 364.365 1004.03 365.254 1001.97 365.254C999.33 365.254 997.375 363.883 997.375 361.141ZM1000.98 361.039C1000.98 362.105 1001.84 362.664 1003.04 362.664C1004.74 362.664 1005.96 361.521 1005.93 360.074V359.059C1005.36 359.084 1003.76 359.173 1003.11 359.236C1001.82 359.363 1000.98 359.973 1000.98 361.039Z" fill="white"/>
<path d="M975.184 365V351.213H978.764V353.625H978.916C979.5 352.025 980.896 351.035 982.75 351.035C984.654 351.035 986.051 352.025 986.508 353.625H986.635C987.219 352.051 988.768 351.035 990.799 351.035C993.363 351.035 995.141 352.736 995.141 355.732V365H991.383V356.469C991.383 354.895 990.469 354.133 989.225 354.133C987.803 354.133 986.99 355.123 986.99 356.57V365H983.334V356.367C983.334 354.996 982.471 354.133 981.201 354.133C979.932 354.133 978.941 355.148 978.941 356.723V365H975.184Z" fill="white"/>
<path d="M965.055 365V351.213H968.686V353.6H968.838C969.346 351.898 970.615 351.01 972.164 351.01C972.545 351.01 973.027 351.061 973.357 351.137V354.488C973.002 354.387 972.291 354.285 971.758 354.285C970.057 354.285 968.812 355.479 968.812 357.154V365H965.055Z" fill="white"/>
<path d="M955.914 365.279C951.75 365.279 949.16 362.41 949.16 358.145C949.16 353.879 951.75 351.035 955.914 351.035C960.078 351.035 962.693 353.879 962.693 358.145C962.693 362.41 960.078 365.279 955.914 365.279ZM955.939 362.359C957.869 362.359 958.859 360.557 958.859 358.145C958.859 355.707 957.869 353.904 955.939 353.904C953.984 353.904 952.969 355.707 952.969 358.145C952.969 360.557 953.984 362.359 955.939 362.359Z" fill="white"/>
<path d="M948.018 351.213V354.031H945.275V365H941.518V354.031H939.562V351.213H941.518V350.172C941.518 347.277 943.27 345.754 946.037 345.754C946.9 345.754 947.611 345.83 948.271 345.982V348.826C947.738 348.775 947.332 348.75 947.129 348.75C945.91 348.75 945.275 349.232 945.275 350.375V351.213H948.018Z" fill="white"/>
<path d="M928.898 357.027V365H925.141V351.213H928.721V353.625H928.873C929.508 352.025 930.98 351.035 933.012 351.035C935.881 351.035 937.785 352.99 937.76 356.215V365H934.027V356.875C934.027 355.174 933.088 354.158 931.539 354.158C929.965 354.158 928.898 355.199 928.898 357.027Z" fill="white"/>
<path d="M922.117 346.617V365H918.309V346.617H922.117Z" fill="white"/>
<path d="M1054.39 329.229C1051.24 329.229 1048.78 326.715 1048.78 322.119C1048.78 317.396 1051.34 315.035 1054.39 315.035C1056.7 315.035 1057.79 316.406 1058.3 317.523H1058.43V310.617H1062.19V329H1058.48V326.791H1058.3C1057.77 327.934 1056.62 329.229 1054.39 329.229ZM1055.56 326.232C1057.44 326.232 1058.5 324.582 1058.5 322.094C1058.5 319.605 1057.44 318.031 1055.56 318.031C1053.65 318.031 1052.64 319.682 1052.64 322.094C1052.64 324.531 1053.65 326.232 1055.56 326.232Z" fill="white"/>
<path d="M1040.63 329.279C1036.41 329.279 1033.82 326.537 1033.82 322.17C1033.82 317.904 1036.44 315.035 1040.48 315.035C1044.11 315.035 1046.95 317.32 1046.95 322.018V323.084H1037.53C1037.53 325.166 1038.78 326.461 1040.71 326.461C1041.97 326.461 1042.89 325.902 1043.27 325.064H1046.85C1046.32 327.604 1044.03 329.279 1040.63 329.279ZM1037.53 320.723H1043.4C1043.4 319.047 1042.23 317.854 1040.55 317.854C1038.83 317.854 1037.59 319.136 1037.53 320.723Z" fill="white"/>
<path d="M1020.42 329V326.74L1027.22 318.311V318.209H1020.65V315.213H1031.74V317.676L1025.37 325.902V326.004H1031.97V329H1020.42Z" fill="white"/>
<path d="M1013.84 329V315.213H1017.6V329H1013.84ZM1015.72 313.41C1014.58 313.41 1013.66 312.547 1013.66 311.506C1013.66 310.439 1014.58 309.576 1015.72 309.576C1016.84 309.576 1017.75 310.439 1017.75 311.506C1017.75 312.547 1016.84 313.41 1015.72 313.41Z" fill="white"/>
<path d="M1010.92 310.617V329H1007.16V310.617H1010.92Z" fill="white"/>
<path d="M992.006 325.141C992.006 322.068 994.494 321.053 997.135 320.9C998.125 320.837 999.979 320.748 1000.56 320.723V319.605C1000.54 318.463 999.75 317.777 998.354 317.777C997.084 317.777 996.271 318.361 996.068 319.301H992.488C992.717 316.914 994.799 315.035 998.455 315.035C1001.45 315.035 1004.29 316.381 1004.29 319.707V329H1000.74V327.096H1000.64C999.953 328.365 998.658 329.254 996.602 329.254C993.961 329.254 992.006 327.883 992.006 325.141ZM995.611 325.039C995.611 326.105 996.475 326.664 997.668 326.664C999.369 326.664 1000.59 325.521 1000.56 324.074V323.059C999.991 323.084 998.392 323.173 997.744 323.236C996.449 323.363 995.611 323.973 995.611 325.039Z" fill="white"/>
<path d="M980.885 321.027V329H977.127V315.213H980.707V317.625H980.859C981.494 316.025 982.967 315.035 984.998 315.035C987.867 315.035 989.771 316.99 989.746 320.215V329H986.014V320.875C986.014 319.174 985.074 318.158 983.525 318.158C981.951 318.158 980.885 319.199 980.885 321.027Z" fill="white"/>
<path d="M967.986 329.279C963.822 329.279 961.232 326.41 961.232 322.145C961.232 317.879 963.822 315.035 967.986 315.035C972.15 315.035 974.766 317.879 974.766 322.145C974.766 326.41 972.15 329.279 967.986 329.279ZM968.012 326.359C969.941 326.359 970.932 324.557 970.932 322.145C970.932 319.707 969.941 317.904 968.012 317.904C966.057 317.904 965.041 319.707 965.041 322.145C965.041 324.557 966.057 326.359 968.012 326.359Z" fill="white"/>
<path d="M955.646 319.301C955.494 318.336 954.631 317.701 953.387 317.701C952.168 317.701 951.229 318.285 951.254 319.123C951.229 319.732 951.736 320.215 953.031 320.494L955.494 321.002C958.16 321.561 959.455 322.754 959.48 324.734C959.455 327.451 957.018 329.279 953.361 329.279C949.629 329.279 947.445 327.604 947.141 324.912H950.924C951.102 326.004 951.99 326.562 953.361 326.562C954.732 326.562 955.646 326.004 955.646 325.115C955.646 324.404 955.062 323.973 953.768 323.693L951.482 323.236C948.867 322.729 947.496 321.357 947.521 319.326C947.496 316.686 949.781 315.035 953.336 315.035C956.814 315.035 958.973 316.686 959.176 319.301H955.646Z" fill="white"/>
<path d="M937.645 329V315.213H941.275V317.6H941.428C941.936 315.898 943.205 315.01 944.754 315.01C945.135 315.01 945.617 315.061 945.947 315.137V318.488C945.592 318.387 944.881 318.285 944.348 318.285C942.646 318.285 941.402 319.479 941.402 321.154V329H937.645Z" fill="white"/>
<path d="M928.961 329.279C924.746 329.279 922.156 326.537 922.156 322.17C922.156 317.904 924.771 315.035 928.809 315.035C932.439 315.035 935.283 317.32 935.283 322.018V323.084H925.863C925.863 325.166 927.107 326.461 929.037 326.461C930.307 326.461 931.221 325.902 931.602 325.064H935.182C934.648 327.604 932.363 329.279 928.961 329.279ZM925.863 320.723H931.729C931.729 319.047 930.561 317.854 928.885 317.854C927.158 317.854 925.927 319.136 925.863 320.723Z" fill="white"/>
<path d="M906.82 329V310.617H914.031C918.221 310.617 920.607 313.182 920.607 316.812C920.607 320.494 918.17 323.008 913.93 323.008H910.629V329H906.82ZM910.629 319.936H913.32C915.58 319.936 916.672 318.666 916.672 316.812C916.672 314.984 915.58 313.74 913.32 313.74H910.629V319.936Z" fill="white"/>
<path d="M1197.21 252.102C1197.21 248.202 1200.37 246.913 1203.72 246.72C1204.97 246.639 1207.33 246.526 1208.07 246.494V245.076C1208.04 243.626 1207.04 242.756 1205.26 242.756C1203.65 242.756 1202.62 243.497 1202.36 244.689H1197.82C1198.11 241.66 1200.75 239.275 1205.39 239.275C1209.2 239.275 1212.8 240.983 1212.8 245.205V257H1208.29V254.583H1208.16C1207.29 256.194 1205.65 257.322 1203.04 257.322C1199.69 257.322 1197.21 255.582 1197.21 252.102ZM1201.78 251.973C1201.78 253.326 1202.88 254.035 1204.39 254.035C1206.55 254.035 1208.1 252.585 1208.07 250.748V249.459C1207.34 249.491 1205.31 249.604 1204.49 249.685C1202.85 249.846 1201.78 250.619 1201.78 251.973Z" fill="white"/>
<path d="M1195.05 239.501V243.078H1191.76V251.618C1191.76 253.004 1192.44 253.358 1193.4 253.391C1193.89 253.391 1194.73 253.358 1195.31 253.294V257.064C1194.79 257.161 1193.95 257.226 1192.76 257.226C1189.31 257.226 1186.96 255.679 1186.99 252.295V243.078H1184.57V239.501H1186.99V235.312H1191.76V239.501H1195.05Z" fill="white"/>
<path d="M1166.59 252.102C1166.59 248.202 1169.75 246.913 1173.1 246.72C1174.36 246.639 1176.71 246.526 1177.45 246.494V245.076C1177.42 243.626 1176.42 242.756 1174.65 242.756C1173.04 242.756 1172.01 243.497 1171.75 244.689H1167.21C1167.5 241.66 1170.14 239.275 1174.78 239.275C1178.58 239.275 1182.19 240.983 1182.19 245.205V257H1177.68V254.583H1177.55C1176.68 256.194 1175.04 257.322 1172.43 257.322C1169.08 257.322 1166.59 255.582 1166.59 252.102ZM1171.17 251.973C1171.17 253.326 1172.27 254.035 1173.78 254.035C1175.94 254.035 1177.49 252.585 1177.45 250.748V249.459C1176.73 249.491 1174.7 249.604 1173.88 249.685C1172.23 249.846 1171.17 250.619 1171.17 251.973Z" fill="white"/>
<path d="M1152.61 257H1144.39V233.668H1152.7C1159.73 233.668 1164.01 238.051 1164.01 245.302C1164.01 252.617 1159.73 257 1152.61 257ZM1149.22 252.843H1152.41C1156.86 252.843 1159.18 250.522 1159.18 245.302C1159.18 240.113 1156.86 237.825 1152.45 237.825H1149.22V252.843Z" fill="white"/>
<path d="M1236.27 223.929C1231.43 223.929 1228.47 221.77 1228.18 218.45H1232.88C1233.14 219.836 1234.46 220.48 1236.36 220.48C1238.59 220.48 1240.07 219.546 1240.07 217.097V213.906H1239.84C1239.2 215.324 1237.65 216.742 1234.85 216.742C1230.88 216.742 1227.73 213.971 1227.73 208.138C1227.73 202.208 1230.98 199.275 1234.85 199.275C1237.78 199.275 1239.2 201.016 1239.84 202.434H1240.04V199.501H1244.77V217.193C1244.77 221.641 1241.23 223.929 1236.27 223.929ZM1236.33 213.165C1238.72 213.165 1240.07 211.296 1240.07 208.202C1240.07 205.076 1238.72 203.078 1236.33 203.078C1233.91 203.078 1232.62 205.173 1232.62 208.202C1232.62 211.231 1233.91 213.165 1236.33 213.165Z" fill="white"/>
<path d="M1213.45 206.881V217H1208.68V199.501H1213.22V202.562H1213.42C1214.22 200.532 1216.09 199.275 1218.67 199.275C1222.31 199.275 1224.73 201.757 1224.7 205.85V217H1219.96V206.688C1219.96 204.528 1218.77 203.239 1216.8 203.239C1214.8 203.239 1213.45 204.561 1213.45 206.881Z" fill="white"/>
<path d="M1200.21 217V199.501H1204.98V217H1200.21ZM1202.59 197.213C1201.14 197.213 1199.98 196.117 1199.98 194.796C1199.98 193.442 1201.14 192.347 1202.59 192.347C1204.01 192.347 1205.17 193.442 1205.17 194.796C1205.17 196.117 1204.01 197.213 1202.59 197.213Z" fill="white"/>
<path d="M1185.25 206.881V217H1180.48V199.501H1185.03V202.562H1185.22C1186.03 200.532 1187.89 199.275 1190.47 199.275C1194.11 199.275 1196.53 201.757 1196.5 205.85V217H1191.76V206.688C1191.76 204.528 1190.57 203.239 1188.6 203.239C1186.61 203.239 1185.25 204.561 1185.25 206.881Z" fill="white"/>
<path d="M1167.62 217V199.501H1172.23V202.53H1172.43C1173.07 200.371 1174.68 199.243 1176.65 199.243C1177.13 199.243 1177.74 199.308 1178.16 199.404V203.658C1177.71 203.529 1176.81 203.4 1176.13 203.4C1173.97 203.4 1172.39 204.915 1172.39 207.042V217H1167.62Z" fill="white"/>
<path d="M1148.38 212.102C1148.38 208.202 1151.54 206.913 1154.89 206.72C1156.15 206.639 1158.5 206.526 1159.25 206.494V205.076C1159.21 203.626 1158.21 202.756 1156.44 202.756C1154.83 202.756 1153.8 203.497 1153.54 204.689H1149C1149.29 201.66 1151.93 199.275 1156.57 199.275C1160.37 199.275 1163.98 200.983 1163.98 205.205V217H1159.47V214.583H1159.34C1158.47 216.194 1156.83 217.322 1154.22 217.322C1150.87 217.322 1148.38 215.582 1148.38 212.102ZM1152.96 211.973C1152.96 213.326 1154.06 214.035 1155.57 214.035C1157.73 214.035 1159.28 212.585 1159.25 210.748V209.459C1158.52 209.491 1156.49 209.604 1155.67 209.685C1154.02 209.846 1152.96 210.619 1152.96 211.973Z" fill="white"/>
<path d="M1138.2 217.354C1132.85 217.354 1129.56 213.874 1129.56 208.331C1129.56 202.917 1132.88 199.275 1138.01 199.275C1142.62 199.275 1146.23 202.176 1146.23 208.138V209.491H1134.27C1134.27 212.134 1135.85 213.777 1138.3 213.777C1139.91 213.777 1141.07 213.068 1141.55 212.005H1146.1C1145.42 215.228 1142.52 217.354 1138.2 217.354ZM1134.27 206.494H1141.71C1141.71 204.367 1140.23 202.853 1138.1 202.853C1135.91 202.853 1134.35 204.48 1134.27 206.494Z" fill="white"/>
<path d="M1112.36 217V193.668H1117.19V213.004H1127.24V217H1112.36Z" fill="white"/>
<path d="M1629.72 671.689C1629.53 670.465 1628.43 669.659 1626.85 669.659C1625.31 669.659 1624.11 670.4 1624.15 671.464C1624.11 672.237 1624.76 672.85 1626.4 673.204L1629.53 673.849C1632.91 674.558 1634.56 676.072 1634.59 678.586C1634.56 682.034 1631.46 684.354 1626.82 684.354C1622.08 684.354 1619.31 682.228 1618.93 678.812H1623.73C1623.95 680.197 1625.08 680.906 1626.82 680.906C1628.56 680.906 1629.72 680.197 1629.72 679.069C1629.72 678.167 1628.98 677.619 1627.34 677.265L1624.44 676.685C1621.12 676.04 1619.38 674.3 1619.41 671.722C1619.38 668.37 1622.28 666.275 1626.79 666.275C1631.2 666.275 1633.94 668.37 1634.2 671.689H1629.72Z" fill="white"/>
<path d="M1616.03 660.668V684H1611.26V660.668H1616.03Z" fill="white"/>
<path d="M1592.02 679.102C1592.02 675.202 1595.17 673.913 1598.53 673.72C1599.78 673.639 1602.13 673.526 1602.88 673.494V672.076C1602.84 670.626 1601.84 669.756 1600.07 669.756C1598.46 669.756 1597.43 670.497 1597.17 671.689H1592.63C1592.92 668.66 1595.56 666.275 1600.2 666.275C1604 666.275 1607.61 667.983 1607.61 672.205V684H1603.1V681.583H1602.97C1602.1 683.194 1600.46 684.322 1597.85 684.322C1594.5 684.322 1592.02 682.582 1592.02 679.102ZM1596.59 678.973C1596.59 680.326 1597.69 681.035 1599.2 681.035C1601.36 681.035 1602.91 679.585 1602.88 677.748V676.459C1602.15 676.491 1600.12 676.604 1599.3 676.685C1597.66 676.846 1596.59 677.619 1596.59 678.973Z" fill="white"/>
<path d="M1581.25 684.354C1575.97 684.354 1572.68 680.713 1572.68 675.299C1572.68 669.885 1575.97 666.275 1581.25 666.275C1586.54 666.275 1589.86 669.885 1589.86 675.299C1589.86 680.713 1586.54 684.354 1581.25 684.354ZM1581.28 680.648C1583.73 680.648 1584.99 678.36 1584.99 675.299C1584.99 672.205 1583.73 669.917 1581.28 669.917C1578.8 669.917 1577.51 672.205 1577.51 675.299C1577.51 678.36 1578.8 680.648 1581.28 680.648Z" fill="white"/>
<path d="M1564.82 668.177C1564.17 665.985 1562.4 664.632 1559.85 664.632C1556.25 664.632 1553.8 667.403 1553.8 672.302C1553.8 677.232 1556.18 680.036 1559.89 680.036C1563.22 680.036 1565.2 678.151 1565.27 675.202H1560.21V671.561H1569.94V674.461C1569.94 680.584 1565.75 684.322 1559.85 684.322C1553.31 684.322 1548.87 679.746 1548.87 672.366C1548.87 664.793 1553.6 660.346 1559.76 660.346C1565.01 660.346 1569.07 663.568 1569.72 668.177H1564.82Z" fill="white"/>
<path d="M1649.27 650.929C1644.43 650.929 1641.47 648.77 1641.18 645.45H1645.88C1646.14 646.836 1647.46 647.48 1649.36 647.48C1651.59 647.48 1653.07 646.546 1653.07 644.097V640.906H1652.84C1652.2 642.324 1650.65 643.742 1647.85 643.742C1643.88 643.742 1640.73 640.971 1640.73 635.138C1640.73 629.208 1643.98 626.275 1647.85 626.275C1650.78 626.275 1652.2 628.016 1652.84 629.434H1653.04V626.501H1657.77V644.193C1657.77 648.641 1654.23 650.929 1649.27 650.929ZM1649.33 640.165C1651.72 640.165 1653.07 638.296 1653.07 635.202C1653.07 632.076 1651.72 630.078 1649.33 630.078C1646.91 630.078 1645.62 632.173 1645.62 635.202C1645.62 638.231 1646.91 640.165 1649.33 640.165Z" fill="white"/>
<path d="M1626.45 633.881V644H1621.68V626.501H1626.22V629.562H1626.42C1627.22 627.532 1629.09 626.275 1631.67 626.275C1635.31 626.275 1637.73 628.757 1637.7 632.85V644H1632.96V633.688C1632.96 631.528 1631.77 630.239 1629.8 630.239C1627.8 630.239 1626.45 631.561 1626.45 633.881Z" fill="white"/>
<path d="M1613.21 644V626.501H1617.98V644H1613.21ZM1615.59 624.213C1614.14 624.213 1612.98 623.117 1612.98 621.796C1612.98 620.442 1614.14 619.347 1615.59 619.347C1617.01 619.347 1618.17 620.442 1618.17 621.796C1618.17 623.117 1617.01 624.213 1615.59 624.213Z" fill="white"/>
<path d="M1598.25 633.881V644H1593.48V626.501H1598.03V629.562H1598.22C1599.03 627.532 1600.89 626.275 1603.47 626.275C1607.11 626.275 1609.53 628.757 1609.5 632.85V644H1604.76V633.688C1604.76 631.528 1603.57 630.239 1601.6 630.239C1599.61 630.239 1598.25 631.561 1598.25 633.881Z" fill="white"/>
<path d="M1580.62 644V626.501H1585.23V629.53H1585.43C1586.07 627.371 1587.68 626.243 1589.65 626.243C1590.13 626.243 1590.74 626.308 1591.16 626.404V630.658C1590.71 630.529 1589.81 630.4 1589.13 630.4C1586.97 630.4 1585.39 631.915 1585.39 634.042V644H1580.62Z" fill="white"/>
<path d="M1561.38 639.102C1561.38 635.202 1564.54 633.913 1567.89 633.72C1569.15 633.639 1571.5 633.526 1572.25 633.494V632.076C1572.21 630.626 1571.21 629.756 1569.44 629.756C1567.83 629.756 1566.8 630.497 1566.54 631.689H1562C1562.29 628.66 1564.93 626.275 1569.57 626.275C1573.37 626.275 1576.98 627.983 1576.98 632.205V644H1572.47V641.583H1572.34C1571.47 643.194 1569.83 644.322 1567.22 644.322C1563.87 644.322 1561.38 642.582 1561.38 639.102ZM1565.96 638.973C1565.96 640.326 1567.06 641.035 1568.57 641.035C1570.73 641.035 1572.28 639.585 1572.25 637.748V636.459C1571.52 636.491 1569.49 636.604 1568.67 636.685C1567.02 636.846 1565.96 637.619 1565.96 638.973Z" fill="white"/>
<path d="M1551.2 644.354C1545.85 644.354 1542.56 640.874 1542.56 635.331C1542.56 629.917 1545.88 626.275 1551.01 626.275C1555.62 626.275 1559.23 629.176 1559.23 635.138V636.491H1547.27C1547.27 639.134 1548.85 640.777 1551.3 640.777C1552.91 640.777 1554.07 640.068 1554.55 639.005H1559.1C1558.42 642.228 1555.52 644.354 1551.2 644.354ZM1547.27 633.494H1554.71C1554.71 631.367 1553.23 629.853 1551.1 629.853C1548.91 629.853 1547.35 631.48 1547.27 633.494Z" fill="white"/>
<path d="M1525.36 644V620.668H1530.19V640.004H1540.24V644H1525.36Z" fill="white"/>
<path d="M451.797 271.078C451.562 269.594 450.234 268.617 448.32 268.617C446.445 268.617 445 269.516 445.039 270.805C445 271.742 445.781 272.484 447.773 272.914L451.562 273.695C455.664 274.555 457.656 276.391 457.695 279.438C457.656 283.617 453.906 286.43 448.281 286.43C442.539 286.43 439.18 283.852 438.711 279.711H444.531C444.805 281.391 446.172 282.25 448.281 282.25C450.391 282.25 451.797 281.391 451.797 280.023C451.797 278.93 450.898 278.266 448.906 277.836L445.391 277.133C441.367 276.352 439.258 274.242 439.297 271.117C439.258 267.055 442.773 264.516 448.242 264.516C453.594 264.516 456.914 267.055 457.227 271.078H451.797Z" fill="white"/>
<path d="M421.562 273.734V286H415.781V264.789H421.289V268.5H421.523C422.5 266.039 424.766 264.516 427.891 264.516C432.305 264.516 435.234 267.523 435.195 272.484V286H429.453V273.5C429.453 270.883 428.008 269.32 425.625 269.32C423.203 269.32 421.562 270.922 421.562 273.734Z" fill="white"/>
<path d="M392.461 280.062C392.461 275.336 396.289 273.773 400.352 273.539C401.875 273.441 404.727 273.305 405.625 273.266V271.547C405.586 269.789 404.375 268.734 402.227 268.734C400.273 268.734 399.023 269.633 398.711 271.078H393.203C393.555 267.406 396.758 264.516 402.383 264.516C406.992 264.516 411.367 266.586 411.367 271.703V286H405.898V283.07H405.742C404.688 285.023 402.695 286.391 399.531 286.391C395.469 286.391 392.461 284.281 392.461 280.062ZM398.008 279.906C398.008 281.547 399.336 282.406 401.172 282.406C403.789 282.406 405.664 280.648 405.625 278.422V276.859C404.746 276.898 402.285 277.035 401.289 277.133C399.297 277.328 398.008 278.266 398.008 279.906Z" fill="white"/>
<path d="M388.984 257.719V286H383.203V257.719H388.984Z" fill="white"/>
<path d="M358.398 286V257.719H369.492C375.938 257.719 379.609 261.664 379.609 267.25C379.609 272.914 375.859 276.781 369.336 276.781H364.258V286H358.398ZM364.258 272.055H368.398C371.875 272.055 373.555 270.102 373.555 267.25C373.555 264.438 371.875 262.523 368.398 262.523H364.258V272.055Z" fill="white"/>
<path d="M211.453 265.078C211.219 263.594 209.891 262.617 207.977 262.617C206.102 262.617 204.656 263.516 204.695 264.805C204.656 265.742 205.438 266.484 207.43 266.914L211.219 267.695C215.32 268.555 217.312 270.391 217.352 273.438C217.312 277.617 213.562 280.43 207.938 280.43C202.195 280.43 198.836 277.852 198.367 273.711H204.188C204.461 275.391 205.828 276.25 207.938 276.25C210.047 276.25 211.453 275.391 211.453 274.023C211.453 272.93 210.555 272.266 208.562 271.836L205.047 271.133C201.023 270.352 198.914 268.242 198.953 265.117C198.914 261.055 202.43 258.516 207.898 258.516C213.25 258.516 216.57 261.055 216.883 265.078H211.453Z" fill="white"/>
<path d="M196.023 258.789V263.125H192.039V273.477C192.039 275.156 192.859 275.586 194.031 275.625C194.617 275.625 195.633 275.586 196.336 275.508V280.078C195.711 280.195 194.695 280.273 193.25 280.273C189.07 280.273 186.219 278.398 186.258 274.297V263.125H183.328V258.789H186.258V253.711H192.039V258.789H196.023Z" fill="white"/>
<path d="M166.727 267.734V280H160.945V258.789H166.453V262.5H166.688C167.664 260.039 169.93 258.516 173.055 258.516C177.469 258.516 180.398 261.523 180.359 266.484V280H174.617V267.5C174.617 264.883 173.172 263.32 170.789 263.32C168.367 263.32 166.727 264.922 166.727 267.734Z" fill="white"/>
<path d="M147.586 280.43C141.102 280.43 137.117 276.211 137.117 269.492C137.117 262.93 141.141 258.516 147.352 258.516C152.938 258.516 157.312 262.031 157.312 269.258V270.898H142.82C142.82 274.102 144.734 276.094 147.703 276.094C149.656 276.094 151.062 275.234 151.648 273.945H157.156C156.336 277.852 152.82 280.43 147.586 280.43ZM142.82 267.266H151.844C151.844 264.688 150.047 262.852 147.469 262.852C144.812 262.852 142.918 264.824 142.82 267.266Z" fill="white"/>
<path d="M135.867 258.789L128.406 280H121.922L114.5 258.789H120.594L125.047 274.023H125.281L129.734 258.789H135.867Z" fill="white"/>
<path d="M92.7422 280V251.719H111.727V256.562H98.6016V263.438H110.75V268.281H98.6016V275.156H111.766V280H92.7422Z" fill="white"/>
<path d="M820.445 227.84C820.176 226.133 818.648 225.01 816.447 225.01C814.291 225.01 812.629 226.043 812.674 227.525C812.629 228.604 813.527 229.457 815.818 229.951L820.176 230.85C824.893 231.838 827.184 233.949 827.229 237.453C827.184 242.26 822.871 245.494 816.402 245.494C809.799 245.494 805.936 242.529 805.396 237.768H812.09C812.404 239.699 813.977 240.688 816.402 240.688C818.828 240.688 820.445 239.699 820.445 238.127C820.445 236.869 819.412 236.105 817.121 235.611L813.078 234.803C808.451 233.904 806.025 231.479 806.07 227.885C806.025 223.213 810.068 220.293 816.357 220.293C822.512 220.293 826.33 223.213 826.689 227.84H820.445Z" fill="white"/>
<path d="M788.596 245V220.607H795.02V224.83H795.289C796.188 221.82 798.434 220.248 801.174 220.248C801.848 220.248 802.701 220.338 803.285 220.473V226.402C802.656 226.223 801.398 226.043 800.455 226.043C797.445 226.043 795.244 228.154 795.244 231.119V245H788.596Z" fill="white"/>
<path d="M773.232 245.494C765.775 245.494 761.193 240.643 761.193 232.916C761.193 225.369 765.82 220.293 772.963 220.293C779.387 220.293 784.418 224.336 784.418 232.646V234.533H767.752C767.752 238.217 769.953 240.508 773.367 240.508C775.613 240.508 777.23 239.52 777.904 238.037H784.238C783.295 242.529 779.252 245.494 773.232 245.494ZM767.752 230.355H778.129C778.129 227.391 776.062 225.279 773.098 225.279C770.043 225.279 767.864 227.548 767.752 230.355Z" fill="white"/>
<path d="M741.248 230.895V245H734.6V212.477H741.068V224.875H741.338C742.461 222.045 744.932 220.293 748.615 220.293C753.691 220.293 757.061 223.707 757.061 229.457V245H750.412V230.625C750.412 227.615 748.795 225.818 746.01 225.818C743.225 225.818 741.248 227.66 741.248 230.895Z" fill="white"/>
<path d="M719.641 245.494C712.184 245.494 707.691 240.328 707.691 232.871C707.691 225.414 712.229 220.293 719.641 220.293C725.93 220.293 730.197 223.977 730.467 229.547H724.223C723.818 227.121 722.246 225.459 719.73 225.459C716.541 225.459 714.43 228.154 714.43 232.781C714.43 237.498 716.496 240.193 719.73 240.193C722.066 240.193 723.818 238.756 724.223 236.15H730.467C730.152 241.676 726.109 245.494 719.641 245.494Z" fill="white"/>
<path d="M681.861 238.172C681.861 232.736 686.264 230.939 690.936 230.67C692.688 230.558 695.967 230.4 697 230.355V228.379C696.955 226.357 695.562 225.145 693.092 225.145C690.846 225.145 689.408 226.178 689.049 227.84H682.715C683.119 223.617 686.803 220.293 693.271 220.293C698.572 220.293 703.604 222.674 703.604 228.559V245H697.314V241.631H697.135C695.922 243.877 693.631 245.449 689.992 245.449C685.32 245.449 681.861 243.023 681.861 238.172ZM688.24 237.992C688.24 239.879 689.768 240.867 691.879 240.867C694.889 240.867 697.045 238.846 697 236.285V234.488C695.989 234.533 693.159 234.69 692.014 234.803C689.723 235.027 688.24 236.105 688.24 237.992Z" fill="white"/>
<path d="M667.666 245.494C660.209 245.494 655.627 240.643 655.627 232.916C655.627 225.369 660.254 220.293 667.396 220.293C673.82 220.293 678.852 224.336 678.852 232.646V234.533H662.186C662.186 238.217 664.387 240.508 667.801 240.508C670.047 240.508 671.664 239.52 672.338 238.037H678.672C677.729 242.529 673.686 245.494 667.666 245.494ZM662.186 230.355H672.562C672.562 227.391 670.496 225.279 667.531 225.279C664.477 225.279 662.298 227.548 662.186 230.355Z" fill="white"/>
<path d="M629.482 218.047V212.477H656.121V218.047H646.148V245H639.455V218.047H629.482Z" fill="white"/>
<path d="M1639.74 265.736C1639.4 263.621 1637.51 262.229 1634.78 262.229C1632.11 262.229 1630.05 263.51 1630.11 265.347C1630.05 266.683 1631.17 267.74 1634 268.353L1639.4 269.466C1645.25 270.69 1648.09 273.307 1648.14 277.648C1648.09 283.604 1642.74 287.612 1634.73 287.612C1626.54 287.612 1621.76 283.938 1621.09 278.038H1629.38C1629.77 280.432 1631.72 281.656 1634.73 281.656C1637.73 281.656 1639.74 280.432 1639.74 278.483C1639.74 276.925 1638.46 275.979 1635.62 275.366L1630.61 274.364C1624.88 273.251 1621.87 270.245 1621.92 265.792C1621.87 260.003 1626.88 256.385 1634.67 256.385C1642.3 256.385 1647.03 260.003 1647.47 265.736H1639.74Z" fill="white"/>
<path d="M1617.75 256.774V262.953H1612.07V277.704C1612.07 280.098 1613.24 280.71 1614.91 280.766C1615.75 280.766 1617.19 280.71 1618.2 280.599V287.111C1617.31 287.278 1615.86 287.39 1613.8 287.39C1607.84 287.39 1603.78 284.718 1603.83 278.873V262.953H1599.66V256.774H1603.83V249.538H1612.07V256.774H1617.75Z" fill="white"/>
<path d="M1576 269.521V287H1567.76V256.774H1575.61V262.062H1575.95C1577.34 258.556 1580.57 256.385 1585.02 256.385C1591.31 256.385 1595.48 260.671 1595.43 267.74V287H1587.25V269.188C1587.25 265.458 1585.19 263.231 1581.79 263.231C1578.34 263.231 1576 265.514 1576 269.521Z" fill="white"/>
<path d="M1548.73 287.612C1539.49 287.612 1533.81 281.601 1533.81 272.026C1533.81 262.675 1539.54 256.385 1548.39 256.385C1556.35 256.385 1562.59 261.395 1562.59 271.692V274.03H1541.94C1541.94 278.595 1544.66 281.434 1548.89 281.434C1551.68 281.434 1553.68 280.209 1554.52 278.372H1562.36C1561.2 283.938 1556.19 287.612 1548.73 287.612ZM1541.94 268.854H1554.79C1554.79 265.18 1552.23 262.563 1548.56 262.563C1544.77 262.563 1542.07 265.375 1541.94 268.854Z" fill="white"/>
<path d="M1513.77 287V256.774H1521.73V262.007H1522.06C1523.18 258.277 1525.96 256.329 1529.36 256.329C1530.19 256.329 1531.25 256.44 1531.97 256.607V263.955C1531.19 263.732 1529.63 263.51 1528.46 263.51C1524.74 263.51 1522.01 266.126 1522.01 269.8V287H1513.77Z" fill="white"/>
<path d="M1480.54 278.539C1480.54 271.804 1485.99 269.577 1491.78 269.243C1493.95 269.104 1498.02 268.909 1499.3 268.854V266.404C1499.24 263.899 1497.52 262.396 1494.46 262.396C1491.67 262.396 1489.89 263.677 1489.45 265.736H1481.6C1482.1 260.504 1486.66 256.385 1494.68 256.385C1501.25 256.385 1507.48 259.335 1507.48 266.627V287H1499.69V282.825H1499.46C1497.96 285.608 1495.12 287.557 1490.61 287.557C1484.83 287.557 1480.54 284.551 1480.54 278.539ZM1488.44 278.316C1488.44 280.654 1490.34 281.879 1492.95 281.879C1496.68 281.879 1499.35 279.374 1499.3 276.201V273.975C1498.05 274.03 1494.54 274.225 1493.12 274.364C1490.28 274.643 1488.44 275.979 1488.44 278.316Z" fill="white"/>
<path d="M1447.42 287V246.699H1463.23C1472.41 246.699 1477.64 252.321 1477.64 260.281C1477.64 268.353 1472.3 273.863 1463 273.863H1455.77V287H1447.42ZM1455.77 267.128H1461.67C1466.62 267.128 1469.02 264.345 1469.02 260.281C1469.02 256.273 1466.62 253.546 1461.67 253.546H1455.77V267.128Z" fill="white"/>
</svg>
