<svg width="244" height="244" viewBox="0 0 244 244" fill="none" xmlns="http://www.w3.org/2000/svg">
<path d="M122 244C189.379 244 244 189.379 244 122C244 54.6213 189.379 0 122 0C54.6213 0 0 54.6213 0 122C0 189.379 54.6213 244 122 244Z" fill="#F0F0F0"/>
<path d="M193.876 80.3803H188.157V76.1197C188.157 74.563 186.829 73.3503 185.289 73.465C181.012 73.8092 171.884 73.6781 157.415 69.3192C136.44 62.9939 123.314 77.3651 123.314 77.3651C123.314 77.3651 110.172 63.0102 89.2128 69.3192C80.2 72.0394 73.252 73.1045 68.2704 73.4487C67.5657 73.4978 66.9266 73.5306 66.3039 73.547C66.1892 73.547 66.091 73.547 65.9763 73.547C64.78 73.5798 63.7312 73.5798 62.8299 73.547C62.7316 73.547 62.6169 73.547 62.5186 73.547C62.1089 73.5306 61.732 73.4978 61.3879 73.4814C61.3879 73.4814 61.3552 73.4814 61.3388 73.4814C59.7984 73.3503 58.4711 74.5794 58.4711 76.1361V80.3967H52.7521C51.6378 80.3967 50.671 80.9538 50.0974 81.806C49.7533 82.3139 49.5566 82.9366 49.5566 83.6085V173.9C49.5566 174.457 49.7041 174.965 49.9663 175.424C50.5071 176.424 51.5559 177.112 52.7685 177.112H110.45C112.154 177.112 113.727 178.062 114.465 179.603C116.038 182.913 119.414 185.223 123.33 185.223C127.247 185.223 130.622 182.929 132.195 179.603C132.916 178.062 134.506 177.112 136.21 177.112H193.892C195.662 177.112 197.104 175.67 197.104 173.9V83.6085C197.104 81.8387 195.662 80.3967 193.892 80.3967L193.876 80.3803Z" fill="#B2B2B2"/>
<path d="M189.958 73.2847H183.354V159.889C183.354 159.889 174.472 162.478 153.513 156.153C139.371 151.892 128.802 157.038 123.411 160.84C122.264 161.642 120.903 162.986 119.494 162.986H119.314C117.905 162.986 116.545 161.642 115.397 160.84C110.006 157.038 99.4367 151.892 85.2948 156.153C64.3197 162.478 55.4544 159.889 55.4544 159.889V73.2847H48.8505C47.0807 73.2847 45.6387 74.7267 45.6387 76.4965V166.788C45.6387 168.558 47.0807 170 48.8505 170H106.532C108.236 170 109.81 170.95 110.547 172.491C112.12 175.801 115.496 178.111 119.412 178.111C123.329 178.111 126.704 175.817 128.277 172.491C128.999 170.95 130.588 170 132.292 170H189.974C191.744 170 193.186 168.558 193.186 166.788V76.4965C193.186 74.7267 191.744 73.2847 189.974 73.2847" fill="#FF0000"/>
<path d="M62.0591 166.788V160.397C57.5363 160.495 55.4387 159.889 55.4387 159.889V73.2847H48.8349C47.0651 73.2847 45.623 74.7267 45.623 76.4965V166.788C45.623 168.558 47.0651 170 48.8349 170H65.2545C63.4848 170 62.0427 168.558 62.0427 166.788" fill="#FF0000"/>
<path d="M181.39 66.3857C177.113 66.7298 167.986 66.5987 153.516 62.2398C132.541 55.9145 119.415 70.2858 119.415 70.2858L117.121 73.2846V159.791L119.415 162.855V162.97H119.497C120.906 162.97 122.267 162.527 123.414 161.708C128.805 157.906 139.374 152.761 153.516 157.021C174.491 163.347 184.258 160.757 184.258 160.757V69.0076C184.258 67.4508 182.931 66.2382 181.39 66.3529" fill="#FAFDFF"/>
<path d="M57.4204 66.3857C61.6974 66.7298 70.8249 66.5987 85.2945 62.2398C106.27 55.9145 119.395 70.2858 119.395 70.2858V162.986H119.314C117.904 162.986 116.544 162.544 115.397 161.724C110.006 157.923 99.4363 152.777 85.2945 157.038C64.3193 163.363 54.5527 160.774 54.5527 160.774V69.024C54.5527 67.4672 55.8801 66.2546 57.4204 66.3693" fill="#FAFDFF"/>
<path d="M64.352 66.3692C61.3369 66.5659 59.0427 66.5167 57.4204 66.3692C55.8801 66.2381 54.5527 67.4671 54.5527 69.0239V160.774C54.5527 160.774 57.7317 161.61 64.352 161.167V66.3692Z" fill="#E0E0E0"/>
<path d="M106.106 128.672C106.351 128.787 106.646 128.836 106.925 128.836C107.236 128.836 107.531 128.77 107.793 128.639L139.191 112.941C139.682 112.695 139.977 112.269 139.977 111.81C139.977 111.351 139.682 110.925 139.191 110.679L107.793 94.9807C107.269 94.7349 106.63 94.7185 106.089 94.9479C105.565 95.1774 105.221 95.6198 105.221 96.1114V127.492C105.221 127.984 105.565 128.426 106.089 128.656" fill="#FF0000"/>
</svg>
