<svg width="244" height="244" viewBox="0 0 244 244" fill="none" xmlns="http://www.w3.org/2000/svg">
<path d="M122 244C189.379 244 244 189.379 244 122C244 54.6213 189.379 0 122 0C54.6213 0 0 54.6213 0 122C0 189.379 54.6213 244 122 244Z" fill="#F0F0F0"/>
<path d="M186.923 173.488C189.643 171.243 191.38 167.834 191.38 164.032V145.614H51.0927V164.032C51.0927 167.85 52.8297 171.259 55.5499 173.488C52.6986 171.226 50.8633 167.736 50.8633 163.819V82.8683C50.8633 76.0678 56.4021 70.5454 63.1862 70.5454H179.254C186.055 70.5454 191.577 76.0842 191.577 82.8683V163.819C191.577 167.736 189.742 171.226 186.89 173.488" fill="white"/>
<path d="M179.288 72.2659C185.138 72.2659 189.89 77.0181 189.89 82.8682V143.876H52.6014V82.8682C52.6014 77.0181 57.3535 72.2659 63.2036 72.2659H179.288ZM179.288 68.8247H63.2036C55.4363 68.8247 49.1602 75.1173 49.1602 82.8846V163.836C49.1602 171.603 55.4527 177.879 63.2036 177.879H179.288C187.055 177.879 193.332 171.587 193.332 163.836V82.8846C193.332 75.1173 187.039 68.8247 179.288 68.8247ZM63.2036 174.52C57.4846 174.52 52.8144 169.751 52.8144 164.032V147.334H189.661V164.032C189.661 169.751 185.007 174.52 179.272 174.52H63.1873H63.2036Z" fill="#C2C4C4"/>
<path d="M49.1602 147.334H52.8308H111.446H193.332V163.836C193.332 171.603 187.039 177.879 179.288 177.879H63.22C55.4527 177.879 49.1765 171.587 49.1765 163.836V147.334H49.1602Z" fill="#C2C4C4"/>
<path d="M98.8465 164.901H173.783C174.799 164.901 175.619 164.081 175.619 163.065C175.619 162.049 174.799 161.23 173.783 161.23H68.6947C67.6787 161.23 66.8594 162.049 66.8594 163.065C66.8594 164.081 67.6787 164.901 68.6947 164.901H98.8465Z" fill="#8C8C8C"/>
<path d="M86.293 167.654C86.293 168.424 86.932 169.063 87.7022 169.096H95.9612C96.7478 169.063 97.354 168.44 97.3704 167.654V158.329C97.3704 157.969 97.2066 157.625 96.928 157.379C96.6658 157.133 96.3053 157.002 95.9448 157.018H87.6858C87.3253 157.018 86.9812 157.133 86.719 157.379C86.4568 157.625 86.293 157.969 86.293 158.329V167.654Z" fill="#FF0000"/>
<path d="M108.154 126.883C108.416 126.998 108.694 127.064 108.989 127.064C109.301 127.064 109.612 126.998 109.874 126.851L141.812 110.89C142.304 110.644 142.615 110.202 142.615 109.743C142.615 109.267 142.32 108.841 141.829 108.596L109.891 92.6348C109.366 92.3726 108.711 92.3562 108.17 92.602C107.629 92.8478 107.285 93.2903 107.285 93.7819V125.72C107.285 126.211 107.629 126.67 108.17 126.9" fill="#FF0000"/>
</svg>
