<svg width="562" height="424" viewBox="0 0 562 424" fill="none" xmlns="http://www.w3.org/2000/svg">
<rect width="562" height="423.325" rx="40" fill="#FDD4CB"/>
<g clip-path="url(#clip0_4964_880)">
<mask id="mask0_4964_880" style="mask-type:luminance" maskUnits="userSpaceOnUse" x="0" y="0" width="563" height="424">
<path d="M524.435 0.571777H37.989C17.0482 0.571777 0.0722656 17.5477 0.0722656 38.4885V385.42C0.0722656 406.361 17.0482 423.337 37.989 423.337H524.435C545.376 423.337 562.352 406.361 562.352 385.42V38.4885C562.352 17.5477 545.376 0.571777 524.435 0.571777Z" fill="white"/>
</mask>
<g mask="url(#mask0_4964_880)">
<path d="M424.653 507.469L499.125 325.162L489.654 321.293L415.182 503.6L424.653 507.469Z" fill="#BCB090"/>
<path d="M415.639 503.784L490.111 321.477L480.641 317.608L406.168 499.915L415.639 503.784Z" fill="#BCB090"/>
<path d="M502.253 291.099L480.625 317.618L499.127 325.172L502.253 291.099Z" fill="#BCB090"/>
<path d="M502.253 291.099L496.316 298.386L501.401 300.454L502.253 291.099Z" fill="#BCB090"/>
<path d="M417.997 504.37L492.469 322.063L482.998 318.194L408.526 500.501L417.997 504.37Z" fill="#FFD164"/>
<path d="M408.983 500.685L483.455 318.378L473.984 314.509L399.512 496.816L408.983 500.685Z" fill="#FFE17D"/>
<path d="M495.597 288L473.969 314.519L492.471 322.073L495.597 288Z" fill="#FFEDB1"/>
<path d="M495.596 288L489.66 295.287L494.745 297.355L495.596 288Z" fill="#332602"/>
</g>
<path d="M272.729 476.861L91.9648 385.031L295.367 196.201L476.12 288.031L272.729 476.861Z" fill="#E5E5E5"/>
<path d="M272.303 469.197L91.7207 377.002L295.5 188.586L476.082 280.781L272.303 469.197Z" fill="white"/>
<path d="M355.179 263.191L291.875 232.646L301.74 223.401L365.044 253.946L355.179 263.191Z" fill="#53E67E"/>
<path d="M272.972 436.864L146.729 371.054L261.61 265.04L388.948 326.483L272.972 436.864Z" stroke="#53E67E" stroke-miterlimit="10"/>
<path d="M401.076 314.55L272.205 252.316L282.07 243.059L410.929 305.292L401.076 314.55Z" fill="#E5E6E8"/>
<path d="M290.699 220.691C291.301 219.378 290.215 217.592 288.272 216.702C286.33 215.811 284.268 216.154 283.666 217.467C283.064 218.78 284.151 220.566 286.093 221.456C288.035 222.347 290.097 222.004 290.699 220.691Z" fill="#B2B2B2"/>
<path d="M254.822 225.651C253.8 223.511 253.01 220.822 253.01 218.474C253.01 209.728 260.345 202.636 269.395 202.636C278.446 202.636 285.781 209.728 285.781 218.474" stroke="#7F7F7F" stroke-width="3" stroke-miterlimit="10" stroke-linecap="round"/>
<path d="M278.603 235.718L262.982 218.832L227.451 251.7L243.071 268.586L278.603 235.718Z" fill="white"/>
<path d="M116.889 91.7083L-73.4609 262.826L91.8668 350.167L282.217 179.049L116.889 91.7083Z" fill="#F9DA55"/>
<g opacity="0.8">
<mask id="mask1_4964_880" style="mask-type:luminance" maskUnits="userSpaceOnUse" x="-54" y="123" width="296" height="207">
<path d="M-51.0902 123.272L-53.916 325.646L238.417 329.728L241.243 127.354L-51.0902 123.272Z" fill="white"/>
</mask>
<g mask="url(#mask1_4964_880)">
<path d="M78.6562 126.158L240.444 206.748" stroke="#A39B96" stroke-width="2" stroke-miterlimit="10"/>
<path d="M63.7773 140.463L227.232 221.893" stroke="#A39B96" stroke-width="2" stroke-miterlimit="10"/>
<path d="M48.4023 154.404L214.265 237.025" stroke="#A39B96" stroke-width="2" stroke-miterlimit="10"/>
<path d="M34.1445 168.271L202.586 252.182" stroke="#A39B96" stroke-width="2" stroke-miterlimit="10"/>
<path d="M17.3105 183.55L185.363 267.266" stroke="#A39B96" stroke-width="2" stroke-miterlimit="10"/>
<path d="M0.802734 198.087L170.011 282.375" stroke="#A39B96" stroke-width="2" stroke-miterlimit="10"/>
<path d="M-16.0938 212.818L153.82 297.471" stroke="#A39B96" stroke-width="2" stroke-miterlimit="10"/>
<path d="M-33.5742 228.668L134.758 312.518" stroke="#A39B96" stroke-width="2" stroke-miterlimit="10"/>
<path d="M-52.1738 245.078L113.373 327.541" stroke="#A39B96" stroke-width="2" stroke-miterlimit="10"/>
</g>
</g>
<path d="M498.101 209.765C496.726 220.384 487.749 225.189 478.151 220.457L354.791 159.598C345.193 154.866 338.454 142.3 339.828 131.681L350.667 47.8916C352.042 37.272 361.019 32.467 370.617 37.199L493.977 98.058C503.575 102.79 510.314 115.356 508.939 125.976L498.101 209.765Z" fill="#E2E2E2"/>
<path d="M364.923 47.916H343.744L350.058 40.1429L362.088 36.8706L364.923 47.916Z" fill="#E2E2E2"/>
<path d="M486.373 220.36L476.082 222.793L472.299 207.076L485.789 201.821L486.373 220.36Z" fill="#E2E2E2"/>
<path d="M465.67 209.351C467.665 211.127 467.348 213.56 464.952 214.764L438.372 228.048C435.976 229.24 434.018 228.036 434.018 225.36V209.144C434.018 206.468 436.207 204.279 438.883 204.279H455.099C457.775 204.279 461.594 205.738 463.602 207.514L465.67 209.351Z" fill="#E2E2E2"/>
<path d="M434.82 227.841L431.305 223.839L433.725 220.36L437.825 222.379L434.82 227.841Z" fill="#E2E2E2"/>
<path d="M456.777 206.821C456.825 209.497 454.952 212.745 452.604 214.047L434.881 223.912C432.545 225.214 430.623 224.082 430.623 221.406V200.374C430.623 197.697 432.813 195.508 435.489 195.508H451.704C454.38 195.508 456.606 197.697 456.655 200.374L456.765 206.809L456.777 206.821Z" fill="white"/>
<path d="M489.22 212.125C487.845 222.744 478.868 227.549 469.27 222.817L345.91 161.958C336.312 157.226 329.573 144.66 330.948 134.041L341.786 50.2515C343.161 39.6319 352.138 34.8269 361.736 39.5589L485.096 100.418C494.694 105.15 501.433 117.716 500.058 128.335L489.22 212.125Z" fill="white"/>
<path d="M354.291 138.092L461.448 192.017" stroke="#B7B7B7" stroke-width="3" stroke-miterlimit="10" stroke-linecap="round"/>
<path d="M356.409 144.587C359.593 144.587 362.175 142.006 362.175 138.821C362.175 135.637 359.593 133.055 356.409 133.055C353.224 133.055 350.643 135.637 350.643 138.821C350.643 142.006 353.224 144.587 356.409 144.587Z" fill="#B7B7B7"/>
<path d="M380.555 157.068C383.739 157.068 386.321 154.487 386.321 151.302C386.321 148.118 383.739 145.536 380.555 145.536C377.371 145.536 374.789 148.118 374.789 151.302C374.789 154.487 377.371 157.068 380.555 157.068Z" fill="#B7B7B7"/>
<path d="M407.293 170.814C410.478 170.814 413.059 168.232 413.059 165.048C413.059 161.863 410.478 159.282 407.293 159.282C404.109 159.282 401.527 161.863 401.527 165.048C401.527 168.232 404.109 170.814 407.293 170.814Z" fill="#B7B7B7"/>
<path d="M434.81 185.253C439.123 185.253 442.619 181.757 442.619 177.444C442.619 173.131 439.123 169.634 434.81 169.634C430.496 169.634 427 173.131 427 177.444C427 181.757 430.496 185.253 434.81 185.253Z" fill="#3964FF"/>
<path d="M458.518 196.299C461.702 196.299 464.284 193.717 464.284 190.533C464.284 187.348 461.702 184.767 458.518 184.767C455.333 184.767 452.752 187.348 452.752 190.533C452.752 193.717 455.333 196.299 458.518 196.299Z" fill="#B7B7B7"/>
<path d="M396.355 110.539L406.221 135.221" stroke="#3964FF" stroke-width="10" stroke-miterlimit="10" stroke-linecap="round"/>
<path d="M407.256 134.272L447.52 110.514" stroke="#3964FF" stroke-width="10" stroke-miterlimit="10" stroke-linecap="round"/>
<path d="M236.651 188.848L245.522 183.49C246.126 183.125 246.922 183.313 247.293 183.927L255.959 198.276C256.323 198.88 256.136 199.675 255.522 200.046L246.65 205.404C246.046 205.769 245.251 205.582 244.879 204.967L236.213 190.618C235.849 190.014 236.036 189.219 236.651 188.848Z" fill="#BAA08C"/>
<path d="M191.445 256.926C189.024 258.386 185.849 257.608 184.39 255.187L163.625 220.798C162.165 218.377 162.944 215.202 165.364 213.742L196.287 195.07C198.707 193.61 202.953 191.968 205.726 191.421L229.41 186.786C232.184 186.238 235.651 187.783 237.111 190.192L245.674 204.376C247.134 206.796 246.879 210.58 245.103 212.781L229.97 231.588C228.194 233.79 224.776 236.782 222.355 238.242L191.433 256.914L191.445 256.926Z" fill="#BAA08C"/>
<path d="M26.5666 327.03C19.3652 315.109 23.197 299.599 35.1182 292.398L112.363 245.747C124.284 238.546 139.794 242.378 146.995 254.299C154.197 266.22 150.365 281.73 138.443 288.931L61.1989 335.582C49.2777 342.783 33.7679 338.952 26.5666 327.03Z" fill="#BAA08C"/>
<path d="M75.4306 322.274L53.5223 285.987C52.3789 284.078 52.9871 281.608 54.8848 280.453L168.416 211.893C170.326 210.738 172.795 211.358 173.951 213.256L195.859 249.543C197.015 251.452 196.394 253.922 194.497 255.077L80.9655 323.637C79.0556 324.792 76.5862 324.172 75.4306 322.274Z" fill="#BAA08C"/>
<path d="M231.33 185.506L239.945 180.382C240.531 180.034 241.298 180.229 241.646 180.814L249.941 194.762C250.289 195.347 250.094 196.114 249.508 196.463L240.893 201.586C240.308 201.934 239.541 201.739 239.192 201.154L230.898 187.206C230.55 186.621 230.745 185.854 231.33 185.506Z" fill="#D84D32"/>
<path d="M187.152 251.051C184.804 252.45 181.739 251.671 180.34 249.323L160.463 215.92C159.064 213.572 159.843 210.507 162.191 209.108L192.225 191.238C194.573 189.839 198.696 188.282 201.385 187.771L224.327 183.441C227.015 182.93 230.348 184.438 231.747 186.786L239.946 200.568C241.345 202.916 241.077 206.577 239.35 208.694L224.595 226.795C222.867 228.911 219.534 231.794 217.174 233.193L187.14 251.063L187.152 251.051Z" fill="#FAFDFF"/>
<path d="M27.1764 317.81C20.2913 306.229 24.0867 291.255 35.6794 284.357L110.722 239.714C122.303 232.828 137.277 236.624 144.175 248.217C151.06 259.797 147.264 274.772 135.672 281.669L60.6288 326.3C49.0482 333.198 34.0737 329.39 27.1764 317.81Z" fill="#D84D32"/>
<path d="M74.4964 313.528L53.5248 278.287C52.43 276.438 53.0382 274.042 54.8872 272.947L165.171 207.344C167.02 206.237 169.416 206.857 170.511 208.706L191.482 243.947C192.589 245.796 191.981 248.192 190.12 249.287L79.8366 314.89C77.9876 315.997 75.5912 315.389 74.4964 313.528Z" fill="#FAFDFF"/>
<path d="M58.2201 306.01C58.1106 312.031 53.1475 316.824 47.1382 316.715C41.1168 316.605 36.324 311.654 36.4335 305.633C36.543 299.611 41.4939 294.819 47.5153 294.928C53.5368 295.038 58.3296 300.001 58.2201 306.01Z" stroke="#8E2314" stroke-width="3" stroke-miterlimit="10"/>
<path fill-rule="evenodd" clip-rule="evenodd" d="M521.747 247.207C527.44 247.207 532.063 251.83 532.063 257.523C532.063 263.216 527.44 267.838 521.747 267.838C516.054 267.838 511.432 263.216 511.432 257.523C511.432 251.83 516.054 247.207 521.747 247.207Z" fill="#F7BD21"/>
<path fill-rule="evenodd" clip-rule="evenodd" d="M270.917 57.6719C278.167 57.6719 284.042 63.5473 284.042 70.7974C284.042 78.0474 278.167 83.9229 270.917 83.9229C263.666 83.9229 257.791 78.0474 257.791 70.7974C257.791 63.5473 263.666 57.6719 270.917 57.6719Z" fill="#F96F2E"/>
<path fill-rule="evenodd" clip-rule="evenodd" d="M122.497 38.8899C127.485 38.8899 131.535 42.9285 131.535 47.9281C131.535 52.9277 127.497 56.9663 122.497 56.9663C117.498 56.9663 113.459 52.9277 113.459 47.9281C113.459 42.9285 117.498 38.8899 122.497 38.8899Z" fill="#53C0E7"/>
<path d="M44.091 107.719L24.1836 97.7021L14.1669 117.61L34.0742 127.626L44.091 107.719Z" fill="#F6BE21"/>
<path d="M210.377 100.063L201.951 83.9326L185.821 92.3581L194.246 108.488L210.377 100.063Z" fill="#4A7DE0"/>
<path d="M523.135 207.843C521.383 207.21 520.471 205.3 521.115 203.573C525.786 191.007 539.982 184.511 552.767 189.109C554.519 189.742 555.431 191.652 554.787 193.379C554.142 195.106 552.196 195.995 550.444 195.362C541.175 192.029 530.871 196.737 527.489 205.86C526.845 207.587 524.898 208.475 523.147 207.843H523.135Z" fill="#87DC64" stroke="#87DC64" stroke-width="3" stroke-miterlimit="10"/>
</g>
<defs>
<clipPath id="clip0_4964_880">
<rect width="562" height="423.325" fill="white"/>
</clipPath>
</defs>
</svg>
