<svg width="244" height="244" viewBox="0 0 244 244" fill="none" xmlns="http://www.w3.org/2000/svg">
<path d="M122 244C189.379 244 244 189.379 244 122C244 54.6213 189.379 0 122 0C54.6213 0 0 54.6213 0 122C0 189.379 54.6213 244 122 244Z" fill="#F0F0F0"/>
<path d="M49.0278 70.6438H195.116C202.179 70.6438 207.898 76.3792 207.898 83.4255V163.77C207.898 170.833 202.163 176.552 195.116 176.552H49.0278C41.9651 176.552 36.2461 170.817 36.2461 163.77V83.4255C36.2461 76.3628 41.9815 70.6438 49.0278 70.6438Z" fill="#C2C4C4"/>
<path d="M34.4121 83.4254V163.77C34.4121 171.832 40.9504 178.387 49.0291 178.387H195.118C203.18 178.387 209.735 171.849 209.735 163.77V83.4254C209.735 75.363 203.196 68.8247 195.118 68.8247H49.0291C40.9668 68.8247 34.4121 75.363 34.4121 83.4254ZM195.118 72.479C201.164 72.479 206.081 77.395 206.081 83.4418V163.786C206.081 169.833 201.164 174.749 195.118 174.749H49.0291C42.9824 174.749 38.0663 169.833 38.0663 163.786V83.4418C38.0663 77.395 42.9824 72.479 49.0291 72.479H195.118Z" fill="#C2C4C4"/>
<path d="M190.577 72.479H59.9902V174.749H190.577V72.479Z" fill="#FAFDFF"/>
<path d="M45.373 111.545V132.061C45.373 133.585 46.602 134.798 48.1096 134.798C49.6172 134.798 50.8462 133.569 50.8462 132.061V111.545C50.8462 110.037 49.6172 108.808 48.1096 108.808C46.602 108.808 45.373 110.037 45.373 111.545Z" fill="#B7B7B7"/>
<path d="M79.918 126.277C80.4588 118.985 84.2605 113.348 88.8161 110.759C97.1406 106.023 104.908 109.726 109.824 110.546C113.97 111.234 119.132 111.578 127.03 106.891C132.831 103.45 135.42 102.352 136.682 102.057L135.896 100.189C135.896 100.189 130.766 101.615 129.472 96.666C128.751 93.8638 131.34 90.357 133.306 90.357C135.682 90.357 137.96 90.2587 139.419 92.7331C140.861 95.2239 139.517 97.6983 138.583 98.321C138.583 98.321 139.615 99.7631 139.828 101.123C139.828 101.123 143.974 100.402 146.039 100.91L147.284 96.3546C147.284 96.3546 142.516 94.7979 141.696 91.3894C140.861 87.981 143.04 84.2448 146.154 83.0157C149.251 81.7703 152.151 82.7044 154.331 84.3595C156.51 86.0145 158.231 89.8327 156.297 93.2575C154.544 96.3546 150.922 96.5677 150.922 96.5677C150.922 96.5677 150.201 100.287 149.988 101.631C149.988 101.631 154.445 103.385 155.265 104.22L157.018 101.73C157.018 101.73 155.052 98.108 157.542 95.7319C159.656 93.7 162.508 94.6012 163.851 95.5189C165.195 96.453 166.441 99.1404 165.294 101.418C164.196 103.598 161.885 104.827 158.985 103.286C158.985 103.286 157.952 105.04 157.739 105.974C157.739 105.974 165.506 110.841 167.162 121.394C168.817 131.947 164.982 147.367 149.775 155.954C134.568 164.54 108.071 161.541 94.5188 151.808C86.9481 146.367 79.0004 138.665 79.9345 126.244" fill="#E50012"/>
<path d="M134.668 97.8131C134.668 97.8131 132.488 98.1244 132.357 95.5025C132.341 95.0765 132.324 94.5029 132.636 94.0441C132.963 93.5689 133.504 93.3067 134.16 92.7332C134.979 92.0122 135.913 92.3235 136.847 93.2576C137.781 94.1916 138.092 95.224 137.158 96.2563C137.158 96.2563 135.913 94.9126 134.881 95.5353C133.848 96.158 134.356 97.2887 134.668 97.8131Z" fill="#8DC21F"/>
<path d="M146.891 93.3231C146.891 93.3231 143.679 92.3399 143.941 89.1281C144.203 85.9163 147.284 85.3264 148.529 85.3919C149.775 85.4574 152.266 84.9331 153.511 88.1449C154.756 91.3567 152.462 93.3887 150.168 93.5853C150.168 93.5853 150.168 90.3079 148.726 90.5701C147.284 90.8323 147.022 91.0945 146.891 93.3231Z" fill="#8DC21F"/>
<path d="M159.051 99.5009C159.051 99.5009 158.706 98.1244 159.886 97.5017C161.066 96.879 161.541 97.4362 162.099 97.8459C162.656 98.2556 163.688 98.2555 163.541 99.2224C163.41 100.189 162.852 101.779 160.853 101.5C160.853 101.5 162.262 100.156 161.197 99.2879C160.444 98.6652 159.067 99.5009 159.067 99.5009" fill="#8DC21F"/>
<path d="M93.7157 117.723C94.6169 116.559 96.5177 115.855 98.7463 115.445C103.236 114.626 106.956 114.265 111.299 115.576C115.641 116.887 121.377 119.984 118.411 131.586C118.411 131.586 121.032 131.176 121.868 132.684C122.688 134.208 123.048 136.617 120.688 137.518C118.345 138.419 112.61 140.14 108.693 139.927C108.693 139.927 107.726 141.238 108.07 143.385C108.415 145.531 110.07 148.694 108.759 150.218C107.448 151.742 104.203 152.496 102.827 149.743C102.204 148.497 101.827 146.728 101.581 144.974C101.27 142.778 101.45 140.566 101.712 139.796C101.712 139.796 96.5341 139.321 94.3383 138.485C92.126 137.666 90.6184 136.306 91.1592 134.077C91.5689 132.356 93.65 131.668 95.0921 132.078C96.5341 132.487 102.204 134.077 106.546 133.946C110.348 133.831 111.381 134.224 112.265 131.258C113.298 127.85 114.822 122.737 110.332 121.393C106.186 120.148 101.024 121.049 99.4346 121.393C97.8451 121.738 96.7472 123.393 94.1908 121.459C92.9127 120.492 92.8144 118.886 93.7157 117.739" fill="white"/>
<path d="M153.87 131.717C152.346 131.226 150.15 132.193 148.217 132.75C146.283 133.307 143.251 133.241 143.251 133.241L143.317 130.144C144.907 130.013 146.283 129.931 149.872 129.456C153.46 128.981 153.247 126.211 153.395 124.769C153.526 123.327 153.608 121.312 152.985 117.461C152.363 113.594 148.086 113.872 138.909 113.938C129.732 114.003 128.487 114.691 127.52 116.002C126.553 117.313 126.832 123.049 126.832 125.802C126.832 128.555 128.356 128.768 130.552 129.325C132.764 129.882 136.828 130.161 136.828 130.161L136.893 133.34C132.616 133.274 128.553 131.406 126.471 131.685C124.407 131.963 124.341 133.897 124.603 135.617C124.882 137.338 130.879 139.337 136.598 139.698C142.334 140.042 144.939 139.829 150.265 138.6C155.574 137.354 155.443 136.388 155.64 134.946C155.853 133.504 155.361 132.258 153.854 131.767M136.549 123.999C134.419 123.868 132.551 124.065 132.764 121.787C132.764 121.787 132.485 120.197 134.419 120.066C136.353 119.919 141.105 120.001 143.038 120.066C144.972 120.132 147.037 119.788 147.315 121.23C147.594 122.688 147.594 123.721 145.251 123.917C142.907 124.13 138.696 124.13 136.566 123.983" fill="white"/>
<path d="M127.243 144.548C127.243 144.548 126.686 141.582 128.832 140.55C130.963 139.517 132.7 140.55 132.978 141.238C133.257 141.926 133.47 144.679 135.879 144.892C138.288 145.105 143.335 145.368 146.776 144.483C150.217 143.581 152.151 143.041 152.987 144.696C153.806 146.351 154.576 148.907 151.2 149.874C147.825 150.841 139.058 151.529 134.994 150.972C130.93 150.415 128.226 148.481 127.259 144.548" fill="white"/>
</svg>
