<svg width="244" height="244" viewBox="0 0 244 244" fill="none" xmlns="http://www.w3.org/2000/svg">
<path d="M122 244C189.379 244 244 189.379 244 122C244 54.6213 189.379 0 122 0C54.6213 0 0 54.6213 0 122C0 189.379 54.6213 244 122 244Z" fill="#F0F0F0"/>
<path d="M155.443 55.7153H85.3731C82.2433 55.7153 79.7033 58.2553 79.7033 61.3852V137.617H75.9835C75.1969 137.617 74.5742 138.256 74.5742 139.026V172.963V176.65C74.5742 177.371 75.115 177.928 75.8032 178.027C75.8688 178.027 75.9179 178.059 75.9835 178.059H79.7033V183.156V190.497C79.7033 193.627 82.2433 196.167 85.3731 196.167H176.091C179.221 196.167 181.761 193.627 181.761 190.497V82.0326L155.443 55.7153Z" fill="#B2B2B2"/>
<path d="M72.2637 53.1263C72.2637 50.0292 74.7708 47.522 77.8679 47.522H147.135L173.157 73.5443V180.78C173.157 183.877 170.65 186.384 167.553 186.384H77.8679C74.7708 186.384 72.2637 183.877 72.2637 180.78V53.1263Z" fill="#FAFDFF"/>
<path d="M154.017 168.473H68.5921C67.8219 168.473 67.1992 167.85 67.1992 167.08V129.898C67.1992 129.128 67.8219 128.506 68.5921 128.506H154.017C154.787 128.506 155.41 129.128 155.41 129.898V167.08C155.41 167.85 154.787 168.473 154.017 168.473Z" fill="#FF0000"/>
<path d="M68.5928 168.473H154.017C154.788 168.473 155.41 167.85 155.41 167.08V163.442H67.1836V167.08C67.1836 167.85 67.8063 168.473 68.5765 168.473" fill="#FC2B3A"/>
<path d="M147.117 72.9871C147.117 76.0842 149.624 78.5914 152.722 78.5914H173.139V73.5443L147.117 47.522V72.9707V72.9871Z" fill="#C9C9C9"/>
<path d="M152.722 73.5443H173.139L147.117 47.522V67.94C147.117 71.0371 149.624 73.5443 152.722 73.5443Z" fill="#E0E0E0"/>
<path d="M155.426 160.935V167.08C155.426 167.851 154.803 168.473 154.033 168.473H72.2793V173.504H154.033C154.803 173.504 155.426 172.881 155.426 172.111V160.935Z" fill="#D6D8D8"/>
<path d="M101.498 161.804C102.662 161.804 103.596 160.853 103.596 159.706V138.436C103.596 137.551 103.022 136.748 102.186 136.453C101.302 136.142 100.286 136.47 99.7612 137.256L94.206 145.368L88.6509 137.256C88.1265 136.503 87.1761 136.158 86.2912 136.437C85.4063 136.716 84.8164 137.519 84.8164 138.436V159.723C84.8164 160.886 85.7505 161.82 86.9139 161.82C88.0774 161.82 89.0114 160.87 89.0114 159.723V145.237L92.469 150.284C93.2884 151.48 95.1073 151.48 95.9267 150.284L99.3843 145.237V159.739C99.3843 160.903 100.318 161.837 101.482 161.837" fill="#F7F5F7"/>
<path d="M110.463 136.289C109.299 136.289 108.365 137.223 108.365 138.387V159.706C108.365 160.87 109.299 161.804 110.463 161.804C111.626 161.804 112.56 160.87 112.56 159.706V152.676H114.346C118.869 152.676 122.54 149.005 122.54 144.483C122.54 139.96 118.869 136.289 114.346 136.289H110.463ZM118.345 144.483C118.345 146.679 116.559 148.481 114.346 148.481H112.56V140.484H114.346C116.559 140.484 118.345 142.271 118.345 144.483Z" fill="#F7F5F7"/>
<path d="M132.06 136.289C127.963 136.289 124.637 139.616 124.637 143.713C124.637 144.876 125.571 145.81 126.734 145.81C127.898 145.81 128.832 144.876 128.832 143.713C128.832 141.926 130.274 140.484 132.06 140.484C133.846 140.484 135.288 141.926 135.288 143.713C135.288 145.499 133.846 146.941 132.06 146.941C130.896 146.941 129.962 147.875 129.962 149.038C129.962 150.202 130.896 151.136 132.06 151.136C133.846 151.136 135.288 152.578 135.288 154.364C135.288 156.15 133.846 157.592 132.06 157.592C130.274 157.592 128.832 156.134 128.832 154.364C128.832 153.201 127.898 152.266 126.734 152.266C125.571 152.266 124.637 153.201 124.637 154.364C124.637 158.461 127.963 161.787 132.06 161.787C136.157 161.787 139.483 158.461 139.483 154.364C139.483 152.283 138.615 150.382 137.222 149.038C138.615 147.695 139.483 145.794 139.483 143.713C139.483 139.616 136.157 136.289 132.06 136.289Z" fill="#F7F5F7"/>
<path d="M137.648 78.1C137.648 75.134 134.993 72.7251 132.027 73.0201L108.365 75.3798C105.743 75.642 103.76 77.8214 103.76 80.4597V103.188C102.744 102.746 101.63 102.484 100.466 102.484H100.417C95.8614 102.484 92.158 106.171 92.1252 110.726C92.0924 115.249 95.845 119.034 100.368 119.067C104.874 119.067 108.709 115.364 108.709 110.808V80.4597C108.709 80.3778 108.774 80.3122 108.856 80.2958L132.519 77.9362C132.617 77.9362 132.699 78.0017 132.699 78.1V100.304C129.618 98.9441 125.915 99.6323 123.522 101.992C121.949 103.549 121.064 105.63 121.064 107.842C121.032 112.414 124.735 116.15 129.307 116.183C133.813 116.183 137.648 112.48 137.648 107.924V78.1Z" fill="#9E9E9E"/>
</svg>
