<svg width="244" height="244" viewBox="0 0 244 244" fill="none" xmlns="http://www.w3.org/2000/svg">
<path d="M122 244C189.379 244 244 189.379 244 122C244 54.6213 189.379 0 122 0C54.6213 0 0 54.6213 0 122C0 189.379 54.6213 244 122 244Z" fill="#F0F0F0"/>
<path d="M181.234 75.3939C172.058 66.2009 157.162 66.2009 147.986 75.3775L137.121 86.2256C137.121 86.2256 137.121 86.2256 137.105 86.242L99.0545 124.227L72.6881 150.56L59.1362 179.631L61.6106 182.105L53.7285 189.971L66.4611 202.72L74.3432 194.854L76.8176 197.328L105.904 183.809L126.519 163.211L144.675 145.087C144.774 144.989 144.888 144.907 144.987 144.809L181.202 108.626C190.395 99.4498 190.395 84.5541 181.218 75.3775L181.234 75.3939Z" fill="#B2B2B2"/>
<path d="M56.5219 173.038L50.3195 179.233C49.6792 179.873 49.6787 180.911 50.3183 181.551L60.7413 191.985C61.3809 192.625 62.4185 192.626 63.0588 191.986L69.2612 185.79C69.9015 185.151 69.902 184.113 69.2624 183.473L58.8394 173.039C58.1997 172.398 57.1622 172.398 56.5219 173.038Z" fill="#FF0000"/>
<path d="M89.8307 119.261C92.3871 116.721 96.5494 116.721 99.1057 119.261L123.08 143.252C125.62 145.808 125.62 149.97 123.08 152.527L105.988 169.602C103.432 172.142 98.6796 175.485 95.4023 176.992L78.1961 184.989C74.9187 186.513 70.1665 185.661 67.6266 183.121L59.2038 174.682C56.6638 172.125 55.8117 167.373 57.3357 164.096L65.3488 146.906C66.8728 143.645 70.1993 138.876 72.7557 136.336L89.8471 119.261H89.8307Z" fill="#FAFDFF"/>
<path d="M107.215 101.959C98.0268 111.137 98.019 126.026 107.197 135.214C116.376 144.402 131.265 144.41 140.453 135.232L176.67 99.0522C185.858 89.8738 185.866 74.9849 176.688 65.7969C167.509 56.6088 152.62 56.601 143.432 65.7795L107.215 101.959Z" fill="#FF0000"/>
<path d="M137.842 76.6553L165.765 104.611C167.223 106.086 167.223 108.462 165.765 109.921L121.963 153.641C120.488 155.099 118.112 155.099 116.654 153.641L88.7305 125.685C87.2721 124.21 87.2721 121.834 88.7305 120.375L132.533 76.6553C134.007 75.1969 136.383 75.1969 137.842 76.6553Z" fill="#FAFDFF"/>
<path d="M134.451 121.179C141.917 121.179 147.97 115.126 147.97 107.66C147.97 100.193 141.917 94.1404 134.451 94.1404C126.984 94.1404 120.932 100.193 120.932 107.66C120.932 115.126 126.984 121.179 134.451 121.179Z" stroke="#B7B7B7" stroke-width="4" stroke-miterlimit="10"/>
<path d="M95.3027 148.397L102.546 141.154" stroke="#9FA0A0" stroke-width="4" stroke-miterlimit="10" stroke-linecap="round"/>
</svg>
