<?xml version="1.0" encoding="UTF-8"?>
<svg id="Layer_1" xmlns="http://www.w3.org/2000/svg" version="1.1" viewBox="0 0 331 300">
  <!-- Generator: Adobe Illustrator 29.0.1, SVG Export Plug-In . SVG Version: 2.1.0 Build 192)  -->
  <defs>
    <style>
      .st0 {
        fill: #fff;
      }

      .st1 {
        fill: #e50012;
      }

      .st2 {
        fill: #8dc21f;
      }
    </style>
  </defs>
  <path class="st1" d="M12.79,166.04c1.94-25.81,15.37-45.74,31.47-54.9,29.47-16.74,56.91-3.63,74.29-.73,14.64,2.44,32.94,3.67,60.87-12.93,20.49-12.17,29.64-16.07,34.16-17.08l-2.8-6.59s-18.16,5.03-22.69-12.44c-2.56-9.88,6.59-22.32,13.54-22.32,8.42,0,16.47-.37,21.59,8.41,5.12,8.79.37,17.57-2.93,19.76,0,0,3.66,5.12,4.39,9.88,0,0,14.64-2.56,21.96-.73l4.39-16.11s-16.84-5.49-19.76-17.57c-2.93-12.08,4.76-25.25,15.74-29.64,10.98-4.4,21.22-1.11,28.91,4.75,7.68,5.86,13.82,19.35,6.94,31.47-6.22,10.98-19.03,11.71-19.03,11.71,0,0-2.56,13.17-3.29,17.93,0,0,15.74,6.22,18.67,9.15l6.22-8.78s-6.96-12.81,1.83-21.23c7.47-7.16,17.56-4.02,22.32-.73,4.75,3.29,9.14,12.81,5.12,20.86-3.86,7.72-12.07,12.08-22.32,6.59,0,0-3.66,6.22-4.39,9.51,0,0,27.44,17.21,33.3,54.54,5.86,37.32-7.69,91.86-61.48,122.22-53.8,30.37-147.48,19.76-195.42-14.64-26.79-19.22-54.9-46.47-51.61-90.39"/>
  <path class="st2" d="M206.39,65.4s-7.69,1.1-8.17-8.17c-.08-1.51-.1-3.55.98-5.13,1.16-1.7,3.07-2.62,5.37-4.63,2.93-2.56,6.22-1.46,9.51,1.83,3.3,3.29,4.39,6.96,1.1,10.61,0,0-4.39-4.76-8.05-2.56-3.66,2.2-1.83,6.22-.73,8.05"/>
  <path class="st2" d="M249.66,49.51s-11.35-3.47-10.43-14.82c.93-11.35,11.81-13.44,16.21-13.2,4.4.23,13.21-1.62,17.61,9.73,4.4,11.35-3.7,18.53-11.81,19.23,0,0,0-11.58-5.1-10.66-5.1.92-6.02,1.85-6.49,9.73"/>
  <path class="st2" d="M292.63,71.38s-1.22-4.88,2.93-7.07c4.14-2.2,5.85-.24,7.81,1.22,1.95,1.46,5.6,1.46,5.12,4.88-.49,3.42-2.44,9.03-9.51,8.05,0,0,4.97-4.74,1.21-7.81-2.68-2.2-7.56.73-7.56.73"/>
  <path class="st0" d="M61.59,135.79c3.17-4.09,9.88-6.59,17.81-8.06,15.86-2.93,29.03-4.14,44.4.49,15.37,4.64,35.62,15.62,25.13,56.6,0,0,9.27-1.46,12.2,3.91,2.93,5.36,4.15,13.91-4.15,17.08-8.29,3.17-28.54,9.27-42.45,8.54,0,0-3.41,4.64-2.19,12.2,1.22,7.56,7.07,18.78,2.44,24.16-4.64,5.37-16.1,8.04-20.98-1.71-2.19-4.38-3.53-10.69-4.39-16.84-1.09-7.77-.46-15.57.49-18.29,0,0-18.3-1.71-26.1-4.64-7.81-2.93-13.13-7.7-11.23-15.61,1.47-6.1,8.79-8.54,13.91-7.07,5.12,1.46,25.13,7.07,40.5,6.59,13.42-.43,17.08.98,20.25-9.52,3.65-12.06,9.06-30.12-6.83-34.89-14.64-4.39-32.94-1.22-38.55,0-5.61,1.22-9.51,7.07-18.54.24-4.51-3.41-4.88-9.08-1.71-13.17"/>
  <path class="st0" d="M274.33,185.32c-5.37-1.71-13.17,1.71-20.01,3.66-6.83,1.95-17.56,1.71-17.56,1.71l.24-10.98c5.61-.49,10.49-.73,23.18-2.44,12.68-1.7,11.95-11.46,12.44-16.59.49-5.12.74-12.2-1.46-25.86-2.19-13.66-17.32-12.69-49.77-12.44-32.45.24-36.84,2.68-40.26,7.31-3.42,4.64-2.44,24.89-2.44,34.65s5.37,10.49,13.17,12.44c7.81,1.96,22.2,2.93,22.2,2.93l.24,11.22c-15.12-.24-29.52-6.84-36.84-5.86-7.32.98-7.56,7.81-6.59,13.91.98,6.11,22.21,13.18,42.45,14.4,20.26,1.21,29.52.48,48.31-3.91,18.78-4.39,18.29-7.81,19.03-12.93.74-5.12-.97-9.52-6.34-11.22M213.09,157.99c-7.56-.49-14.15.24-13.41-7.81,0,0-.98-5.61,5.86-6.09,6.83-.49,23.66-.24,30.49,0,6.83.24,14.15-.98,15.12,4.14.98,5.13.98,8.79-7.32,9.52-8.29.73-23.18.73-30.74.24"/>
  <path class="st0" d="M180.16,230.69s-1.95-10.49,5.61-14.15c7.56-3.66,13.66,0,14.64,2.44.98,2.43,1.71,12.19,10.25,12.93,8.54.73,26.35,1.71,38.55-1.47,12.19-3.17,19.03-5.12,21.96.73,2.93,5.86,5.61,14.89-6.34,18.3-11.96,3.41-42.94,5.86-57.34,3.91-14.39-1.95-23.91-8.79-27.32-22.69"/>
</svg>