<?xml version="1.0" encoding="UTF-8"?>
<svg id="Layer_1" xmlns="http://www.w3.org/2000/svg" xmlns:xlink="http://www.w3.org/1999/xlink" version="1.1" viewBox="0 0 167.6 53.5">
  <!-- Generator: Adobe Illustrator 29.0.1, SVG Export Plug-In . SVG Version: 2.1.0 Build 192)  -->
  <defs>
    <style>
      .st0, .st1, .st2 {
        fill: none;
      }

      .st3 {
        isolation: isolate;
      }

      .st4 {
        fill: red;
        fill-rule: evenodd;
      }

      .st5 {
        fill: #fff;
      }

      .st1, .st2 {
        stroke: red;
        stroke-miterlimit: 8;
        stroke-width: .5px;
      }

      .st2 {
        stroke-dasharray: 1.5 .5;
      }

      .st6 {
        clip-path: url(#clippath);
      }
    </style>
    <clipPath id="clippath">
      <rect class="st0" x="44.9" y="12.8" width="25" height="31.2"/>
    </clipPath>
  </defs>
  <rect class="st5" x="37.7" y="8.6" width="96.4" height="33.3" rx="5.5" ry="5.5"/>
  <rect class="st2" x="37.7" y="8.6" width="96.4" height="33.3" rx="5.5" ry="5.5"/>
  <g>
    <path d="M86.3,25h1.3v-3.1h.7v8.1h-.7v-4.3h-1.3v2.4h-3.3v-5.3h3.3v2.3ZM83.7,27.5h1.9v-4.1h-1.9v4.1ZM90.1,30.4h-.7v-8.7h.7v8.7Z"/>
    <path d="M96,24c0,1.1-.9,1.9-2.2,1.9s-2.3-.8-2.3-1.9.9-1.9,2.3-1.9c1.3,0,2.2.8,2.2,1.9ZM92.2,24c0,.8.6,1.3,1.5,1.3s1.5-.5,1.5-1.3-.6-1.3-1.5-1.3-1.5.5-1.5,1.3ZM98.4,28.7h-4.9v1h5.2v.6h-5.9v-2.2h4.9v-.9h-4.9v-.6h5.6v2.1ZM98.4,26.2h-.8v-4.5h.8v4.5Z"/>
  </g>
  <g>
    <path d="M107.5,26.1l-.4.6c-1-.3-1.8-1-2.2-1.8-.4,1-1.2,1.7-2.2,2.1l-.4-.6c1.3-.4,2.2-1.5,2.2-2.7v-.2h-2v-.6h2v-1.1h.8v1.1h1.9v.6h-2v.2c0,1.1.9,2.1,2.2,2.5h0ZM110.1,29.8l-.3.6c-1.3-.2-2.5-.9-3-1.9-.5,1-1.7,1.7-3.1,1.9l-.3-.6c1.5-.3,2.9-1.2,2.9-2.4v-.2h.8v.2c0,1.2,1.4,2.2,3,2.4ZM109.6,27.8h-.8v-2.9h-1.8v-.6h1.8v-2.5h.8v6h0Z"/>
    <path d="M113.3,28.1v-1c-1-.1-1.7-.7-1.7-1.6,0-1,.8-1.6,2.1-1.6s2.1.6,2.1,1.6c0,.9-.7,1.5-1.7,1.6v.9c.8,0,1.6-.1,2.4-.2v.6c-1.8.3-3.9.3-5.4.3v-.6c.6,0,1.4,0,2.3,0h0ZM116.3,23.4h-5.2v-.6h2.2v-1h.8v1h2.2v.6h0ZM112.3,25.5c0,.6.5,1,1.3,1,.8,0,1.3-.4,1.3-1s-.5-1-1.3-1-1.3.4-1.3,1ZM117.7,25.4h1.4v.6h-1.4v4.3h-.8v-8.7h.8v3.7Z"/>
    <path d="M124,23.3h2v-1.5h.8v6.3h-.8v-2.3h-2v.8h-4v-4.1h4v.8h0ZM120.8,25.9h2.5v-2.8h-2.5v2.8ZM127,30.2h-5.8v-2.7h.8v2.1h5v.6ZM126.1,25.1v-1.2h-2v1.2h2Z"/>
  </g>
  <g class="st6">
    <image class="st3" width="105" height="130" transform="translate(44.9 13) scale(.2)" xlink:href="05_1-1.png"/>
  </g>
  <path class="st4" d="M59.2,31.4c0-3.5,2.8-6.4,6.4-6.4h9.9c3.5,0,6.4,2.9,6.4,6.4s-2.8,6.4-6.4,6.4h-9.9c-3.5,0-6.4-2.8-6.4-6.4Z"/>
  <path class="st4" d="M35.8,26.2c0-1,.8-1.9,1.9-1.9s1.9.8,1.9,1.9-.8,1.9-1.9,1.9-1.9-.8-1.9-1.9Z"/>
  <line class="st2" x1="5.1" y1="26.3" x2="38" y2="26.3"/>
  <line class="st1" x1="15.7" y1="26.3" x2="37.7" y2="26.3"/>
  <g>
    <path class="st5" d="M67.7,34.4c-1.7,0-3-1.2-3-3.2s1.3-3.2,3-3.2,3,1.2,3,3.2-1.3,3.2-3,3.2ZM67.7,29.1c-1,0-1.7.7-1.7,2.1s.7,2.1,1.7,2.1,1.6-.7,1.6-2.1-.7-2.1-1.6-2.1Z"/>
    <path class="st5" d="M72.9,34.3h-1.3v-4.7h1.2v.8h0c.2-.5.7-.9,1.4-.9s1.7.7,1.7,1.8v3h-1.3v-2.8c0-.6-.3-.9-.9-.9s-.9.4-.9,1c0,0,0,2.7,0,2.7Z"/>
  </g>
</svg>