<?xml version="1.0" encoding="UTF-8"?>
<svg id="Layer_1" xmlns="http://www.w3.org/2000/svg" xmlns:xlink="http://www.w3.org/1999/xlink" version="1.1" viewBox="0 0 167.6 99.2">
  <!-- Generator: Adobe Illustrator 29.0.1, SVG Export Plug-In . SVG Version: 2.1.0 Build 192)  -->
  <defs>
    <style>
      .st0 {
        fill: none;
      }

      .st1 {
        isolation: isolate;
      }

      .st2 {
        fill: #fff;
      }

      .st3 {
        fill: #f2f2f2;
      }

      .st4 {
        fill: #bfbfbf;
      }

      .st5 {
        clip-path: url(#clippath);
      }
    </style>
    <clipPath id="clippath">
      <rect class="st0" x="33.2" y="4.7" width="131.3" height="94.6"/>
    </clipPath>
  </defs>
  <g class="st5">
    <image class="st1" width="545" height="395" transform="translate(33.6 4.7) scale(.2)" xlink:href="05_2-1.png"/>
  </g>
  <rect class="st2" x="38.9" y="10.2" width="119.8" height="83.6" rx="7.2" ry="7.2"/>
  <path d="M54.2,27.2l-.5.9c-.9-.2-1.5-.8-1.9-1.4-.3.7-1,1.3-1.9,1.6l-.5-.9c1.3-.4,1.9-1.3,1.9-2.2h0s-1.6,0-1.6,0v-.9h1.6v-.8h1.1v.8h1.6v.9h-1.6c0,.9.6,1.7,1.9,2h0ZM56.6,30.5l-.4.9c-1.3-.2-2.2-.8-2.7-1.6-.5.8-1.4,1.4-2.7,1.6l-.4-.9c1.7-.2,2.5-1.2,2.6-2h0c0-.1,1.2-.1,1.2-.1h0c0,1,.8,1.9,2.6,2.1ZM56.1,28.9h-1.1v-2.4h-1.3v-.9h1.3v-2.1h1.1v5.5Z"/>
  <g>
    <path d="M61.1,29.1v-.7c-.8-.2-1.4-.7-1.4-1.4,0-.9.8-1.5,2-1.5s2,.6,2,1.5c0,.7-.6,1.3-1.4,1.4v.6c.6,0,1.3,0,1.9-.2v.8c-1.6.3-3.5.3-4.8.3l-.2-.9c.6,0,1.3,0,2,0h0ZM64,25.2h-4.8v-.9h1.8v-.8h1.1v.8h1.8v.9h0ZM60.8,27c0,.4.4.7.9.7s.9-.2.9-.7-.4-.7-.9-.7-.9.2-.9.7ZM65.6,26.7h1.1v.9h-1.1v3.8h-1.1v-8h1.1v3.2h0Z"/>
    <path d="M71.1,24.7h1.5v-1.2h1.1v5.8h-1.1v-2h-1.5v.7h-3.8v-3.9h3.8v.6h0ZM73.9,31.3h-5.5v-2.6h1.1v1.7h4.4v.9h0ZM68.4,27.1h1.6v-2.1h-1.6v2.1ZM72.6,26.4v-.8h-1.5v.8h1.5Z"/>
  </g>
  <g>
    <path d="M80.3,26.3h.8v-2.8h1.1v7.5h-1.1v-3.8h-.8v2.2h-3.2v-5.2h3.2s0,2.1,0,2.1ZM78.1,28.5h1.1v-3.4h-1.1v3.4ZM83.8,31.4h-1.1v-8h1.1v8Z"/>
    <path d="M89,25.5c0,1.1-.9,1.8-2.1,1.8s-2.2-.8-2.2-1.8.9-1.8,2.2-1.8,2.1.8,2.1,1.8ZM85.8,25.5c0,.6.4.9,1.1.9s1.1-.3,1.1-.9-.4-.9-1.1-.9-1.1.3-1.1.9ZM91.3,29.9h-4.2v.5h4.5v.9h-5.6v-2.2h4.2v-.5h-4.2v-.9h5.4v2.2h0ZM91.3,27.4h-1.1v-4h1.1v4Z"/>
    <path d="M99.7,30.5h-7.3v-.9h3.1v-1.2h-2.2v-2.7h4.5v-.9h-4.5v-.9h5.6v2.7h-4.5v.9h4.7v.9h-2.5v1.2h3.1v.9h0Z"/>
  </g>
  <g>
    <path d="M107.1,26.5l-.6.9c-.9-.3-1.4-.8-1.8-1.5-.3.8-1,1.4-1.9,1.7l-.6-.9c1.3-.4,1.9-1.4,1.9-2.4v-.6h1.1v.6c0,1,.6,1.9,1.8,2.3h0ZM109,30h-4.2v.5h4.4v.9h-5.5v-2.2h4.2v-.5h-4.2v-.9h5.3v2.1ZM109,27.5h-1.1v-2h-1.5v-.9h1.5v-1.2h1.1v4.1h0Z"/>
    <path d="M114.6,24.8h-1.6c0,.9.6,1.9,1.8,2.3l-.6.9c-.9-.3-1.5-.9-1.8-1.6-.4.8-1,1.5-1.9,1.8l-.6-.9c1.3-.4,1.9-1.5,1.9-2.5h-1.6v-.9h4.3s0,.9,0,.9ZM116.8,29.9c0,1-1.1,1.5-2.8,1.5s-2.8-.6-2.8-1.5,1.1-1.5,2.8-1.6c1.7,0,2.8.6,2.8,1.6ZM112.4,29.9c0,.5.6.7,1.6.7s1.6-.2,1.6-.7-.6-.7-1.6-.7-1.6.2-1.6.7ZM116.7,28.2h-1.1v-1.9h-1.2v-.9h1.2v-1.9h1.1v4.8Z"/>
  </g>
  <path d="M52.2,40.7c0,.8-.6,1.4-1.4,1.4s-1.4-.6-1.4-1.4.6-1.4,1.4-1.4c.8,0,1.4.6,1.4,1.4ZM49.9,40.7c0,.5.4.9.9.9s.9-.4.9-.9-.4-.9-.9-.9-.9.4-.9.9ZM51.1,43.3h3v-.7h.5v2.4h-4v-2.4h.5s0,.7,0,.7ZM54,44.6v-.8h-3v.8h3ZM54.5,42.3h-.5v-1.5h-.8v1.4h-.5v-3.1h.5v1.3h.8v-1.4h.5v3.3h0Z"/>
  <g>
    <path d="M60.8,41.6l-.3.4c-.7-.2-1.3-.8-1.5-1.4-.3.7-.8,1.3-1.6,1.5l-.3-.4c.9-.3,1.6-1.1,1.6-2v-.5h.5v.5c0,.9.7,1.6,1.5,1.9ZM62.1,43.9h-3.4v.7h3.6v.4h-4.2v-1.5h3.4v-.6h-3.4v-.4h4v1.5h0ZM62.1,42.1h-.5v-3.2h.5v3.2Z"/>
    <path d="M66.2,40.2h-3.1v-.4h1.3v-.7h.5v.7h1.3v.4ZM65.9,41.5c0,.6-.5,1-1.3,1s-1.3-.4-1.3-1c0-.6.5-1,1.3-1s1.3.4,1.3,1ZM63.8,41.5c0,.4.3.6.8.6s.8-.2.8-.6-.3-.6-.8-.6-.8.3-.8.6ZM68.3,44c0,.7-.8,1.1-2,1.1s-2-.4-2-1.1.8-1.1,2-1.1,2,.4,2,1.1ZM64.8,44c0,.4.6.6,1.5.6s1.5-.2,1.5-.6c0-.4-.6-.7-1.5-.6-.9,0-1.5.2-1.5.6ZM68.3,42.8h-.5v-1.7h-.8v1.5h-.5v-3.5h.5v1.5h.8v-1.7h.5v3.9Z"/>
  </g>
  <path d="M74.7,43.3l-.3.4c-.7-.3-1.3-1.1-1.6-1.9-.3.9-.9,1.7-1.6,2l-.3-.4c.9-.4,1.7-1.6,1.7-2.7v-1.1h.5v1.1c0,1.1.8,2.2,1.7,2.6h0ZM75.9,45.1h-.5v-6.1h.5v6.1Z"/>
  <path d="M82.2,42l-.2.4c-.7-.2-1.2-.7-1.5-1.3-.3.7-.8,1.2-1.5,1.4l-.3-.4c.9-.3,1.5-1.1,1.5-1.9h0c0-.1-1.4-.1-1.4-.1v-.4h1.4v-.8h.5v.8h1.4v.4h-1.4c0,.9.6,1.6,1.5,1.9h0ZM84,44.6l-.2.4c-.9-.2-1.8-.6-2.1-1.3-.4.7-1.2,1.2-2.1,1.3l-.2-.4c1.1-.2,2.1-.8,2.1-1.7h0c0-.1.6-.1.6-.1h0c0,1,1,1.6,2.1,1.8h0ZM83.7,43.2h-.5v-2h-1.2v-.4h1.2v-1.7h.5v4.2Z"/>
  <g>
    <path d="M88,43.4v-.7c-.7,0-1.2-.5-1.2-1.1,0-.7.6-1.1,1.4-1.1s1.4.4,1.4,1.1-.5,1-1.2,1.1v.7c.6,0,1.1,0,1.7-.2v.4c-1.3.2-2.7.2-3.8.2v-.5c.4,0,1,0,1.6,0h0ZM90.1,40.2h-3.7v-.4h1.6v-.7h.5v.7h1.6v.4h0ZM87.3,41.7c0,.4.4.7.9.7.6,0,.9-.3.9-.7s-.4-.7-.9-.7-.9.3-.9.7ZM91.1,41.6h1v.4h-1v3h-.5v-6.1h.5v2.6Z"/>
    <path d="M95.4,40.1h1.4v-1.1h.5v4.4h-.5v-1.6h-1.4v.6h-2.8v-2.8h2.8s0,.5,0,.5ZM93.2,41.9h1.7v-2h-1.7v2ZM97.5,44.9h-4.1v-1.9h.5v1.4h3.5v.5ZM96.9,41.4v-.8h-1.4v.8h1.4Z"/>
    <path d="M103.9,42.1h-5.5v-.4h5.5v.4ZM103.3,40.2c0,.7-.8,1.1-2.2,1.1-1.3,0-2.2-.4-2.2-1.1s.8-1.1,2.2-1.1,2.2.4,2.2,1.1ZM103.2,44h-3.6v.6h3.8v.4h-4.3v-1.4h3.6v-.6h-3.6v-.4h4.2v1.4ZM99.5,40.2c0,.4.6.7,1.6.7s1.6-.2,1.6-.7-.6-.6-1.6-.6-1.6.2-1.6.6Z"/>
  </g>
  <g>
    <path d="M108.7,41.3h.9v-2.2h.5v5.6h-.5v-3h-.9v1.7h-2.3v-3.7h2.3v1.6ZM106.8,43h1.3v-2.9h-1.3v2.9ZM111.3,45.1h-.5v-6.1h.5v6.1Z"/>
    <path d="M115.4,40.6c0,.8-.7,1.3-1.6,1.3s-1.6-.6-1.6-1.3.7-1.3,1.6-1.3c.9,0,1.6.6,1.6,1.3ZM112.8,40.6c0,.5.4.9,1.1.9s1.1-.4,1.1-.9-.4-.9-1.1-.9-1.1.4-1.1.9ZM117.1,43.9h-3.4v.7h3.6v.4h-4.2v-1.5h3.4v-.6h-3.4v-.4h3.9v1.5h0ZM117.1,42.1h-.5v-3.1h.5v3.1Z"/>
  </g>
  <g>
    <path d="M121.5,43.4v-.7c-.7,0-1.2-.5-1.2-1.1,0-.7.6-1.1,1.4-1.1s1.4.4,1.4,1.1-.5,1-1.2,1.1v.7c.6,0,1.1,0,1.7-.2v.4c-1.3.2-2.7.2-3.8.2v-.5c.4,0,1,0,1.6,0h0ZM123.6,40.2h-3.7v-.4h1.6v-.7h.5v.7h1.6v.4h0ZM120.8,41.7c0,.4.4.7.9.7.6,0,.9-.3.9-.7s-.4-.7-.9-.7-.9.3-.9.7ZM124.6,41.6h1v.4h-1v3h-.5v-6.1h.5v2.6Z"/>
    <path d="M128.9,40.1h1.4v-1.1h.5v4.4h-.5v-1.6h-1.4v.6h-2.8v-2.8h2.8s0,.5,0,.5ZM126.7,41.9h1.7v-2h-1.7s0,2,0,2ZM131,44.9h-4.1v-1.9h.5v1.4h3.5v.5ZM130.4,41.4v-.8h-1.4v.8h1.4Z"/>
    <path d="M137.4,44.3h-5.6v-.4h5.6v.4ZM136.9,41.1c0,1-.9,1.7-2.2,1.7s-2.2-.7-2.2-1.7.9-1.7,2.2-1.7,2.2.7,2.2,1.7ZM132.9,41.1c0,.7.7,1.2,1.7,1.2s1.7-.5,1.7-1.2-.7-1.2-1.7-1.2c-1,0-1.7.5-1.7,1.2Z"/>
    <path d="M143.4,44.3h-5.6v-.4h2.5v-1.2h-1.8v-1.9h3.6v-1h-3.6v-.4h4.2v1.8h-3.6v1h3.8v.4h-2v1.2h2.5v.4h0Z"/>
  </g>
  <g>
    <path d="M53,53.6l-.3.4c-.7-.2-1.2-.7-1.5-1.3-.3.7-.8,1.2-1.5,1.5l-.3-.4c.9-.3,1.5-1.1,1.5-2v-.6h.5v.6c0,.8.6,1.5,1.5,1.8ZM54.4,55.9h-3.4v.7h3.6v.4h-4.2v-1.5h3.4v-.6h-3.4v-.4h3.9s0,1.4,0,1.4ZM54.4,54.1h-.5v-1.6h-1.3v-.4h1.3v-1.1h.5v3.1Z"/>
    <path d="M59,54l-.3.4c-.7-.2-1.2-.8-1.5-1.4-.3.7-.8,1.3-1.5,1.6l-.3-.4c.9-.3,1.5-1.2,1.5-2v-.2h-1.4v-.4h3.3v.4h-1.4v.2c0,.8.6,1.5,1.5,1.8h0ZM60.4,55.9c0,.7-.8,1.1-2,1.1s-2-.4-2-1.1.8-1.1,2-1.1,2,.4,2,1.1ZM56.9,55.9c0,.4.6.7,1.5.7s1.5-.3,1.5-.7-.6-.7-1.5-.7-1.5.3-1.5.7ZM60.4,54.6h-.5v-1.6h-1.2v-.4h1.2v-1.6h.5s0,3.6,0,3.6Z"/>
    <path d="M64.9,52.4h-3.6v-.4h1.6v-.9h.5v.9h1.5v.4ZM64.7,54.3c0,.8-.6,1.4-1.5,1.4s-1.5-.6-1.5-1.4c0-.8.6-1.4,1.5-1.4s1.5.6,1.5,1.4ZM62.2,54.3c0,.6.4.9,1,.9s1-.4,1-.9c0-.6-.4-.9-1-.9s-1,.4-1,.9ZM66.1,53.5h1v.4h-1v3.1h-.5v-6.1h.5v2.5h0Z"/>
    <path d="M71.2,55.3l-.3.4c-.7-.3-1.3-1.1-1.6-1.9-.3.9-.9,1.7-1.6,2l-.3-.4c.9-.4,1.7-1.6,1.7-2.7v-1.1h.5v1.1c0,1.1.8,2.2,1.7,2.6h0ZM72.4,57.1h-.5v-6.1h.5v6.1Z"/>
    <path d="M75.8,52.7h1v-1.6h.5v3.3h-.5v-1.2h-1.2c-.4.6-1,1.1-1.9,1.5l-.3-.4c1.2-.5,2-1.3,2.1-2.3h-1.8v-.4h2.4c0,.5,0,.9-.2,1.3h0ZM76.3,56.6c.6-.4.9-1,.9-1.4v-.4h.5v.4c0,.6.5,1.3,1.2,1.5l-.3.4c-.6-.2-1-.6-1.2-1.2-.2.5-.6,1-1.1,1.2-.6-.2-1-.7-1.1-1.2-.2.5-.6.9-1.2,1.2l-.3-.4c.8-.3,1.2-.9,1.2-1.5v-.4h.5v.4c0,.6.3,1.1.9,1.4h0ZM78.5,54.5h-.5v-3.5h.5v3.5Z"/>
    <path d="M82.5,53.3h1.4v-2.3h.5v6.1h-.5v-3.3h-1.3c0,1.2-.7,1.9-1.5,1.9s-1.5-.8-1.5-2.1.6-2.1,1.5-2.1c.8,0,1.4.7,1.5,1.9ZM80,53.6c0,1,.4,1.6,1,1.6s1-.6,1-1.6-.4-1.6-1-1.6c-.6,0-1,.7-1,1.6Z"/>
    <path d="M90.9,56.3h-5.6v-.4h1.4v-1.6c-.5-.3-.8-.7-.8-1.3,0-.9.9-1.6,2.2-1.6,1.3,0,2.2.6,2.2,1.6s-.3,1-.8,1.2v1.7h1.4v.4h0ZM86.4,52.9c0,.7.7,1.1,1.7,1.1s1.7-.5,1.7-1.1-.7-1.1-1.7-1.1c-1,0-1.7.4-1.7,1.1ZM89,55.8v-1.4c-.3,0-.6.1-.9.1s-.6,0-.9,0v1.4s1.7,0,1.7,0Z"/>
  </g>
  <path d="M93.1,53.6c.3-.2.5-.4.5-.8s-.4-.8-.8-.8-.8.2-.8.8h-.6c0-.8.7-1.3,1.4-1.3s1.4.6,1.4,1.3-.2.9-.7,1.2-.6.5-.6,1.1h0s-.6,0-.6,0h0c0-.9.3-1.2.8-1.5h0ZM92.2,56.1c0-.2.2-.4.4-.4s.4.2.4.4-.2.4-.4.4-.4-.2-.4-.4Z"/>
  <rect class="st4" x="101.4" y="67.2" width="46.4" height="18.6" rx="4.6" ry="4.6"/>
  <g>
    <path d="M122.1,76.4l-.3.5c-.8-.3-1.4-.8-1.7-1.5-.3.8-.9,1.4-1.8,1.7l-.3-.5c1.1-.3,1.8-1.2,1.8-2.2v-.7h.6v.7c0,.9.7,1.7,1.7,2.1h0ZM123.8,79.1h-3.9v.8h4.1v.5h-4.7v-1.7h3.9v-.7h-3.9v-.5h4.5v1.7h0ZM123.8,77.1h-.6v-1.8h-1.6v-.5h1.6v-1.3h.6v3.6Z"/>
    <path d="M129,76.9l-.3.5c-.8-.3-1.4-.9-1.7-1.6-.3.8-.9,1.5-1.8,1.8l-.3-.5c1-.4,1.8-1.3,1.8-2.3v-.3h-1.6v-.5h3.7v.5h-1.6v.2c0,.9.7,1.8,1.7,2.1h0ZM130.7,79.1c0,.8-.9,1.3-2.3,1.3-1.4,0-2.3-.5-2.3-1.3s.9-1.3,2.3-1.3,2.3.5,2.3,1.3ZM126.6,79.1c0,.5.7.8,1.7.8s1.7-.3,1.7-.8-.7-.8-1.7-.8-1.7.3-1.7.8ZM130.7,77.6h-.6v-1.8h-1.4v-.5h1.4v-1.8h.6v4.1Z"/>
  </g>
  <rect class="st3" x="49" y="67.2" width="46.4" height="18.6" rx="4.6" ry="4.6"/>
  <g>
    <path d="M70.3,77.2v.4c-.6.1-1.3.2-2,.2v2.4h-.6v-2.4c-.7,0-1.4,0-1.9,0v-.5c1.2,0,3,0,4.5-.2ZM69.9,76.3l-.2.5c-.8-.2-1.4-.6-1.7-1.2-.3.6-.9,1.1-1.8,1.3l-.3-.5c1-.2,1.7-.9,1.7-1.6h0s-1.6,0-1.6,0v-.5h1.6v-.8h.6v.8h1.6v.5h-1.6c0,.7.7,1.3,1.7,1.6ZM71.4,80.4h-.6v-6.9h.6v6.9Z"/>
    <path d="M78.9,79.5h-6.4v-.5h2.8v-1.7h.6v1.7h2.9v.5h0ZM78.6,76.9l-.3.5c-1.1-.2-2.2-.9-2.6-1.9-.5,1-1.6,1.7-2.6,1.9l-.3-.5c1.2-.2,2.6-1.2,2.6-2.4v-.5h.6v.5c0,1.2,1.4,2.2,2.6,2.4h0Z"/>
  </g>
</svg>