<svg width="1480" height="628" viewBox="0 0 1480 628" fill="none" xmlns="http://www.w3.org/2000/svg">
<circle cx="314" cy="314" r="313.5" stroke="#3E3E3E"/>
<path d="M482.671 295.802V302.139H431.422V295.802H453.078V283.312H460.953V295.802H482.671ZM478.18 256.919V263.256H461.138C461.784 270.639 468.736 277.499 480.764 279.252L477.688 285.466C467.875 283.743 460.615 278.944 457.016 272.3C453.447 279.067 446.249 283.989 436.59 285.773L433.514 279.56C445.142 277.683 452.125 270.669 452.771 263.256H435.667V256.919H478.18Z" fill="#363636"/>
<path d="M421.395 252.674V265.84H428.962V272.238H421.395V285.158H413.52V252.674H421.395ZM405.768 256.365C405.829 271.315 396.416 281.774 379.743 286.389L376.605 280.052C388.941 276.76 396.016 270.423 397.216 262.641H379.251V256.365H405.768ZM403.122 285.835C414.504 285.835 422.01 290.265 422.01 297.278C422.01 304.354 414.504 308.722 403.122 308.722C391.74 308.722 384.111 304.354 384.173 297.278C384.111 290.265 391.74 285.835 403.122 285.835ZM403.122 291.926C396.047 291.926 391.863 293.833 391.925 297.278C391.863 300.662 396.047 302.631 403.122 302.569C410.074 302.631 414.258 300.662 414.258 297.278C414.258 293.833 410.074 291.926 403.122 291.926Z" fill="#363636"/>
<path d="M359.253 296.171V302.446H308.004V296.171H320.739V285.527H312.249V279.19H319.755V263.44H312.003V257.165H354.946V263.44H347.071V279.19H354.7V285.527H346.271V296.171H359.253ZM327.63 279.19H339.319V263.44H327.63V279.19ZM328.614 296.171H338.396V285.527H328.614V296.171Z" fill="#363636"/>
<path d="M298.163 254.889V274.576H282.967V279.929H304.623V286.266H253.559V279.929H275.092V274.576H259.896V254.889H298.163ZM267.586 260.979V268.424H290.473V260.979H267.586ZM298.409 290.388V308.66H290.596V296.54H259.219V290.388H298.409Z" fill="#363636"/>
<path d="M214.737 255.073C221.904 255.012 227.595 259.103 229.133 265.102H238.485V252.674H246.298V282.759H238.485V271.377H229.195C227.718 277.529 221.966 281.713 214.737 281.713C206.123 281.713 199.787 276.114 199.848 268.301C199.787 260.61 206.123 255.012 214.737 255.073ZM214.737 261.595C210.369 261.533 207.231 264.117 207.292 268.301C207.231 272.484 210.369 275.13 214.737 275.13C218.982 275.13 222.058 272.484 222.058 268.301C222.058 264.117 218.982 261.533 214.737 261.595ZM216.706 285.22V290.634H238.485V285.22H246.298V308.045H208.954V285.22H216.706ZM216.706 301.708H238.485V296.663H216.706V301.708Z" fill="#363636"/>
<path d="M160.288 255.688C164.748 255.688 168.655 257.319 171.362 260.057H184.036V252.674H191.849V285.466H184.036V278.76H171.3C168.593 281.467 164.717 283.097 160.288 283.066C151.797 283.128 145.337 277.283 145.399 269.408C145.337 261.41 151.797 255.688 160.288 255.688ZM160.288 262.395C155.919 262.395 152.782 264.979 152.843 269.408C152.782 273.715 155.919 276.483 160.288 276.422C164.533 276.483 167.609 273.715 167.609 269.408C167.609 264.979 164.533 262.395 160.288 262.395ZM172.715 286.635C184.589 286.635 191.972 290.695 192.034 297.647C191.972 304.6 184.589 308.66 172.715 308.66C160.903 308.66 153.458 304.6 153.458 297.647C153.458 290.695 160.903 286.635 172.715 286.635ZM172.715 292.603C165.271 292.603 161.149 294.264 161.149 297.647C161.149 300.908 165.271 302.569 172.715 302.569C180.283 302.569 184.343 300.908 184.343 297.647C184.343 294.264 180.283 292.603 172.715 292.603ZM174.746 266.271C174.93 267.255 175.053 268.332 175.053 269.408C175.053 270.485 174.93 271.5 174.746 272.484H184.036V266.271H174.746Z" fill="#363636"/>
<path d="M431.542 360.108V368.672H423.673V389.116C423.673 392.434 425.293 393.282 427.607 393.359C428.765 393.359 430.771 393.282 432.159 393.128V402.154C430.925 402.386 428.919 402.54 426.064 402.54C417.81 402.54 412.178 398.837 412.255 390.736V368.672H406.469V360.108H412.255V350.079H423.673V360.108H431.542Z" fill="#363636"/>
<path d="M383.094 402.849C370.287 402.849 362.418 394.517 362.418 381.247C362.418 368.286 370.364 359.568 382.631 359.568C393.663 359.568 402.304 366.512 402.304 380.784V384.024H373.682C373.682 390.351 377.462 394.285 383.325 394.285C387.183 394.285 389.96 392.588 391.117 390.042H401.995C400.375 397.757 393.432 402.849 383.094 402.849ZM373.682 376.85H391.503C391.503 371.758 387.954 368.132 382.862 368.132C377.616 368.132 373.875 372.028 373.682 376.85Z" fill="#363636"/>
<path d="M334.878 418.587C323.306 418.587 316.208 413.418 315.514 405.472H326.777C327.395 408.789 330.558 410.332 335.109 410.332C340.433 410.332 343.981 408.095 343.981 402.231V394.594H343.441C341.898 397.988 338.195 401.383 331.483 401.383C321.994 401.383 314.434 394.748 314.434 380.784C314.434 366.589 322.226 359.568 331.483 359.568C338.504 359.568 341.898 363.734 343.441 367.129H343.904V360.108H355.245V402.463C355.245 413.109 346.759 418.587 334.878 418.587ZM335.032 392.819C340.741 392.819 343.981 388.345 343.981 380.938C343.981 373.455 340.741 368.672 335.032 368.672C329.246 368.672 326.16 373.687 326.16 380.938C326.16 388.19 329.246 392.819 335.032 392.819Z" fill="#363636"/>
<path d="M286.582 402V360.108H297.614V367.36H298.077C299.62 362.191 303.478 359.491 308.184 359.491C309.341 359.491 310.807 359.646 311.81 359.877V370.061C310.729 369.752 308.569 369.443 306.949 369.443C301.78 369.443 298 373.069 298 378.161V402H286.582Z" fill="#363636"/>
<path d="M240.523 390.273C240.523 380.938 248.084 377.853 256.107 377.39C259.116 377.197 264.748 376.927 266.522 376.85V373.455C266.445 369.983 264.054 367.9 259.811 367.9C255.953 367.9 253.484 369.675 252.867 372.529H241.989C242.684 365.277 249.01 359.568 260.119 359.568C269.223 359.568 277.863 363.657 277.863 373.764V402H267.062V396.214H266.754C264.671 400.071 260.736 402.771 254.487 402.771C246.464 402.771 240.523 398.605 240.523 390.273ZM251.479 389.965C251.479 393.205 254.102 394.902 257.728 394.902C262.896 394.902 266.6 391.431 266.522 387.033V383.947C264.787 384.024 259.926 384.294 257.959 384.487C254.024 384.873 251.479 386.725 251.479 389.965Z" fill="#363636"/>
<path d="M195.547 355.711V346.145H241.296V355.711H224.169V402H212.674V355.711H195.547Z" fill="#363636"/>
<circle cx="1166" cy="314" r="313.5" stroke="#3E3E3E"/>
<path d="M1355.66 252.674V275.438H1362.98V281.959H1355.66V308.66H1347.72V252.674H1355.66ZM1310.19 292.849C1314.28 292.849 1319.05 292.849 1324.03 292.726V287.927C1318.07 286.758 1314.19 282.974 1314.25 277.775C1314.19 271.5 1319.85 267.255 1328.03 267.255C1336.03 267.255 1341.75 271.5 1341.81 277.775C1341.75 282.974 1337.82 286.789 1331.91 287.927V292.418C1336.34 292.203 1340.8 291.833 1344.95 291.249L1345.44 296.971C1333.51 299.186 1320.71 299.247 1311.24 299.247L1310.19 292.849ZM1344.52 258.888V265.04H1311.3V258.888H1324.03V252.981H1331.91V258.888H1344.52ZM1328.03 273.223C1324.22 273.223 1321.63 274.884 1321.7 277.775C1321.63 280.729 1324.22 282.328 1328.03 282.328C1331.72 282.328 1334.25 280.729 1334.25 277.775C1334.25 274.884 1331.72 273.223 1328.03 273.223Z" fill="#363636"/>
<path d="M1288.72 255.812V262.025H1277.58C1277.65 268.639 1281.58 275.407 1290.44 278.329L1286.57 284.358C1280.35 282.39 1276.11 278.329 1273.71 273.284C1271.19 278.883 1266.73 283.405 1260.11 285.527L1256.11 279.313C1265.31 276.36 1269.49 269.008 1269.59 262.025H1258.33V255.812H1288.72ZM1303.61 288.48V308.66H1295.8V294.756H1265.16V288.48H1303.61ZM1303.61 252.674V286.02H1295.8V272.546H1287.12V266.147H1295.8V252.674H1303.61Z" fill="#363636"/>
<path d="M1224.43 282.943V291.372C1229.01 291.095 1233.66 290.665 1238.03 290.019L1238.64 295.74C1226.21 298.14 1212.92 298.263 1203.14 298.263L1202.22 291.926C1206.43 291.895 1211.39 291.864 1216.62 291.68V282.943H1224.43ZM1236 259.257V265.594H1224.55C1225.07 271.008 1229.29 276.083 1237.72 278.145L1234.15 284.235C1227.6 282.574 1223.08 278.944 1220.55 274.269C1218.06 279.16 1213.6 282.974 1207.02 284.666L1203.33 278.76C1211.79 276.514 1215.88 271.254 1216.43 265.594H1205.11V259.257H1216.62V253.166H1224.43V259.257H1236ZM1249.04 252.674V308.783H1241.22V252.674H1249.04Z" fill="#363636"/>
<path d="M1158.54 253.166C1171.39 253.166 1178.84 256.55 1178.9 262.764C1178.84 268.916 1171.39 272.3 1158.54 272.3C1145.62 272.3 1138.11 268.916 1138.11 262.764C1138.11 256.55 1145.62 253.166 1158.54 253.166ZM1158.54 258.949C1150.29 258.949 1146.29 260.18 1146.35 262.764C1146.29 265.471 1150.29 266.578 1158.54 266.578C1166.84 266.578 1170.78 265.471 1170.78 262.764C1170.78 260.18 1166.84 258.949 1158.54 258.949ZM1184.07 274.638V280.79H1171.27V284.728H1177.85V299.001H1146.66V302.385H1179.33V308.291H1138.97V293.525H1170.1V290.449H1138.91V284.728H1145.86V280.79H1133V274.638H1184.07ZM1153.61 284.728H1163.46V280.79H1153.61V284.728Z" fill="#363636"/>
<path d="M1127.35 259.811V266.086H1080.77V259.811H1100.15V253.289H1107.91V259.811H1127.35ZM1129.81 296.786V303.062H1078.56V296.786H1090.8V287.558C1086.99 285.712 1084.86 282.882 1084.9 279.19C1084.83 272.361 1092.22 268.362 1104.03 268.362C1115.78 268.362 1123.1 272.361 1123.1 279.19C1123.1 282.851 1120.98 285.712 1117.2 287.496V296.786H1129.81ZM1104.03 274.392C1096.77 274.392 1092.89 275.991 1092.96 279.19C1092.89 282.328 1096.77 283.866 1104.03 283.866C1111.1 283.866 1115.04 282.328 1115.04 279.19C1115.04 275.991 1111.1 274.392 1104.03 274.392ZM1098.68 296.786H1109.44V289.649C1107.75 289.865 1105.97 289.957 1104.03 289.957C1102.12 289.957 1100.34 289.865 1098.68 289.649V296.786Z" fill="#363636"/>
<path d="M1075.3 283.989V290.265H1053.39V308.599H1045.64V290.265H1024.05V283.989H1075.3ZM1069.14 255.381V277.96H1030.08V255.381H1069.14ZM1037.83 261.595V271.808H1061.33V261.595H1037.83Z" fill="#363636"/>
<path d="M985.288 255.073C992.455 255.012 998.146 259.103 999.684 265.102H1009.04V252.674H1016.85V282.759H1009.04V271.377H999.746C998.269 277.529 992.517 281.713 985.288 281.713C976.674 281.713 970.337 276.114 970.399 268.301C970.337 260.61 976.674 255.012 985.288 255.073ZM985.288 261.595C980.919 261.533 977.782 264.117 977.843 268.301C977.782 272.484 980.919 275.13 985.288 275.13C989.533 275.13 992.609 272.484 992.609 268.301C992.609 264.117 989.533 261.533 985.288 261.595ZM987.256 285.22V290.634H1009.04V285.22H1016.85V308.045H979.504V285.22H987.256ZM987.256 301.708H1009.04V296.663H987.256V301.708Z" fill="#363636"/>
<path d="M1392.29 372.529C1391.82 369.598 1389.2 367.669 1385.42 367.669C1381.72 367.669 1378.86 369.443 1378.94 371.989C1378.86 373.841 1380.41 375.307 1384.34 376.155L1391.82 377.698C1399.92 379.396 1403.86 383.021 1403.94 389.039C1403.86 397.294 1396.45 402.849 1385.34 402.849C1374 402.849 1367.37 397.757 1366.44 389.579H1377.94C1378.48 392.896 1381.18 394.594 1385.34 394.594C1389.51 394.594 1392.29 392.896 1392.29 390.196C1392.29 388.036 1390.51 386.725 1386.58 385.876L1379.63 384.487C1371.69 382.944 1367.52 378.778 1367.6 372.606C1367.52 364.583 1374.46 359.568 1385.27 359.568C1395.83 359.568 1402.39 364.583 1403.01 372.529H1392.29Z" fill="#363636"/>
<path d="M1349.7 372.529C1349.24 369.598 1346.61 367.669 1342.83 367.669C1339.13 367.669 1336.28 369.443 1336.35 371.989C1336.28 373.841 1337.82 375.307 1341.75 376.155L1349.24 377.698C1357.34 379.396 1361.27 383.021 1361.35 389.039C1361.27 397.294 1353.87 402.849 1342.76 402.849C1331.42 402.849 1324.78 397.757 1323.86 389.579H1335.35C1335.89 392.896 1338.59 394.594 1342.76 394.594C1346.92 394.594 1349.7 392.896 1349.7 390.196C1349.7 388.036 1347.93 386.725 1343.99 385.876L1337.05 384.487C1329.1 382.944 1324.94 378.778 1325.01 372.606C1324.94 364.583 1331.88 359.568 1342.68 359.568C1353.25 359.568 1359.81 364.583 1360.42 372.529H1349.7Z" fill="#363636"/>
<path d="M1299.4 402.849C1286.6 402.849 1278.73 394.517 1278.73 381.247C1278.73 368.286 1286.67 359.568 1298.94 359.568C1309.97 359.568 1318.61 366.512 1318.61 380.784V384.024H1289.99C1289.99 390.351 1293.77 394.285 1299.63 394.285C1303.49 394.285 1306.27 392.588 1307.43 390.042H1318.3C1316.68 397.757 1309.74 402.849 1299.4 402.849ZM1289.99 376.85H1307.81C1307.81 371.758 1304.26 368.132 1299.17 368.132C1293.92 368.132 1290.18 372.028 1289.99 376.85Z" fill="#363636"/>
<path d="M1244.62 377.775V402H1233.21V360.108H1244.08V367.438H1244.55C1246.48 362.577 1250.95 359.568 1257.12 359.568C1265.84 359.568 1271.63 365.509 1271.55 375.307V402H1260.21V377.312C1260.21 372.144 1257.35 369.058 1252.65 369.058C1247.87 369.058 1244.62 372.221 1244.62 377.775Z" fill="#363636"/>
<path d="M1206.82 402.849C1194.02 402.849 1186.15 394.517 1186.15 381.247C1186.15 368.286 1194.09 359.568 1206.36 359.568C1217.39 359.568 1226.03 366.512 1226.03 380.784V384.024H1197.41C1197.41 390.351 1201.19 394.285 1207.06 394.285C1210.91 394.285 1213.69 392.588 1214.85 390.042H1225.73C1224.11 397.757 1217.16 402.849 1206.82 402.849ZM1197.41 376.85H1215.23C1215.23 371.758 1211.68 368.132 1206.59 368.132C1201.35 368.132 1197.6 372.028 1197.41 376.85Z" fill="#363636"/>
<path d="M1169.17 372.529C1168.71 369.598 1166.09 367.669 1162.31 367.669C1158.6 367.669 1155.75 369.443 1155.83 371.989C1155.75 373.841 1157.29 375.307 1161.23 376.155L1168.71 377.698C1176.81 379.396 1180.75 383.021 1180.82 389.039C1180.75 397.294 1173.34 402.849 1162.23 402.849C1150.89 402.849 1144.25 397.757 1143.33 389.579H1154.82C1155.36 392.896 1158.06 394.594 1162.23 394.594C1166.4 394.594 1169.17 392.896 1169.17 390.196C1169.17 388.036 1167.4 386.725 1163.46 385.876L1156.52 384.487C1148.57 382.944 1144.41 378.778 1144.49 372.606C1144.41 364.583 1151.35 359.568 1162.15 359.568C1172.72 359.568 1179.28 364.583 1179.9 372.529H1169.17Z" fill="#363636"/>
<path d="M1124.97 402V360.108H1136.39V402H1124.97ZM1130.68 354.631C1127.21 354.631 1124.43 352.008 1124.43 348.845C1124.43 345.604 1127.21 342.981 1130.68 342.981C1134.07 342.981 1136.85 345.604 1136.85 348.845C1136.85 352.008 1134.07 354.631 1130.68 354.631Z" fill="#363636"/>
<path d="M1099.28 402.849C1086.47 402.849 1078.76 393.977 1078.76 381.17C1078.76 368.363 1086.55 359.568 1099.28 359.568C1110.08 359.568 1117.41 365.895 1117.87 375.461H1107.15C1106.45 371.295 1103.75 368.44 1099.43 368.44C1093.96 368.44 1090.33 373.069 1090.33 381.016C1090.33 389.116 1093.88 393.745 1099.43 393.745C1103.45 393.745 1106.45 391.276 1107.15 386.802H1117.87C1117.33 396.291 1110.39 402.849 1099.28 402.849Z" fill="#363636"/>
<path d="M1044.66 377.775V402H1033.24V360.108H1044.12V367.438H1044.58C1046.51 362.577 1050.98 359.568 1057.15 359.568C1065.87 359.568 1071.66 365.509 1071.58 375.307V402H1060.24V377.312C1060.24 372.144 1057.39 369.058 1052.68 369.058C1047.9 369.058 1044.66 372.221 1044.66 377.775Z" fill="#363636"/>
<path d="M1005.47 402.849C992.814 402.849 984.945 394.131 984.945 381.17C984.945 368.209 992.814 359.568 1005.47 359.568C1018.12 359.568 1026.07 368.209 1026.07 381.17C1026.07 394.131 1018.12 402.849 1005.47 402.849ZM1005.54 393.977C1011.41 393.977 1014.42 388.499 1014.42 381.17C1014.42 373.764 1011.41 368.286 1005.54 368.286C999.604 368.286 996.518 373.764 996.518 381.17C996.518 388.499 999.604 393.977 1005.54 393.977Z" fill="#363636"/>
<path d="M967.045 365.586C966.119 359.414 961.336 355.634 954.855 355.634C946.138 355.634 940.429 362.346 940.429 374.072C940.429 386.107 946.215 392.511 954.778 392.511C961.182 392.511 965.888 388.962 967.045 382.944L978.771 383.021C977.46 393.359 968.819 402.771 954.624 402.771C939.657 402.771 928.625 392.279 928.625 374.072C928.625 355.865 939.889 345.373 954.624 345.373C967.508 345.373 977.229 352.779 978.771 365.586H967.045Z" fill="#363636"/>
<line x1="739.5" y1="356" x2="739.5" y2="272" stroke="black"/>
<line x1="782" y1="314.5" x2="698" y2="314.5" stroke="black"/>
</svg>
