<svg width="1792" height="626" viewBox="0 0 1792 626" fill="none" xmlns="http://www.w3.org/2000/svg">
<circle cx="202" cy="332" r="201.5" stroke="#8298BB"/>
<path d="M310.508 320.293V324.37H277.539V320.293H291.471V312.259H296.537V320.293H310.508ZM307.619 295.279V299.356H296.656C297.071 304.105 301.544 308.518 309.281 309.646L307.302 313.644C300.989 312.536 296.319 309.448 294.004 305.174C291.708 309.528 287.078 312.694 280.864 313.842L278.885 309.844C286.365 308.637 290.857 304.125 291.273 299.356H280.27V295.279H307.619Z" fill="#363636"/>
<path d="M271.091 292.548V301.018H275.959V305.134H271.091V313.446H266.025V292.548H271.091ZM261.038 294.923C261.077 304.541 255.022 311.269 244.296 314.238L242.277 310.161C250.213 308.043 254.764 303.967 255.536 298.96H243.979V294.923H261.038ZM259.336 313.881C266.658 313.881 271.486 316.731 271.486 321.243C271.486 325.795 266.658 328.605 259.336 328.605C252.014 328.605 247.106 325.795 247.146 321.243C247.106 316.731 252.014 313.881 259.336 313.881ZM259.336 317.8C254.784 317.8 252.093 319.027 252.132 321.243C252.093 323.42 254.784 324.686 259.336 324.647C263.808 324.686 266.5 323.42 266.5 321.243C266.5 319.027 263.808 317.8 259.336 317.8Z" fill="#363636"/>
<path d="M231.114 320.53V324.567H198.145V320.53H206.337V313.683H200.875V309.607H205.704V299.475H200.717V295.438H228.343V299.475H223.277V309.607H228.185V313.683H222.763V320.53H231.114ZM210.77 309.607H218.29V299.475H210.77V309.607ZM211.403 320.53H217.696V313.683H211.403V320.53Z" fill="#363636"/>
<path d="M191.812 293.973V306.638H182.036V310.082H195.968V314.158H163.117V310.082H176.97V306.638H167.194V293.973H191.812ZM172.141 297.891V302.68H186.864V297.891H172.141ZM191.97 316.81V328.565H186.944V320.768H166.758V316.81H191.97Z" fill="#363636"/>
<path d="M138.145 294.092C142.756 294.052 146.417 296.684 147.406 300.543H153.422V292.548H158.449V311.902H153.422V304.58H147.446C146.496 308.538 142.795 311.23 138.145 311.23C132.604 311.23 128.527 307.628 128.567 302.601C128.527 297.654 132.604 294.052 138.145 294.092ZM138.145 298.287C135.335 298.248 133.316 299.91 133.356 302.601C133.316 305.293 135.335 306.995 138.145 306.995C140.876 306.995 142.855 305.293 142.855 302.601C142.855 299.91 140.876 298.248 138.145 298.287ZM139.411 313.486V316.968H153.422V313.486H158.449V328.169H134.424V313.486H139.411ZM139.411 324.093H153.422V320.847H139.411V324.093Z" fill="#363636"/>
<path d="M103.117 294.488C105.987 294.488 108.5 295.537 110.242 297.298H118.395V292.548H123.421V313.644H118.395V309.33H110.202C108.461 311.071 105.967 312.12 103.117 312.1C97.6555 312.14 93.4998 308.38 93.5393 303.314C93.4998 298.169 97.6555 294.488 103.117 294.488ZM103.117 298.802C100.307 298.802 98.2888 300.464 98.3284 303.314C98.2888 306.084 100.307 307.865 103.117 307.826C105.848 307.865 107.827 306.084 107.827 303.314C107.827 300.464 105.848 298.802 103.117 298.802ZM111.112 314.396C118.751 314.396 123.5 317.008 123.54 321.48C123.5 325.953 118.751 328.565 111.112 328.565C103.513 328.565 98.7242 325.953 98.7242 321.48C98.7242 317.008 103.513 314.396 111.112 314.396ZM111.112 318.235C106.323 318.235 103.672 319.304 103.672 321.48C103.672 323.578 106.323 324.647 111.112 324.647C115.981 324.647 118.593 323.578 118.593 321.48C118.593 319.304 115.981 318.235 111.112 318.235ZM112.418 301.295C112.537 301.929 112.616 302.621 112.616 303.314C112.616 304.006 112.537 304.659 112.418 305.293H118.395V301.295H112.418Z" fill="#363636"/>
<path d="M277.618 361.662V367.171H272.556V380.323C272.556 382.457 273.598 383.003 275.087 383.053C275.832 383.053 277.122 383.003 278.015 382.904V388.711C277.221 388.86 275.931 388.959 274.094 388.959C268.784 388.959 265.161 386.577 265.211 381.365V367.171H261.488V361.662H265.211V355.21H272.556V361.662H277.618Z" fill="#363636"/>
<path d="M246.453 389.157C238.215 389.157 233.152 383.797 233.152 375.261C233.152 366.923 238.264 361.315 246.156 361.315C253.253 361.315 258.811 365.781 258.811 374.963V377.048H240.398C240.398 381.117 242.83 383.648 246.602 383.648C249.084 383.648 250.87 382.557 251.615 380.919H258.613C257.571 385.882 253.104 389.157 246.453 389.157ZM240.398 372.432H251.863C251.863 369.156 249.58 366.824 246.304 366.824C242.93 366.824 240.522 369.33 240.398 372.432Z" fill="#363636"/>
<path d="M215.433 399.282C207.989 399.282 203.423 395.957 202.976 390.845H210.222C210.619 392.979 212.654 393.972 215.582 393.972C219.007 393.972 221.29 392.532 221.29 388.76V383.847H220.942C219.95 386.031 217.567 388.214 213.25 388.214C207.145 388.214 202.281 383.946 202.281 374.963C202.281 365.831 207.294 361.315 213.25 361.315C217.766 361.315 219.95 363.995 220.942 366.178H221.24V361.662H228.536V388.909C228.536 395.758 223.076 399.282 215.433 399.282ZM215.533 382.705C219.205 382.705 221.29 379.827 221.29 375.062C221.29 370.248 219.205 367.171 215.533 367.171C211.81 367.171 209.825 370.397 209.825 375.062C209.825 379.728 211.81 382.705 215.533 382.705Z" fill="#363636"/>
<path d="M184.363 388.611V361.662H191.46V366.327H191.758C192.751 363.002 195.232 361.265 198.26 361.265C199.004 361.265 199.947 361.364 200.592 361.513V368.064C199.898 367.866 198.508 367.667 197.466 367.667C194.14 367.667 191.709 370 191.709 373.275V388.611H184.363Z" fill="#363636"/>
<path d="M154.734 381.068C154.734 375.062 159.598 373.077 164.76 372.779C166.695 372.655 170.318 372.482 171.46 372.432V370.248C171.41 368.015 169.872 366.675 167.142 366.675C164.66 366.675 163.072 367.816 162.675 369.653H155.677C156.124 364.987 160.194 361.315 167.341 361.315C173.197 361.315 178.756 363.945 178.756 370.447V388.611H171.807V384.889H171.609C170.269 387.371 167.738 389.108 163.717 389.108C158.556 389.108 154.734 386.428 154.734 381.068ZM161.782 380.869C161.782 382.954 163.469 384.045 165.802 384.045C169.127 384.045 171.509 381.812 171.46 378.983V376.998C170.343 377.048 167.216 377.221 165.951 377.345C163.42 377.594 161.782 378.785 161.782 380.869Z" fill="#363636"/>
<path d="M125.801 358.833V352.679H155.232V358.833H144.214V388.611H136.819V358.833H125.801Z" fill="#363636"/>
<circle cx="750.102" cy="332" r="201.5" stroke="#8298BB"/>
<path d="M872.108 292.548V307.192H876.818V311.388H872.108V328.565H867.002V292.548H872.108ZM842.859 318.393C845.491 318.393 848.559 318.393 851.765 318.314V315.227C847.925 314.475 845.432 312.041 845.472 308.696C845.432 304.659 849.073 301.929 854.337 301.929C859.482 301.929 863.163 304.659 863.203 308.696C863.163 312.041 860.63 314.495 856.831 315.227V318.116C859.68 317.978 862.55 317.74 865.221 317.364L865.538 321.045C857.86 322.47 849.627 322.509 843.532 322.509L842.859 318.393ZM864.944 296.546V300.504H843.572V296.546H851.765V292.746H856.831V296.546H864.944ZM854.337 305.768C851.883 305.768 850.221 306.836 850.261 308.696C850.221 310.596 851.883 311.625 854.337 311.625C856.712 311.625 858.335 310.596 858.335 308.696C858.335 306.836 856.712 305.768 854.337 305.768Z" fill="#363636"/>
<path d="M829.047 294.567V298.564H821.883C821.923 302.819 824.456 307.173 830.155 309.053L827.662 312.931C823.664 311.665 820.933 309.053 819.39 305.807C817.767 309.409 814.898 312.318 810.643 313.683L808.07 309.686C813.987 307.786 816.679 303.057 816.738 298.564H809.495V294.567H829.047ZM838.625 315.583V328.565H833.599V319.62H813.888V315.583H838.625ZM838.625 292.548V314H833.599V305.332H828.018V301.216H833.599V292.548H838.625Z" fill="#363636"/>
<path d="M787.686 312.021V317.443C790.635 317.265 793.623 316.988 796.433 316.573L796.829 320.253C788.834 321.797 780.285 321.876 773.992 321.876L773.398 317.8C776.11 317.78 779.296 317.76 782.66 317.641V312.021H787.686ZM795.127 296.783V300.86H787.766C788.102 304.343 790.813 307.608 796.235 308.934L793.94 312.852C789.725 311.784 786.816 309.448 785.193 306.44C783.59 309.587 780.721 312.041 776.486 313.129L774.111 309.33C779.553 307.885 782.185 304.501 782.541 300.86H775.259V296.783H782.66V292.865H787.686V296.783H795.127ZM803.518 292.548V328.644H798.491V292.548H803.518Z" fill="#363636"/>
<path d="M745.296 292.865C753.568 292.865 758.357 295.042 758.397 299.039C758.357 302.997 753.568 305.174 745.296 305.174C736.985 305.174 732.156 302.997 732.156 299.039C732.156 295.042 736.985 292.865 745.296 292.865ZM745.296 296.585C739.993 296.585 737.42 297.377 737.46 299.039C737.42 300.781 739.993 301.493 745.296 301.493C750.639 301.493 753.172 300.781 753.172 299.039C753.172 297.377 750.639 296.585 745.296 296.585ZM761.721 306.678V310.636H753.489V313.169H757.724V322.351H737.658V324.528H758.674V328.328H732.71V318.829H752.737V316.85H732.671V313.169H737.143V310.636H728.871V306.678H761.721ZM742.13 313.169H748.463V310.636H742.13V313.169Z" fill="#363636"/>
<path d="M725.23 297.139V301.176H695.269V297.139H707.736V292.944H712.723V297.139H725.23ZM726.813 320.926V324.963H693.844V320.926H701.72V314.989C699.266 313.802 697.901 311.981 697.92 309.607C697.881 305.214 702.63 302.641 710.229 302.641C717.789 302.641 722.499 305.214 722.499 309.607C722.499 311.962 721.133 313.802 718.699 314.95V320.926H726.813ZM710.229 306.52C705.559 306.52 703.066 307.549 703.105 309.607C703.066 311.625 705.559 312.615 710.229 312.615C714.781 312.615 717.314 311.625 717.314 309.607C717.314 307.549 714.781 306.52 710.229 306.52ZM706.786 320.926H713.712V316.335C712.624 316.474 711.476 316.533 710.229 316.533C709.002 316.533 707.855 316.474 706.786 316.335V320.926Z" fill="#363636"/>
<path d="M691.746 312.694V316.731H677.656V328.525H672.669V316.731H658.777V312.694H691.746ZM687.789 294.29V308.815H662.656V294.29H687.789ZM667.643 298.287V304.857H682.762V298.287H667.643Z" fill="#363636"/>
<path d="M633.844 294.092C638.455 294.052 642.116 296.684 643.105 300.543H649.121V292.548H654.148V311.902H649.121V304.58H643.145C642.195 308.538 638.494 311.23 633.844 311.23C628.303 311.23 624.226 307.628 624.266 302.601C624.226 297.654 628.303 294.052 633.844 294.092ZM633.844 298.287C631.034 298.248 629.015 299.91 629.055 302.601C629.015 305.293 631.034 306.995 633.844 306.995C636.575 306.995 638.554 305.293 638.554 302.601C638.554 299.91 636.575 298.248 633.844 298.287ZM635.11 313.486V316.968H649.121V313.486H654.148V328.169H630.124V313.486H635.11ZM635.11 324.093H649.121V320.847H635.11V324.093Z" fill="#363636"/>
<path d="M895.669 369.653C895.371 367.767 893.684 366.526 891.252 366.526C888.87 366.526 887.033 367.667 887.083 369.305C887.033 370.496 888.026 371.439 890.557 371.985L895.371 372.978C900.583 374.07 903.114 376.402 903.163 380.274C903.114 385.584 898.349 389.157 891.202 389.157C883.907 389.157 879.639 385.882 879.043 380.621H886.438C886.785 382.755 888.522 383.847 891.202 383.847C893.882 383.847 895.669 382.755 895.669 381.018C895.669 379.628 894.528 378.785 891.997 378.239L887.53 377.345C882.418 376.353 879.738 373.673 879.787 369.702C879.738 364.541 884.205 361.315 891.153 361.315C897.952 361.315 902.171 364.541 902.568 369.653H895.669Z" fill="#363636"/>
<path d="M868.271 369.653C867.973 367.767 866.286 366.526 863.854 366.526C861.471 366.526 859.635 367.667 859.685 369.305C859.635 370.496 860.628 371.439 863.159 371.985L867.973 372.978C873.184 374.07 875.715 376.402 875.765 380.274C875.715 385.584 870.951 389.157 863.804 389.157C856.508 389.157 852.24 385.882 851.645 380.621H859.039C859.387 382.755 861.124 383.847 863.804 383.847C866.484 383.847 868.271 382.755 868.271 381.018C868.271 379.628 867.129 378.785 864.598 378.239L860.131 377.345C855.019 376.353 852.339 373.673 852.389 369.702C852.339 364.541 856.806 361.315 863.754 361.315C870.554 361.315 874.772 364.541 875.169 369.653H868.271Z" fill="#363636"/>
<path d="M835.914 389.157C827.676 389.157 822.613 383.797 822.613 375.261C822.613 366.923 827.725 361.315 835.616 361.315C842.714 361.315 848.272 365.781 848.272 374.963V377.048H829.859C829.859 381.117 832.291 383.648 836.063 383.648C838.545 383.648 840.331 382.557 841.076 380.919H848.074C847.031 385.882 842.565 389.157 835.914 389.157ZM829.859 372.432H841.324C841.324 369.156 839.041 366.824 835.765 366.824C832.39 366.824 829.983 369.33 829.859 372.432Z" fill="#363636"/>
<path d="M800.677 373.028V388.611H793.332V361.662H800.33V366.377H800.628C801.868 363.25 804.747 361.315 808.717 361.315C814.326 361.315 818.048 365.136 817.998 371.439V388.611H810.703V372.73C810.703 369.404 808.866 367.419 805.839 367.419C802.762 367.419 800.677 369.454 800.677 373.028Z" fill="#363636"/>
<path d="M776.36 389.157C768.121 389.157 763.059 383.797 763.059 375.261C763.059 366.923 768.171 361.315 776.062 361.315C783.159 361.315 788.718 365.781 788.718 374.963V377.048H770.305C770.305 381.117 772.737 383.648 776.508 383.648C778.99 383.648 780.777 382.557 781.521 380.919H788.519C787.477 385.882 783.01 389.157 776.36 389.157ZM770.305 372.432H781.769C781.769 369.156 779.486 366.824 776.211 366.824C772.836 366.824 770.429 369.33 770.305 372.432Z" fill="#363636"/>
<path d="M752.138 369.653C751.84 367.767 750.153 366.526 747.721 366.526C745.339 366.526 743.502 367.667 743.552 369.305C743.502 370.496 744.495 371.439 747.026 371.985L751.84 372.978C757.051 374.07 759.583 376.402 759.632 380.274C759.583 385.584 754.818 389.157 747.671 389.157C740.376 389.157 736.107 385.882 735.512 380.621H742.907C743.254 382.755 744.991 383.847 747.671 383.847C750.351 383.847 752.138 382.755 752.138 381.018C752.138 379.628 750.996 378.785 748.465 378.239L743.999 377.345C738.887 376.353 736.207 373.673 736.256 369.702C736.207 364.541 740.673 361.315 747.622 361.315C754.421 361.315 758.64 364.541 759.037 369.653H752.138Z" fill="#363636"/>
<path d="M723.703 388.611V361.662H731.048V388.611H723.703ZM727.376 358.138C725.142 358.138 723.355 356.451 723.355 354.416C723.355 352.331 725.142 350.644 727.376 350.644C729.559 350.644 731.346 352.331 731.346 354.416C731.346 356.451 729.559 358.138 727.376 358.138Z" fill="#363636"/>
<path d="M707.174 389.157C698.936 389.157 693.973 383.45 693.973 375.211C693.973 366.973 698.985 361.315 707.174 361.315C714.123 361.315 718.838 365.384 719.135 371.539H712.237C711.79 368.859 710.053 367.022 707.274 367.022C703.75 367.022 701.417 370 701.417 375.112C701.417 380.323 703.7 383.301 707.274 383.301C709.854 383.301 711.79 381.713 712.237 378.834H719.135C718.788 384.939 714.321 389.157 707.174 389.157Z" fill="#363636"/>
<path d="M672.037 373.028V388.611H664.691V361.662H671.689V366.377H671.987C673.228 363.25 676.106 361.315 680.077 361.315C685.685 361.315 689.407 365.136 689.358 371.439V388.611H682.062V372.73C682.062 369.404 680.226 367.419 677.198 367.419C674.121 367.419 672.037 369.454 672.037 373.028Z" fill="#363636"/>
<path d="M646.823 389.157C638.683 389.157 633.621 383.549 633.621 375.211C633.621 366.873 638.683 361.315 646.823 361.315C654.962 361.315 660.074 366.873 660.074 375.211C660.074 383.549 654.962 389.157 646.823 389.157ZM646.872 383.45C650.644 383.45 652.58 379.926 652.58 375.211C652.58 370.447 650.644 366.923 646.872 366.923C643.051 366.923 641.066 370.447 641.066 375.211C641.066 379.926 643.051 383.45 646.872 383.45Z" fill="#363636"/>
<path d="M622.107 365.186C621.511 361.215 618.434 358.783 614.265 358.783C608.657 358.783 604.984 363.101 604.984 370.645C604.984 378.388 608.706 382.507 614.215 382.507C618.335 382.507 621.362 380.224 622.107 376.353L629.65 376.402C628.807 383.053 623.248 389.108 614.116 389.108C604.488 389.108 597.391 382.358 597.391 370.645C597.391 358.932 604.637 352.183 614.116 352.183C622.404 352.183 628.658 356.947 629.65 365.186H622.107Z" fill="#363636"/>
<line x1="475.555" y1="359.019" x2="475.555" y2="304.981" stroke="#8298BB"/>
<line x1="503.074" y1="332.5" x2="449.036" y2="332.5" stroke="#8298BB"/>
<circle cx="1479" cy="313" r="313" fill="#8298BB" fill-opacity="0.3"/>
<circle cx="1479.5" cy="313.5" r="251.5" fill="#8298BB" fill-opacity="0.5"/>
<circle cx="1479" cy="313" r="183" fill="#8298BB"/>
<line y1="-0.5" x2="136" y2="-0.5" transform="matrix(1 8.74228e-08 8.74228e-08 -1 991 327.917)" stroke="#6B7689"/>
<line y1="-0.5" x2="39.598" y2="-0.5" transform="matrix(0.707107 0.707107 0.707107 -0.707107 1099 300)" stroke="#6B7689"/>
<path d="M1544.84 376.677C1534.63 376.677 1528.35 370.032 1528.35 359.45C1528.35 349.114 1534.69 342.162 1544.47 342.162C1553.27 342.162 1560.16 347.699 1560.16 359.081V361.665H1537.33C1537.33 366.71 1540.35 369.848 1545.02 369.848C1548.1 369.848 1550.32 368.494 1551.24 366.464H1559.91C1558.62 372.616 1553.08 376.677 1544.84 376.677ZM1537.33 355.943H1551.55C1551.55 351.883 1548.72 348.991 1544.66 348.991C1540.47 348.991 1537.49 352.098 1537.33 355.943Z" fill="white"/>
<path d="M1509.22 376.677C1499.01 376.677 1492.86 369.602 1492.86 359.389C1492.86 349.176 1499.07 342.162 1509.22 342.162C1517.83 342.162 1523.68 347.207 1524.05 354.836H1515.5C1514.94 351.514 1512.79 349.237 1509.34 349.237C1504.98 349.237 1502.08 352.929 1502.08 359.266C1502.08 365.726 1504.91 369.417 1509.34 369.417C1512.54 369.417 1514.94 367.448 1515.5 363.88H1524.05C1523.62 371.447 1518.08 376.677 1509.22 376.677Z" fill="white"/>
<path d="M1470.71 376V342.593H1479.5V348.376H1479.87C1481.1 344.254 1484.18 342.101 1487.93 342.101C1488.86 342.101 1490.03 342.224 1490.83 342.408V350.529C1489.96 350.283 1488.24 350.037 1486.95 350.037C1482.83 350.037 1479.81 352.929 1479.81 356.989V376H1470.71Z" fill="white"/>
<path d="M1448.56 376.677C1438.47 376.677 1432.19 369.725 1432.19 359.389C1432.19 349.053 1438.47 342.162 1448.56 342.162C1458.65 342.162 1464.98 349.053 1464.98 359.389C1464.98 369.725 1458.65 376.677 1448.56 376.677ZM1448.62 369.602C1453.29 369.602 1455.69 365.233 1455.69 359.389C1455.69 353.482 1453.29 349.114 1448.62 349.114C1443.88 349.114 1441.42 353.482 1441.42 359.389C1441.42 365.233 1443.88 369.602 1448.62 369.602Z" fill="white"/>
<path d="M1400.75 376V331.457H1430.1V339.086H1409.98V349.914H1428.19V357.543H1409.98V376H1400.75Z" fill="white"/>
<path d="M1546.81 272.498C1546.44 270.16 1544.35 268.622 1541.33 268.622C1538.38 268.622 1536.1 270.037 1536.17 272.067C1536.1 273.544 1537.33 274.713 1540.47 275.39L1546.44 276.62C1552.9 277.974 1556.04 280.865 1556.1 285.664C1556.04 292.247 1550.13 296.677 1541.27 296.677C1532.23 296.677 1526.94 292.616 1526.2 286.095H1535.37C1535.8 288.74 1537.95 290.094 1541.27 290.094C1544.59 290.094 1546.81 288.74 1546.81 286.587C1546.81 284.864 1545.39 283.818 1542.26 283.142L1536.72 282.034C1530.38 280.804 1527.06 277.481 1527.12 272.56C1527.06 266.161 1532.6 262.162 1541.21 262.162C1549.64 262.162 1554.87 266.161 1555.36 272.498H1546.81Z" fill="white"/>
<path d="M1506.7 296.677C1496.49 296.677 1490.21 290.032 1490.21 279.45C1490.21 269.114 1496.55 262.162 1506.33 262.162C1515.13 262.162 1522.02 267.699 1522.02 279.081V281.665H1499.19C1499.19 286.71 1502.21 289.848 1506.88 289.848C1509.96 289.848 1512.17 288.494 1513.1 286.464H1521.77C1520.48 292.616 1514.94 296.677 1506.7 296.677ZM1499.19 275.943H1513.41C1513.41 271.883 1510.58 268.991 1506.51 268.991C1502.33 268.991 1499.35 272.098 1499.19 275.943Z" fill="white"/>
<path d="M1484.49 251.457V296H1475.38V251.457H1484.49Z" fill="white"/>
<path d="M1438.65 286.648C1438.65 279.204 1444.68 276.743 1451.08 276.374C1453.48 276.22 1457.97 276.005 1459.39 275.943V273.236C1459.32 270.468 1457.42 268.807 1454.03 268.807C1450.96 268.807 1448.99 270.222 1448.5 272.498H1439.82C1440.38 266.715 1445.42 262.162 1454.28 262.162C1461.54 262.162 1468.43 265.423 1468.43 273.482V296H1459.82V291.386H1459.57C1457.91 294.462 1454.77 296.615 1449.79 296.615C1443.39 296.615 1438.65 293.293 1438.65 286.648ZM1447.39 286.402C1447.39 288.986 1449.48 290.34 1452.37 290.34C1456.49 290.34 1459.45 287.571 1459.39 284.064V281.604C1458 281.665 1454.13 281.88 1452.56 282.034C1449.42 282.342 1447.39 283.818 1447.39 286.402Z" fill="white"/>
<path d="M1424.93 264.192C1424.56 260.686 1421.73 258.594 1417.24 258.594C1412.57 258.594 1409.98 260.747 1409.92 263.7C1409.86 266.899 1413.24 268.376 1417.06 269.237L1421.06 270.222C1428.69 271.944 1434.41 275.82 1434.41 283.265C1434.41 291.447 1428.01 296.615 1417.18 296.615C1406.41 296.615 1399.52 291.632 1399.28 282.096H1408.26C1408.57 286.587 1412.14 288.863 1417.06 288.863C1421.92 288.863 1425.06 286.587 1425.06 283.265C1425.06 280.25 1422.29 278.835 1417.43 277.604L1412.57 276.436C1405.06 274.59 1400.45 270.837 1400.45 264.315C1400.45 256.194 1407.58 250.842 1417.3 250.842C1427.15 250.842 1433.67 256.317 1433.79 264.192H1424.93Z" fill="white"/>
</svg>
