<svg width="71" height="71" viewBox="0 0 71 71" fill="none" xmlns="http://www.w3.org/2000/svg">
<rect width="71" height="71" rx="20" fill="#65C479"/>
<path d="M11.4355 24.6979L11.4353 24.6982C11.1189 25.3851 11.4163 26.2014 12.102 26.5176L12.1648 26.3814L12.102 26.5176C12.787 26.8334 13.6002 26.5341 13.9149 25.8463C15.7572 21.8692 18.7022 18.5128 22.3559 16.1725C25.8902 13.909 30.0915 12.5971 34.6068 12.5971C40.9061 12.5971 46.6059 15.1605 50.7338 19.3033C54.8596 23.4481 57.4128 29.1718 57.4128 35.4975C57.4128 41.8234 54.8596 47.549 50.7338 51.6918C46.606 55.8345 40.9061 58.398 34.6068 58.398C30.0913 58.398 25.8898 57.0861 22.3559 54.8226C18.7022 52.4823 15.7594 49.1258 13.9149 45.1487C13.6003 44.4614 12.7873 44.1593 12.1018 44.4776C11.4288 44.789 11.1278 45.5855 11.4216 46.2661V46.2721L11.4355 46.3021C13.4967 50.7543 16.7955 54.5126 20.8892 57.1356L20.9701 57.0093L20.8892 57.1356C24.8559 59.677 29.5655 61.15 34.6067 61.15C41.6593 61.15 48.0441 58.2792 52.6678 53.6367C57.2914 48.9943 60.15 42.5832 60.15 35.5C60.15 28.4168 57.2913 22.0059 52.6678 17.3633C48.0465 12.7206 41.6614 9.85 34.6067 9.85C29.5631 9.85 24.8578 11.323 20.8892 13.8644L20.8891 13.8644C16.7977 16.4871 13.497 20.2458 11.4355 24.6979ZM29.8256 26.2926L38.6405 34.1202H9.2197C8.46192 34.1202 7.85 34.738 7.85 35.4949C7.85 36.2543 8.46439 36.8697 9.2197 36.8697H38.6381L29.8282 44.6928C29.2619 45.1936 29.2109 46.0587 29.709 46.6245C30.208 47.1934 31.0708 47.2448 31.6347 46.744L43.1408 36.5278L43.1415 36.5272C43.1851 36.488 43.2263 36.4467 43.267 36.4012L43.2681 36.3999C43.7639 35.8342 43.7132 34.9693 43.1491 34.4685L31.6324 24.2416L31.5328 24.3538L31.6324 24.2416C31.0681 23.7406 30.2055 23.7946 29.7068 24.3609L29.7066 24.3611C29.2108 24.9268 29.2616 25.7918 29.8256 26.2926Z" fill="white" stroke="white" stroke-width="0.3"/>
</svg>
