<svg width="71" height="71" viewBox="0 0 71 71" fill="none" xmlns="http://www.w3.org/2000/svg">
<path fill-rule="evenodd" clip-rule="evenodd" d="M32.8372 52.5178C32.6977 52.6701 32.5358 52.7821 32.3615 52.8558L32.3724 52.8544L20.1873 58.255C19.6893 58.4748 19.1092 58.3756 18.7092 58.006C18.3092 57.6364 18.1655 57.063 18.3455 56.5451L22.7245 43.8563C22.7862 43.6758 22.8832 43.5103 23.013 43.37L60.5397 2.41743C57.7043 0.875783 54.4544 0 51 0H20C8.95431 0 0 8.9543 0 20V51C0 62.0457 8.9543 71 20 71H51C62.0457 71 71 62.0457 71 51V20C71 17.3365 70.4794 14.7946 69.5343 12.4706L32.8372 52.5178ZM68.2299 9.83854L31.7608 49.637L25.9422 44.2221L62.8817 3.91036C65.0369 5.50454 66.8605 7.52142 68.2299 9.83854ZM21.9561 54.4591L21.9519 54.461L21.9552 54.4617L21.9561 54.4591ZM21.9561 54.4591L29.3715 51.173L24.616 46.7441L21.9561 54.4591Z" fill="#547DE2"/>
</svg>
