<svg width="71" height="71" viewBox="0 0 71 71" fill="none" xmlns="http://www.w3.org/2000/svg">
<rect width="71" height="71" rx="20" fill="#FF6250"/>
<path d="M24.8751 55.9742C24.9992 56.0251 25.1284 56.0483 25.2545 56.0483C25.5122 56.0483 25.7662 55.9492 25.9572 55.7639L25.9579 55.7632L32.6247 49.2266L43.9653 55.9113L43.966 55.9118C44.1228 56.0032 44.2993 56.0498 44.4774 56.0498C44.5971 56.0498 44.7161 56.0283 44.8304 55.9858L44.8308 55.9856C45.1151 55.8792 45.3346 55.6521 45.4275 55.3664L59.8005 15.081L59.8006 15.081L59.8028 15.0739C59.9233 14.692 59.7964 14.2757 59.483 14.0231L59.3575 14.1788L59.4835 14.0236C59.1738 13.772 58.7447 13.7304 58.3907 13.9102L8.34693 33.1639L8.33589 33.1681L8.38533 34.7068L8.28377 34.8791L8.28394 34.8792C8.28404 34.8793 8.28413 34.8793 8.28423 34.8794L24.2588 44.2946V55.0679C24.2588 55.466 24.5036 55.8239 24.8751 55.9742ZM24.8751 55.9742C24.8749 55.9741 24.8747 55.974 24.8745 55.9739L24.9505 55.789L24.8757 55.9744C24.8755 55.9744 24.8753 55.9743 24.8751 55.9742ZM57.1752 16.7141L43.9126 53.5931L27.1976 43.741L50.27 25.0909L50.279 25.0836L50.2872 25.0753C50.6683 24.6858 50.6614 24.0644 50.263 23.687C49.8727 23.3144 49.2501 23.3225 48.8662 23.7001L25.429 42.6983L10.8683 34.1163L57.1752 16.7141ZM30.8642 48.1875L26.2518 52.7081V45.4699L30.8642 48.1875Z" fill="white" stroke="white" stroke-width="0.4"/>
</svg>
