<svg width="1740" height="794" viewBox="0 0 1740 794" fill="none" xmlns="http://www.w3.org/2000/svg">
<circle cx="870" cy="397" r="397" fill="#196AF0" fill-opacity="0.2"/>
<circle cx="870" cy="397" r="330" fill="#196AF0" fill-opacity="0.3"/>
<circle cx="870.5" cy="397.5" r="271.5" fill="#196AF0" fill-opacity="0.3"/>
<circle cx="870.5" cy="397.5" r="158.5" fill="#196AF0"/>
<circle cx="1587" cy="397" r="152.5" stroke="#196AF0"/>
<circle cx="153" cy="397" r="152.5" stroke="#196AF0"/>
<circle cx="870" cy="397" r="218" fill="#196AF0" fill-opacity="0.5"/>
<path d="M169.38 442.863C169.354 447.161 171.199 451.512 175.049 453.357L173.019 456.047C170.448 454.781 168.721 452.408 167.719 449.508C166.677 452.619 164.818 455.164 162.103 456.495L160.02 453.779C164.08 451.907 166.005 447.319 166.005 442.863V439.277H169.38V442.863ZM179.479 437.432V446.687H183.012V449.534H179.479V461.426H176.104V437.432H179.479Z" fill="#666666"/>
<path d="M146.52 443.971C146.52 447.847 148.497 451.986 152.531 453.674L150.712 456.311C147.877 455.111 145.926 452.725 144.858 449.798C143.764 452.975 141.773 455.612 138.952 456.917L137.027 454.254C141.009 452.487 143.065 448.031 143.065 443.971V442.494H137.977V439.752H151.529V442.494H146.52V443.971ZM157.304 437.432V461.426H153.902V437.432H157.304Z" fill="#666666"/>
<path d="M116.224 454.939C114.246 454.939 112.664 453.357 112.664 451.38C112.664 449.429 114.246 447.847 116.224 447.847C118.175 447.847 119.757 449.429 119.757 451.38C119.757 453.357 118.175 454.939 116.224 454.939Z" fill="#666666"/>
<path d="M169.38 402.863C169.354 407.161 171.199 411.512 175.049 413.357L173.019 416.047C170.448 414.781 168.721 412.408 167.719 409.508C166.677 412.619 164.818 415.164 162.103 416.495L160.02 413.779C164.08 411.907 166.005 407.319 166.005 402.863V399.277H169.38V402.863ZM179.479 397.432V406.687H183.012V409.534H179.479V421.426H176.104V397.432H179.479Z" fill="#666666"/>
<path d="M143.328 398.302V400.701H152.952V398.302H156.301V408.11H149.814V410.141H159.096V412.83H137.211V410.141H146.439V408.11H140.006V398.302H143.328ZM143.328 405.421H152.952V403.285H143.328V405.421ZM156.617 418.314V421.004H139.848V414.201H143.223V418.314H156.617Z" fill="#666666"/>
<path d="M116.224 414.939C114.246 414.939 112.664 413.357 112.664 411.38C112.664 409.429 114.246 407.847 116.224 407.847C118.175 407.847 119.757 409.429 119.757 411.38C119.757 413.357 118.175 414.939 116.224 414.939Z" fill="#666666"/>
<path d="M200.867 354.267V370.402H197.204V363.742H194.722V370.281H191.089V354.751H194.722V360.594H197.204V354.267H200.867ZM200.867 371.462V381.785H197.022V374.58H181.644V371.462H200.867ZM189.212 356.144C189.212 363.076 185.882 367.738 178.707 370.584L176.891 367.708C182.083 365.801 184.686 362.955 185.276 359.231H178.223V356.144H189.212Z" fill="#666666"/>
<path d="M173.105 356.628V359.231C173.105 362.683 173.105 366.558 171.985 372.4L168.11 372.007C169.155 366.8 169.2 362.925 169.23 359.686H153.004V356.628H173.105ZM175.527 375.276V378.425H150.4V375.276H159.392V365.801H163.236V375.276H175.527Z" fill="#666666"/>
<path d="M148.736 366.588V369.706H143.166V373.036C144.816 373.884 145.724 375.14 145.739 376.76C145.709 379.999 142.106 381.815 136.143 381.815C130.088 381.815 126.485 379.999 126.485 376.76C126.485 375.08 127.454 373.793 129.24 372.915V369.706H123.609V366.588H148.736ZM136.143 371.734C137.278 371.734 138.337 371.795 139.291 371.916V369.706H133.085V371.916C134.023 371.795 135.038 371.734 136.143 371.734ZM136.143 374.641C132.328 374.671 130.391 375.337 130.421 376.76C130.391 378.213 132.328 378.879 136.143 378.879C139.866 378.879 141.834 378.213 141.864 376.76C141.834 375.337 139.866 374.671 136.143 374.641ZM136.173 354.66C142.258 354.66 146.163 356.688 146.193 360.019C146.163 363.288 142.258 365.256 136.173 365.256C130.027 365.256 126.122 363.288 126.122 360.019C126.122 356.688 130.027 354.66 136.173 354.66ZM136.173 357.657C132.328 357.657 130.118 358.444 130.148 360.019C130.118 361.532 132.328 362.319 136.173 362.319C139.987 362.319 142.197 361.532 142.197 360.019C142.197 358.444 139.987 357.657 136.173 357.657Z" fill="#666666"/>
<path d="M119.037 355.478V357.688C119.037 359.837 119.037 362.229 118.401 365.377H122.034V368.495H96.8164V365.377H114.496C115.102 362.622 115.177 360.488 115.192 358.565H99.9043V355.478H119.037ZM118.946 371.401V381.482H99.8135V371.401H118.946ZM103.598 374.429V378.395H115.102V374.429H103.598Z" fill="#666666"/>
<path d="M1637.87 384.267V400.402H1634.2V393.742H1631.72V400.281H1628.09V384.751H1631.72V390.594H1634.2V384.267H1637.87ZM1637.87 401.462V411.785H1634.02V404.58H1618.64V401.462H1637.87ZM1626.21 386.144C1626.21 393.076 1622.88 397.738 1615.71 400.584L1613.89 397.708C1619.08 395.801 1621.69 392.955 1622.28 389.231H1615.22V386.144H1626.21Z" fill="#666666"/>
<path d="M1610.11 386.628V389.231C1610.11 392.683 1610.11 396.558 1608.99 402.4L1605.11 402.007C1606.16 396.8 1606.2 392.925 1606.23 389.686H1590.01V386.628H1610.11ZM1612.53 405.276V408.425H1587.4V405.276H1596.39V395.801H1600.24V405.276H1612.53Z" fill="#666666"/>
<path d="M1582.47 384.267V392.017H1586.19V395.195H1582.47V404.55H1578.59V384.267H1582.47ZM1583.47 408.213V411.301H1564.61V402.461H1568.45V408.213H1583.47ZM1565.27 386.204V390.2H1570.9V386.204H1574.78V400.16H1561.43V386.204H1565.27ZM1565.27 397.133H1570.9V393.167H1565.27V397.133Z" fill="#666666"/>
<path d="M1541.66 385.054C1545.84 385.054 1549.02 387.657 1549.02 391.351C1549.02 394.983 1545.84 397.617 1541.66 397.617C1537.39 397.617 1534.24 394.983 1534.24 391.351C1534.24 387.657 1537.39 385.054 1541.66 385.054ZM1541.66 388.202C1539.54 388.202 1537.97 389.353 1538 391.351C1537.97 393.318 1539.54 394.499 1541.66 394.499C1543.75 394.499 1545.29 393.318 1545.29 391.351C1545.29 389.353 1543.75 388.202 1541.66 388.202ZM1556.89 384.236V398.041H1553.01V384.236H1556.89ZM1556.89 399.191V406.669H1542.23V408.455H1557.64V411.482H1538.45V403.854H1553.04V402.158H1538.39V399.191H1556.89Z" fill="#666666"/>
<path d="M908.78 440.174C912.503 440.174 915.273 443.247 915.833 448.196H920.616V438.236H924.431V465.846H920.616V451.284H915.864C915.455 456.582 912.624 459.821 908.78 459.821C904.602 459.821 901.605 456.037 901.635 449.982C901.605 443.988 904.602 440.174 908.78 440.174ZM908.78 443.655C906.721 443.655 905.298 445.896 905.328 449.982C905.298 454.1 906.721 456.31 908.78 456.31C910.868 456.31 912.231 454.1 912.231 449.982C912.231 445.896 910.868 443.655 908.78 443.655Z" fill="white"/>
<path d="M898.215 438.236V465.785H894.552V438.236H898.215ZM892.584 438.69V464.514H888.951V450.8H885.318V447.682H888.951V438.69H892.584ZM883.108 445.623C883.108 450.194 884.531 454.826 888.558 457.127L886.287 459.973C883.835 458.52 882.215 456.052 881.292 453.101C880.338 456.31 878.673 459.034 876.146 460.578L873.814 457.732C877.871 455.25 879.385 450.285 879.385 445.623V444.14H874.874V441.052H887.286V444.14H883.108V445.623Z" fill="white"/>
<path d="M863.522 438.236V465.846H859.617V438.236H863.522ZM845.691 440.416V447.137H851.625V440.416H855.439V459.397H841.816V440.416H845.691ZM845.691 456.279H851.625V450.134H845.691V456.279Z" fill="white"/>
<path d="M836.88 438.267V454.13H833.035V451.436H826.829V448.348H833.035V445.714H827.102C825.391 450.073 821.486 453.07 815.416 454.735L813.902 451.678C820.245 450.013 823.348 446.985 823.893 443.201H815.386V440.113H828.101C828.101 441.006 828.04 441.869 827.919 442.687H833.035V438.267H836.88ZM827.707 454.463C833.308 454.463 837.062 456.612 837.092 460.033C837.062 463.484 833.308 465.664 827.707 465.664C822.046 465.664 818.262 463.484 818.292 460.033C818.262 456.612 822.046 454.463 827.707 454.463ZM827.707 457.49C824.226 457.46 822.137 458.338 822.137 460.033C822.137 461.729 824.226 462.606 827.707 462.606C831.128 462.606 833.217 461.729 833.217 460.033C833.217 458.338 831.128 457.46 827.707 457.49Z" fill="white"/>
<path d="M951.043 388.267V408.065H947.168V388.267H951.043ZM951.77 412.213V415.301H932.576V406.067H936.481V412.213H951.77ZM935.937 390.022C940.175 390.022 943.475 392.929 943.475 396.955C943.475 401.072 940.175 403.948 935.937 403.948C931.698 403.948 928.398 401.072 928.398 396.955C928.398 392.929 931.698 390.022 935.937 390.022ZM935.937 393.383C933.787 393.353 932.152 394.715 932.183 396.955C932.152 399.256 933.787 400.588 935.937 400.588C938.025 400.588 939.66 399.256 939.66 396.955C939.66 394.715 938.025 393.353 935.937 393.383Z" fill="white"/>
<path d="M923.221 388.267V396.138H926.732V399.316H923.221V406.976H919.346V388.267H923.221ZM900.879 403.434C902.892 403.434 905.193 403.434 907.569 403.373V401.829C904.572 401.405 902.695 399.952 902.726 397.833C902.695 395.29 905.39 393.716 909.477 393.716C913.533 393.716 916.197 395.29 916.228 397.833C916.197 399.952 914.366 401.39 911.414 401.799V403.222C913.685 403.131 915.94 402.949 918.074 402.677L918.347 405.341C912.534 406.37 906.146 406.431 901.272 406.431L900.879 403.434ZM923.221 408.096V415.785H919.346V411.062H904.391V408.096H923.221ZM917.378 390.265V393.08H901.605V390.265H907.569V388.024H911.414V390.265H917.378ZM909.477 396.289C907.509 396.289 906.389 396.773 906.419 397.833C906.389 398.832 907.509 399.407 909.477 399.407C911.414 399.407 912.504 398.832 912.534 397.833C912.504 396.773 911.414 396.289 909.477 396.289Z" fill="white"/>
<path d="M879.415 391.112V394.17H871.877V398.317H878.87V401.284H871.877V406.249C874.98 406.219 877.235 406.113 879.93 405.734L880.202 408.883C877.023 409.397 874.299 409.488 870.121 409.488H868.184V391.112H879.415ZM891.131 388.236V415.785H887.438V402.011H885.046V414.514H881.413V388.63H885.046V398.923H887.438V388.236H891.131Z" fill="white"/>
<path d="M850.504 392.565C850.504 395.896 852.441 399.104 856.801 400.467L854.742 403.464C851.821 402.495 849.777 400.618 848.597 398.196C847.401 400.981 845.267 403.161 842.118 404.221L840.029 401.193C844.631 399.649 846.599 395.986 846.629 392.202V389.689H850.504V392.565ZM862.311 388.236V394.685H866.034V397.894H862.311V404.584H858.436V388.236H862.311ZM853.289 405.129C858.98 405.129 862.583 407.097 862.583 410.457C862.583 413.848 858.98 415.785 853.289 415.785C847.477 415.785 843.844 413.848 843.844 410.457C843.844 407.097 847.477 405.129 853.289 405.129ZM853.289 408.156C849.656 408.156 847.688 408.943 847.719 410.457C847.688 412.031 849.656 412.758 853.289 412.758C856.861 412.758 858.769 412.031 858.769 410.457C858.769 408.943 856.861 408.156 853.289 408.156Z" fill="white"/>
<path d="M836.729 388.236V415.846H832.824V388.236H836.729ZM818.898 390.416V397.137H824.832V390.416H828.646V409.397H815.023V390.416H818.898ZM818.898 406.279H824.832V400.134H818.898V406.279Z" fill="white"/>
<path d="M810.089 388.267V404.13H806.244V401.436H800.038V398.348H806.244V395.714H800.311C798.6 400.073 794.695 403.07 788.625 404.735L787.111 401.678C793.454 400.013 796.557 396.985 797.102 393.201H788.595V390.113H801.31C801.31 391.006 801.249 391.869 801.128 392.687H806.244V388.267H810.089ZM800.916 404.463C806.517 404.463 810.271 406.612 810.301 410.033C810.271 413.484 806.517 415.664 800.916 415.664C795.255 415.664 791.471 413.484 791.501 410.033C791.471 406.612 795.255 404.463 800.916 404.463ZM800.916 407.49C797.435 407.46 795.346 408.338 795.346 410.033C795.346 411.729 797.435 412.606 800.916 412.606C804.337 412.606 806.426 411.729 806.426 410.033C806.426 408.338 804.337 407.46 800.916 407.49Z" fill="white"/>
<path d="M917.707 330.248V340.458H922.632V344.662H917.707V356.354H912.542V330.248H917.707ZM907.777 332.971C907.777 342.82 901.611 349.707 890.681 352.79L888.559 348.746C896.707 346.464 901.331 342.24 902.172 337.135H890.16V332.971H907.777ZM918.948 361.959V366.043H894.004V353.671H899.169V361.959H918.948Z" fill="white"/>
<path d="M867.537 338.496C867.537 345.183 870.58 351.909 876.746 354.512L873.743 358.596C869.579 356.714 866.696 353.09 865.055 348.586C863.393 353.491 860.41 357.455 855.966 359.477L852.883 355.232C859.249 352.55 862.332 345.583 862.372 338.496V333.051H867.537V338.496ZM883.873 330.248V366.764H878.708V330.248H883.873Z" fill="white"/>
<path d="M848.399 330.248V348.706H843.314V330.248H848.399ZM848.439 350.268V360.157H829.061V362.399H849.44V366.443H824.056V356.354H843.354V354.231H823.976V350.268H848.439ZM831.903 333.852C831.863 338.256 834.506 342.5 840.472 344.222L837.989 348.146C833.805 346.924 830.922 344.402 829.301 341.179C827.619 344.702 824.636 347.505 820.292 348.786L817.77 344.782C823.855 342.98 826.578 338.376 826.578 333.852V331.049H831.903V333.852Z" fill="white"/>
<line x1="1434" y1="409.417" x2="1298" y2="409.417" stroke="#196AF0"/>
<line x1="1326.35" y1="381.354" x2="1298.35" y2="409.354" stroke="#196AF0"/>
<line y1="-0.5" x2="136" y2="-0.5" transform="matrix(1 8.74228e-08 8.74228e-08 -1 306 408.917)" stroke="#196AF0"/>
<line y1="-0.5" x2="39.598" y2="-0.5" transform="matrix(0.707107 0.707107 0.707107 -0.707107 414 381)" stroke="#196AF0"/>
</svg>
