<svg width="1700" height="626" viewBox="0 0 1700 626" fill="none" xmlns="http://www.w3.org/2000/svg">
<circle cx="849" cy="313" r="313" fill="#196AF0" fill-opacity="0.3"/>
<circle cx="849.5" cy="313.5" r="251.5" fill="#196AF0" fill-opacity="0.5"/>
<circle cx="849" cy="313" r="183" fill="#196AF0"/>
<circle cx="1547" cy="308" r="152.5" stroke="#196AF0"/>
<circle cx="153" cy="308" r="152.5" stroke="#196AF0"/>
<path d="M169.38 353.863C169.354 358.161 171.199 362.512 175.049 364.357L173.019 367.047C170.448 365.781 168.721 363.408 167.719 360.508C166.677 363.619 164.818 366.164 162.103 367.495L160.02 364.779C164.08 362.907 166.005 358.319 166.005 353.863V350.277H169.38V353.863ZM179.479 348.432V357.687H183.012V360.534H179.479V372.426H176.104V348.432H179.479Z" fill="#666666"/>
<path d="M146.52 354.971C146.52 358.847 148.497 362.986 152.531 364.674L150.712 367.311C147.877 366.111 145.926 363.725 144.858 360.798C143.764 363.975 141.773 366.612 138.952 367.917L137.027 365.254C141.009 363.487 143.065 359.031 143.065 354.971V353.494H137.977V350.752H151.529V353.494H146.52V354.971ZM157.304 348.432V372.426H153.902V348.432H157.304Z" fill="#666666"/>
<path d="M116.224 365.939C114.246 365.939 112.664 364.357 112.664 362.38C112.664 360.429 114.246 358.847 116.224 358.847C118.175 358.847 119.757 360.429 119.757 362.38C119.757 364.357 118.175 365.939 116.224 365.939Z" fill="#666666"/>
<path d="M169.38 313.863C169.354 318.161 171.199 322.512 175.049 324.357L173.019 327.047C170.448 325.781 168.721 323.408 167.719 320.508C166.677 323.619 164.818 326.164 162.103 327.495L160.02 324.779C164.08 322.907 166.005 318.319 166.005 313.863V310.277H169.38V313.863ZM179.479 308.432V317.687H183.012V320.534H179.479V332.426H176.104V308.432H179.479Z" fill="#666666"/>
<path d="M143.328 309.302V311.701H152.952V309.302H156.301V319.11H149.814V321.141H159.096V323.83H137.211V321.141H146.439V319.11H140.006V309.302H143.328ZM143.328 316.421H152.952V314.285H143.328V316.421ZM156.617 329.314V332.004H139.848V325.201H143.223V329.314H156.617Z" fill="#666666"/>
<path d="M116.224 325.939C114.246 325.939 112.664 324.357 112.664 322.38C112.664 320.429 114.246 318.847 116.224 318.847C118.175 318.847 119.757 320.429 119.757 322.38C119.757 324.357 118.175 325.939 116.224 325.939Z" fill="#666666"/>
<path d="M200.867 265.267V281.402H197.204V274.742H194.722V281.281H191.089V265.751H194.722V271.594H197.204V265.267H200.867ZM200.867 282.462V292.785H197.022V285.58H181.644V282.462H200.867ZM189.212 267.144C189.212 274.076 185.882 278.738 178.707 281.584L176.891 278.708C182.083 276.801 184.686 273.955 185.276 270.231H178.223V267.144H189.212Z" fill="#666666"/>
<path d="M173.105 267.628V270.231C173.105 273.683 173.105 277.558 171.985 283.4L168.11 283.007C169.155 277.8 169.2 273.925 169.23 270.686H153.004V267.628H173.105ZM175.527 286.276V289.425H150.4V286.276H159.392V276.801H163.236V286.276H175.527Z" fill="#666666"/>
<path d="M148.736 277.588V280.706H143.166V284.036C144.816 284.884 145.724 286.14 145.739 287.76C145.709 290.999 142.106 292.815 136.143 292.815C130.088 292.815 126.485 290.999 126.485 287.76C126.485 286.08 127.454 284.793 129.24 283.915V280.706H123.609V277.588H148.736ZM136.143 282.734C137.278 282.734 138.337 282.795 139.291 282.916V280.706H133.085V282.916C134.023 282.795 135.038 282.734 136.143 282.734ZM136.143 285.641C132.328 285.671 130.391 286.337 130.421 287.76C130.391 289.213 132.328 289.879 136.143 289.879C139.866 289.879 141.834 289.213 141.864 287.76C141.834 286.337 139.866 285.671 136.143 285.641ZM136.173 265.66C142.258 265.66 146.163 267.688 146.193 271.019C146.163 274.288 142.258 276.256 136.173 276.256C130.027 276.256 126.122 274.288 126.122 271.019C126.122 267.688 130.027 265.66 136.173 265.66ZM136.173 268.657C132.328 268.657 130.118 269.444 130.148 271.019C130.118 272.532 132.328 273.319 136.173 273.319C139.987 273.319 142.197 272.532 142.197 271.019C142.197 269.444 139.987 268.657 136.173 268.657Z" fill="#666666"/>
<path d="M119.037 266.478V268.688C119.037 270.837 119.037 273.229 118.401 276.377H122.034V279.495H96.8164V276.377H114.496C115.102 273.622 115.177 271.488 115.192 269.565H99.9043V266.478H119.037ZM118.946 282.401V292.482H99.8135V282.401H118.946ZM103.598 285.429V289.395H115.102V285.429H103.598Z" fill="#666666"/>
<path d="M1597.87 295.267V311.402H1594.2V304.742H1591.72V311.281H1588.09V295.751H1591.72V301.594H1594.2V295.267H1597.87ZM1597.87 312.462V322.785H1594.02V315.58H1578.64V312.462H1597.87ZM1586.21 297.144C1586.21 304.076 1582.88 308.738 1575.71 311.584L1573.89 308.708C1579.08 306.801 1581.69 303.955 1582.28 300.231H1575.22V297.144H1586.21Z" fill="#666666"/>
<path d="M1570.11 297.628V300.231C1570.11 303.683 1570.11 307.558 1568.99 313.4L1565.11 313.007C1566.16 307.8 1566.2 303.925 1566.23 300.686H1550.01V297.628H1570.11ZM1572.53 316.276V319.425H1547.4V316.276H1556.39V306.801H1560.24V316.276H1572.53Z" fill="#666666"/>
<path d="M1542.47 295.267V303.017H1546.19V306.195H1542.47V315.55H1538.59V295.267H1542.47ZM1543.47 319.213V322.301H1524.61V313.461H1528.45V319.213H1543.47ZM1525.27 297.204V301.2H1530.9V297.204H1534.78V311.16H1521.43V297.204H1525.27ZM1525.27 308.133H1530.9V304.167H1525.27V308.133Z" fill="#666666"/>
<path d="M1501.66 296.054C1505.84 296.054 1509.02 298.657 1509.02 302.351C1509.02 305.983 1505.84 308.617 1501.66 308.617C1497.39 308.617 1494.24 305.983 1494.24 302.351C1494.24 298.657 1497.39 296.054 1501.66 296.054ZM1501.66 299.202C1499.54 299.202 1497.97 300.353 1498 302.351C1497.97 304.318 1499.54 305.499 1501.66 305.499C1503.75 305.499 1505.29 304.318 1505.29 302.351C1505.29 300.353 1503.75 299.202 1501.66 299.202ZM1516.89 295.236V309.041H1513.01V295.236H1516.89ZM1516.89 310.191V317.669H1502.23V319.455H1517.64V322.482H1498.45V314.854H1513.04V313.158H1498.39V310.191H1516.89Z" fill="#666666"/>
<path d="M889.668 360.926C893.392 360.926 896.162 363.999 896.722 368.948H901.505V358.988H905.32V386.598H901.505V372.036H896.752C896.343 377.334 893.513 380.573 889.668 380.573C885.49 380.573 882.493 376.789 882.524 370.734C882.493 364.74 885.49 360.926 889.668 360.926ZM889.668 364.407C887.61 364.407 886.187 366.647 886.217 370.734C886.187 374.852 887.61 377.062 889.668 377.062C891.757 377.062 893.119 374.852 893.119 370.734C893.119 366.647 891.757 364.407 889.668 364.407Z" fill="white"/>
<path d="M879.104 358.988V386.537H875.44V358.988H879.104ZM873.473 359.442V385.266H869.84V371.552H866.207V368.434H869.84V359.442H873.473ZM863.997 366.375C863.997 370.946 865.42 375.578 869.446 377.879L867.176 380.725C864.724 379.271 863.104 376.804 862.181 373.853C861.227 377.062 859.562 379.786 857.034 381.33L854.703 378.484C858.76 376.002 860.273 371.037 860.273 366.375V364.892H855.763V361.804H868.175V364.892H863.997V366.375Z" fill="white"/>
<path d="M844.409 358.988V386.598H840.504V358.988H844.409ZM826.578 361.168V367.889H832.512V361.168H836.326V380.149H822.703V361.168H826.578ZM826.578 377.031H832.512V370.886H826.578V377.031Z" fill="white"/>
<path d="M817.771 359.019V374.882H813.926V372.188H807.72V369.1H813.926V366.466H807.992C806.282 370.825 802.376 373.822 796.307 375.487L794.793 372.43C801.135 370.765 804.238 367.737 804.783 363.953H796.276V360.865H808.991C808.991 361.758 808.931 362.621 808.81 363.438H813.926V359.019H817.771ZM808.598 375.215C814.198 375.215 817.952 377.364 817.982 380.785C817.952 384.236 814.198 386.416 808.598 386.416C802.937 386.416 799.152 384.236 799.183 380.785C799.152 377.364 802.937 375.215 808.598 375.215ZM808.598 378.242C805.116 378.212 803.027 379.09 803.027 380.785C803.027 382.48 805.116 383.358 808.598 383.358C812.019 383.358 814.107 382.48 814.107 380.785C814.107 379.09 812.019 378.212 808.598 378.242Z" fill="white"/>
<path d="M931.93 309.019V328.817H928.055V309.019H931.93ZM932.656 332.965V336.053H913.463V326.819H917.368V332.965H932.656ZM916.823 310.774C921.062 310.774 924.361 313.681 924.361 317.707C924.361 321.824 921.062 324.7 916.823 324.7C912.585 324.7 909.285 321.824 909.285 317.707C909.285 313.681 912.585 310.774 916.823 310.774ZM916.823 314.135C914.674 314.104 913.039 315.467 913.069 317.707C913.039 320.008 914.674 321.34 916.823 321.34C918.912 321.34 920.547 320.008 920.547 317.707C920.547 315.467 918.912 314.104 916.823 314.135Z" fill="white"/>
<path d="M904.109 309.019V316.89H907.621V320.068H904.109V327.728H900.234V309.019H904.109ZM881.768 324.186C883.781 324.186 886.082 324.186 888.458 324.125V322.581C885.461 322.157 883.584 320.704 883.614 318.585C883.584 316.042 886.278 314.468 890.365 314.468C894.422 314.468 897.086 316.042 897.116 318.585C897.086 320.704 895.254 322.142 892.303 322.551V323.974C894.573 323.883 896.829 323.701 898.963 323.429L899.235 326.093C893.423 327.122 887.035 327.183 882.161 327.183L881.768 324.186ZM904.109 328.848V336.537H900.234V331.814H885.279V328.848H904.109ZM898.267 311.017V313.832H882.494V311.017H888.458V308.776H892.303V311.017H898.267ZM890.365 317.041C888.397 317.041 887.277 317.525 887.308 318.585C887.277 319.584 888.397 320.159 890.365 320.159C892.303 320.159 893.393 319.584 893.423 318.585C893.393 317.525 892.303 317.041 890.365 317.041Z" fill="white"/>
<path d="M860.304 311.864V314.922H852.766V319.069H859.759V322.036H852.766V327.001C855.869 326.971 858.124 326.865 860.818 326.486L861.091 329.635C857.912 330.149 855.188 330.24 851.01 330.24H849.072V311.864H860.304ZM872.02 308.988V336.537H868.326V322.763H865.935V335.266H862.302V309.382H865.935V319.675H868.326V308.988H872.02Z" fill="white"/>
<path d="M831.393 313.317C831.393 316.647 833.33 319.856 837.689 321.219L835.631 324.216C832.709 323.247 830.666 321.37 829.485 318.948C828.29 321.733 826.155 323.913 823.007 324.973L820.918 321.945C825.52 320.401 827.487 316.738 827.518 312.954V310.441H831.393V313.317ZM843.199 308.988V315.437H846.923V318.646H843.199V325.336H839.324V308.988H843.199ZM834.178 325.881C839.869 325.881 843.472 327.849 843.472 331.209C843.472 334.6 839.869 336.537 834.178 336.537C828.365 336.537 824.732 334.6 824.732 331.209C824.732 327.849 828.365 325.881 834.178 325.881ZM834.178 328.908C830.545 328.908 828.577 329.695 828.607 331.209C828.577 332.783 830.545 333.51 834.178 333.51C837.75 333.51 839.657 332.783 839.657 331.209C839.657 329.695 837.75 328.908 834.178 328.908Z" fill="white"/>
<path d="M817.618 308.988V336.598H813.713V308.988H817.618ZM799.787 311.168V317.889H805.721V311.168H809.535V330.149H795.912V311.168H799.787ZM799.787 327.031H805.721V320.886H799.787V327.031Z" fill="white"/>
<path d="M790.978 309.019V324.882H787.133V322.188H780.927V319.1H787.133V316.466H781.199C779.489 320.825 775.583 323.822 769.514 325.487L768 322.43C774.342 320.765 777.445 317.737 777.99 313.953H769.483V310.865H782.198C782.198 311.758 782.138 312.621 782.017 313.438H787.133V309.019H790.978ZM781.805 325.215C787.405 325.215 791.159 327.364 791.189 330.785C791.159 334.236 787.405 336.416 781.805 336.416C776.144 336.416 772.359 334.236 772.39 330.785C772.359 327.364 776.144 325.215 781.805 325.215ZM781.805 328.242C778.323 328.212 776.234 329.09 776.234 330.785C776.234 332.48 778.323 333.358 781.805 333.358C785.226 333.358 787.314 332.48 787.314 330.785C787.314 329.09 785.226 328.212 781.805 328.242Z" fill="white"/>
<path d="M898.596 251V261.21H903.521V265.414H898.596V277.105H893.431V251H898.596ZM888.666 253.723C888.666 263.572 882.5 270.459 871.569 273.542L869.447 269.498C877.595 267.216 882.22 262.992 883.061 257.887H871.049V253.723H888.666ZM899.837 282.711V286.795H874.893V274.423H880.058V282.711H899.837Z" fill="white"/>
<path d="M848.426 259.248C848.426 265.935 851.469 272.661 857.635 275.264L854.632 279.348C850.468 277.466 847.585 273.842 845.943 269.338C844.282 274.243 841.299 278.207 836.854 280.229L833.771 275.984C840.138 273.302 843.221 266.335 843.261 259.248V253.803H848.426V259.248ZM864.762 251V287.516H859.597V251H864.762Z" fill="white"/>
<path d="M829.288 251V269.458H824.203V251H829.288ZM829.328 271.02V280.909H809.949V283.151H830.329V287.195H804.944V277.105H824.243V274.983H804.864V271.02H829.328ZM812.792 254.604C812.752 259.008 815.395 263.252 821.36 264.974L818.878 268.897C814.694 267.676 811.811 265.154 810.189 261.931C808.508 265.454 805.525 268.257 801.181 269.538L798.658 265.534C804.744 263.732 807.467 259.128 807.467 254.604V251.801H812.792V254.604Z" fill="white"/>
<line x1="1394" y1="320.5" x2="1203" y2="320.5" stroke="#196AF0"/>
<line x1="1231.35" y1="292.354" x2="1203.35" y2="320.354" stroke="#196AF0"/>
<line y1="-0.5" x2="191" y2="-0.5" transform="matrix(1 0 0 -1 304 320)" stroke="#196AF0"/>
<line y1="-0.5" x2="39.598" y2="-0.5" transform="matrix(0.707107 0.707107 0.707107 -0.707107 467 292)" stroke="#196AF0"/>
</svg>
