<svg width="1700" height="626" viewBox="0 0 1700 626" fill="none" xmlns="http://www.w3.org/2000/svg">
<circle cx="849" cy="313" r="313" fill="#196AF0" fill-opacity="0.3"/>
<circle cx="849.5" cy="313.5" r="251.5" fill="#196AF0" fill-opacity="0.5"/>
<circle cx="849" cy="313" r="183" fill="#196AF0"/>
<circle cx="1547" cy="308" r="152.5" stroke="#196AF0"/>
<circle cx="153" cy="308" r="152.5" stroke="#196AF0"/>
<line x1="1394" y1="320.5" x2="1203" y2="320.5" stroke="#196AF0"/>
<line x1="1231.35" y1="292.354" x2="1203.35" y2="320.354" stroke="#196AF0"/>
<line y1="-0.5" x2="191" y2="-0.5" transform="matrix(1 0 0 -1 304 320)" stroke="#196AF0"/>
<line y1="-0.5" x2="39.598" y2="-0.5" transform="matrix(0.707107 0.707107 0.707107 -0.707107 467 292)" stroke="#196AF0"/>
<path d="M225.956 292.436C225.774 291.285 224.745 290.528 223.262 290.528C221.809 290.528 220.688 291.225 220.719 292.224C220.688 292.95 221.294 293.525 222.838 293.858L225.774 294.464C228.953 295.13 230.497 296.553 230.527 298.914C230.497 302.153 227.591 304.333 223.231 304.333C218.781 304.333 216.178 302.335 215.814 299.126H220.325C220.537 300.428 221.597 301.094 223.231 301.094C224.866 301.094 225.956 300.428 225.956 299.368C225.956 298.521 225.26 298.006 223.716 297.673L220.991 297.128C217.873 296.522 216.238 294.888 216.269 292.466C216.238 289.317 218.963 287.35 223.201 287.35C227.349 287.35 229.922 289.317 230.164 292.436H225.956Z" fill="#666666"/>
<path d="M204.492 304V287.562H208.821V290.407H209.003C209.608 288.379 211.122 287.319 212.969 287.319C213.423 287.319 213.998 287.38 214.392 287.471V291.467C213.968 291.346 213.12 291.225 212.484 291.225C210.456 291.225 208.973 292.647 208.973 294.646V304H204.492Z" fill="#666666"/>
<path d="M194.139 304.333C189.113 304.333 186.025 301.063 186.025 295.856C186.025 290.771 189.144 287.35 193.957 287.35C198.286 287.35 201.677 290.074 201.677 295.675V296.946H190.445C190.445 299.429 191.929 300.973 194.229 300.973C195.743 300.973 196.833 300.307 197.287 299.308H201.556C200.92 302.335 198.195 304.333 194.139 304.333ZM190.445 294.131H197.438C197.438 292.133 196.046 290.71 194.048 290.71C191.989 290.71 190.521 292.239 190.445 294.131Z" fill="#666666"/>
<path d="M159.445 304V287.562H163.714V290.438H163.896C164.592 288.53 166.257 287.35 168.467 287.35C170.737 287.35 172.402 288.53 172.947 290.438H173.099C173.795 288.561 175.642 287.35 178.063 287.35C181.121 287.35 183.24 289.378 183.24 292.95V304H178.76V293.828C178.76 291.951 177.67 291.043 176.187 291.043C174.491 291.043 173.522 292.224 173.522 293.949V304H169.163V293.707C169.163 292.072 168.134 291.043 166.62 291.043C165.106 291.043 163.926 292.254 163.926 294.131V304H159.445Z" fill="#666666"/>
<path d="M148.547 304.333C143.582 304.333 140.494 300.912 140.494 295.826C140.494 290.74 143.582 287.35 148.547 287.35C153.512 287.35 156.63 290.74 156.63 295.826C156.63 300.912 153.512 304.333 148.547 304.333ZM148.577 300.852C150.878 300.852 152.059 298.702 152.059 295.826C152.059 292.92 150.878 290.771 148.577 290.771C146.246 290.771 145.035 292.92 145.035 295.826C145.035 298.702 146.246 300.852 148.577 300.852Z" fill="#666666"/>
<path d="M138.526 287.562V290.922H135.438V298.944C135.438 300.246 136.074 300.579 136.982 300.609C137.437 300.609 138.224 300.579 138.769 300.519V304.061C138.284 304.151 137.497 304.212 136.377 304.212C133.138 304.212 130.928 302.759 130.958 299.58V290.922H128.688V287.562H130.958V283.626H135.438V287.562H138.526Z" fill="#666666"/>
<path d="M122.542 292.436C122.36 291.285 121.331 290.528 119.848 290.528C118.395 290.528 117.274 291.225 117.305 292.224C117.274 292.95 117.88 293.525 119.424 293.858L122.36 294.464C125.539 295.13 127.083 296.553 127.113 298.914C127.083 302.153 124.177 304.333 119.817 304.333C115.367 304.333 112.764 302.335 112.4 299.126H116.911C117.123 300.428 118.183 301.094 119.817 301.094C121.452 301.094 122.542 300.428 122.542 299.368C122.542 298.521 121.846 298.006 120.302 297.673L117.577 297.128C114.459 296.522 112.824 294.888 112.854 292.466C112.824 289.317 115.549 287.35 119.787 287.35C123.935 287.35 126.508 289.317 126.75 292.436H122.542Z" fill="#666666"/>
<path d="M105.195 297.007V287.562H109.676V304H105.377V301.033H105.195C104.438 302.94 102.683 304.212 100.2 304.212C96.9004 304.212 94.6602 301.881 94.6602 298.036V287.562H99.1406V297.249C99.1406 299.187 100.261 300.428 102.017 300.428C103.651 300.428 105.195 299.247 105.195 297.007Z" fill="#666666"/>
<path d="M86.9707 289.711C86.6074 287.289 84.7305 285.806 82.1875 285.806C78.7666 285.806 76.5264 288.439 76.5264 293.041C76.5264 297.764 78.7969 300.276 82.1572 300.276C84.6699 300.276 86.5166 298.884 86.9707 296.522L91.5723 296.553C91.0576 300.609 87.667 304.303 82.0967 304.303C76.2236 304.303 71.8945 300.186 71.8945 293.041C71.8945 285.896 76.3145 281.779 82.0967 281.779C87.1523 281.779 90.9668 284.686 91.5723 289.711H86.9707Z" fill="#666666"/>
<path d="M210.91 236.082V258H206.43V236.082H210.91Z" fill="#666666"/>
<path d="M188.355 253.398C188.355 249.735 191.322 248.524 194.471 248.343C195.651 248.267 197.861 248.161 198.558 248.131V246.799C198.527 245.437 197.589 244.619 195.924 244.619C194.41 244.619 193.441 245.315 193.199 246.436H188.931C189.203 243.59 191.686 241.35 196.045 241.35C199.617 241.35 203.008 242.954 203.008 246.92V258H198.77V255.729H198.648C197.831 257.243 196.287 258.303 193.835 258.303C190.687 258.303 188.355 256.668 188.355 253.398ZM192.654 253.277C192.654 254.549 193.684 255.215 195.106 255.215C197.135 255.215 198.588 253.853 198.558 252.127V250.916C197.876 250.946 195.969 251.052 195.197 251.128C193.653 251.279 192.654 252.006 192.654 253.277Z" fill="#666666"/>
<path d="M181.181 258V241.562H185.661V258H181.181ZM183.421 239.412C182.059 239.412 180.969 238.383 180.969 237.142C180.969 235.87 182.059 234.841 183.421 234.841C184.753 234.841 185.843 235.87 185.843 237.142C185.843 238.383 184.753 239.412 183.421 239.412Z" fill="#666666"/>
<path d="M171.1 258.333C166.074 258.333 163.047 254.852 163.047 249.826C163.047 244.801 166.104 241.35 171.1 241.35C175.338 241.35 178.214 243.832 178.396 247.586H174.188C173.915 245.951 172.855 244.831 171.16 244.831C169.011 244.831 167.588 246.647 167.588 249.766C167.588 252.944 168.98 254.761 171.16 254.761C172.734 254.761 173.915 253.792 174.188 252.036H178.396C178.184 255.76 175.459 258.333 171.1 258.333Z" fill="#666666"/>
<path d="M149.668 248.494V258H145.188V241.562H149.456V244.438H149.638C150.395 242.53 152.15 241.35 154.572 241.35C157.993 241.35 160.264 243.681 160.233 247.525V258H155.783V248.312C155.783 246.284 154.663 245.073 152.816 245.073C150.939 245.073 149.668 246.314 149.668 248.494Z" fill="#666666"/>
<path d="M127.113 253.398C127.113 249.735 130.08 248.524 133.229 248.343C134.409 248.267 136.619 248.161 137.315 248.131V246.799C137.285 245.437 136.347 244.619 134.682 244.619C133.168 244.619 132.199 245.315 131.957 246.436H127.688C127.961 243.59 130.443 241.35 134.803 241.35C138.375 241.35 141.766 242.954 141.766 246.92V258H137.527V255.729H137.406C136.589 257.243 135.045 258.303 132.593 258.303C129.444 258.303 127.113 256.668 127.113 253.398ZM131.412 253.277C131.412 254.549 132.441 255.215 133.864 255.215C135.893 255.215 137.346 253.853 137.315 252.127V250.916C136.634 250.946 134.727 251.052 133.955 251.128C132.411 251.279 131.412 252.006 131.412 253.277Z" fill="#666666"/>
<path d="M113.854 248.494V258H109.373V241.562H113.642V244.438H113.823C114.58 242.53 116.336 241.35 118.758 241.35C122.179 241.35 124.449 243.681 124.419 247.525V258H119.969V248.312C119.969 246.284 118.849 245.073 117.002 245.073C115.125 245.073 113.854 246.314 113.854 248.494Z" fill="#666666"/>
<path d="M101.411 258V241.562H105.892V258H101.411ZM103.651 239.412C102.289 239.412 101.199 238.383 101.199 237.142C101.199 235.87 102.289 234.841 103.651 234.841C104.983 234.841 106.073 235.87 106.073 237.142C106.073 238.383 104.983 239.412 103.651 239.412Z" fill="#666666"/>
<path d="M84.0645 258V236.082H98.5049V239.836H88.6055V245.164H97.5664V248.918H88.6055V258H84.0645Z" fill="#666666"/>
<path d="M239.234 389.29C234.857 389.29 232.168 386.442 232.168 381.907C232.168 377.478 234.884 374.498 239.076 374.498C242.847 374.498 245.8 376.871 245.8 381.749V382.856H236.018C236.018 385.019 237.31 386.363 239.313 386.363C240.632 386.363 241.581 385.783 241.977 384.913H245.694C245.141 387.55 242.768 389.29 239.234 389.29ZM236.018 380.404H242.108C242.108 378.664 240.896 377.425 239.155 377.425C237.362 377.425 236.083 378.756 236.018 380.404Z" fill="#666666"/>
<path d="M223.967 389.29C219.59 389.29 216.953 386.258 216.953 381.881C216.953 377.504 219.616 374.498 223.967 374.498C227.658 374.498 230.163 376.66 230.321 379.93H226.656C226.419 378.506 225.496 377.53 224.02 377.53C222.147 377.53 220.908 379.112 220.908 381.828C220.908 384.597 222.121 386.179 224.02 386.179C225.391 386.179 226.419 385.335 226.656 383.806H230.321C230.137 387.049 227.764 389.29 223.967 389.29Z" fill="#666666"/>
<path d="M210.599 389V374.683H214.501V389H210.599ZM212.55 372.811C211.363 372.811 210.414 371.914 210.414 370.833C210.414 369.726 211.363 368.829 212.55 368.829C213.71 368.829 214.659 369.726 214.659 370.833C214.659 371.914 213.71 372.811 212.55 372.811Z" fill="#666666"/>
<path d="M208.304 374.683V377.609H205.456V389H201.554V377.609H199.523V374.683H201.554V373.602C201.554 370.596 203.373 369.014 206.247 369.014C207.144 369.014 207.882 369.093 208.567 369.251V372.204C208.014 372.151 207.592 372.125 207.381 372.125C206.115 372.125 205.456 372.626 205.456 373.812V374.683H208.304Z" fill="#666666"/>
<path d="M198.39 374.683V377.609H195.542V389H191.64V377.609H189.609V374.683H191.64V373.602C191.64 370.596 193.459 369.014 196.333 369.014C197.229 369.014 197.968 369.093 198.653 369.251V372.204C198.1 372.151 197.678 372.125 197.467 372.125C196.201 372.125 195.542 372.626 195.542 373.812V374.683H198.39Z" fill="#666666"/>
<path d="M188.003 379.455C188.003 385.678 184.127 389.264 179.091 389.264C174.002 389.264 170.152 385.651 170.152 379.455C170.152 373.232 174.002 369.646 179.091 369.646C184.127 369.646 188.003 373.232 188.003 379.455ZM183.969 379.455C183.969 375.368 182.044 373.153 179.091 373.153C176.138 373.153 174.187 375.368 174.187 379.455C174.187 383.542 176.138 385.757 179.091 385.757C182.044 385.757 183.969 383.542 183.969 379.455Z" fill="#666666"/>
<path d="M151.932 380.721V389H148.029V369.91H151.826V377.188H151.984C152.644 375.526 154.094 374.498 156.256 374.498C159.235 374.498 161.213 376.502 161.213 379.877V389H157.311V380.562C157.311 378.796 156.361 377.741 154.727 377.741C153.092 377.741 151.932 378.822 151.932 380.721Z" fill="#666666"/>
<path d="M139.248 389.29C134.871 389.29 132.234 386.258 132.234 381.881C132.234 377.504 134.897 374.498 139.248 374.498C142.939 374.498 145.444 376.66 145.603 379.93H141.938C141.7 378.506 140.777 377.53 139.301 377.53C137.429 377.53 136.189 379.112 136.189 381.828C136.189 384.597 137.402 386.179 139.301 386.179C140.672 386.179 141.7 385.335 141.938 383.806H145.603C145.418 387.049 143.045 389.29 139.248 389.29Z" fill="#666666"/>
<path d="M120.582 380.721V389H116.68V374.683H120.397V377.188H120.556C121.215 375.526 122.744 374.498 124.854 374.498C127.833 374.498 129.811 376.528 129.784 379.877V389H125.908V380.562C125.908 378.796 124.933 377.741 123.324 377.741C121.689 377.741 120.582 378.822 120.582 380.721Z" fill="#666666"/>
<path d="M100.938 384.992C100.938 381.802 103.521 380.747 106.264 380.589C107.292 380.523 109.217 380.431 109.823 380.404V379.244C109.797 378.058 108.979 377.346 107.529 377.346C106.211 377.346 105.367 377.952 105.156 378.928H101.438C101.676 376.449 103.838 374.498 107.635 374.498C110.746 374.498 113.699 375.896 113.699 379.35V389H110.008V387.022H109.902C109.19 388.341 107.846 389.264 105.71 389.264C102.968 389.264 100.938 387.84 100.938 384.992ZM104.682 384.887C104.682 385.994 105.578 386.574 106.817 386.574C108.584 386.574 109.85 385.388 109.823 383.885V382.83C109.23 382.856 107.569 382.949 106.896 383.015C105.552 383.146 104.682 383.779 104.682 384.887Z" fill="#666666"/>
<path d="M91.498 389V374.683H95.2686V377.161H95.4268C95.9541 375.395 97.2725 374.472 98.8809 374.472C99.2764 374.472 99.7773 374.524 100.12 374.604V378.084C99.751 377.979 99.0127 377.873 98.459 377.873C96.6924 377.873 95.4004 379.112 95.4004 380.853V389H91.498Z" fill="#666666"/>
<path d="M74.3867 389V369.91H81.9805C86.1992 369.91 88.3086 371.94 88.3086 374.814C88.3086 377.056 86.8584 378.453 84.8809 378.901V379.086C87.043 379.191 89.0732 380.905 89.0732 383.727C89.0732 386.759 86.8057 389 82.4814 389H74.3867ZM81.6904 385.73C83.9844 385.73 84.96 384.781 84.96 383.357C84.96 381.749 83.7471 380.615 81.7959 380.615H78.3418V385.73H81.6904ZM81.4004 377.899C83.0615 377.899 84.3008 376.977 84.3008 375.447C84.3008 374.076 83.2988 373.127 81.4795 373.127H78.3418V377.899H81.4004Z" fill="#666666"/>
<path d="M52.501 384.939C50.5234 384.939 48.9414 383.357 48.9414 381.38C48.9414 379.429 50.5234 377.847 52.501 377.847C54.4521 377.847 56.0342 379.429 56.0342 381.38C56.0342 383.357 54.4521 384.939 52.501 384.939Z" fill="#666666"/>
<path d="M227.527 349.29C223.15 349.29 220.461 346.442 220.461 341.907C220.461 337.478 223.177 334.498 227.369 334.498C231.14 334.498 234.093 336.871 234.093 341.749V342.856H224.311C224.311 345.019 225.603 346.363 227.606 346.363C228.925 346.363 229.874 345.783 230.27 344.913H233.987C233.434 347.55 231.061 349.29 227.527 349.29ZM224.311 340.404H230.401C230.401 338.664 229.188 337.425 227.448 337.425C225.655 337.425 224.376 338.756 224.311 340.404Z" fill="#666666"/>
<path d="M212.26 349.29C207.883 349.29 205.246 346.258 205.246 341.881C205.246 337.504 207.909 334.498 212.26 334.498C215.951 334.498 218.456 336.66 218.614 339.93H214.949C214.712 338.506 213.789 337.53 212.312 337.53C210.44 337.53 209.201 339.112 209.201 341.828C209.201 344.597 210.414 346.179 212.312 346.179C213.684 346.179 214.712 345.335 214.949 343.806H218.614C218.43 347.049 216.057 349.29 212.26 349.29Z" fill="#666666"/>
<path d="M198.892 349V334.683H202.794V349H198.892ZM200.843 332.811C199.656 332.811 198.707 331.914 198.707 330.833C198.707 329.726 199.656 328.829 200.843 328.829C202.003 328.829 202.952 329.726 202.952 330.833C202.952 331.914 202.003 332.811 200.843 332.811Z" fill="#666666"/>
<path d="M196.597 334.683V337.609H193.749V349H189.847V337.609H187.816V334.683H189.847V333.602C189.847 330.596 191.666 329.014 194.54 329.014C195.437 329.014 196.175 329.093 196.86 329.251V332.204C196.307 332.151 195.885 332.125 195.674 332.125C194.408 332.125 193.749 332.626 193.749 333.812V334.683H196.597Z" fill="#666666"/>
<path d="M186.683 334.683V337.609H183.835V349H179.933V337.609H177.902V334.683H179.933V333.602C179.933 330.596 181.752 329.014 184.626 329.014C185.522 329.014 186.261 329.093 186.946 329.251V332.204C186.393 332.151 185.971 332.125 185.76 332.125C184.494 332.125 183.835 332.626 183.835 333.812V334.683H186.683Z" fill="#666666"/>
<path d="M176.296 339.455C176.296 345.678 172.42 349.264 167.384 349.264C162.295 349.264 158.445 345.651 158.445 339.455C158.445 333.232 162.295 329.646 167.384 329.646C172.42 329.646 176.296 333.232 176.296 339.455ZM172.262 339.455C172.262 335.368 170.337 333.153 167.384 333.153C164.431 333.153 162.479 335.368 162.479 339.455C162.479 343.542 164.431 345.757 167.384 345.757C170.337 345.757 172.262 343.542 172.262 339.455Z" fill="#666666"/>
<path d="M141.28 349.237C138.011 349.237 135.453 346.627 135.453 341.854C135.453 336.95 138.116 334.498 141.28 334.498C143.68 334.498 144.813 335.922 145.341 337.082H145.473V329.91H149.375V349H145.525V346.706H145.341C144.787 347.893 143.601 349.237 141.28 349.237ZM142.493 346.126C144.444 346.126 145.552 344.412 145.552 341.828C145.552 339.244 144.444 337.609 142.493 337.609C140.516 337.609 139.461 339.323 139.461 341.828C139.461 344.359 140.516 346.126 142.493 346.126Z" fill="#666666"/>
<path d="M120.266 344.992C120.266 341.802 122.85 340.747 125.592 340.589C126.62 340.523 128.545 340.431 129.151 340.404V339.244C129.125 338.058 128.308 337.346 126.857 337.346C125.539 337.346 124.695 337.952 124.484 338.928H120.767C121.004 336.449 123.166 334.498 126.963 334.498C130.074 334.498 133.027 335.896 133.027 339.35V349H129.336V347.022H129.23C128.519 348.341 127.174 349.264 125.038 349.264C122.296 349.264 120.266 347.84 120.266 344.992ZM124.01 344.887C124.01 345.994 124.906 346.574 126.146 346.574C127.912 346.574 129.178 345.388 129.151 343.885V342.83C128.558 342.856 126.897 342.949 126.225 343.015C124.88 343.146 124.01 343.779 124.01 344.887Z" fill="#666666"/>
<path d="M111.934 349.29C107.557 349.29 104.867 346.442 104.867 341.907C104.867 337.478 107.583 334.498 111.775 334.498C115.546 334.498 118.499 336.871 118.499 341.749V342.856H108.717C108.717 345.019 110.009 346.363 112.013 346.363C113.331 346.363 114.28 345.783 114.676 344.913H118.394C117.84 347.55 115.467 349.29 111.934 349.29ZM108.717 340.404H114.808C114.808 338.664 113.595 337.425 111.854 337.425C110.062 337.425 108.783 338.756 108.717 340.404Z" fill="#666666"/>
<path d="M86.0938 349V329.91H90.0488V337.82H98.3281V329.91H102.31V349H98.3281V341.09H90.0488V349H86.0938Z" fill="#666666"/>
<path d="M64.208 344.939C62.2305 344.939 60.6484 343.357 60.6484 341.38C60.6484 339.429 62.2305 337.847 64.208 337.847C66.1592 337.847 67.7412 339.429 67.7412 341.38C67.7412 343.357 66.1592 344.939 64.208 344.939Z" fill="#666666"/>
<path d="M1621.96 326.436C1621.77 325.285 1620.75 324.528 1619.26 324.528C1617.81 324.528 1616.69 325.225 1616.72 326.224C1616.69 326.95 1617.29 327.525 1618.84 327.858L1621.77 328.464C1624.95 329.13 1626.5 330.553 1626.53 332.914C1626.5 336.153 1623.59 338.333 1619.23 338.333C1614.78 338.333 1612.18 336.335 1611.81 333.126H1616.33C1616.54 334.428 1617.6 335.094 1619.23 335.094C1620.87 335.094 1621.96 334.428 1621.96 333.368C1621.96 332.521 1621.26 332.006 1619.72 331.673L1616.99 331.128C1613.87 330.522 1612.24 328.888 1612.27 326.466C1612.24 323.317 1614.96 321.35 1619.2 321.35C1623.35 321.35 1625.92 323.317 1626.16 326.436H1621.96Z" fill="#666666"/>
<path d="M1600.49 338V321.562H1604.82V324.407H1605C1605.61 322.379 1607.12 321.319 1608.97 321.319C1609.42 321.319 1610 321.38 1610.39 321.471V325.467C1609.97 325.346 1609.12 325.225 1608.48 325.225C1606.46 325.225 1604.97 326.647 1604.97 328.646V338H1600.49Z" fill="#666666"/>
<path d="M1590.14 338.333C1585.11 338.333 1582.03 335.063 1582.03 329.856C1582.03 324.771 1585.14 321.35 1589.96 321.35C1594.29 321.35 1597.68 324.074 1597.68 329.675V330.946H1586.45C1586.45 333.429 1587.93 334.973 1590.23 334.973C1591.74 334.973 1592.83 334.307 1593.29 333.308H1597.56C1596.92 336.335 1594.2 338.333 1590.14 338.333ZM1586.45 328.131H1593.44C1593.44 326.133 1592.05 324.71 1590.05 324.71C1587.99 324.71 1586.52 326.239 1586.45 328.131Z" fill="#666666"/>
<path d="M1555.45 338V321.562H1559.71V324.438H1559.9C1560.59 322.53 1562.26 321.35 1564.47 321.35C1566.74 321.35 1568.4 322.53 1568.95 324.438H1569.1C1569.79 322.561 1571.64 321.35 1574.06 321.35C1577.12 321.35 1579.24 323.378 1579.24 326.95V338H1574.76V327.828C1574.76 325.951 1573.67 325.043 1572.19 325.043C1570.49 325.043 1569.52 326.224 1569.52 327.949V338H1565.16V327.707C1565.16 326.072 1564.13 325.043 1562.62 325.043C1561.11 325.043 1559.93 326.254 1559.93 328.131V338H1555.45Z" fill="#666666"/>
<path d="M1544.55 338.333C1539.58 338.333 1536.49 334.912 1536.49 329.826C1536.49 324.74 1539.58 321.35 1544.55 321.35C1549.51 321.35 1552.63 324.74 1552.63 329.826C1552.63 334.912 1549.51 338.333 1544.55 338.333ZM1544.58 334.852C1546.88 334.852 1548.06 332.702 1548.06 329.826C1548.06 326.92 1546.88 324.771 1544.58 324.771C1542.25 324.771 1541.04 326.92 1541.04 329.826C1541.04 332.702 1542.25 334.852 1544.58 334.852Z" fill="#666666"/>
<path d="M1534.53 321.562V324.922H1531.44V332.944C1531.44 334.246 1532.07 334.579 1532.98 334.609C1533.44 334.609 1534.22 334.579 1534.77 334.519V338.061C1534.28 338.151 1533.5 338.212 1532.38 338.212C1529.14 338.212 1526.93 336.759 1526.96 333.58V324.922H1524.69V321.562H1526.96V317.626H1531.44V321.562H1534.53Z" fill="#666666"/>
<path d="M1518.54 326.436C1518.36 325.285 1517.33 324.528 1515.85 324.528C1514.39 324.528 1513.27 325.225 1513.3 326.224C1513.27 326.95 1513.88 327.525 1515.42 327.858L1518.36 328.464C1521.54 329.13 1523.08 330.553 1523.11 332.914C1523.08 336.153 1520.18 338.333 1515.82 338.333C1511.37 338.333 1508.76 336.335 1508.4 333.126H1512.91C1513.12 334.428 1514.18 335.094 1515.82 335.094C1517.45 335.094 1518.54 334.428 1518.54 333.368C1518.54 332.521 1517.85 332.006 1516.3 331.673L1513.58 331.128C1510.46 330.522 1508.82 328.888 1508.85 326.466C1508.82 323.317 1511.55 321.35 1515.79 321.35C1519.93 321.35 1522.51 323.317 1522.75 326.436H1518.54Z" fill="#666666"/>
<path d="M1501.2 331.007V321.562H1505.68V338H1501.38V335.033H1501.2C1500.44 336.94 1498.68 338.212 1496.2 338.212C1492.9 338.212 1490.66 335.881 1490.66 332.036V321.562H1495.14V331.249C1495.14 333.187 1496.26 334.428 1498.02 334.428C1499.65 334.428 1501.2 333.247 1501.2 331.007Z" fill="#666666"/>
<path d="M1482.97 323.711C1482.61 321.289 1480.73 319.806 1478.19 319.806C1474.77 319.806 1472.53 322.439 1472.53 327.041C1472.53 331.764 1474.8 334.276 1478.16 334.276C1480.67 334.276 1482.52 332.884 1482.97 330.522L1487.57 330.553C1487.06 334.609 1483.67 338.303 1478.1 338.303C1472.22 338.303 1467.89 334.186 1467.89 327.041C1467.89 319.896 1472.31 315.779 1478.1 315.779C1483.15 315.779 1486.97 318.686 1487.57 323.711H1482.97Z" fill="#666666"/>
<path d="M1598.55 272.082V294H1594.07V272.082H1598.55Z" fill="#666666"/>
<path d="M1576 289.398C1576 285.735 1578.97 284.524 1582.12 284.343C1583.3 284.267 1585.51 284.161 1586.2 284.131V282.799C1586.17 281.437 1585.23 280.619 1583.57 280.619C1582.05 280.619 1581.09 281.315 1580.84 282.436H1576.58C1576.85 279.59 1579.33 277.35 1583.69 277.35C1587.26 277.35 1590.65 278.954 1590.65 282.92V294H1586.41V291.729H1586.29C1585.48 293.243 1583.93 294.303 1581.48 294.303C1578.33 294.303 1576 292.668 1576 289.398ZM1580.3 289.277C1580.3 290.549 1581.33 291.215 1582.75 291.215C1584.78 291.215 1586.23 289.853 1586.2 288.127V286.916C1585.52 286.946 1583.61 287.052 1582.84 287.128C1581.3 287.279 1580.3 288.006 1580.3 289.277Z" fill="#666666"/>
<path d="M1565.16 294V277.562H1569.49V280.407H1569.67C1570.28 278.379 1571.79 277.319 1573.64 277.319C1574.09 277.319 1574.67 277.38 1575.06 277.471V281.467C1574.64 281.346 1573.79 281.225 1573.16 281.225C1571.13 281.225 1569.64 282.647 1569.64 284.646V294H1565.16Z" fill="#666666"/>
<path d="M1554.81 294.333C1549.78 294.333 1546.7 291.063 1546.7 285.856C1546.7 280.771 1549.81 277.35 1554.63 277.35C1558.96 277.35 1562.35 280.074 1562.35 285.675V286.946H1551.12C1551.12 289.429 1552.6 290.973 1554.9 290.973C1556.41 290.973 1557.5 290.307 1557.96 289.308H1562.23C1561.59 292.335 1558.87 294.333 1554.81 294.333ZM1551.12 284.131H1558.11C1558.11 282.133 1556.72 280.71 1554.72 280.71C1552.66 280.71 1551.19 282.239 1551.12 284.131Z" fill="#666666"/>
<path d="M1533.32 284.494V294H1528.84V277.562H1533.1V280.438H1533.29C1534.04 278.53 1535.8 277.35 1538.22 277.35C1541.64 277.35 1543.91 279.681 1543.88 283.525V294H1539.43V284.312C1539.43 282.284 1538.31 281.073 1536.46 281.073C1534.59 281.073 1533.32 282.314 1533.32 284.494Z" fill="#666666"/>
<path d="M1518.48 294.333C1513.46 294.333 1510.37 291.063 1510.37 285.856C1510.37 280.771 1513.49 277.35 1518.3 277.35C1522.63 277.35 1526.02 280.074 1526.02 285.675V286.946H1514.79C1514.79 289.429 1516.27 290.973 1518.57 290.973C1520.08 290.973 1521.17 290.307 1521.63 289.308H1525.9C1525.26 292.335 1522.54 294.333 1518.48 294.333ZM1514.79 284.131H1521.78C1521.78 282.133 1520.39 280.71 1518.39 280.71C1516.33 280.71 1514.86 282.239 1514.79 284.131Z" fill="#666666"/>
<path d="M1502.98 279.136C1502.38 277.077 1500.71 275.806 1498.32 275.806C1494.93 275.806 1492.63 278.409 1492.63 283.011C1492.63 287.643 1494.87 290.276 1498.35 290.276C1501.48 290.276 1503.34 288.505 1503.41 285.735H1498.65V282.314H1507.79V285.039C1507.79 290.791 1503.86 294.303 1498.32 294.303C1492.17 294.303 1488 290.004 1488 283.071C1488 275.957 1492.45 271.779 1498.23 271.779C1503.16 271.779 1506.98 274.807 1507.58 279.136H1502.98Z" fill="#666666"/>
<path d="M903.539 391.082V413H899.059V391.082H903.539Z" fill="white"/>
<path d="M888.16 413.333C883.195 413.333 880.107 409.912 880.107 404.826C880.107 399.74 883.195 396.35 888.16 396.35C893.125 396.35 896.243 399.74 896.243 404.826C896.243 409.912 893.125 413.333 888.16 413.333ZM888.19 409.852C890.491 409.852 891.672 407.702 891.672 404.826C891.672 401.92 890.491 399.771 888.19 399.771C885.859 399.771 884.648 401.92 884.648 404.826C884.648 407.702 885.859 409.852 888.19 409.852Z" fill="white"/>
<path d="M869.209 413V396.562H873.538V399.407H873.72C874.325 397.379 875.839 396.319 877.686 396.319C878.14 396.319 878.715 396.38 879.108 396.471V400.467C878.685 400.346 877.837 400.225 877.201 400.225C875.173 400.225 873.689 401.647 873.689 403.646V413H869.209Z" fill="white"/>
<path d="M866.394 396.562V399.922H863.306V407.944C863.306 409.246 863.941 409.579 864.85 409.609C865.304 409.609 866.091 409.579 866.636 409.519V413.061C866.151 413.151 865.364 413.212 864.244 413.212C861.005 413.212 858.795 411.759 858.825 408.58V399.922H856.555V396.562H858.825V392.626H863.306V396.562H866.394Z" fill="white"/>
<path d="M843.688 403.494V413H839.207V396.562H843.476V399.438H843.657C844.414 397.53 846.17 396.35 848.592 396.35C852.013 396.35 854.283 398.681 854.253 402.525V413H849.803V403.312C849.803 401.284 848.683 400.073 846.836 400.073C844.959 400.073 843.688 401.314 843.688 403.494Z" fill="white"/>
<path d="M828.311 413.333C823.346 413.333 820.258 409.912 820.258 404.826C820.258 399.74 823.346 396.35 828.311 396.35C833.275 396.35 836.394 399.74 836.394 404.826C836.394 409.912 833.275 413.333 828.311 413.333ZM828.341 409.852C830.642 409.852 831.822 407.702 831.822 404.826C831.822 401.92 830.642 399.771 828.341 399.771C826.01 399.771 824.799 401.92 824.799 404.826C824.799 407.702 826.01 409.852 828.341 409.852Z" fill="white"/>
<path d="M813.232 398.711C812.869 396.289 810.992 394.806 808.449 394.806C805.028 394.806 802.788 397.439 802.788 402.041C802.788 406.764 805.059 409.276 808.419 409.276C810.932 409.276 812.778 407.884 813.232 405.522L817.834 405.553C817.319 409.609 813.929 413.303 808.358 413.303C802.485 413.303 798.156 409.186 798.156 402.041C798.156 394.896 802.576 390.779 808.358 390.779C813.414 390.779 817.229 393.686 817.834 398.711H813.232Z" fill="white"/>
<path d="M928.969 359.333C924.428 359.333 921.643 356.639 921.643 353.188C921.643 350.614 923.262 349.085 925.669 347.436C924.488 345.967 923.55 344.363 923.55 342.41C923.55 339.231 925.911 336.779 929.514 336.779C933.025 336.779 935.175 339.141 935.175 341.926C935.175 344.015 934.115 345.649 932.269 346.981L930.997 347.92L934.66 352.128C935.22 351.053 935.568 349.767 935.568 348.344H939.292C939.292 351.326 938.52 353.611 937.324 355.216L940.624 359H935.932L934.6 357.486C932.98 358.773 930.906 359.333 928.969 359.333ZM926.002 352.945C926.002 354.52 927.243 355.7 929.181 355.7C930.195 355.7 931.224 355.382 932.178 354.792L927.97 350.1L927.818 350.221C926.577 351.129 926.002 352.098 926.002 352.945ZM927.395 342.471C927.395 343.394 927.97 344.317 928.817 345.347L929.968 344.59C931.058 343.894 931.572 343.137 931.572 342.168C931.572 341.32 930.846 340.412 929.544 340.412C928.272 340.412 927.395 341.351 927.395 342.471Z" fill="white"/>
<path d="M910.804 365.509C906.263 365.509 903.478 363.48 903.205 360.362H907.625C907.867 361.664 909.108 362.27 910.895 362.27C912.983 362.27 914.376 361.392 914.376 359.091V356.094H914.164C913.559 357.426 912.105 358.758 909.472 358.758C905.748 358.758 902.781 356.154 902.781 350.675C902.781 345.104 905.839 342.35 909.472 342.35C912.227 342.35 913.559 343.984 914.164 345.316H914.346V342.562H918.796V359.182C918.796 363.359 915.466 365.509 910.804 365.509ZM910.864 355.397C913.104 355.397 914.376 353.642 914.376 350.735C914.376 347.799 913.104 345.922 910.864 345.922C908.594 345.922 907.383 347.89 907.383 350.735C907.383 353.581 908.594 355.397 910.864 355.397Z" fill="white"/>
<path d="M889.371 349.494V359H884.891V342.562H889.159V345.438H889.341C890.098 343.53 891.854 342.35 894.275 342.35C897.696 342.35 899.967 344.681 899.937 348.525V359H895.486V349.312C895.486 347.284 894.366 346.073 892.52 346.073C890.643 346.073 889.371 347.314 889.371 349.494Z" fill="white"/>
<path d="M876.929 359V342.562H881.409V359H876.929ZM879.169 340.412C877.807 340.412 876.717 339.383 876.717 338.142C876.717 336.87 877.807 335.841 879.169 335.841C880.501 335.841 881.591 336.87 881.591 338.142C881.591 339.383 880.501 340.412 879.169 340.412Z" fill="white"/>
<path d="M864.85 359V342.562H869.179V345.407H869.36C869.966 343.379 871.479 342.319 873.326 342.319C873.78 342.319 874.355 342.38 874.749 342.471V346.467C874.325 346.346 873.478 346.225 872.842 346.225C870.813 346.225 869.33 347.647 869.33 349.646V359H864.85Z" fill="white"/>
<path d="M853.951 359.333C848.986 359.333 845.898 355.912 845.898 350.826C845.898 345.74 848.986 342.35 853.951 342.35C858.916 342.35 862.034 345.74 862.034 350.826C862.034 355.912 858.916 359.333 853.951 359.333ZM853.981 355.852C856.282 355.852 857.463 353.702 857.463 350.826C857.463 347.92 856.282 345.771 853.981 345.771C851.65 345.771 850.439 347.92 850.439 350.826C850.439 353.702 851.65 355.852 853.981 355.852Z" fill="white"/>
<path d="M843.931 342.562V345.922H840.843V353.944C840.843 355.246 841.479 355.579 842.387 355.609C842.841 355.609 843.628 355.579 844.173 355.519V359.061C843.688 359.151 842.901 359.212 841.781 359.212C838.542 359.212 836.332 357.759 836.362 354.58V345.922H834.092V342.562H836.362V338.626H840.843V342.562H843.931Z" fill="white"/>
<path d="M827.31 359V342.562H831.79V359H827.31ZM829.55 340.412C828.188 340.412 827.098 339.383 827.098 338.142C827.098 336.87 828.188 335.841 829.55 335.841C830.882 335.841 831.972 336.87 831.972 338.142C831.972 339.383 830.882 340.412 829.55 340.412Z" fill="white"/>
<path d="M813.264 349.494V359H808.783V342.562H813.052V345.438H813.233C813.99 343.53 815.746 342.35 818.168 342.35C821.589 342.35 823.859 344.681 823.829 348.525V359H819.379V349.312C819.379 347.284 818.259 346.073 816.412 346.073C814.535 346.073 813.264 347.314 813.264 349.494Z" fill="white"/>
<path d="M797.885 359.333C792.92 359.333 789.832 355.912 789.832 350.826C789.832 345.74 792.92 342.35 797.885 342.35C802.85 342.35 805.968 345.74 805.968 350.826C805.968 355.912 802.85 359.333 797.885 359.333ZM797.915 355.852C800.216 355.852 801.396 353.702 801.396 350.826C801.396 347.92 800.216 345.771 797.915 345.771C795.584 345.771 794.373 347.92 794.373 350.826C794.373 353.702 795.584 355.852 797.915 355.852Z" fill="white"/>
<path d="M763.223 337.082H768.854L774.938 351.946H775.181L781.266 337.082H786.896V359H782.477V344.65H782.295L776.573 358.909H773.546L767.824 344.59H767.643V359H763.223V337.082Z" fill="white"/>
<path d="M954.036 293.436C953.854 292.285 952.825 291.528 951.342 291.528C949.889 291.528 948.769 292.225 948.799 293.224C948.769 293.95 949.374 294.525 950.918 294.858L953.854 295.464C957.033 296.13 958.577 297.553 958.607 299.914C958.577 303.153 955.671 305.333 951.312 305.333C946.861 305.333 944.258 303.335 943.895 300.126H948.405C948.617 301.428 949.677 302.094 951.312 302.094C952.946 302.094 954.036 301.428 954.036 300.368C954.036 299.521 953.34 299.006 951.796 298.673L949.071 298.128C945.953 297.522 944.318 295.888 944.349 293.466C944.318 290.317 947.043 288.35 951.281 288.35C955.429 288.35 958.002 290.317 958.244 293.436H954.036Z" fill="white"/>
<path d="M936.688 298.007V288.562H941.168V305H936.869V302.033H936.688C935.931 303.94 934.175 305.212 931.692 305.212C928.393 305.212 926.152 302.881 926.152 299.036V288.562H930.633V298.249C930.633 300.187 931.753 301.428 933.509 301.428C935.144 301.428 936.688 300.247 936.688 298.007Z" fill="white"/>
<path d="M923.339 288.562V291.922H920.251V299.944C920.251 301.246 920.887 301.579 921.795 301.609C922.249 301.609 923.036 301.579 923.581 301.519V305.061C923.097 305.151 922.31 305.212 921.189 305.212C917.95 305.212 915.74 303.759 915.771 300.58V291.922H913.5V288.562H915.771V284.626H920.251V288.562H923.339Z" fill="white"/>
<path d="M896.605 300.398C896.605 296.735 899.572 295.524 902.721 295.343C903.901 295.267 906.111 295.161 906.808 295.131V293.799C906.777 292.437 905.839 291.619 904.174 291.619C902.66 291.619 901.691 292.315 901.449 293.436H897.181C897.453 290.59 899.936 288.35 904.295 288.35C907.867 288.35 911.258 289.954 911.258 293.92V305H907.02V302.729H906.898C906.081 304.243 904.537 305.303 902.085 305.303C898.937 305.303 896.605 303.668 896.605 300.398ZM900.904 300.277C900.904 301.549 901.934 302.215 903.356 302.215C905.385 302.215 906.838 300.853 906.808 299.127V297.916C906.126 297.946 904.219 298.052 903.447 298.128C901.903 298.279 900.904 299.006 900.904 300.277Z" fill="white"/>
<path d="M894.577 288.562V291.922H891.489V299.944C891.489 301.246 892.125 301.579 893.033 301.609C893.487 301.609 894.274 301.579 894.819 301.519V305.061C894.335 305.151 893.548 305.212 892.428 305.212C889.188 305.212 886.979 303.759 887.009 300.58V291.922H884.738V288.562H887.009V284.626H891.489V288.562H894.577Z" fill="white"/>
<path d="M878.382 289.349C878.2 287.623 876.808 286.594 874.598 286.594C872.297 286.594 871.025 287.653 870.995 289.106C870.965 290.681 872.63 291.407 874.507 291.831L876.475 292.315C880.229 293.163 883.044 295.07 883.044 298.733C883.044 302.76 879.896 305.303 874.567 305.303C869.27 305.303 865.879 302.851 865.758 298.158H870.178C870.329 300.368 872.085 301.488 874.507 301.488C876.898 301.488 878.442 300.368 878.442 298.733C878.442 297.25 877.08 296.554 874.688 295.948L872.297 295.373C868.604 294.465 866.333 292.618 866.333 289.409C866.333 285.413 869.845 282.779 874.628 282.779C879.472 282.779 882.681 285.474 882.741 289.349H878.382Z" fill="white"/>
<path d="M844.445 311.176C843.567 311.176 842.75 311.146 842.175 311.085V307.604C842.75 307.634 843.416 307.664 843.991 307.664C844.869 307.664 845.596 307.573 846.141 306.15L846.413 305.454L840.51 288.562H845.202L848.653 300.671H848.835L852.316 288.562H857.069L850.651 306.816C849.713 309.45 847.927 311.176 844.445 311.176Z" fill="white"/>
<path d="M838.995 288.562V291.922H835.907V299.944C835.907 301.246 836.543 301.579 837.451 301.609C837.905 301.609 838.692 301.579 839.237 301.519V305.061C838.753 305.151 837.966 305.212 836.846 305.212C833.606 305.212 831.396 303.759 831.427 300.58V291.922H829.156V288.562H831.427V284.626H835.907V288.562H838.995Z" fill="white"/>
<path d="M822.376 305V288.562H826.856V305H822.376ZM824.616 286.412C823.254 286.412 822.164 285.383 822.164 284.142C822.164 282.87 823.254 281.841 824.616 281.841C825.948 281.841 827.038 282.87 827.038 284.142C827.038 285.383 825.948 286.412 824.616 286.412Z" fill="white"/>
<path d="M810.297 305V288.562H814.626V291.407H814.808C815.413 289.379 816.927 288.319 818.773 288.319C819.228 288.319 819.803 288.38 820.196 288.471V292.467C819.772 292.346 818.925 292.225 818.289 292.225C816.261 292.225 814.777 293.647 814.777 295.646V305H810.297Z" fill="white"/>
<path d="M802.336 298.007V288.562H806.816V305H802.518V302.033H802.336C801.579 303.94 799.823 305.212 797.341 305.212C794.041 305.212 791.801 302.881 791.801 299.036V288.562H796.281V298.249C796.281 300.187 797.401 301.428 799.157 301.428C800.792 301.428 802.336 300.247 802.336 298.007Z" fill="white"/>
<path d="M781.719 305.333C776.693 305.333 773.666 301.852 773.666 296.826C773.666 291.801 776.724 288.35 781.719 288.35C785.957 288.35 788.833 290.832 789.015 294.586H784.807C784.534 292.951 783.475 291.831 781.779 291.831C779.63 291.831 778.207 293.647 778.207 296.766C778.207 299.944 779.6 301.761 781.779 301.761C783.354 301.761 784.534 300.792 784.807 299.036H789.015C788.803 302.76 786.078 305.333 781.719 305.333Z" fill="white"/>
<path d="M763.979 305.333C758.953 305.333 755.865 302.063 755.865 296.856C755.865 291.771 758.983 288.35 763.797 288.35C768.126 288.35 771.517 291.074 771.517 296.675V297.946H760.285C760.285 300.429 761.769 301.973 764.069 301.973C765.583 301.973 766.673 301.307 767.127 300.308H771.396C770.76 303.335 768.035 305.333 763.979 305.333ZM760.285 295.131H767.278C767.278 293.133 765.886 291.71 763.888 291.71C761.829 291.71 760.361 293.239 760.285 295.131Z" fill="white"/>
<path d="M748.993 289.349C748.812 287.623 747.419 286.594 745.209 286.594C742.908 286.594 741.637 287.653 741.606 289.106C741.576 290.681 743.241 291.407 745.118 291.831L747.086 292.315C750.84 293.163 753.655 295.07 753.655 298.733C753.655 302.76 750.507 305.303 745.179 305.303C739.881 305.303 736.49 302.851 736.369 298.158H740.789C740.94 300.368 742.696 301.488 745.118 301.488C747.51 301.488 749.054 300.368 749.054 298.733C749.054 297.25 747.691 296.554 745.3 295.948L742.908 295.373C739.215 294.465 736.944 292.618 736.944 289.409C736.944 285.413 740.456 282.779 745.239 282.779C750.083 282.779 753.292 285.474 753.353 289.349H748.993Z" fill="white"/>
<path d="M923.51 251.44C916.863 251.44 912.779 247.116 912.779 240.229C912.779 233.503 916.903 228.979 923.27 228.979C928.995 228.979 933.479 232.582 933.479 239.989V241.671H918.625C918.625 244.954 920.587 246.996 923.63 246.996C925.632 246.996 927.073 246.115 927.674 244.794H933.319C932.479 248.798 928.875 251.44 923.51 251.44ZM918.625 237.947H927.874C927.874 235.305 926.032 233.423 923.39 233.423C920.667 233.423 918.725 235.445 918.625 237.947Z" fill="white"/>
<path d="M877.625 251V229.259H883.271V233.062H883.511C884.432 230.54 886.634 228.979 889.557 228.979C892.56 228.979 894.762 230.54 895.482 233.062H895.683C896.604 230.58 899.046 228.979 902.249 228.979C906.293 228.979 909.096 231.661 909.096 236.386V251H903.17V237.547C903.17 235.064 901.729 233.863 899.767 233.863C897.524 233.863 896.243 235.425 896.243 237.707V251H890.478V237.387C890.478 235.225 889.116 233.863 887.114 233.863C885.112 233.863 883.551 235.465 883.551 237.947V251H877.625Z" fill="white"/>
<path d="M867.095 251V229.259H873.021V251H867.095ZM870.058 226.416C868.256 226.416 866.814 225.055 866.814 223.413C866.814 221.731 868.256 220.37 870.058 220.37C871.819 220.37 873.261 221.731 873.261 223.413C873.261 225.055 871.819 226.416 870.058 226.416Z" fill="white"/>
<path d="M863.372 229.259V233.703H859.288V244.313C859.288 246.035 860.129 246.476 861.33 246.516C861.931 246.516 862.972 246.476 863.692 246.396V251.08C863.052 251.2 862.011 251.28 860.529 251.28C856.245 251.28 853.322 249.358 853.362 245.154V233.703H850.359V229.259H853.362V224.054H859.288V229.259H863.372Z" fill="white"/>
<path d="M847.316 222.012V251H841.391V222.012H847.316Z" fill="white"/>
<path d="M817.486 244.914C817.486 240.069 821.41 238.468 825.574 238.228C827.136 238.127 830.059 237.987 830.979 237.947V236.186C830.939 234.384 829.698 233.303 827.496 233.303C825.494 233.303 824.213 234.224 823.893 235.705H818.247C818.607 231.941 821.891 228.979 827.656 228.979C832.381 228.979 836.865 231.101 836.865 236.346V251H831.26V247.997H831.1C830.019 249.999 827.977 251.4 824.733 251.4C820.569 251.4 817.486 249.238 817.486 244.914ZM823.172 244.754C823.172 246.436 824.533 247.316 826.415 247.316C829.098 247.316 831.02 245.515 830.979 243.232V241.631C830.079 241.671 827.556 241.811 826.535 241.911C824.493 242.111 823.172 243.072 823.172 244.754Z" fill="white"/>
<path d="M804.834 251.44C798.188 251.44 794.104 247.116 794.104 240.229C794.104 233.503 798.228 228.979 804.594 228.979C810.319 228.979 814.804 232.582 814.804 239.989V241.671H799.949C799.949 244.954 801.911 246.996 804.954 246.996C806.956 246.996 808.397 246.115 808.998 244.794H814.644C813.803 248.798 810.199 251.44 804.834 251.44ZM799.949 237.947H809.198C809.198 235.305 807.356 233.423 804.714 233.423C801.991 233.423 800.049 235.445 799.949 237.947Z" fill="white"/>
<path d="M769.561 251V222.012H780.932C787.538 222.012 791.302 225.735 791.302 231.461C791.302 235.425 789.48 238.308 786.177 239.709L792.343 251H785.696L780.171 240.71H775.566V251H769.561ZM775.566 235.825H779.811C783.374 235.825 785.096 234.344 785.096 231.461C785.096 228.538 783.374 226.937 779.811 226.937H775.566V235.825Z" fill="white"/>
</svg>
